<?xml version="1.0" encoding="UTF-8"?>
<!DOCTYPE svg PUBLIC "-//W3C//DTD SVG 1.1//EN" "http://www.w3.org/Graphics/SVG/1.1/DTD/svg11.dtd">
<!-- Creator: CorelDRAW -->
<svg xmlns="http://www.w3.org/2000/svg" xml:space="preserve" width="6.82666in" height="6.82666in" style="shape-rendering:geometricPrecision; text-rendering:geometricPrecision; image-rendering:optimizeQuality; fill-rule:evenodd; clip-rule:evenodd"
viewBox="0 0 6.82666 6.82666"
 xmlns:xlink="http://www.w3.org/1999/xlink">
 <defs>
  <style type="text/css">
   <![CDATA[
    .fil2 {fill:none}
    .fil1 {fill:#424242}
    .fil0 {fill:#64B5F6}
   ]]>
  </style>
 </defs>
 <g id="Layer_x0020_1">
  <metadata id="CorelCorpID_0Corel-Layer"/>
  <g id="_276298360">
   <path id="_276297856" class="fil0" d="M4.60981 2.85824l-0.62678 0.36187 -0.121276 -0.121291 -0.206209 -0.206205c-0.143303,0.17076 -0.32315,0.29402 -0.557953,0.308598 -0.255457,0.0158583 -0.511807,-0.101539 -0.739941,-0.203382 -0.130539,-0.0582756 -0.285323,-0.121343 -0.427547,-0.142311 -0.080937,-0.0119331 -0.157358,-0.00987795 -0.233307,0.0228071 -0.0895236,0.0385315 -0.174654,0.11763 -0.246524,0.182295 -0.125012,0.112469 -0.244744,0.216583 -0.384394,0.311685l-0.212551 0.144748 0.0581535 -0.250492c0.0742362,-0.31976 0.217398,-0.668996 0.53713,-0.811622 0.343492,-0.153228 0.769496,-0.00966142 1.09151,0.134094 0.38374,0.171307 0.641984,0.275004 0.890602,-0.156071l0.146087 -0.253299 0.480776 0.480772 0.626768 -0.361862 0.121283 0.121272 0.387941 0.387937 0.462638 -0.462634 0.31711 0.31711 -0.779752 0.77974 -0.583768 -0.58376z"/>
   <path id="_276298192" class="fil1" d="M4.60981 3.98818l-0.62678 0.36187 -0.121276 -0.121291 -0.206209 -0.206205c-0.143303,0.17076 -0.32315,0.29402 -0.557953,0.308598 -0.255457,0.0158583 -0.511807,-0.101539 -0.739941,-0.203382 -0.130539,-0.0582756 -0.285323,-0.121343 -0.427547,-0.142311 -0.080937,-0.0119331 -0.157358,-0.00987795 -0.233307,0.022811 -0.0895236,0.0385315 -0.174654,0.11763 -0.246524,0.182291 -0.125012,0.112469 -0.244744,0.216587 -0.384394,0.311685l-0.212551 0.144748 0.0581535 -0.250492c0.0742362,-0.31976 0.217398,-0.668996 0.53713,-0.811622 0.343492,-0.153228 0.769496,-0.00966142 1.09151,0.134094 0.38374,0.171307 0.641984,0.275004 0.890602,-0.156071l0.146087 -0.253295 0.480776 0.480768 0.626768 -0.361858 0.121283 0.121268 0.387941 0.387937 0.462638 -0.462634 0.31711 0.31711 -0.779752 0.77974 -0.583768 -0.58376z"/>
  </g>
 </g>
 <rect class="fil2" width="6.82666" height="6.82666"/>
</svg>
