<?xml version="1.0" encoding="UTF-8"?>
<!DOCTYPE svg PUBLIC "-//W3C//DTD SVG 1.1//EN" "http://www.w3.org/Graphics/SVG/1.1/DTD/svg11.dtd">
<!-- Creator: CorelDRAW -->
<svg xmlns="http://www.w3.org/2000/svg" xml:space="preserve" width="6.82666in" height="6.82666in" style="shape-rendering:geometricPrecision; text-rendering:geometricPrecision; image-rendering:optimizeQuality; fill-rule:evenodd; clip-rule:evenodd"
viewBox="0 0 6.82666 6.82666"
 xmlns:xlink="http://www.w3.org/1999/xlink">
 <defs>
  <style type="text/css">
   <![CDATA[
    .fil2 {fill:none}
    .fil1 {fill:#424242}
    .fil0 {fill:#64B5F6}
   ]]>
  </style>
 </defs>
 <g id="Layer_x0020_1">
  <metadata id="CorelCorpID_0Corel-Layer"/>
  <path class="fil0" d="M3.43751 2.31724c0.0825354,-0.314764 0.285071,-0.653724 0.756047,-0.810118 0.904264,-0.289362 1.69853,0.520756 1.7727,1.28621 0.0435591,0.449571 -0.119047,0.799819 -0.357161,0.927429 -0.212535,0.113894 -0.742228,-0.00911024 -0.64235,-0.523169 0.160941,0.208024 0.337882,0.22061 0.393154,0.210917 0.315433,-0.0553071 0.162996,-1.45894 -0.775819,-1.28481 -0.212457,0.0394094 -0.412413,0.183965 -0.491213,0.374693 -0.13426,-0.0864488 -0.288185,-0.13976 -0.44552,-0.164839 -0.0646181,-0.0102992 -0.141555,-0.0180906 -0.209843,-0.016315z"/>
  <path class="fil1" d="M4.3855 3.08864c0.274945,-0.109764 0.561713,-0.302469 0.665146,-0.640839 -0.383012,0.0762047 -0.643933,0.186874 -0.831598,0.305909 -0.187661,0.119031 0.166453,0.334929 0.166453,0.334929z"/>
  <path class="fil0" d="M3.38944 2.31835c-0.0823504,-0.315075 -0.284811,-0.65465 -0.756339,-0.811224 -0.904264,-0.289362 -1.69853,0.520756 -1.7727,1.28621 -0.0435591,0.449571 0.119047,0.799819 0.357161,0.927429 0.212535,0.113894 0.742228,-0.00911024 0.64235,-0.523169 -0.160941,0.208024 -0.337882,0.22061 -0.393154,0.210917 -0.315433,-0.0553071 -0.162996,-1.45894 0.775819,-1.28481 0.21487,0.0398543 0.416945,0.187268 0.493839,0.381217 0.125937,-0.0831772 0.269406,-0.136008 0.417594,-0.163677 0.0810827,-0.0151378 0.154961,-0.0207402 0.235433,-0.0228937z"/>
  <path class="fil1" d="M2.44116 3.08864c-0.274945,-0.109764 -0.561713,-0.302469 -0.665146,-0.640839 0.383012,0.0762047 0.643933,0.186874 0.831598,0.305909 0.187661,0.119031 -0.166453,0.334929 -0.166453,0.334929z"/>
  <path class="fil1" d="M3.4753 5.37957c0.556543,-0.119626 0.627618,-0.821406 0.627618,-0.821406 0,-0.457157 0.341642,-0.914311 0.341642,-0.914311 0.101602,-1.29159 -1.02492,-1.21907 -1.02492,-1.21907 0,0 -1.12652,-0.0725157 -1.02492,1.21907 0,0 0.341642,0.457154 0.341642,0.914311 0,0 0.0710748,0.701783 0.62763,0.821406l0 -0.339075c-0.156602,0.00575984 -0.258724,-0.172894 -0.258724,-0.172894 -0.220028,-0.286039 0.242024,-0.264039 0.242024,-0.264039l0.0723543 0.00611417 0.0723465 -0.00611417c0,0 0.462059,-0.022 0.242031,0.264039 0,0 -0.102126,0.178654 -0.258724,0.172894l0 0.339075zm-0.568067 -2.25249c-0.0836102,-0.0482677 -0.181413,-0.0353858 -0.218461,0.0287795 -0.0370472,0.0641614 0.000700787,0.155303 0.084311,0.203579 0.0836102,0.0482717 0.181413,0.0353819 0.218457,-0.0287795 0.0370433,-0.0641614 -0.000704724,-0.155303 -0.0843071,-0.203579zm1.02481 0c0.0836102,-0.0482677 0.181413,-0.0353858 0.218457,0.0287795 0.0370433,0.0641614 -0.000700787,0.155303 -0.0843071,0.203579 -0.0836102,0.0482717 -0.181413,0.0353819 -0.218457,-0.0287795 -0.0370472,-0.0641614 0.00069685,-0.155303 0.0843071,-0.203579z"/>
 </g>
 <rect class="fil2" width="6.82666" height="6.82666"/>
</svg>
