<?xml version="1.0" encoding="UTF-8"?>
<!DOCTYPE svg PUBLIC "-//W3C//DTD SVG 1.1//EN" "http://www.w3.org/Graphics/SVG/1.1/DTD/svg11.dtd">
<!-- Creator: CorelDRAW -->
<svg xmlns="http://www.w3.org/2000/svg" xml:space="preserve" width="6.82666in" height="6.82666in" style="shape-rendering:geometricPrecision; text-rendering:geometricPrecision; image-rendering:optimizeQuality; fill-rule:evenodd; clip-rule:evenodd"
viewBox="0 0 6.82666 6.82666"
 xmlns:xlink="http://www.w3.org/1999/xlink">
 <defs>
  <style type="text/css">
   <![CDATA[
    .fil3 {fill:none}
    .fil2 {fill:#424242}
    .fil0 {fill:#64B5F6}
    .fil1 {fill:#424242;fill-rule:nonzero}
   ]]>
  </style>
 </defs>
 <g id="Layer_x0020_1">
  <metadata id="CorelCorpID_0Corel-Layer"/>
  <g id="_276287536">
   <path id="_276287776" class="fil0" d="M1.68968 2.33886l0.0266732 -0.0952795 -0.518799 -0.0416378c-0.080189,0.613213 0.269811,1.00417 0.535772,1.2078 0.0774961,-0.0804606 0.162724,-0.154024 0.252823,-0.220228 -0.174591,-0.151594 -0.364555,-0.42085 -0.296469,-0.85065z"/>
   <path id="_276288400" class="fil0" d="M1.81376 1.77133l0.757303 -0.415772c0.183756,0.760213 -0.699594,1.23815 -1.37352,0.846386 0,0 -0.363831,-1.25474 1.1285,-1.23988l-0.512291 0.809268z"/>
   <path id="_276286936" class="fil0" d="M5.01289 1.77133l-0.757303 -0.415772c-0.183756,0.760213 0.699594,1.23815 1.37352,0.846386 0,0 0.363831,-1.25474 -1.1285,-1.23988l0.512291 0.809268z"/>
   <path id="_276286960" class="fil0" d="M5.13698 2.33886l-0.0266732 -0.0952795 0.518799 -0.0416378c0.080189,0.613209 -0.269807,1.00416 -0.535768,1.20779 -0.0775079,-0.0804488 -0.162693,-0.154008 -0.252819,-0.220232 0.174587,-0.151598 0.364547,-0.42085 0.296461,-0.850642z"/>
  </g>
  <path class="fil1" d="M2.48365 5.15657c0.0405,-0.0425709 0.0388228,-0.109917 -0.00374803,-0.150417 -0.0425709,-0.0405 -0.109917,-0.0388228 -0.150417,0.00374803 -0.267449,0.280957 -0.476394,0.699276 -0.477004,0.700488 -0.0264606,0.0524646 -0.00538189,0.116457 0.0470827,0.142917 0.0524646,0.0264606 0.116457,0.00538189 0.142917,-0.0470827 0.000566929,-0.00112992 0.195748,-0.391839 0.441169,-0.649654z"/>
  <path class="fil1" d="M2.0366 4.72834c0.0566063,-0.0156457 0.089811,-0.0742283 0.0741654,-0.130835 -0.0156457,-0.0566063 -0.0742283,-0.089811 -0.130835,-0.0741654 -0.115386,0.0318622 -0.260528,0.0834764 -0.421909,0.166917 -0.160689,0.0830787 -0.338181,0.19802 -0.519516,0.356965 -0.0441811,0.0386575 -0.0486575,0.105819 -0.01,0.15 0.0386575,0.0441811 0.105819,0.0486575 0.15,0.01 0.166571,-0.146008 0.329531,-0.251547 0.47702,-0.327799 0.146787,-0.0758937 0.277579,-0.122504 0.381075,-0.151083z"/>
  <path class="fil1" d="M1.73833 4.1405c0.0508543,0.0292244 0.115776,0.011689 0.145,-0.0391654 0.0292244,-0.0508543 0.011689,-0.115776 -0.0391654,-0.145 -0.101264,-0.0584134 -0.303087,-0.181094 -0.479232,-0.326409 -0.160654,-0.132535 -0.298272,-0.279929 -0.298272,-0.395949 0,-0.0589094 -0.0477598,-0.106669 -0.106669,-0.106669 -0.0589094,0 -0.106669,0.0477598 -0.106669,0.106669 0,0.193071 0.173764,0.392772 0.37661,0.560114 0.187346,0.154555 0.401173,0.284559 0.508398,0.346409z"/>
  <path class="fil1" d="M4.49717 5.00991c-0.0405,-0.0425709 -0.107846,-0.044248 -0.150417,-0.00374803 -0.0425709,0.0405 -0.044248,0.107846 -0.00374803,0.150417 0.245421,0.257815 0.440602,0.648524 0.441169,0.649654 0.0264606,0.0524646 0.0904528,0.0735433 0.142917,0.0470827 0.0524646,-0.0264606 0.0735433,-0.0904528 0.0470827,-0.142917 -0.000610236,-0.0012126 -0.209555,-0.419531 -0.477004,-0.700488z"/>
  <path class="fil1" d="M4.84673 4.52334c-0.0566063,-0.0156457 -0.115189,0.0175591 -0.130835,0.0741654 -0.0156457,0.0566063 0.0175591,0.115189 0.0741654,0.130835 0.103496,0.0285827 0.234287,0.075189 0.381075,0.151083 0.147488,0.076252 0.310445,0.181787 0.477016,0.327795 0.0441811,0.0386575 0.111343,0.0341811 0.15,-0.01 0.0386575,-0.0441811 0.0341811,-0.111343 -0.01,-0.15 -0.181335,-0.158945 -0.358827,-0.273886 -0.519512,-0.356961 -0.161382,-0.0834409 -0.306524,-0.135051 -0.421909,-0.166917z"/>
  <path class="fil1" d="M4.98249 3.95633c-0.0508543,0.0292244 -0.0683898,0.0941457 -0.0391654,0.145 0.0292244,0.0508543 0.0941457,0.0683898 0.145,0.0391654 0.133098,-0.0767717 0.430102,-0.258409 0.638945,-0.463028 0.142031,-0.139157 0.246059,-0.292598 0.246059,-0.443496 0,-0.0589094 -0.0477598,-0.106669 -0.106669,-0.106669 -0.0589094,0 -0.106669,0.0477598 -0.106669,0.106669 0,0.0847047 -0.0769016,0.188965 -0.181886,0.291827 -0.19226,0.18837 -0.470646,0.358449 -0.595614,0.430531z"/>
  <path class="fil2" d="M3.41333 5.51744c0,0 -1.6429,-0.0810079 -1.72154,-1.89369 0,0 0.517917,-0.679906 1.72154,-0.770339 1.20362,0.0904331 1.72154,0.770339 1.72154,0.770339 -0.0786339,1.81268 -1.72154,1.89369 -1.72154,1.89369z"/>
  <path class="fil1" d="M3.03996 2.05907c-0.0338268,-0.0480906 -0.100244,-0.0596575 -0.148335,-0.0258307 -0.0480906,0.0338268 -0.0596575,0.100244 -0.0258307,0.148335 0.000862205,0.00123228 0.304795,0.425669 0.0989488,0.825776 -0.0269213,0.0522362 -0.00640551,0.116413 0.0458307,0.143335 0.0522362,0.0269213 0.116413,0.00640551 0.143335,-0.0458307 0.265555,-0.516169 -0.112874,-1.04425 -0.113949,-1.04578z"/>
  <path class="fil1" d="M3.9458 2.18157c0.0338268,-0.0480906 0.0222598,-0.114508 -0.0258307,-0.148335 -0.0480906,-0.0338268 -0.114508,-0.0222598 -0.148335,0.0258307 -0.0010748,0.0015315 -0.379504,0.529614 -0.113949,1.04578 0.0269213,0.0522362 0.0910984,0.072752 0.143335,0.0458307 0.0522362,-0.0269213 0.072752,-0.0910984 0.0458307,-0.143335 -0.205846,-0.400106 0.0980866,-0.824543 0.0989488,-0.825776z"/>
 </g>
 <rect class="fil3" width="6.82666" height="6.82666"/>
</svg>
