<svg width="100" height="108" viewBox="0 0 100 108" fill="none" xmlns="http://www.w3.org/2000/svg">
<g filter="url(#filter0_d_35_1086)">
<path d="M66.2039 39.2839C71.5406 39.2839 75.8669 34.9577 75.8669 29.6209C75.8669 24.2842 71.5406 19.9579 66.2039 19.9579C60.8671 19.9579 56.5408 24.2842 56.5408 29.6209C56.5408 34.9577 60.8671 39.2839 66.2039 39.2839Z" fill="#773A6F"/>
<path d="M72.6179 48.947C77.9547 48.947 82.281 44.6207 82.281 39.2839C82.281 33.9472 77.9547 29.6209 72.6179 29.6209C67.2812 29.6209 62.9549 33.9472 62.9549 39.2839C62.9549 44.6207 67.2812 48.947 72.6179 48.947Z" fill="#773A6F"/>
<path d="M33.2738 48.947C38.6106 48.947 42.9368 44.6207 42.9368 39.2839C42.9368 33.9472 38.6106 29.6209 33.2738 29.6209C27.9371 29.6209 23.6108 33.9472 23.6108 39.2839C23.6108 44.6207 27.9371 48.947 33.2738 48.947Z" fill="#773A6F"/>
<path d="M28.8994 37.7791C34.2362 37.7791 38.5624 33.4528 38.5624 28.116C38.5624 22.7793 34.2362 18.453 28.8994 18.453C23.5627 18.453 19.2364 22.7793 19.2364 28.116C19.2364 33.4528 23.5627 37.7791 28.8994 37.7791Z" fill="#773A6F"/>
<path d="M48.9175 46.2653C55.4282 46.2653 60.7063 40.9873 60.7063 34.4765C60.7063 27.9658 55.4282 22.6877 48.9175 22.6877C42.4067 22.6877 37.1287 27.9658 37.1287 34.4765C37.1287 40.9873 42.4067 46.2653 48.9175 46.2653Z" fill="#773A6F"/>
<path d="M39.2304 58.61C44.5672 58.61 48.8934 54.2837 48.8934 48.947C48.8934 43.6102 44.5672 39.2839 39.2304 39.2839C33.8937 39.2839 29.5674 43.6102 29.5674 48.947C29.5674 54.2837 33.8937 58.61 39.2304 58.61Z" fill="#773A6F"/>
<path d="M60.5602 56.3116C65.8969 56.3116 70.2232 51.9853 70.2232 46.6485C70.2232 41.3118 65.8969 36.9855 60.5602 36.9855C55.2234 36.9855 50.8972 41.3118 50.8972 46.6485C50.8972 51.9853 55.2234 56.3116 60.5602 56.3116Z" fill="#773A6F"/>
<path d="M42.0974 72.5451C47.4342 72.5451 51.7604 68.2188 51.7604 62.882C51.7604 57.5453 47.4342 53.219 42.0974 53.219C36.7607 53.219 32.4344 57.5453 32.4344 62.882C32.4344 68.2188 36.7607 72.5451 42.0974 72.5451Z" fill="#773A6F"/>
<path d="M58.4121 71.4681C63.7489 71.4681 68.0751 67.1418 68.0751 61.8051C68.0751 56.4683 63.7489 52.1421 58.4121 52.1421C53.0754 52.1421 48.7491 56.4683 48.7491 61.8051C48.7491 67.1418 53.0754 71.4681 58.4121 71.4681Z" fill="#773A6F"/>
<path d="M50.8972 86.8651C56.2339 86.8651 60.5602 82.5388 60.5602 77.2021C60.5602 71.8653 56.2339 67.539 50.8972 67.539C45.5604 67.539 41.2341 71.8653 41.2341 77.2021C41.2341 82.5388 45.5604 86.8651 50.8972 86.8651Z" fill="#773A6F"/>
<path d="M19.2352 46.2665C24.572 46.2665 28.8983 41.9402 28.8983 36.6035C28.8983 31.2667 24.572 26.9405 19.2352 26.9405C13.8985 26.9405 9.5722 31.2667 9.5722 36.6035C9.5722 41.9402 13.8985 46.2665 19.2352 46.2665Z" fill="#87487B"/>
<path d="M39.2304 46.2665C44.5672 46.2665 48.8934 41.9402 48.8934 36.6035C48.8934 31.2667 44.5672 26.9405 39.2304 26.9405C33.8937 26.9405 29.5674 31.2667 29.5674 36.6035C29.5674 41.9402 33.8937 46.2665 39.2304 46.2665Z" fill="#87487B"/>
<path d="M60.0668 46.2665C65.4036 46.2665 69.7299 41.9402 69.7299 36.6035C69.7299 31.2667 65.4036 26.9405 60.0668 26.9405C54.7301 26.9405 50.4038 31.2667 50.4038 36.6035C50.4038 41.9402 54.7301 46.2665 60.0668 46.2665Z" fill="#87487B"/>
<path d="M80.7648 46.2665C86.1015 46.2665 90.4278 41.9402 90.4278 36.6035C90.4278 31.2667 86.1015 26.9405 80.7648 26.9405C75.428 26.9405 71.1017 31.2667 71.1017 36.6035C71.1017 41.9402 75.428 46.2665 80.7648 46.2665Z" fill="#87487B"/>
<path d="M30.7828 64.3983C36.1196 64.3983 40.4459 60.072 40.4459 54.7352C40.4459 49.3985 36.1196 45.0722 30.7828 45.0722C25.4461 45.0722 21.1198 49.3985 21.1198 54.7352C21.1198 60.072 25.4461 64.3983 30.7828 64.3983Z" fill="#87487B"/>
<path d="M50.4038 64.3983C55.7406 64.3983 60.0668 60.072 60.0668 54.7352C60.0668 49.3985 55.7406 45.0722 50.4038 45.0722C45.0671 45.0722 40.7408 49.3985 40.7408 54.7352C40.7408 60.072 45.0671 64.3983 50.4038 64.3983Z" fill="#87487B"/>
<path d="M70.2232 62.882C75.56 62.882 79.8862 58.5557 79.8862 53.219C79.8862 47.8823 75.56 43.556 70.2232 43.556C64.8865 43.556 60.5602 47.8823 60.5602 53.219C60.5602 58.5557 64.8865 62.882 70.2232 62.882Z" fill="#87487B"/>
<path d="M39.6509 82.2081C44.9877 82.2081 49.314 77.8818 49.314 72.5451C49.314 67.2083 44.9877 62.882 39.6509 62.882C34.3142 62.882 29.9879 67.2083 29.9879 72.5451C29.9879 77.8818 34.3142 82.2081 39.6509 82.2081Z" fill="#87487B"/>
<path d="M60.5602 83.7243C65.8969 83.7243 70.2232 79.398 70.2232 74.0613C70.2232 68.7245 65.8969 64.3983 60.5602 64.3983C55.2234 64.3983 50.8972 68.7245 50.8972 74.0613C50.8972 79.398 55.2234 83.7243 60.5602 83.7243Z" fill="#87487B"/>
<path d="M50.0126 100C55.3493 100 59.6756 95.6737 59.6756 90.337C59.6756 85.0002 55.3493 80.6739 50.0126 80.6739C44.6758 80.6739 40.3495 85.0002 40.3495 90.337C40.3495 95.6737 44.6758 100 50.0126 100Z" fill="#87487B"/>
<path opacity="0.2" d="M54.3448 53.2179C55.7731 53.2179 56.9309 52.06 56.9309 50.6317C56.9309 49.2035 55.7731 48.0456 54.3448 48.0456C52.9165 48.0456 51.7587 49.2035 51.7587 50.6317C51.7587 52.06 52.9165 53.2179 54.3448 53.2179Z" fill="white"/>
<path opacity="0.2" d="M42.9368 71.467C44.3651 71.467 45.5229 70.3091 45.5229 68.8809C45.5229 67.4526 44.3651 66.2947 42.9368 66.2947C41.5086 66.2947 40.3507 67.4526 40.3507 68.8809C40.3507 70.3091 41.5086 71.467 42.9368 71.467Z" fill="white"/>
<path opacity="0.2" d="M64.1162 72.2732C65.5445 72.2732 66.7023 71.1154 66.7023 69.6871C66.7023 68.2588 65.5445 67.101 64.1162 67.101C62.6879 67.101 61.5301 68.2588 61.5301 69.6871C61.5301 71.1154 62.6879 72.2732 64.1162 72.2732Z" fill="white"/>
<path opacity="0.2" d="M52.7081 90.5223C54.1363 90.5223 55.2942 89.3645 55.2942 87.9362C55.2942 86.5079 54.1363 85.3501 52.7081 85.3501C51.2798 85.3501 50.1219 86.5079 50.1219 87.9362C50.1219 89.3645 51.2798 90.5223 52.7081 90.5223Z" fill="white"/>
<path opacity="0.2" d="M82.8044 34.9019C84.2327 34.9019 85.3905 33.7441 85.3905 32.3158C85.3905 30.8875 84.2327 29.7297 82.8044 29.7297C81.3761 29.7297 80.2183 30.8875 80.2183 32.3158C80.2183 33.7441 81.3761 34.9019 82.8044 34.9019Z" fill="white"/>
<path opacity="0.2" d="M71.3964 53.1516C72.8247 53.1516 73.9825 51.9938 73.9825 50.5655C73.9825 49.1372 72.8247 47.9794 71.3964 47.9794C69.9681 47.9794 68.8103 49.1372 68.8103 50.5655C68.8103 51.9938 69.9681 53.1516 71.3964 53.1516Z" fill="white"/>
<path opacity="0.2" d="M42.8345 34.9019C44.2628 34.9019 45.4206 33.7441 45.4206 32.3158C45.4206 30.8875 44.2628 29.7297 42.8345 29.7297C41.4063 29.7297 40.2484 30.8875 40.2484 32.3158C40.2484 33.7441 41.4063 34.9019 42.8345 34.9019Z" fill="white"/>
<path opacity="0.2" d="M31.4205 53.1516C32.8488 53.1516 34.0066 51.9938 34.0066 50.5655C34.0066 49.1372 32.8488 47.9794 31.4205 47.9794C29.9923 47.9794 28.8344 49.1372 28.8344 50.5655C28.8344 51.9938 29.9923 53.1516 31.4205 53.1516Z" fill="white"/>
<path opacity="0.2" d="M64.1162 34.9019C65.5445 34.9019 66.7023 33.7441 66.7023 32.3158C66.7023 30.8875 65.5445 29.7297 64.1162 29.7297C62.6879 29.7297 61.5301 30.8875 61.5301 32.3158C61.5301 33.7441 62.6879 34.9019 64.1162 34.9019Z" fill="white"/>
<path opacity="0.2" d="M21.1198 34.6506C22.5484 34.6506 23.7065 33.4925 23.7065 32.0639C23.7065 30.6353 22.5484 29.4772 21.1198 29.4772C19.6912 29.4772 18.5331 30.6353 18.5331 32.0639C18.5331 33.4925 19.6912 34.6506 21.1198 34.6506Z" fill="white"/>
<path d="M50.051 25.9543L52.82 3.12459C53.0217 1.46327 51.7245 0 50.051 0C48.3778 0 47.0805 1.46327 47.2821 3.12459L50.051 25.9543Z" fill="#ADA323"/>
<path d="M50.051 25.9543C50.051 25.9543 60.5588 22.038 72.0462 26.5174C83.5331 30.9969 88.5426 15.3062 88.5426 15.3062C88.5426 15.3062 83.2176 21.4794 75.1101 17.9727C75.1106 17.9735 58.6475 5.88394 50.051 25.9543Z" fill="#ADA323"/>
<path d="M49.1335 25.9543C49.1335 25.9543 38.6257 22.038 27.1383 26.5174C15.6509 30.9969 10.6419 15.3064 10.6419 15.3064C10.6419 15.3064 15.9669 21.4796 24.0744 17.9729C24.0746 17.9735 40.5372 5.88395 49.1335 25.9543Z" fill="#ADA323"/>
<path d="M50.0511 25.9543C50.0511 25.9543 22.3231 12.106 30.8959 41.44C30.8959 41.4404 35.6709 23.9289 50.0511 25.9543Z" fill="#BCAF33"/>
<path d="M48.0114 25.9543C48.0114 25.9543 75.7394 12.106 67.1666 41.44C67.1666 41.4404 62.3916 23.9289 48.0114 25.9543Z" fill="#BCAF33"/>
</g>
<defs>
<filter id="filter0_d_35_1086" x="-4" y="0" width="108" height="108" filterUnits="userSpaceOnUse" color-interpolation-filters="sRGB">
<feFlood flood-opacity="0" result="BackgroundImageFix"/>
<feColorMatrix in="SourceAlpha" type="matrix" values="0 0 0 0 0 0 0 0 0 0 0 0 0 0 0 0 0 0 127 0" result="hardAlpha"/>
<feOffset dy="4"/>
<feGaussianBlur stdDeviation="2"/>
<feComposite in2="hardAlpha" operator="out"/>
<feColorMatrix type="matrix" values="0 0 0 0 0 0 0 0 0 0 0 0 0 0 0 0 0 0 0.25 0"/>
<feBlend mode="normal" in2="BackgroundImageFix" result="effect1_dropShadow_35_1086"/>
<feBlend mode="normal" in="SourceGraphic" in2="effect1_dropShadow_35_1086" result="shape"/>
</filter>
</defs>
</svg>
