<svg width="104" height="105" viewBox="0 0 104 105" fill="none" xmlns="http://www.w3.org/2000/svg">
<g filter="url(#filter0_d_35_211)">
<path d="M77.7972 96.1861C76.675 96.1861 75.5583 95.8417 74.5972 95.1556L52 78.95L29.4028 95.1556C28.4665 95.8291 27.3414 96.1897 26.1881 96.1857C25.0347 96.1817 23.9121 95.8134 22.9806 95.1334C22.0481 94.4573 21.3527 93.5044 20.9931 92.4102C20.6335 91.316 20.6282 90.1363 20.9778 89.0389L29.4056 61.8389L7.01111 46.0584C6.083 45.3734 5.39374 44.414 5.04081 43.3158C4.68788 42.2177 4.68915 41.0363 5.04444 39.9389C5.40254 38.8442 6.09563 37.8896 7.02575 37.2102C7.95587 36.5308 9.07598 36.1609 10.2278 36.1528L37.9639 36.1111L46.7944 9.58613C47.1589 8.49343 47.8578 7.54306 48.7923 6.86962C49.7268 6.19618 50.8495 5.8338 52.0014 5.8338C53.1533 5.8338 54.2759 6.19618 55.2104 6.86962C56.145 7.54306 56.8439 8.49343 57.2083 9.58613L65.8889 36.1111L93.7667 36.1528C94.9198 36.1593 96.0416 36.529 96.9727 37.2094C97.9037 37.8899 98.5967 38.8464 98.9532 39.9431C99.3096 41.0398 99.3114 42.2209 98.9583 43.3187C98.6052 44.4165 97.9151 45.3751 96.9861 46.0584L74.5917 61.8389L83.0194 89.0389C83.3698 90.136 83.3651 91.3156 83.006 92.4099C82.6469 93.5041 81.9517 94.4572 81.0194 95.1334C80.085 95.8188 78.9561 96.1876 77.7972 96.1861Z" fill="#FFAC33"/>
</g>
<defs>
<filter id="filter0_d_35_211" x="-2" y="0" width="108" height="108" filterUnits="userSpaceOnUse" color-interpolation-filters="sRGB">
<feFlood flood-opacity="0" result="BackgroundImageFix"/>
<feColorMatrix in="SourceAlpha" type="matrix" values="0 0 0 0 0 0 0 0 0 0 0 0 0 0 0 0 0 0 127 0" result="hardAlpha"/>
<feOffset dy="4"/>
<feGaussianBlur stdDeviation="2"/>
<feComposite in2="hardAlpha" operator="out"/>
<feColorMatrix type="matrix" values="0 0 0 0 0 0 0 0 0 0 0 0 0 0 0 0 0 0 0.25 0"/>
<feBlend mode="normal" in2="BackgroundImageFix" result="effect1_dropShadow_35_211"/>
<feBlend mode="normal" in="SourceGraphic" in2="effect1_dropShadow_35_211" result="shape"/>
</filter>
</defs>
</svg>
