<svg width="100" height="103" viewBox="0 0 100 103" fill="none" xmlns="http://www.w3.org/2000/svg">
<g filter="url(#filter0_d_35_920)">
<path d="M74.358 31.571C72.6964 14.5015 63.8595 9.13898 50.642 9.13898C37.4245 9.13898 28.5876 14.577 26.926 31.571C25.7931 42.9758 16.0498 48.6405 20.6571 58.3082C24.8112 66.994 33.0438 71.9033 50.642 71.9033C68.2402 71.9033 76.3973 67.0695 80.6269 58.3082C85.2341 48.6405 75.4909 42.9758 74.358 31.571Z" fill="#1CA538"/>
<path d="M68.0136 46.148C65.9743 45.3927 64.3882 51.435 62.2734 54.0785C60.4607 56.2689 58.1193 56.4955 54.9471 56.4955C54.7205 51.9637 54.4939 47.5075 54.2673 43.429C57.9683 43.2779 60.0831 42.4471 61.5936 40.71C63.4063 38.6707 65.219 31.6465 63.4063 31.1178C61.6692 30.5891 60.7628 35.423 59.2522 37.3112C57.9683 38.8973 56.2311 38.8217 53.9652 38.8217C53.6631 34.139 53.4365 30.287 53.1344 27.719C52.9078 25.3776 52.0015 24.7734 50.5664 24.7734C49.2069 24.7734 48.2251 25.3776 47.9985 27.719C47.6208 31.3444 47.2432 37.7643 46.79 45.1662C44.6752 45.2417 43.0136 45.2417 41.8051 43.6556C40.2945 41.7674 39.4637 36.9335 37.651 37.4622C35.9139 37.9909 37.651 45.0151 39.4637 47.0544C40.9743 48.7915 43.0136 49.6224 46.4879 49.7734C46.2613 54.003 46.0347 58.4592 45.8837 62.8399C42.8625 62.8399 40.5211 62.6133 38.8595 60.423C36.7447 57.7795 35.2341 51.7372 33.1193 52.4924C31.08 53.2477 33.4214 62.2356 35.9139 65.1057C38.0287 67.5227 40.6722 68.6556 45.6571 68.8822C45.0528 82.9305 44.5997 94.864 44.5997 94.864H56.6087C56.6087 94.864 56.0045 79.1541 55.2492 62.5378C60.3852 62.3112 63.0287 61.1782 65.219 58.7613C67.7115 55.8912 70.1284 46.9033 68.0136 46.148Z" fill="#65320B"/>
</g>
<defs>
<filter id="filter0_d_35_920" x="-4" y="0" width="108" height="108" filterUnits="userSpaceOnUse" color-interpolation-filters="sRGB">
<feFlood flood-opacity="0" result="BackgroundImageFix"/>
<feColorMatrix in="SourceAlpha" type="matrix" values="0 0 0 0 0 0 0 0 0 0 0 0 0 0 0 0 0 0 127 0" result="hardAlpha"/>
<feOffset dy="4"/>
<feGaussianBlur stdDeviation="2"/>
<feComposite in2="hardAlpha" operator="out"/>
<feColorMatrix type="matrix" values="0 0 0 0 0 0 0 0 0 0 0 0 0 0 0 0 0 0 0.25 0"/>
<feBlend mode="normal" in2="BackgroundImageFix" result="effect1_dropShadow_35_920"/>
<feBlend mode="normal" in="SourceGraphic" in2="effect1_dropShadow_35_920" result="shape"/>
</filter>
</defs>
</svg>
