<svg width="103" height="106" viewBox="0 0 103 106" fill="none" xmlns="http://www.w3.org/2000/svg">
<g filter="url(#filter0_d_35_12)">
<path d="M27.2031 74.1016C27.2031 74.1016 31.625 67.8047 31.7891 67.5547C31.9531 67.3047 38.5781 52.4141 38.5781 52.4141L41.5234 53.5625L40.9766 54.7969C40.9766 54.7969 40.25 55.3125 39.5938 56.7891C38.9375 58.2656 35.2422 68.0859 35.2422 68.0859L50.2734 63.2188L68.2734 60.6016C68.2734 60.6016 77.1953 55.5312 78.8281 54.5469C80.4609 53.5625 89.7891 43.3359 89.7891 43.3359L94.6172 33.6797L95.6797 22.7969L94.1875 13.0234C94.1875 13.0234 100.43 18.7656 98.4297 31.2109C95.8984 46.9453 84.3594 59.7969 66.0703 64.3984C57.5156 66.5547 47.2578 67.25 38.4297 70.8828C33.8516 72.7656 28.375 78.8438 28.375 78.8438L27.2031 74.1016Z" fill="#024AB1"/>
<path d="M42 31.7969L40.3359 43.2656L39.0312 51.6016L48.0547 55.2812C48.0547 55.2812 41.7031 44.6328 45.4297 34.3828C50.0937 21.5625 62.7578 10.5156 73.1406 9.75C80.3203 9.21875 82.2578 10.8281 85.8203 12.5469C90.4375 14.7656 93.0937 20.0469 93.0937 20.0469C93.0937 20.0469 92.0469 13.0859 91.7891 12.7656C91.5312 12.4453 80.25 5.97656 80.25 5.97656C80.25 5.97656 68.2734 6.28906 67.9531 6.48438C67.6328 6.67969 57.5078 11.4219 57.3125 11.9297C57.1172 12.4453 47.6328 22.5 46.6094 23.9766C45.5859 25.4531 42 31.7969 42 31.7969Z" fill="#024AB1"/>
<path d="M84.5625 50.4062C84.2656 50.4062 83.9687 50.2969 83.7422 50.0703L53.5781 20.664C53.3555 20.4474 53.228 20.1513 53.2236 19.8408C53.2192 19.5302 53.3383 19.2306 53.5547 19.0078C54.0078 18.5469 54.75 18.539 55.2109 18.9844L85.375 48.3984C85.8359 48.8515 85.8515 49.5937 85.3984 50.0547C85.1719 50.289 84.8672 50.4062 84.5625 50.4062Z" fill="#B7CDD2"/>
<path d="M89.3281 44.8125C89.0313 44.8125 88.7266 44.6953 88.5 44.4687L59.1641 15.2187C58.7031 14.7656 58.7031 14.0234 59.1641 13.5625C59.625 13.1016 60.3594 13.1016 60.8203 13.5625L90.1484 42.8125C90.6094 43.2656 90.6094 44.0078 90.1484 44.4687C89.9297 44.6953 89.625 44.8125 89.3281 44.8125Z" fill="#B7CDD2"/>
<path d="M92.5 37.875C92.1953 37.875 91.8906 37.7578 91.6641 37.5234L66.2578 11.4453C65.8047 10.9844 65.8125 10.2422 66.2813 9.78904C66.7422 9.33591 67.4844 9.34373 67.9375 9.81248L93.3438 35.8828C93.7969 36.3437 93.7891 37.0859 93.3203 37.539C93.0938 37.7656 92.7969 37.875 92.5 37.875Z" fill="#B7CDD2"/>
<path d="M94.2578 28.8516C93.9609 28.8516 93.6641 28.7422 93.4375 28.5156L74.7969 10.125C74.6868 10.0173 74.5991 9.88873 74.5391 9.74686C74.479 9.60498 74.4477 9.45259 74.447 9.29853C74.4462 9.14447 74.4761 8.99179 74.5348 8.84936C74.5936 8.70692 74.68 8.57756 74.7891 8.46877C75.2422 8.00784 75.9844 8.00002 76.4453 8.46096L95.0781 26.8438C95.5391 27.2969 95.5469 28.0391 95.0859 28.5C94.8594 28.7344 94.5625 28.8516 94.2578 28.8516Z" fill="#B7CDD2"/>
<path d="M78.9141 55.7812C78.6172 55.7812 78.3203 55.6719 78.0938 55.4453L48.7266 26.6719C48.517 26.4518 48.4012 26.1589 48.4035 25.855C48.4058 25.5511 48.526 25.26 48.7389 25.043C48.9518 24.8261 49.2405 24.7004 49.5443 24.6924C49.8481 24.6843 50.1432 24.7946 50.3672 25L79.7344 53.7734C79.9003 53.9364 80.0139 54.1451 80.0609 54.3729C80.1078 54.6007 80.0859 54.8373 79.9979 55.0526C79.91 55.2679 79.7599 55.4521 79.5669 55.5819C79.3739 55.7117 79.1466 55.7811 78.9141 55.7812Z" fill="#B7CDD2"/>
<path d="M71.1094 59.7656C70.8047 59.7656 70.5 59.6484 70.2734 59.4141L45.1172 33.7578C44.9118 33.5338 44.8015 33.2388 44.8096 32.935C44.8176 32.6312 44.9433 32.3424 45.1602 32.1295C45.3771 31.9167 45.6683 31.7964 45.9722 31.7941C46.276 31.7918 46.569 31.9076 46.7891 32.1172L71.9453 57.7734C72.1068 57.9382 72.2161 58.1469 72.2594 58.3735C72.3028 58.6001 72.2783 58.8345 72.189 59.0472C72.0998 59.2599 71.9497 59.4416 71.7576 59.5694C71.5656 59.6972 71.3401 59.7654 71.1094 59.7656Z" fill="#B7CDD2"/>
<path d="M63.0859 61.6093C62.7891 61.6093 62.5 61.5 62.2656 61.2734L43.1328 42.6406C42.9216 42.4216 42.8039 42.129 42.8045 41.8248C42.8051 41.5205 42.924 41.2285 43.1361 41.0103C43.3482 40.7922 43.6368 40.665 43.9409 40.6558C44.245 40.6466 44.5407 40.756 44.7656 40.9609L63.9063 59.5937C64.3672 60.0468 64.3828 60.789 63.9297 61.25C63.6953 61.4922 63.3906 61.6093 63.0859 61.6093Z" fill="#B7CDD2"/>
<path d="M46.2031 52.4141C45.9706 52.4139 45.7433 52.3445 45.5503 52.2147C45.3573 52.0849 45.2072 51.9007 45.1193 51.6854C45.0313 51.4701 45.0094 51.2335 45.0563 51.0057C45.1033 50.7779 45.2169 50.5692 45.3828 50.4062L84.5781 11.8828C84.8022 11.6774 85.0972 11.5671 85.401 11.5752C85.7048 11.5832 85.9936 11.7089 86.2064 11.9259C86.4193 12.1428 86.5396 12.4339 86.5419 12.7378C86.5442 13.0417 86.4283 13.3346 86.2188 13.5547L47.0234 52.0781C46.7969 52.3047 46.5 52.4141 46.2031 52.4141Z" fill="#B7CDD2"/>
<path d="M44.2031 45.4766C43.9063 45.4766 43.6172 45.3672 43.3906 45.1484C42.9219 44.6953 42.9141 43.9531 43.3672 43.4922C56.3125 30.125 75.8516 9.87501 76.9141 8.5547C77.0766 8.30094 77.3307 8.11966 77.6236 8.04859C77.9164 7.97751 78.2253 8.02213 78.4861 8.17315C78.7469 8.32417 78.9393 8.56995 79.0234 8.85931C79.1075 9.14868 79.0767 9.45933 78.9375 9.72657C78.8359 9.9297 78.5234 10.5547 45.0547 45.1172C44.8125 45.3594 44.5078 45.4766 44.2031 45.4766Z" fill="#B7CDD2"/>
<path d="M45.9531 34.0312C45.7242 34.0312 45.5004 33.9641 45.3092 33.8382C45.118 33.7124 44.9678 33.5333 44.8772 33.323C44.7867 33.1128 44.7597 32.8807 44.7995 32.6553C44.8394 32.4299 44.9444 32.2211 45.1016 32.0547L66.1953 9.78906C66.6406 9.32031 67.4531 9.34375 67.9219 9.78906C68.3906 10.2344 68.3906 10.8828 67.9453 11.3516L46.8047 33.6641C46.5781 33.9062 46.2656 34.0312 45.9531 34.0312Z" fill="#B7CDD2"/>
<path d="M50.0469 59.1016C49.8162 59.1014 49.5907 59.0331 49.3986 58.9053C49.2065 58.7775 49.0565 58.5958 48.9672 58.3831C48.878 58.1704 48.8535 57.936 48.8968 57.7095C48.9402 57.4829 49.0494 57.2741 49.2109 57.1094L89.3906 15.8906C89.8438 15.4297 90.6875 15.2969 91.1484 15.75C91.6094 16.2031 91.5156 17.0703 91.0625 17.5312L50.8906 58.75C50.6563 58.9844 50.3516 59.1016 50.0469 59.1016Z" fill="#B7CDD2"/>
<path d="M57.7344 62.0235C57.4375 62.0235 57.1406 61.9141 56.9141 61.6875C56.8039 61.5798 56.7163 61.4512 56.6563 61.3094C56.5962 61.1675 56.5649 61.0151 56.5642 60.861C56.5634 60.707 56.5933 60.5543 56.652 60.4119C56.7107 60.2694 56.7972 60.1401 56.9062 60.0313L93.8437 22.5938C94.0624 22.3733 94.3597 22.2486 94.6702 22.2471C94.9808 22.2457 95.2792 22.3675 95.5 22.586C95.9609 23.0391 95.9687 23.7813 95.5078 24.2422L58.5703 61.6797C58.3437 61.9063 58.0391 62.0235 57.7344 62.0235Z" fill="#B7CDD2"/>
<path d="M68.5234 60.8437C68.25 60.8437 67.9766 60.75 67.7578 60.5625C67.2734 60.1406 67.2109 59.4219 67.6172 58.9375C68.0391 58.4375 86.9688 39.5 92.7578 33.7031C92.8661 33.5935 92.995 33.5065 93.1372 33.4471C93.2793 33.3877 93.4319 33.3571 93.5859 33.3571C93.74 33.3571 93.8925 33.3877 94.0347 33.4471C94.1768 33.5065 94.3058 33.5935 94.4141 33.7031C94.875 34.164 94.875 34.9062 94.4141 35.3593C87.6641 42.1094 70.0156 59.7734 69.3984 60.4531C69.1641 60.7109 68.8438 60.8437 68.5234 60.8437Z" fill="#B7CDD2"/>
<path d="M33.3203 67.711C33.3203 67.711 37.8984 54.7266 39.1406 54.3125C39.7266 54.1172 40.4531 55.6797 42.7344 57.9063C45.2187 60.3282 46.6562 61.1719 46.4609 62.1563C46.1484 63.7188 33.3203 67.711 33.3203 67.711ZM93.8516 26.3438C93.3125 39.2969 83.5 53.0313 70.4375 58.0547C62.375 61.1563 52.9922 60.461 47.4844 54.6407C42.1641 49.0235 41.5234 43.2735 42.9062 36.6485C45.3125 25.1719 55.8516 12.4531 65.5469 9.04689C75.2422 5.64064 81.7969 7.25002 87.6641 11.625C92.2344 15.0469 94.0625 21.3047 93.8516 26.3438ZM93.9531 12.6797C90.8516 8.97658 84.0781 2.16408 70.9844 4.07814C59.1797 5.80471 49.4062 15.2188 43.6719 25.2735C39.1094 33.2891 38.6562 39.6016 37.2969 46.1485C35.9766 52.5 31.0937 64.6485 30.0703 66.6797C27.5937 71.5781 25.1406 72.3906 24.8125 73.1016L26.7031 79.211C26.7031 79.211 28.375 76.2188 32.3437 72.2578C36.3047 68.2969 45.2266 66.375 49.0234 65.6016C53.3672 64.711 60.2656 64.7656 71.4687 60.711C84.3828 56.0391 96.5859 40.961 97.1016 28.0313C97.3984 20.4063 97.1641 16.5156 93.9531 12.6797Z" fill="#1F87FF"/>
<path d="M25.7031 71.4688C24.5391 71.6641 12.6641 84.4766 12.6641 84.4766C12.6641 84.4766 8.18751 86.6797 7.35157 87.2578C6.51563 87.836 6.42969 89.3438 7.26563 90.2656C8.10157 91.1875 13.1172 96.1172 13.7813 96.7031C14.4453 97.2891 16.2656 97.25 16.7031 95.9531C17.0781 94.8516 18.8281 91.75 18.8281 91.75C18.8281 91.75 31.8359 78.2813 31.8359 77.6094C31.8359 76.9375 26.2031 71.3906 25.7031 71.4688Z" fill="#5F6369"/>
<path d="M11.1953 88.3438C11.6016 90.5 14.5078 90.5234 16.1953 89.3125C17.4922 88.375 16.8594 87.1484 17.7656 86.1797C18.8437 85.0234 19.8359 85.6797 20.8359 84.5156C21.8359 83.3516 21.5 82.5781 22.1328 81.8516C23.0312 80.8203 23.9687 81.4844 24.8984 80.3828C25.8359 79.2812 25.2969 78.3828 26 77.6797C26.7031 76.9766 28.3359 77.3125 27.9375 75.5156C27.539 73.7188 25.1015 73.9453 24 74.8125C23.1328 75.5 23.1328 76.6797 22.2344 77.4766C21.4375 78.1797 20.5312 77.9453 19.4687 78.9141C18.3984 79.8828 18.7031 81.1172 17.9687 81.9141C17.2344 82.7109 16.2344 82.1172 15.1016 83.3828C13.9219 84.7031 14.5312 85.4141 13.3984 86.25C12.6328 86.8047 10.8594 86.5781 11.1953 88.3438Z" fill="#858686"/>
<path d="M11.7891 7.30466L5.21875 17.8672C5.21875 17.8672 5.21875 25.6797 12.3203 29.6719C19.625 33.7812 29.3828 30.8828 32.9141 23.5469C36.375 16.3594 33.0938 7.92185 29.5391 5.17185C25.5156 2.05466 11.7891 7.30466 11.7891 7.30466Z" fill="#B6D401"/>
<path d="M13.8125 2.62498C8.50781 5.15623 5.41406 9.90623 4.96874 14.6953C4.82031 16.3125 4.96874 17.7265 4.96874 17.7265C4.96874 17.7265 7.15624 25.2969 16.7891 25.9297C27.1484 26.6172 31.9687 20.164 32.2734 13.0859C32.5156 7.46873 29.3906 4.8828 29.3906 4.8828C29.3906 4.8828 27.9766 2.97655 24.8437 1.99998C23.5078 1.5703 18.8437 0.234358 13.8125 2.62498Z" fill="#D5F100"/>
<path d="M7.89845 14.7891C11.3281 18.9062 17.3828 22.4844 18.4531 26.4609C19.3828 29.9297 17.9141 31.5391 17.9141 31.5391C17.9141 31.5391 18.3516 31.7812 18.8438 31.8359C19.3359 31.8828 19.8672 31.6406 19.8672 31.6406C19.8672 31.6406 20.9453 30.3203 20.5547 26.5625C20.1641 22.8047 16.5469 19.8203 14.1094 17.9141C12.0859 16.3359 9.67189 14.4141 8.78126 12.8828C7.3672 10.4453 7.41407 7.65625 7.41407 7.65625C7.41407 7.65625 6.72657 7.89844 6.39064 8.875C6.06251 9.79687 5.70314 12.1562 7.89845 14.7891Z" fill="white"/>
<path d="M22.6562 1.30467C22.6562 1.30467 23.0937 2.28124 24.9531 4.42967C26.6953 6.4453 29.2734 9.28123 31.0625 12.539C32.4297 15.0312 33.9453 20.8906 33.9453 20.8906C33.9453 20.8906 34.5312 18.8359 34.5312 17.4687C34.5312 16.7344 33.3125 13.414 32.2344 11.3594C30.9688 8.93749 28.5234 6.08592 27.4922 4.76561C26.8594 3.9453 24.9531 1.68749 24.9531 1.68749C24.9531 1.68749 22.75 1.06249 22.6562 1.30467Z" fill="white"/>
</g>
<defs>
<filter id="filter0_d_35_12" x="-2" y="0" width="108" height="108" filterUnits="userSpaceOnUse" color-interpolation-filters="sRGB">
<feFlood flood-opacity="0" result="BackgroundImageFix"/>
<feColorMatrix in="SourceAlpha" type="matrix" values="0 0 0 0 0 0 0 0 0 0 0 0 0 0 0 0 0 0 127 0" result="hardAlpha"/>
<feOffset dy="4"/>
<feGaussianBlur stdDeviation="2"/>
<feComposite in2="hardAlpha" operator="out"/>
<feColorMatrix type="matrix" values="0 0 0 0 0 0 0 0 0 0 0 0 0 0 0 0 0 0 0.25 0"/>
<feBlend mode="normal" in2="BackgroundImageFix" result="effect1_dropShadow_35_12"/>
<feBlend mode="normal" in="SourceGraphic" in2="effect1_dropShadow_35_12" result="shape"/>
</filter>
</defs>
</svg>
