<svg width="104" height="106" viewBox="0 0 104 106" fill="none" xmlns="http://www.w3.org/2000/svg">
<g clip-path="url(#clip0_35_126)" filter="url(#filter0_d_35_126)">
<mask id="mask0_35_126" style="mask-type:luminance" maskUnits="userSpaceOnUse" x="2" y="0" width="100" height="100">
<path d="M2 0H102V100H2V0Z" fill="white"/>
</mask>
<g mask="url(#mask0_35_126)">
<path d="M99.3684 71.0526C99.3684 85.5842 78.1605 97.3684 52 97.3684C25.8395 97.3684 4.63159 85.5842 4.63159 71.0526C4.63159 56.521 25.8395 44.7368 52 44.7368C78.1605 44.7368 99.3684 56.521 99.3684 71.0526Z" fill="#99AAB5"/>
<path d="M99.3684 65.7894C99.3684 80.321 78.1605 92.1052 52 92.1052C25.8395 92.1052 4.63159 80.321 4.63159 65.7894C4.63159 51.2579 25.8395 39.4736 52 39.4736C78.1605 39.4736 99.3684 51.2579 99.3684 65.7894Z" fill="#CCD6DD"/>
<path d="M52 84.2105C12.6369 84.2105 7.26318 44.7368 7.26318 34.2105H96.7369C96.7369 39.4737 91.5842 84.2105 52 84.2105Z" fill="#F5F8FA"/>
<path d="M88.5311 20.9255C84.9601 18.4571 80.3653 16.4676 75.0548 15.0045C79.989 13.4887 87.0311 14.1913 88.5311 20.9255ZM95.118 28.0097C101.544 1.37288 69.3785 7.73077 63.0022 12.7518C59.4759 12.3597 55.8022 12.136 51.9995 12.136C27.2916 12.136 7.2627 20.6308 7.2627 34.3571C7.2627 48.0834 27.2916 59.2097 51.9995 59.2097C76.7074 59.2097 96.7364 48.0834 96.7364 34.3571C96.7364 32.0887 96.1443 29.9781 95.118 28.0097Z" fill="#CCD6DD"/>
</g>
<mask id="mask1_35_126" style="mask-type:luminance" maskUnits="userSpaceOnUse" x="2" y="0" width="100" height="100">
<path d="M2 0H102V100H2V0Z" fill="white"/>
</mask>
<g mask="url(#mask1_35_126)">
<path d="M91.4737 36.8421C91.4737 47.0158 73.8001 55.2632 52.0001 55.2632C30.2001 55.2632 12.5264 47.0158 12.5264 36.8421C12.5264 26.6684 30.2001 18.4211 52.0001 18.4211C73.8001 18.4211 91.4737 26.6684 91.4737 36.8421Z" fill="#8A4B38"/>
<path d="M57.2633 47.3685C56.5896 47.3685 55.9159 47.1106 55.4027 46.5974C49.2527 40.4474 49.1501 33.7422 55.0738 24.8553C57.0185 21.9369 57.4422 18.9474 56.3317 15.9685C55.1185 12.7185 52.5475 10.7158 51.7764 10.5053C50.3212 10.5053 49.2554 9.33689 49.2554 7.88426C49.2554 6.429 50.5475 5.26321 52.0001 5.26321C54.6238 5.26321 58.3027 8.29742 60.3764 12.1711C63.0975 17.2579 62.7712 22.8 59.4527 27.7764C54.2922 35.5185 55.4238 39.1764 59.1238 42.8764C60.1527 43.9053 60.1527 45.5685 59.1238 46.5974C58.6106 47.1106 57.9369 47.3685 57.2633 47.3685Z" fill="#D99E82"/>
<path d="M41.4737 42.1053C40.8 42.1053 40.1264 41.8474 39.6132 41.3342C33.4632 35.1842 33.3606 28.479 39.2843 19.5921C41.1974 16.7211 41.6369 14.1132 40.5843 11.8369C39.4158 9.30791 36.8185 7.97107 36.1527 7.89212C34.7 7.89212 33.55 6.71581 33.55 5.26318C33.55 3.80791 34.7579 2.6316 36.2106 2.6316C38.8343 2.6316 43.0106 5.19476 45.0527 9.00792C46.3185 11.3737 47.8237 16.2737 43.6632 22.5132C38.5027 30.2553 39.6343 33.9132 43.3343 37.6132C44.3632 38.6421 44.3632 40.3053 43.3343 41.3342C42.8211 41.8474 42.1474 42.1053 41.4737 42.1053Z" fill="#D99E82"/>
</g>
</g>
<defs>
<filter id="filter0_d_35_126" x="-2" y="0" width="108" height="108" filterUnits="userSpaceOnUse" color-interpolation-filters="sRGB">
<feFlood flood-opacity="0" result="BackgroundImageFix"/>
<feColorMatrix in="SourceAlpha" type="matrix" values="0 0 0 0 0 0 0 0 0 0 0 0 0 0 0 0 0 0 127 0" result="hardAlpha"/>
<feOffset dy="4"/>
<feGaussianBlur stdDeviation="2"/>
<feComposite in2="hardAlpha" operator="out"/>
<feColorMatrix type="matrix" values="0 0 0 0 0 0 0 0 0 0 0 0 0 0 0 0 0 0 0.25 0"/>
<feBlend mode="normal" in2="BackgroundImageFix" result="effect1_dropShadow_35_126"/>
<feBlend mode="normal" in="SourceGraphic" in2="effect1_dropShadow_35_126" result="shape"/>
</filter>
<clipPath id="clip0_35_126">
<rect width="100" height="100" fill="white" transform="translate(2)"/>
</clipPath>
</defs>
</svg>
