<svg width="100" height="108" viewBox="0 0 100 108" fill="none" xmlns="http://www.w3.org/2000/svg">
<g clip-path="url(#clip0_35_973)" filter="url(#filter0_d_35_973)">
<path d="M40.3968 2.62535C40.9946 1.70437 41.526 0.54821 42.5799 0.0868225C42.3626 0.589501 42.1005 1.07243 41.824 1.5428C40.7469 3.2896 40.2029 5.30032 39.7667 7.2859C39.7379 8.72212 39.6123 10.1889 39.9929 11.591C40.1508 12.0398 39.9067 12.7328 40.404 12.9859C40.8761 12.8154 41.3016 12.4545 41.8348 12.5263C42.438 12.5622 43.1148 12.3989 43.648 12.7597C44.3464 13.1241 44.9999 13.6466 45.3069 14.3952C45.7342 15.5316 45.5546 16.9481 44.6642 17.8188C43.8904 18.5244 42.8258 18.7147 41.833 18.8942C40.7038 19.0701 39.6176 18.5136 38.7577 17.8332C38.4148 17.3718 38.0593 16.9104 37.7936 16.4005C37.7326 15.7758 37.72 15.1385 37.8044 14.5155C38.1671 13.8135 38.9103 13.4509 39.6464 13.2696C39.0701 11.7023 38.8475 10.0291 38.9175 8.36307C38.8295 6.36312 39.2586 4.29496 40.3968 2.62535ZM41.0198 13.476C40.9946 13.9266 41.0557 14.4221 41.4057 14.7489C41.7612 14.8225 42.1239 14.7561 42.4811 14.7184C42.4883 14.3719 42.5134 13.9859 42.2172 13.7417C41.9641 13.3144 41.4255 13.4688 41.0198 13.476ZM38.0719 15.1169C38.2389 15.4993 38.4507 15.8961 38.8223 16.1169C39.1437 16.2138 39.422 15.9912 39.7092 15.8781C39.6715 15.3198 39.3358 14.9015 38.808 14.7273C38.5602 14.8548 38.3143 14.9859 38.0719 15.1169Z" fill="#AE0503" stroke="#AE0503" stroke-width="0.229796"/>
<path d="M66.5809 13.8746C67.8861 11.0973 68.6473 8.09377 69.9902 5.32904C70.7891 5.55345 71.5575 5.8766 72.3635 6.08126C71.9434 6.92145 71.7585 7.855 71.281 8.67006C70.7891 10.0506 70.2631 11.4204 69.7748 12.8028C68.843 14.5981 68.378 16.5854 67.5558 18.431C67.3565 19.1922 66.9651 19.8744 66.6743 20.5997C66.3063 21.8169 65.7372 22.9623 65.3655 24.1795C64.1519 26.8724 63.3225 29.7269 62.1233 32.4234C61.9527 32.9315 61.8576 33.5114 61.4572 33.8991C60.7086 34.4467 59.7732 34.6711 58.8666 34.7932C59.5686 34.0697 60.2903 33.2564 60.468 32.2295C60.398 31.5563 59.9797 30.9226 60.1808 30.2278C60.4052 29.8185 60.7014 29.4397 60.8486 28.9926C61.1897 27.9262 61.6008 26.885 62.0048 25.8437C62.2382 24.9353 62.8288 24.1741 63.0335 23.2567C63.818 21.2873 64.4158 19.2443 65.3404 17.3359C65.7031 16.1636 66.2111 15.0433 66.5809 13.8746Z" fill="#401A1A" stroke="#401A1A" stroke-width="0.229796"/>
<path d="M43.8545 10.1871C43.9927 9.40074 44.6588 8.74366 45.4397 8.59106C46.9729 9.18889 47.9872 10.5713 49.0141 11.7885C49.5096 12.4258 50.0895 13.0146 50.4629 13.7381C50.7071 14.4724 50.6748 15.2695 50.9315 16.0038C50.4683 17.3233 49.6874 18.5351 48.6371 19.4615C48.1973 19.8744 47.5617 19.8223 47.007 19.8547C47.5617 18.9265 48.2422 18.045 48.4684 16.9625C47.2817 18.2622 45.8832 19.8708 43.9461 19.7326C42.4757 19.869 40.9372 19.6859 39.5315 20.2191C41.0664 21.4237 43.192 21.4381 45.0286 21.0826C47.3409 20.6105 49.8058 20.246 51.7555 18.808C52.2779 18.431 52.8722 17.7721 52.5311 17.0863C52.1613 16.6196 51.5993 16.37 51.0931 16.0882C52.1146 16.133 53.1666 16.6968 53.5221 17.7003C53.7142 18.3179 54.3677 18.5261 54.7985 18.9337C55.1594 19.4328 54.9529 20.1958 55.434 20.6338C55.75 20.9731 56.145 21.246 56.3909 21.6463C56.5238 21.9857 56.4933 22.3609 56.5184 22.7181C57.118 23.1472 57.7877 23.5027 58.2832 24.061C58.7607 24.6337 58.5722 25.4254 58.5524 26.104C59.0102 26.5618 59.5829 27.0035 59.6996 27.6803C59.8971 28.4828 59.4537 29.2332 59.1054 29.9208C59.3657 30.2152 59.6296 30.5079 59.8971 30.7987C59.9887 30.5581 60.0874 30.3193 60.1933 30.0842L60.1808 30.2278C59.9797 30.9226 60.398 31.5563 60.468 32.2295C60.2903 33.2564 59.5686 34.0697 58.8666 34.7932C56.6548 35.4179 54.3425 35.5508 52.0553 35.558C52.8955 34.7393 53.8704 34.0553 54.5992 33.1254C51.8022 33.9512 49.0913 35.0715 46.2368 35.7052C44.0807 35.935 41.9012 35.8757 39.7397 35.7752C37.4902 35.461 35.1959 35.5328 32.9697 35.0481C31.9338 34.8488 30.9267 34.5347 29.9303 34.1936C29.8585 33.7465 29.801 33.2977 29.8046 32.8471C29.8405 32.6353 29.889 32.427 29.9465 32.2205C30.2122 31.6263 30.819 31.278 31.1529 30.7269C31.2229 30.1649 30.9734 29.5546 31.2786 29.0339C31.6107 28.3302 32.178 27.788 32.7112 27.2369C33.0702 26.9173 32.9966 26.3949 33.09 25.9676C33.1169 25.0717 34.0451 24.6768 34.4867 24.0089C34.6806 23.5314 34.6285 22.9892 34.8242 22.5117C35.1187 22.0503 35.5998 21.7541 35.9265 21.3178C36.1491 20.8331 36.0612 20.2299 36.4166 19.8026C37.0558 18.9947 37.9552 18.4615 38.7577 17.8332C39.6176 18.5136 40.7038 19.0701 41.833 18.8942C42.8258 18.7147 43.8904 18.5244 44.6642 17.8188C45.5546 16.9481 45.7342 15.5316 45.3069 14.3952C44.9999 13.6466 44.3464 13.1241 43.648 12.7597C43.8204 12.6502 43.9945 12.5407 44.1687 12.4312C44.2297 11.6628 43.9317 10.9393 43.8545 10.1871ZM49.3786 21.0808C47.8867 21.711 46.2745 21.9605 44.7037 22.3088C42.8186 22.6481 40.8905 22.5691 38.9875 22.5099C38.018 22.4937 37.1671 22.0072 36.2766 21.6984C36.0235 21.8672 35.887 22.1508 35.7703 22.4183C35.5046 22.9192 35.9247 23.4739 36.3287 23.7522C37.65 24.6032 39.2801 24.3411 40.7648 24.3788C42.1723 24.4452 43.5206 24.0018 44.8975 23.7935C46.0717 23.4739 47.2135 23.0341 48.3517 22.6014C49.4773 22.1454 50.5994 21.4758 51.1936 20.3717C50.5401 20.474 49.9584 20.7846 49.3786 21.0808ZM51.9512 22.9461C48.5186 24.8042 44.5726 25.2351 40.7666 25.7288C39.6535 25.8527 38.5853 25.4093 37.4759 25.4344C37.6536 25.7486 37.8906 26.0358 38.2514 26.1453C39.3986 26.5744 40.6158 26.876 41.8474 26.8688C43.0825 26.8598 44.3338 26.9406 45.5439 26.6336C47.5456 26.3554 49.5778 26.0179 51.4162 25.1346C52.8381 24.5457 54.5436 23.9407 55.1612 22.3878C55.4125 21.8923 55.0822 21.386 54.8973 20.9336C53.9871 21.7056 53.0481 22.4578 51.9512 22.9461ZM49.6694 27.1453C48.5527 27.4954 47.4091 27.7521 46.2907 28.095C45.1381 28.4523 43.9173 28.4163 42.7432 28.6605C41.3878 28.9513 39.9946 28.7952 38.6195 28.8418C37.4812 28.8993 36.3771 28.5761 35.2713 28.3643C34.5693 28.2207 34.0541 27.6731 33.4042 27.411C32.6699 27.7557 32.3593 28.7359 32.5676 29.4845C33.0792 30.3391 34.0684 30.84 35.0415 30.9477C36.1132 31.0752 37.1689 31.3606 38.255 31.3516C39.5745 31.3768 40.8564 31.0051 42.1669 30.9244C43.508 30.8274 44.7611 30.3193 46.0519 29.9908C47.7503 29.5276 49.4558 28.989 50.971 28.0734C51.935 27.4469 52.9835 26.8132 53.5059 25.7396C52.1774 26.0645 50.9728 26.7449 49.6694 27.1453ZM55.8631 28.49C54.4233 29.3427 52.8524 29.937 51.3139 30.5868C48.5312 31.5886 45.6049 32.0859 42.6983 32.5796C40.5601 32.9835 38.3753 32.655 36.221 32.8256C36.9947 33.5868 38.1455 33.6711 39.158 33.874C43.0718 34.3587 47.0393 33.7537 50.8292 32.7609C53.391 31.8687 56.1683 30.9477 57.9403 28.7628C58.4699 28.2171 58.5525 27.2638 57.8649 26.8114C57.2222 27.3984 56.6225 28.0483 55.8631 28.49Z" fill="#FFEFCD" stroke="#FFEFCD" stroke-width="0.229796"/>
<path d="M41.0197 13.476C41.4255 13.4688 41.9641 13.3145 42.2172 13.7417C42.5134 13.9859 42.4883 14.3719 42.4811 14.7184C42.1238 14.7561 41.7612 14.8225 41.4057 14.7489C41.0557 14.4221 40.9946 13.9266 41.0197 13.476Z" fill="#FEFCFC" stroke="#FEFCFC" stroke-width="0.229796"/>
<path d="M38.0719 15.1169C38.3143 14.9858 38.5602 14.8548 38.808 14.7273C39.3358 14.9015 39.6715 15.3198 39.7092 15.8781C39.4219 15.9912 39.1437 16.2138 38.8223 16.1169C38.4507 15.8961 38.2389 15.4993 38.0719 15.1169Z" fill="#FEFDFD" stroke="#FEFDFD" stroke-width="0.229796"/>
<path d="M48.6371 19.4615C49.6874 18.5351 50.4683 17.3233 50.9315 16.0038L51.0931 16.0882C51.5993 16.37 52.1613 16.6196 52.5311 17.0863C52.8722 17.7721 52.2779 18.431 51.7555 18.808C49.8058 20.246 47.3409 20.6105 45.0286 21.0826C43.192 21.4381 41.0664 21.4237 39.5315 20.2191C40.9372 19.6859 42.4757 19.869 43.9461 19.7326C45.8832 19.8708 47.2817 18.2622 48.4684 16.9625C48.2422 18.045 47.5617 18.9265 47.007 19.8547C47.5617 19.8223 48.1973 19.8744 48.6371 19.4615Z" fill="#FFD2A6" stroke="#FFD2A6" stroke-width="0.229796"/>
<path d="M49.3786 21.0808C49.9584 20.7846 50.5401 20.474 51.1936 20.3717C50.5993 21.4758 49.4773 22.1454 48.3517 22.6014C47.2135 23.0341 46.0717 23.4739 44.8975 23.7935C43.5206 24.0018 42.1723 24.4452 40.7648 24.3788C39.2801 24.3411 37.65 24.6032 36.3287 23.7522C35.9247 23.4739 35.5046 22.9192 35.7703 22.4183C35.887 22.1508 36.0235 21.8672 36.2766 21.6984C37.1671 22.0072 38.018 22.4937 38.9875 22.5099C40.8905 22.5691 42.8186 22.6481 44.7037 22.3088C46.2745 21.9605 47.8867 21.711 49.3786 21.0808Z" fill="#FFD2A6" stroke="#FFD2A6" stroke-width="0.229796"/>
<path d="M51.9512 22.9461C53.0481 22.4578 53.9871 21.7056 54.8973 20.9336C55.0822 21.386 55.4125 21.8923 55.1612 22.3878C54.5436 23.9407 52.8381 24.5457 51.4162 25.1346C49.5778 26.0179 47.5456 26.3554 45.5439 26.6336C44.3338 26.9406 43.0825 26.8598 41.8474 26.8688C40.6158 26.876 39.3986 26.5744 38.2514 26.1453C37.8906 26.0358 37.6536 25.7486 37.4759 25.4344C38.5853 25.4093 39.6535 25.8527 40.7666 25.7288C44.5726 25.2351 48.5186 24.8042 51.9512 22.9461Z" fill="#FFD2A6" stroke="#FFD2A6" stroke-width="0.229796"/>
<path d="M49.6694 27.1453C50.9728 26.745 52.1774 26.0645 53.5059 25.7396C52.9835 26.8132 51.935 27.4469 50.971 28.0735C49.4558 28.9891 47.7503 29.5276 46.0519 29.9908C44.7611 30.3194 43.508 30.8274 42.1669 30.9244C40.8564 31.0052 39.5745 31.3768 38.255 31.3516C37.1689 31.3606 36.1132 31.0752 35.0415 30.9477C34.0684 30.84 33.0792 30.3391 32.5676 29.4845C32.3593 28.7359 32.6699 27.7557 33.4042 27.411C34.0541 27.6731 34.5693 28.2207 35.2712 28.3643C36.3771 28.5761 37.4812 28.8993 38.6195 28.8418C39.9946 28.7952 41.3878 28.9514 42.7432 28.6605C43.9173 28.4164 45.1381 28.4523 46.2907 28.095C47.4091 27.7521 48.5527 27.4954 49.6694 27.1453Z" fill="#FFD2A6" stroke="#FFD2A6" stroke-width="0.229796"/>
<path d="M55.8631 28.49C56.6225 28.0483 57.2222 27.3984 57.8649 26.8114C58.5525 27.2638 58.4699 28.2171 57.9403 28.7628C56.1683 30.9477 53.391 31.8687 50.8292 32.7609C47.0393 33.7537 43.0717 34.3587 39.158 33.874C38.1455 33.6711 36.9947 33.5868 36.221 32.8256C38.3753 32.655 40.5601 32.9835 42.6983 32.5796C45.6049 32.0859 48.5312 31.5886 51.3139 30.5868C52.8524 29.937 54.4233 29.3427 55.8631 28.49Z" fill="#FFD2A6" stroke="#FFD2A6" stroke-width="0.229796"/>
<path d="M27.618 34.0248C27.5587 32.7825 29.0291 32.5114 29.9465 32.2206C29.889 32.427 29.8405 32.6353 29.8046 32.8471C29.4133 32.9333 29.0237 33.032 28.6413 33.1487C28.8065 33.7609 29.372 34.0266 29.9303 34.1936C30.9267 34.5347 31.9338 34.8488 32.9697 35.0481C35.1959 35.5328 37.4902 35.461 39.7397 35.7752C41.9012 35.8757 44.0807 35.935 46.2368 35.7052C47.5797 35.9045 48.9405 35.8757 50.2942 35.8488C50.892 35.838 51.4808 35.7178 52.0553 35.558C54.3425 35.5508 56.6548 35.4179 58.8666 34.7932C59.7732 34.6711 60.7086 34.4467 61.4572 33.8991C61.8576 33.5114 61.9527 32.9315 62.1233 32.4234C62.5272 32.8004 62.9868 33.1254 63.3225 33.5688C63.5038 34.1505 63.2363 34.7483 63.0748 35.3048C63.0604 34.9512 63.0389 34.5993 63.0209 34.2456C62.1771 34.5598 61.371 34.9673 60.5273 35.2761C59.6637 35.4144 58.7984 35.5293 57.951 35.7447C57.829 35.7644 57.5848 35.8039 57.4627 35.8219C57.0893 35.8775 56.7177 35.9206 56.3443 35.9511C55.4107 36.005 54.4772 36.0732 53.5544 36.2222C53.0715 36.294 52.5867 36.3533 52.102 36.3694C51.5329 36.3748 50.9674 36.3497 50.4019 36.3694C49.9297 36.4036 49.4612 36.4646 48.9926 36.4987C48.3463 36.5382 47.7 36.5526 47.0555 36.5777C46.7826 38.0534 46.8903 39.5597 46.7485 41.0479C46.6156 44.0945 46.7988 47.1501 46.5582 50.1931C46.4433 52.9453 46.5402 55.701 46.463 58.4532C46.3428 60.6219 46.0429 62.787 46.2135 64.9629C46.1686 65.5894 46.1399 66.2196 46.113 66.8479C45.4756 69.0705 45.429 71.4151 44.6875 73.6143C44.3769 71.3236 44.648 69.0094 44.5026 66.7097C44.3697 64.9754 44.3805 63.2358 44.2315 61.5034C44.1202 57.7369 44.3177 53.9614 44.0502 50.1985C43.9766 46.8467 44.0089 43.4931 43.9856 40.1395C44.0035 38.9421 44.0322 37.7357 43.8204 36.5526C43.1579 36.5131 42.4811 36.5185 41.8492 36.7393L41.7181 36.7806C40.4399 36.1845 39.0019 36.4718 37.6554 36.2204C36.2174 35.9637 34.747 35.9978 33.3162 35.7052C31.9231 35.4072 30.4815 35.3587 29.1242 34.8991C28.6072 34.6316 28.1153 34.3228 27.618 34.0248Z" fill="#FFC7D7" stroke="#FFC7D7" stroke-width="0.229796"/>
<path d="M28.6413 33.1487C29.0237 33.032 29.4133 32.9333 29.8046 32.8471C29.801 33.2977 29.8585 33.7465 29.9303 34.1936C29.372 34.0266 28.8064 33.7609 28.6413 33.1487Z" fill="#FF99A9" stroke="#FF99A9" stroke-width="0.229796"/>
<path d="M46.2368 35.7052C49.0913 35.0715 51.8022 33.9512 54.5993 33.1254C53.8704 34.0553 52.8955 34.7393 52.0553 35.558C51.4808 35.7178 50.892 35.838 50.2942 35.8488C48.9405 35.8757 47.5797 35.9045 46.2368 35.7052Z" fill="#FFD2A6" stroke="#FFD2A6" stroke-width="0.229796"/>
<path d="M27.618 34.0248C28.1153 34.3228 28.6072 34.6316 29.1242 34.8991C28.7813 34.953 28.4438 35.0266 28.1081 35.1038C28.8908 35.4808 29.7131 35.777 30.5622 35.9709C30.5425 37.2797 30.3576 38.6387 30.8315 39.8954C31.0218 39.3137 31.1295 38.6979 31.4186 38.1558C31.6466 37.6513 32.4203 37.7464 32.6825 38.1737C33.8997 39.881 34.4364 41.9564 34.7686 43.9994C35.203 45.7013 35.8816 47.344 36.1276 49.0944C36.361 51.1069 36.7362 53.0979 36.9606 55.1122C37.2945 56.6148 37.352 58.148 37.3897 59.6812C37.0055 58.6184 37.0899 57.4712 36.8708 56.3743C36.5549 54.7818 36.4795 53.1535 36.1797 51.5575C35.8978 50.0638 35.9229 48.493 35.2784 47.0891C35.1348 48.3691 35.1635 49.6653 35.3736 50.9382C35.58 52.141 35.5477 53.3654 35.6734 54.5772C36.0432 57.4694 35.9983 60.3975 36.3197 63.2951C36.5567 65.6594 36.5639 68.0436 36.8942 70.399C37.1294 72.39 37.1222 74.4007 37.3861 76.3898C37.4992 77.3611 37.5854 78.3359 37.6751 79.309L37.5369 79.2695C36.7129 78.3862 36.4346 77.1869 36.1438 76.0541C35.8834 74.9087 35.4598 73.8082 35.2012 72.6628C34.6519 70.2069 34.2013 67.7312 33.7812 65.2501C32.9553 61.6326 32.695 57.92 32.011 54.2756C31.9428 56.0062 32.1223 57.7369 32.2713 59.4585C32.6501 61.586 32.5496 63.7618 32.9194 65.8874C33.1259 67.2393 33.1349 68.6091 33.2103 69.9717C32.3988 66.5912 31.8423 63.155 31.2426 59.7332C30.9967 58.6291 30.6807 57.5376 30.6053 56.403C30.4832 55.4156 30.1709 54.4587 30.108 53.4623C30.029 52.36 29.7131 51.2918 29.6125 50.1931C29.4617 48.3781 29.0506 46.6007 28.7508 44.8091C28.6161 43.8199 28.6323 42.8145 28.4241 41.8343C28.0291 40.1754 28.2068 38.4412 27.8101 36.7824C27.5839 35.8793 27.6575 34.944 27.618 34.0248ZM32.0451 40.9187C31.6286 41.0731 31.6681 41.5632 31.6286 41.9223C31.546 43.7175 31.582 45.5182 31.6897 47.3099C32.0703 49.2524 32.1044 51.3044 33.0074 53.1086C33.1187 53.5413 33.8045 53.4246 33.8656 53.0314C34.3449 50.6994 34.0469 48.3063 33.8153 45.9652C33.4652 44.5308 33.2228 43.0694 32.8009 41.6548C32.6717 41.3388 32.5047 40.6961 32.0451 40.9187ZM34.1977 57.701C33.1905 59.0331 33.6537 60.7709 34.1779 62.1946C34.2946 62.577 34.6609 62.7708 34.9678 62.9827C35.2533 62.2951 35.598 61.5752 35.4921 60.8104C35.3879 60.0672 35.2371 59.3275 35.0145 58.6094C34.905 58.1875 34.5298 57.9397 34.1977 57.701Z" fill="#FFD7E2" stroke="#FFD7E2" stroke-width="0.229796"/>
<path d="M60.5273 35.2761C61.371 34.9673 62.1771 34.5598 63.0209 34.2456C63.0389 34.5993 63.0604 34.9512 63.0748 35.3049C63.0819 36.2007 62.915 37.084 62.8701 37.9762C62.7408 39.899 62.2184 41.7697 62.0766 43.6924C61.933 45.4536 61.5506 47.1842 61.38 48.9436C61.0048 50.9723 60.8773 53.044 60.3441 55.044C59.7679 58.7171 59.1359 62.3849 58.4358 66.0383C58.2742 67.0095 58.1467 68.0113 57.7051 68.9053C57.8038 67.1998 57.89 65.4889 58.1647 63.8013C58.4735 61.945 58.3963 60.0546 58.6709 58.1947C58.9851 56.2324 58.9564 54.2379 59.1862 52.2667C59.5452 49.5719 59.5022 46.8395 59.8612 44.143C60.03 42.179 60.1 40.206 60.2382 38.2401C60.3262 37.2509 60.4698 36.2689 60.5273 35.2761Z" fill="#FFA8B6" stroke="#FFA8B6" stroke-width="0.229796"/>
<path d="M28.1081 35.1038C28.4438 35.0266 28.7813 34.953 29.1242 34.8991C30.4814 35.3587 31.9231 35.4072 33.3162 35.7052C34.747 35.9978 36.2174 35.9637 37.6554 36.2204C39.0019 36.4718 40.4399 36.1845 41.7181 36.7806C41.5889 36.8219 41.3303 36.9062 41.2011 36.9475C38.781 37.3156 36.3179 36.9906 33.923 36.5939C32.7974 36.4053 31.6645 36.2635 30.5622 35.9709C29.7131 35.777 28.8908 35.4808 28.1081 35.1038Z" fill="#FFFBFC" stroke="#FFFBFC" stroke-width="0.229796"/>
<path d="M57.951 35.7447C58.7984 35.5293 59.6637 35.4144 60.5272 35.2761C60.4698 36.2689 60.3262 37.2509 60.2382 38.2401C60.1 40.206 60.03 42.179 59.8612 44.143C59.5022 46.8395 59.5452 49.5719 59.1862 52.2667C58.9564 54.2379 58.9851 56.2324 58.6709 58.1947C58.3963 60.0546 58.4735 61.945 58.1647 63.8013C57.89 65.4889 57.8038 67.1998 57.7051 68.9053C57.4322 71.4708 56.7428 73.9698 56.2868 76.5047C55.7069 78.3323 55.4933 80.2874 54.6477 82.0216C54.8039 80.0325 55.0552 78.0523 55.2186 76.0631C55.6082 74.0901 55.5615 72.0668 55.9367 70.0938C56.1611 68.5355 56.4017 66.9772 56.4933 65.4045C56.5902 63.6523 56.9528 61.9271 57.0265 60.1713C57.1036 58.2036 57.5166 56.2683 57.5794 54.2989C57.6279 52.5216 57.9726 50.773 58.1198 49.0046C58.3855 47.256 58.4268 45.4859 58.556 43.7247C58.6243 42.5865 58.8648 41.468 58.8935 40.328C58.9277 38.7733 59.179 37.2276 59.0874 35.6711C58.7068 35.6908 58.328 35.7088 57.951 35.7447Z" fill="#FF99AA" stroke="#FF99AA" stroke-width="0.229796"/>
<path d="M57.951 35.7447C58.328 35.7088 58.7069 35.6908 59.0875 35.6711C59.179 37.2276 58.9277 38.7733 58.8936 40.328C58.8648 41.468 58.6243 42.5865 58.556 43.7247C58.4268 45.4859 58.3855 47.256 58.1198 49.0046C57.9726 50.773 57.6279 52.5216 57.5794 54.2989C57.5166 56.2683 57.1037 58.2036 57.0265 60.1713C56.9529 61.9271 56.5902 63.6523 56.4933 65.4045C56.4017 66.9772 56.1611 68.5355 55.9367 70.0938C55.5615 72.0668 55.6082 74.0901 55.2186 76.0631C55.0553 78.0523 54.8039 80.0325 54.6477 82.0216C54.6046 82.3771 54.5131 82.7236 54.4341 83.0737C54.33 83.1042 54.1253 83.167 54.023 83.1975C54.0158 82.1635 54.0337 81.124 54.1989 80.1007C54.5597 77.8799 54.4502 75.6143 54.7985 73.3917C55.0965 71.3307 54.9978 69.2356 55.2761 67.1747C55.6585 64.8588 55.5113 62.4944 55.8075 60.1713C56.0965 58.7153 55.9744 57.2198 56.2186 55.7603C56.4197 54.4766 56.355 53.1733 56.4735 51.8843C56.5633 50.8987 56.5669 49.9112 56.5902 48.9238C56.6189 47.6671 56.9116 46.432 56.9152 45.1735C56.9134 43.4913 57.136 41.8181 57.1126 40.1377C57.1019 38.6907 57.3137 37.2581 57.4627 35.8219C57.5848 35.8039 57.829 35.7644 57.951 35.7447Z" fill="#FF7A8D" stroke="#FF7A8D" stroke-width="0.229796"/>
<path d="M56.3443 35.9511C56.7177 35.9206 57.0893 35.8775 57.4627 35.8219C57.3137 37.2581 57.1019 38.6907 57.1127 40.1377C57.136 41.8181 56.9134 43.4913 56.9152 45.1735C56.9116 46.432 56.6189 47.6671 56.5902 48.9238C56.5669 49.9112 56.5633 50.8986 56.4735 51.8842C56.355 53.1733 56.4197 54.4766 56.2186 55.7603C55.9744 57.2198 56.0965 58.7153 55.8075 60.1713C55.5113 62.4944 55.6585 64.8587 55.2761 67.1746C54.9978 69.2356 55.0965 71.3307 54.7985 73.3917C54.4502 75.6143 54.5598 77.8799 54.1989 80.1007C54.0337 81.124 54.0158 82.1634 54.023 83.1975C54.1253 83.167 54.33 83.1042 54.4341 83.0736C53.4467 85.2962 52.2959 87.5511 50.4073 89.1489C50.2295 89.2961 50.0518 89.4415 49.8705 89.5815C46.9226 91.6012 42.456 91.3553 39.9516 88.7144C39.5889 88.3123 39.0593 87.9407 39.0037 87.3662C38.9803 86.3339 39.0126 85.3016 38.9821 84.2693C39.4884 84.2424 40.0395 84.298 40.4901 84.0162C40.8618 83.7953 41.1903 83.5117 41.5081 83.2191C41.5547 84.0449 41.6696 84.8653 41.7504 85.6894C41.8707 86.6534 41.8905 87.6893 42.4739 88.5151C42.6535 87.2369 42.5547 85.9461 42.5709 84.6625C42.5673 83.5745 42.7019 82.4615 42.3734 81.404C42.7558 80.817 43.0323 80.1653 43.1795 79.4795C43.6588 77.9499 43.9227 76.3593 44.4918 74.8584C44.9855 76.9553 44.8904 79.1186 44.9029 81.255C44.8922 82.9336 45.1112 84.6032 45.0681 86.2818C45.0358 86.8401 45.1327 87.3967 45.4361 87.8724C45.7754 86.5619 45.5439 85.1993 45.7036 83.869C46.1938 79.5836 45.8096 75.2642 46.0645 70.9681C46.1489 69.5965 46.1417 68.2213 46.113 66.8479C46.1399 66.2196 46.1686 65.5894 46.2135 64.9629C46.6121 63.5859 46.6857 62.1479 47.007 60.7547C47.4774 58.8769 47.5546 56.9326 47.9334 55.0368C48.068 53.4515 48.3571 51.8914 48.6335 50.3295C48.6892 53.3977 48.6371 56.4676 48.5994 59.5357C48.3212 63.5607 48.6138 67.6037 48.3696 71.6305C48.0016 75.7256 48.1596 79.8386 48.1219 83.9444C48.1704 85.3573 47.9441 86.8042 48.3445 88.1848C48.779 87.1166 48.831 85.9497 48.9782 84.8187C49.1057 83.1455 49.4055 81.4884 49.4432 79.808C49.6012 78.0361 49.5384 76.248 49.822 74.4868C50.0859 71.6467 49.98 68.7742 50.4055 65.9485C50.5222 64.7779 50.454 63.6002 50.5509 62.4297C50.6748 60.9863 50.6083 59.5268 50.8471 58.0941C51.1128 56.5071 50.953 54.8931 51.102 53.2971C51.2403 51.7263 51.1433 50.1392 51.3929 48.5773C51.6209 47.0729 51.5006 45.5451 51.6765 44.0371C52.032 41.495 51.8345 38.9205 52.102 36.3694C52.5867 36.3533 53.0715 36.294 53.5544 36.2222C53.847 36.698 53.9637 37.2473 53.9171 37.8021C53.8219 40.021 53.9727 42.2454 53.7519 44.459C53.5526 46.3656 53.4898 48.2793 53.5293 50.1949C53.5418 51.6401 53.1684 53.053 53.163 54.4964C53.1451 56.0206 53.2133 57.5466 53.0661 59.0654C52.8722 60.9558 53.1325 62.866 52.8148 64.7456C52.4844 66.6163 52.7304 68.5211 52.5383 70.4044C52.3659 72.0973 52.5544 73.8136 52.2528 75.4958C51.9961 76.9859 52.1379 78.4993 52.0571 80.0001C51.8902 82.2281 51.795 84.474 51.9907 86.7019C52.2223 86.2315 52.4054 85.7289 52.4395 85.2011C52.5634 83.8259 52.558 82.4363 52.7932 81.0719C53.1289 79.0989 53.0176 77.0864 53.3102 75.1098C53.5095 73.9429 53.5418 72.7544 53.7124 71.5839C53.9637 69.6845 53.953 67.7635 54.1415 65.8587C54.5041 63.5356 54.4987 61.1766 54.6585 58.8374C55.0804 56.2396 55.014 53.5987 55.224 50.983C55.47 49.6114 55.4843 48.2183 55.5597 46.8323C55.7339 45.0999 55.5508 43.3459 55.8901 41.6296C56.1037 39.741 56.0139 37.8308 56.3443 35.9511Z" fill="#FF99AA" stroke="#FF99AA" stroke-width="0.229796"/>
<path d="M30.5622 35.9709C31.6645 36.2635 32.7974 36.4053 33.923 36.5938C34.1636 36.6962 34.4023 36.8129 34.6429 36.9278C34.6896 38.3568 34.6483 39.7948 34.8601 41.2131C34.9661 42.1359 35.1958 43.1215 34.7686 43.9994C34.4364 41.9563 33.8997 39.881 32.6825 38.1737C32.4203 37.7464 31.6466 37.6513 31.4186 38.1557C31.1295 38.6979 31.0218 39.3137 30.8315 39.8954C30.3576 38.6387 30.5425 37.2796 30.5622 35.9709Z" fill="#FFADC6" stroke="#FFADC6" stroke-width="0.229796"/>
<path d="M53.5544 36.2222C54.4772 36.0732 55.4107 36.005 56.3443 35.9511C56.0139 37.8308 56.1037 39.741 55.8901 41.6296C55.5508 43.3459 55.7339 45.0999 55.5597 46.8323C55.4843 48.2183 55.47 49.6114 55.224 50.983C55.014 53.5987 55.0804 56.2396 54.6585 58.8374C54.4987 61.1766 54.5041 63.5356 54.1415 65.8587C53.953 67.7635 53.9637 69.6845 53.7124 71.5839C53.5418 72.7544 53.5095 73.9429 53.3102 75.1098C53.0176 77.0864 53.1289 79.0989 52.7932 81.0719C52.558 82.4363 52.5634 83.8259 52.4395 85.2011C52.4054 85.7289 52.2223 86.2316 51.9907 86.7019C51.795 84.474 51.8902 82.2281 52.0571 80.0001C52.1379 78.4993 51.9961 76.9859 52.2528 75.4958C52.5544 73.8136 52.3659 72.0973 52.5383 70.4044C52.7304 68.5211 52.4844 66.6163 52.8147 64.7456C53.1325 62.866 52.8722 60.9558 53.0661 59.0654C53.2133 57.5466 53.1451 56.0206 53.163 54.4964C53.1684 53.053 53.5418 51.6401 53.5293 50.1949C53.4898 48.2793 53.5526 46.3656 53.7519 44.459C53.9727 42.2454 53.8219 40.021 53.9171 37.8021C53.9637 37.2473 53.847 36.698 53.5544 36.2222Z" fill="#FFADBA" stroke="#FFADBA" stroke-width="0.229796"/>
<path d="M48.9926 36.4987C49.4612 36.4646 49.9297 36.4036 50.4019 36.3694C50.0446 37.0337 49.9854 37.7895 49.971 38.5292C49.9405 39.8577 49.6012 41.1539 49.5348 42.4806C49.4378 44.371 49.1775 46.2543 48.7413 48.0944C48.6443 45.9832 48.6282 43.8629 48.8077 41.7553C48.8508 40.0013 48.901 38.2491 48.9926 36.4987Z" fill="#FF9BB7" stroke="#FF9BB7" stroke-width="0.229796"/>
<path d="M50.4019 36.3695C50.9674 36.3497 51.5329 36.3748 52.102 36.3695C51.8345 38.9205 52.032 41.495 51.6765 44.0371C51.5006 45.5451 51.6209 47.0729 51.3929 48.5774C51.1433 50.1392 51.2403 51.7263 51.102 53.2971C50.953 54.8932 51.1128 56.5071 50.8471 58.0941C50.6083 59.5268 50.6748 60.9863 50.5509 62.4297C50.454 63.6003 50.5222 64.778 50.4055 65.9485C49.98 68.7743 50.0859 71.6467 49.822 74.4868C49.5384 76.248 49.6012 78.0361 49.4432 79.8081C49.4055 81.4884 49.1057 83.1455 48.9782 84.8187C48.831 85.9497 48.7789 87.1166 48.3445 88.1848C47.9441 86.8043 48.1703 85.3573 48.1219 83.9444C48.1596 79.8386 48.0016 75.7256 48.3696 71.6305C48.6138 67.6037 48.3211 63.5608 48.5994 59.5357C48.6371 56.4676 48.6892 53.3977 48.6335 50.3295C48.6533 49.5827 48.6802 48.8377 48.7413 48.0944C49.1775 46.2543 49.4378 44.371 49.5348 42.4806C49.6012 41.1539 49.9405 39.8577 49.971 38.5292C49.9854 37.7895 50.0446 37.0337 50.4019 36.3695Z" fill="#FF8193" stroke="#FF8193" stroke-width="0.229796"/>
<path d="M33.923 36.5938C36.3179 36.9906 38.781 37.3155 41.2011 36.9475C40.4704 37.2186 39.6877 37.2778 38.9157 37.2599C38.2802 37.2527 37.6446 37.2617 37.0127 37.2832C36.9552 39.8487 36.9516 42.4213 37.1276 44.985C37.2568 47.2327 37.0989 49.4858 37.2568 51.7334C37.4938 54.4712 37.6518 57.227 37.4687 59.9738C37.4489 59.9002 37.4094 59.7548 37.3897 59.6811C37.352 58.148 37.2945 56.6148 36.9606 55.1122C36.7362 53.0979 36.361 51.1069 36.1276 49.0944C35.8817 47.344 35.203 45.7013 34.7686 43.9994C35.1959 43.1215 34.9661 42.1359 34.8601 41.2131C34.6483 39.7948 34.6896 38.3568 34.6429 36.9278C34.4023 36.8129 34.1636 36.6962 33.923 36.5938Z" fill="#FFCFDD" stroke="#FFCFDD" stroke-width="0.229796"/>
<path d="M41.8492 36.7393C42.4811 36.5184 43.1579 36.513 43.8204 36.5525C44.0322 37.7356 44.0035 38.9421 43.9856 40.1395C44.0089 43.4931 43.9766 46.8467 44.0502 50.1985C44.3177 53.9614 44.1202 57.7369 44.2315 61.5034C44.3805 63.2358 44.3697 64.9754 44.5026 66.7097C44.648 69.0094 44.3769 71.3235 44.6875 73.6143C44.6247 74.029 44.5583 74.4437 44.4918 74.8584C43.9227 76.3593 43.6588 77.9499 43.1795 79.4795C42.9928 79.8386 42.7881 80.1868 42.587 80.5369C42.6301 78.2551 42.359 75.9859 42.3572 73.7041C42.0987 70.5408 42.2567 67.3649 42.201 64.1963C42.2747 62.1568 41.9712 60.13 42.0305 58.0923C42.0305 52.7065 42.0341 47.3206 42.0197 41.9348C41.9695 40.2023 42.1544 38.4555 41.8492 36.7393Z" fill="#FFAEC7" stroke="#FFAEC7" stroke-width="0.229796"/>
<path d="M47.0555 36.5777C47.7 36.5525 48.3463 36.5382 48.9926 36.4987C48.901 38.2491 48.8507 40.0013 48.8077 41.7553C48.6281 43.8629 48.6443 45.9832 48.7412 48.0944C48.6802 48.8377 48.6533 49.5827 48.6335 50.3295C48.357 51.8914 48.068 53.4515 47.9334 55.0368C47.5546 56.9326 47.4773 58.8769 47.007 60.7547C46.6856 62.1479 46.612 63.5859 46.2135 64.9629C46.0429 62.787 46.3427 60.6219 46.463 58.4532C46.5402 55.701 46.4433 52.9453 46.5582 50.1931C46.7987 47.1501 46.6156 44.0945 46.7485 41.0479C46.8903 39.5596 46.7826 38.0534 47.0555 36.5777Z" fill="#FFAEC7" stroke="#FFAEC7" stroke-width="0.229796"/>
<path d="M41.2011 36.9475C41.3303 36.9062 41.5889 36.8218 41.7181 36.7805L41.8492 36.7393C42.1544 38.4555 41.9695 40.2023 42.0197 41.9348C42.0341 47.3206 42.0305 52.7065 42.0305 58.0923C41.9713 60.13 42.2747 62.1568 42.201 64.1963C42.2567 67.3649 42.0987 70.5408 42.3572 73.7041C42.359 75.9859 42.6301 78.2551 42.587 80.5369C42.7881 80.1868 42.9928 79.8386 43.1795 79.4795C43.0323 80.1653 42.7558 80.817 42.3734 81.404C42.0754 81.8924 41.7845 82.3861 41.5583 82.9121C41.4811 81.4507 41.1113 80.0199 41.1023 78.5513C40.9264 76.564 41.0197 74.5568 40.6697 72.5856C40.5602 70.6862 40.3932 68.7886 40.4094 66.8856C40.4201 65.4979 40.0198 64.1478 40.0467 62.76C40.0826 61.1928 39.641 59.6614 39.693 58.0923C39.7523 56.3527 39.4471 54.6256 39.5099 52.886C39.5764 50.9597 39.0755 49.0674 39.1545 47.1393C39.2245 45.2202 38.8888 43.3154 38.9713 41.3962C39.0288 40.0156 38.8385 38.6387 38.9157 37.2599C39.6877 37.2778 40.4704 37.2186 41.2011 36.9475Z" fill="#FF9FBB" stroke="#FF9FBB" stroke-width="0.229796"/>
<path d="M37.0127 37.2833C37.6446 37.2617 38.2801 37.2527 38.9157 37.2599C38.8385 38.6387 39.0288 40.0157 38.9713 41.3962C38.8887 43.3154 39.2245 45.2202 39.1544 47.1393C39.0754 49.0675 39.5763 50.9597 39.5099 52.886C39.4471 54.6257 39.7523 56.3527 39.693 58.0923C39.641 59.6614 40.0826 61.1928 40.0467 62.7601C40.0198 64.1478 40.4201 65.4979 40.4093 66.8856C40.3932 68.7886 40.5601 70.6862 40.6697 72.5856C41.0197 74.5569 40.9264 76.564 41.1023 78.5514C41.1113 80.0199 41.4811 81.4507 41.5583 82.9121C41.5458 82.9893 41.5206 83.1437 41.508 83.2191C41.1903 83.5117 40.8618 83.7954 40.4901 84.0162C40.0395 84.298 39.4884 84.2424 38.9821 84.2693C39.0126 85.3016 38.9803 86.3339 39.0036 87.3662C38.8798 87.3303 38.6302 87.2585 38.5045 87.2226C38.492 87.0574 38.4848 86.894 38.4794 86.7307C38.4668 86.2782 38.4758 85.8258 38.4794 85.3752C38.571 85.4919 38.6643 85.6104 38.7595 85.7307C38.8205 84.3914 39.0503 83.0467 38.8492 81.7093C38.6787 80.598 38.5764 79.4777 38.5871 78.3539C38.5853 75.792 38.6572 73.223 38.4184 70.6683C38.4184 68.7958 38.1204 66.9467 37.8906 65.0939C37.6123 63.3992 37.7613 61.6667 37.4687 59.9738C37.6518 57.227 37.4938 54.4713 37.2568 51.7335C37.0988 49.4858 37.2568 47.2327 37.1276 44.985C36.9516 42.4213 36.9552 39.8487 37.0127 37.2833Z" fill="#FFAEC7" stroke="#FFAEC7" stroke-width="0.229796"/>
<path d="M32.0452 40.9187C32.5047 40.6961 32.6717 41.3388 32.801 41.6547C33.2228 43.0694 33.4652 44.5308 33.8153 45.9652C34.0469 48.3063 34.3449 50.6994 33.8656 53.0314C33.8045 53.4246 33.1187 53.5413 33.0074 53.1086C32.1044 51.3044 32.0703 49.2524 31.6897 47.3099C31.582 45.5182 31.5461 43.7175 31.6286 41.9222C31.6681 41.5632 31.6286 41.0731 32.0452 40.9187Z" fill="white" stroke="white" stroke-width="0.229796"/>
<path d="M35.2784 47.0891C35.9229 48.493 35.8978 50.0638 36.1797 51.5575C36.4795 53.1535 36.5549 54.7818 36.8709 56.3742C37.0899 57.4712 37.0055 58.6183 37.3897 59.6811C37.4094 59.7548 37.4489 59.9002 37.4687 59.9738C37.7613 61.6667 37.6123 63.3992 37.8906 65.0939C38.1204 66.9466 38.4184 68.7958 38.4184 70.6683C38.6572 73.2229 38.5853 75.792 38.5871 78.3539C38.4435 78.7165 38.2748 79.0702 38.1096 79.4221C38.0001 79.3951 37.7829 79.3377 37.6751 79.3089C37.5854 78.3359 37.4992 77.3611 37.3861 76.3898C37.1222 74.4006 37.1294 72.3899 36.8942 70.399C36.5639 68.0436 36.5567 65.6594 36.3197 63.295C35.9983 60.3975 36.0432 57.4694 35.6734 54.5772C35.5477 53.3653 35.58 52.141 35.3736 50.9381C35.1635 49.6653 35.1348 48.3691 35.2784 47.0891Z" fill="#FFE6ED" stroke="#FFE6ED" stroke-width="0.229796"/>
<path d="M32.011 54.2756C32.695 57.92 32.9554 61.6326 33.7812 65.2501C34.2013 67.7312 34.6519 70.2069 35.2013 72.6628C35.4598 73.8082 35.8835 74.9087 36.1438 76.0541C36.4346 77.1869 36.7129 78.3862 37.5369 79.2695C37.8457 80.5764 37.9732 81.9175 38.0952 83.2532C37.5603 82.7469 37.0486 82.1958 36.7631 81.5064C36.3484 80.6572 36.1492 79.5585 35.1959 79.1348C34.7004 77.4401 34.4293 75.6897 34.0325 73.9716C33.8997 72.6072 33.2659 71.3451 33.2103 69.9717C33.1349 68.6091 33.1259 67.2393 32.9195 65.8874C32.5496 63.7618 32.6502 61.586 32.2714 59.4585C32.1223 57.7369 31.9428 56.0062 32.011 54.2756Z" fill="#FFADC6" stroke="#FFADC6" stroke-width="0.229796"/>
<path d="M34.1977 57.701C34.5298 57.9397 34.905 58.1875 35.0145 58.6094C35.2372 59.3275 35.388 60.0671 35.4921 60.8104C35.598 61.5752 35.2533 62.2951 34.9679 62.9827C34.6609 62.7708 34.2946 62.5769 34.1779 62.1945C33.6537 60.7709 33.1905 59.0331 34.1977 57.701Z" fill="#FFFEFE" stroke="#FFFEFE" stroke-width="0.229796"/>
<path d="M44.6875 73.6143C45.429 71.4151 45.4756 69.0705 46.113 66.8479C46.1417 68.2213 46.1489 69.5965 46.0645 70.9681C45.8095 75.2642 46.1937 79.5836 45.7036 83.8689C45.5439 85.1993 45.7754 86.5619 45.4361 87.8724C45.1327 87.3967 45.0358 86.8401 45.0681 86.2818C45.1112 84.6032 44.8922 82.9336 44.9029 81.255C44.8904 79.1186 44.9855 76.9553 44.4918 74.8584C44.5582 74.4437 44.6247 74.029 44.6875 73.6143Z" fill="#FFB8C3" stroke="#FFB8C3" stroke-width="0.229796"/>
<path d="M38.1096 79.4221C38.2748 79.0702 38.4435 78.7165 38.5871 78.3539C38.5764 79.4777 38.6787 80.598 38.8492 81.7093C39.0503 83.0467 38.8205 84.3914 38.7595 85.7307C38.6643 85.6104 38.571 85.4919 38.4794 85.3752C38.5063 84.6463 38.3825 83.921 38.0952 83.2532C37.9732 81.9175 37.8457 80.5764 37.5369 79.2695L37.6751 79.309C37.7829 79.3377 38.0001 79.3951 38.1096 79.4221Z" fill="#FFCDDB" stroke="#FFCDDB" stroke-width="0.229796"/>
<path d="M35.1959 79.1348C36.1492 79.5585 36.3484 80.6572 36.7631 81.5064C37.0486 82.1958 37.5603 82.7469 38.0952 83.2532C38.3825 83.921 38.5064 84.6463 38.4794 85.3752C38.4758 85.8258 38.4669 86.2782 38.4794 86.7307C37.6931 86.07 37.3251 85.0916 36.9265 84.1796C36.5746 83.3753 36.2605 82.553 36.0163 81.7111C35.7721 80.8421 35.3251 80.0361 35.1959 79.1348Z" fill="#FF98A9" stroke="#FF98A9" stroke-width="0.229796"/>
<path d="M42.3734 81.4041C42.7019 82.4615 42.5673 83.5746 42.5709 84.6625C42.5547 85.9461 42.6534 87.2369 42.4739 88.5152C41.8905 87.6893 41.8707 86.6535 41.7504 85.6894C41.6696 84.8654 41.5547 84.0449 41.5081 83.2191C41.5206 83.1437 41.5458 82.9893 41.5583 82.9121C41.7845 82.3861 42.0754 81.8924 42.3734 81.4041Z" fill="#FF8799" stroke="#FF8799" stroke-width="0.229796"/>
<path d="M49.8705 89.5816C50.0518 89.4415 50.2295 89.2961 50.4073 89.1489C50.4037 89.2943 50.4019 89.4415 50.4019 89.5905C51.7699 89.6193 53.1002 89.9801 54.3695 90.472C55.1558 90.7629 55.285 91.7054 55.5938 92.384C55.619 92.4576 55.6692 92.6048 55.6944 92.6784C55.8757 93.3139 56.0911 93.9387 56.3622 94.5437C55.4394 95.2941 54.391 95.935 53.2115 96.1666C52.3875 96.3264 51.5652 96.497 50.7394 96.6352C50.6622 96.1289 50.5383 95.576 50.0841 95.2726C48.7987 94.2798 47.1111 94.2295 45.5905 93.8795C44.2243 93.5545 42.8043 93.6766 41.4363 93.375C39.4202 92.9585 37.3071 92.6964 35.4867 91.6677C35.6088 91.2242 35.8134 90.7718 36.2587 90.5743C37.5979 89.9298 39.088 89.5923 40.5781 89.6372C40.2029 89.9173 39.8403 90.2243 39.6643 90.6713C40.3842 91.0196 41.1077 91.3984 41.8994 91.5618C43.9676 91.8508 46.0609 91.8508 48.138 91.6587C49.1937 91.6533 50.1452 91.1614 51.0661 90.7C50.9207 90.1094 50.3498 89.858 49.8705 89.5816ZM52.172 89.9999C52.3354 90.2961 52.5419 90.5851 52.6119 90.9244C52.4108 91.4038 51.8938 91.5995 51.4396 91.7521C49.2816 92.4809 46.9693 92.3804 44.7234 92.393C42.885 92.4145 41.018 92.2996 39.2586 91.7287C38.8834 91.6102 38.5171 91.4181 38.2873 91.0914C38.054 90.8329 38.2837 90.4882 38.3179 90.1991C37.8906 90.3912 37.4112 90.5205 37.0737 90.8598C36.984 91.1614 36.9355 91.5851 37.2497 91.7772C37.8259 92.2152 38.5728 92.3086 39.2568 92.4809C41.8707 93.0877 44.5672 92.9495 47.2278 92.9495C49.4109 92.9459 51.6334 92.7538 53.7016 92.0213C54.1989 91.8867 54.6352 91.375 54.3264 90.8688C53.7662 90.2979 52.8937 90.253 52.172 89.9999Z" fill="#F8C3C8" stroke="#F8C3C8" stroke-width="0.229796"/>
<path d="M52.172 89.9998C52.8937 90.253 53.7662 90.2979 54.3264 90.8688C54.6352 91.375 54.1989 91.8867 53.7016 92.0213C51.6335 92.7538 49.4109 92.9459 47.2278 92.9495C44.5672 92.9495 41.8707 93.0877 39.2568 92.4809C38.5728 92.3086 37.8259 92.2152 37.2497 91.7772C36.9355 91.5851 36.984 91.1614 37.0737 90.8598C37.4112 90.5205 37.8906 90.3912 38.3179 90.1991C38.2837 90.4882 38.054 90.8329 38.2873 91.0914C38.5171 91.4181 38.8834 91.6102 39.2586 91.7287C41.018 92.2996 42.885 92.4145 44.7234 92.393C46.9693 92.3804 49.2816 92.4809 51.4396 91.752C51.8938 91.5994 52.4108 91.4038 52.6119 90.9244C52.5419 90.5851 52.3354 90.2961 52.172 89.9998Z" fill="#F8A4AC" stroke="#F8A4AC" stroke-width="0.229796"/>
<path d="M34.932 92.2906C35.1133 92.0806 35.3018 91.8741 35.4867 91.6677C37.3071 92.6964 39.4202 92.9585 41.4363 93.375C42.8043 93.6766 44.2243 93.5545 45.5905 93.8795C47.1111 94.2295 48.7987 94.2798 50.0841 95.2726C50.5383 95.576 50.6622 96.1289 50.7394 96.6352C47.3679 96.9602 43.9586 96.9853 40.5853 96.6711C38.641 96.3964 36.5836 96.1469 34.9409 94.98C34.449 94.6676 34.756 94.0572 34.8368 93.6173C34.9266 93.1919 35.3054 92.6766 34.932 92.2906Z" fill="#F1EEE7" stroke="#F1EEE7" stroke-width="0.229796"/>
<path d="M31.8225 94.7161C32.1744 93.2781 33.713 92.7718 34.932 92.2906C35.3054 92.6766 34.9266 93.1919 34.8368 93.6174C34.8494 93.5007 34.8727 93.2673 34.8853 93.1506C34.2408 93.542 33.151 93.7933 33.1133 94.6909C33.4634 95.7017 34.5262 96.2887 35.4975 96.6011C37.4812 97.1756 39.5368 97.4862 41.596 97.628C43.113 97.7321 44.6372 97.8883 46.1596 97.7842C47.3391 97.707 48.5258 97.7788 49.7017 97.6514C51.4126 97.4377 53.1379 97.3049 54.8183 96.9009C56.127 96.6191 57.5704 96.251 58.4304 95.138C58.6817 94.8489 58.6584 94.4145 58.4124 94.1326C57.7679 93.2637 56.6836 92.9621 55.6944 92.6784C55.6692 92.6048 55.619 92.4576 55.5938 92.384C56.4717 92.4235 57.2598 92.8508 57.9869 93.3086C58.4465 93.6066 58.9205 93.9962 59.0246 94.5689C59.1557 95.2116 59.2382 95.8848 59.1287 96.5401C59.0354 97.0912 58.5076 97.3892 58.0839 97.6765C57.1449 98.303 56.057 98.637 54.9691 98.8991C53.7896 99.2617 52.558 99.3856 51.3426 99.5687C50.0662 99.2922 48.8436 98.7393 47.5151 98.7393C46.2494 98.7321 45.0035 98.4969 43.745 98.4072C42.0359 98.2223 40.2873 98.251 38.6248 97.7681C36.5405 97.2636 34.4957 96.6011 32.5101 95.7968C32.2372 95.4647 32.0398 95.0805 31.8225 94.7161Z" fill="#E9B0AF" stroke="#E9B0AF" stroke-width="0.229796"/>
<path d="M55.6944 92.6784C56.6836 92.9621 57.7679 93.2637 58.4124 94.1326C58.6584 94.4144 58.6817 94.8489 58.4304 95.1379C57.5704 96.251 56.127 96.619 54.8183 96.9009C53.1379 97.3048 51.4126 97.4377 49.7017 97.6513C48.5258 97.7788 47.3391 97.707 46.1596 97.7842C44.6372 97.8883 43.1131 97.7321 41.596 97.628C39.5369 97.4862 37.4813 97.1756 35.4975 96.6011C34.5262 96.2887 33.4634 95.7017 33.1133 94.6909C33.151 93.7933 34.2408 93.5419 34.8853 93.1506C34.8727 93.2673 34.8494 93.5007 34.8368 93.6173C34.756 94.0572 34.449 94.6676 34.9409 94.98C36.5836 96.1469 38.641 96.3964 40.5853 96.6711C43.9586 96.9853 47.3679 96.9602 50.7394 96.6352C51.5652 96.497 52.3875 96.3264 53.2115 96.1666C54.391 95.935 55.4395 95.2941 56.3622 94.5437C56.0911 93.9387 55.8757 93.3139 55.6944 92.6784Z" fill="#E8989A" stroke="#E8989A" stroke-width="0.229796"/>
<path d="M31.923 96.9261C31.3486 96.3139 31.6699 95.4306 31.8225 94.7161C32.0397 95.0805 32.2372 95.4647 32.5101 95.7968C33.1384 96.5652 34.1241 96.865 35.0199 97.2043C36.115 97.567 37.1778 98.0535 38.3268 98.2312C40.1023 98.5508 41.973 98.987 43.745 98.4072C45.0035 98.4969 46.2494 98.7321 47.5151 98.7393C48.8436 98.7393 50.0662 99.2922 51.3426 99.5687C50.9458 99.7016 50.5275 99.7464 50.111 99.7464C48.7305 99.7518 47.3589 99.9565 45.9765 99.9493C44.0538 99.9924 42.1382 99.7841 40.219 99.7069C39.1544 99.4987 38.0809 99.3587 37.0127 99.1755C35.2317 98.6926 33.1941 98.4108 31.923 96.9261Z" fill="#D3C8B4" stroke="#D3C8B4" stroke-width="0.229796"/>
<path d="M32.5101 95.7968C34.4957 96.6011 36.5405 97.2636 38.6248 97.768C40.2873 98.251 42.0359 98.2222 43.745 98.4072C41.973 98.987 40.1024 98.5508 38.3268 98.2312C37.1779 98.0535 36.115 97.567 35.0199 97.2043C34.1241 96.865 33.1385 96.5652 32.5101 95.7968Z" fill="#F9F4F2" stroke="#F9F4F2" stroke-width="0.229796"/>
</g>
<defs>
<filter id="filter0_d_35_973" x="-4" y="0" width="108" height="108" filterUnits="userSpaceOnUse" color-interpolation-filters="sRGB">
<feFlood flood-opacity="0" result="BackgroundImageFix"/>
<feColorMatrix in="SourceAlpha" type="matrix" values="0 0 0 0 0 0 0 0 0 0 0 0 0 0 0 0 0 0 127 0" result="hardAlpha"/>
<feOffset dy="4"/>
<feGaussianBlur stdDeviation="2"/>
<feComposite in2="hardAlpha" operator="out"/>
<feColorMatrix type="matrix" values="0 0 0 0 0 0 0 0 0 0 0 0 0 0 0 0 0 0 0.25 0"/>
<feBlend mode="normal" in2="BackgroundImageFix" result="effect1_dropShadow_35_973"/>
<feBlend mode="normal" in="SourceGraphic" in2="effect1_dropShadow_35_973" result="shape"/>
</filter>
<clipPath id="clip0_35_973">
<rect width="100" height="100" fill="white"/>
</clipPath>
</defs>
</svg>
