<svg width="100" height="103" viewBox="0 0 100 103" fill="none" xmlns="http://www.w3.org/2000/svg">
<g clip-path="url(#clip0_35_35)" filter="url(#filter0_d_35_35)">
<mask id="mask0_35_35" style="mask-type:luminance" maskUnits="userSpaceOnUse" x="0" y="0" width="100" height="100">
<path d="M0 0H100V100H0V0Z" fill="white"/>
</mask>
<g mask="url(#mask0_35_35)">
<path d="M89.4737 42.1052C89.4737 41.921 89.4263 41.7473 89.4184 41.5631C89.4263 41.3079 89.4737 41.0447 89.4737 40.7894C89.4737 19.7158 71.8 7.89471 50 7.89471C28.2 7.89471 10.5263 19.7158 10.5263 40.7894C10.5263 41.0763 10.5658 41.3737 10.571 41.6631C10.5658 41.8131 10.5263 41.9526 10.5263 42.1052L10.6395 43.0158C10.7553 45.0421 10.9895 47.0868 11.4053 49.1421L15.7895 84.2105C15.7895 90.0237 20.5026 94.7368 26.3158 94.7368H73.6842C79.4974 94.7368 84.2105 90.0237 84.2105 84.2105L89.05 45.4921C89.1421 44.9237 89.2 44.3631 89.2632 43.8L89.4737 42.1052Z" fill="#DD2E44"/>
</g>
<mask id="mask1_35_35" style="mask-type:luminance" maskUnits="userSpaceOnUse" x="10" y="7" width="80" height="88">
<path d="M10.5263 40.7894C10.5263 41.0789 10.5658 41.371 10.571 41.6631C10.5658 41.8131 10.5263 41.9552 10.5263 42.1052L10.6395 43.0158C10.7553 45.0394 10.9895 47.0842 11.4053 49.1394L15.7895 84.2105C15.7895 90.0237 20.5026 94.7368 26.3158 94.7368H73.6842C79.4974 94.7368 84.2105 90.0237 84.2105 84.2105L89.05 45.4894C89.1421 44.9237 89.2026 44.3631 89.2632 43.8L89.4737 42.1052C89.4737 41.9184 89.4263 41.75 89.4211 41.5631C89.4263 41.3079 89.4737 41.0447 89.4737 40.7894C89.4737 19.7158 71.8 7.89471 50 7.89471C28.1974 7.89471 10.5263 19.7158 10.5263 40.7894Z" fill="white"/>
</mask>
<g mask="url(#mask1_35_35)">
<path d="M7.89471 5.26315V47.3684C7.89471 44.4631 10.2526 44.7368 13.1579 44.7368C16.0631 44.7368 21.0526 44.4631 21.0526 47.3684C21.0526 54.6368 32.5605 60.5263 50 60.5263C67.4395 60.5263 78.9473 54.6368 78.9473 47.3684C78.9473 44.4631 83.9368 44.7368 86.8421 44.7368C89.7474 44.7368 92.1052 44.4631 92.1052 47.3684H94.7368V5.26315H7.89471Z" fill="#BE1931"/>
</g>
<mask id="mask2_35_35" style="mask-type:luminance" maskUnits="userSpaceOnUse" x="7" y="5" width="88" height="56">
<path d="M7.89471 5.26315V47.3684C7.89471 44.4631 10.25 44.7368 13.1579 44.7368C16.0658 44.7368 21.0526 44.4631 21.0526 47.3684C21.0526 54.6342 32.5579 60.5263 50 60.5263C67.4395 60.5263 78.9473 54.6342 78.9473 47.3684C78.9473 44.4631 83.9342 44.7368 86.8421 44.7368C89.75 44.7368 92.1052 44.4631 92.1052 47.3684H94.7368V5.26315H7.89471Z" fill="white"/>
</mask>
<g mask="url(#mask2_35_35)">
<path d="M28.9513 85.5263C28.6487 85.5263 28.3408 85.4921 28.0329 85.4184C25.9118 84.9158 24.6039 82.7842 25.1092 80.6631L38.2671 25.4C38.7697 23.2816 40.9013 21.9763 43.0197 22.4763C45.1408 22.9816 46.4487 25.1105 45.9461 27.2316L32.7882 82.4947C32.3539 84.3053 30.7355 85.5263 28.9513 85.5263Z" fill="#F4900C"/>
<path d="M68.4211 28.9473C65.7895 31.5789 57.8947 39.4736 63.1579 44.7368C68.4211 50 60.5263 65.7894 68.4211 60.5263C76.3158 55.2631 78.9474 47.3684 78.9474 42.1052C78.9474 36.8421 81.579 28.9473 76.3158 28.9473H68.4211Z" fill="#F4900C"/>
<path d="M47.3684 26.3158C44.7369 26.3158 39.4737 31.5789 39.4737 34.2105C39.4737 36.8421 39.4737 50 47.3684 47.3684C55.2632 44.7368 55.2632 39.4737 52.6316 34.2105C50 28.9473 47.3684 26.3158 47.3684 26.3158Z" fill="#F4900C"/>
<path d="M55.2579 82.8947C53.2552 82.8947 51.5395 81.3763 51.3342 79.3395L46.071 26.7079C45.8552 24.5395 47.4368 22.6052 49.6079 22.3868C51.7552 22.1684 53.7079 23.7526 53.9263 25.9237L59.1895 78.5552C59.4079 80.7237 57.8263 82.6579 55.6552 82.8737C55.5237 82.8895 55.3895 82.8947 55.2579 82.8947Z" fill="#F4900C"/>
<path d="M57.9 82.8947C57.7237 82.8947 57.5421 82.8842 57.3605 82.8579C55.2026 82.5631 53.6868 80.5737 53.9842 78.4131L61.8789 20.5184C62.1711 18.3605 64.1368 16.8473 66.3237 17.1421C68.4816 17.4342 69.9974 19.4263 69.7 21.5868L61.8053 79.4816C61.5368 81.4605 59.8421 82.8947 57.9 82.8947Z" fill="#F4900C"/>
<path d="M50 85.5263C48.3868 85.5263 46.8737 84.5316 46.2895 82.9289L25.2368 25.0342C24.4921 22.9842 25.55 20.721 27.5974 19.9737C29.6447 19.2289 31.9105 20.2842 32.6579 22.3342L53.7105 80.2289C54.4526 82.2789 53.3974 84.5447 51.35 85.2895C50.9026 85.4526 50.4474 85.5263 50 85.5263Z" fill="#F4900C"/>
<path d="M60.5263 77.6316C60.1132 77.6316 59.6921 77.5684 59.2763 77.429C57.2079 76.7395 56.0921 74.5053 56.7816 72.4342L72.571 25.0684C73.2579 22.9974 75.4974 21.8737 77.5658 22.5711C79.6342 23.2605 80.75 25.4947 80.0605 27.5632L64.271 74.9342C63.721 76.5869 62.1789 77.6316 60.5263 77.6316Z" fill="#F4900C"/>
<path d="M52.6316 72.3684C51.0184 72.3684 49.5053 71.3737 48.921 69.771L38.3947 40.8237C37.65 38.7737 38.7079 36.5105 40.7553 35.7631C42.8026 35.021 45.0684 36.0737 45.8158 38.1237L56.3421 67.071C57.0842 69.121 56.0289 71.3868 53.9816 72.1316C53.5368 72.2947 53.0789 72.3684 52.6316 72.3684Z" fill="#F4900C"/>
<path d="M26.3105 72.3684C24.4158 72.3684 22.7447 71 22.421 69.071L17.1579 37.4921C16.8 35.3395 18.2526 33.3079 20.4026 32.95C22.5474 32.5816 24.5868 34.0421 24.9447 36.1921L30.2079 67.771C30.5684 69.921 29.1158 71.9579 26.9658 72.3131C26.7447 72.35 26.5263 72.3684 26.3105 72.3684Z" fill="#F4900C"/>
<path d="M78.9526 64.4737C78.8052 64.4737 78.6605 64.4658 78.5105 64.45C76.3447 64.2079 74.7842 62.2553 75.0236 60.0895L77.6552 36.4053C77.8973 34.2395 79.8421 32.6737 82.0158 32.9184C84.1815 33.1605 85.7421 35.1105 85.5026 37.279L82.871 60.9632C82.6447 62.9816 80.9368 64.4737 78.9526 64.4737Z" fill="#F4900C"/>
<path d="M78.9421 85.5263C77 85.5263 75.3053 84.0921 75.0368 82.1131L67.1421 24.2184C66.8447 22.0579 68.3605 20.0658 70.5184 19.7737C72.6895 19.471 74.6684 20.9895 74.9632 23.15L82.8579 81.0447C83.1553 83.2053 81.6395 85.1947 79.4816 85.4895C79.3 85.5158 79.1184 85.5263 78.9421 85.5263Z" fill="#FFCC4D"/>
<path d="M60.521 69.7368C58.471 69.7368 56.7394 68.1473 56.5894 66.0684L53.9579 29.2289C53.8 27.0552 55.4368 25.1658 57.6157 25.0105C59.7789 24.8368 61.6736 26.4921 61.8315 28.6658L64.4631 65.5105C64.621 67.6842 62.9842 69.5737 60.8052 69.7263C60.7105 69.7342 60.6157 69.7368 60.521 69.7368Z" fill="#FFCC4D"/>
<path d="M26.321 75C26.1684 75 26.0131 74.9921 25.8579 74.9737C23.6921 74.7211 22.1421 72.7605 22.3947 70.5947L26.4526 35.8342C26.7052 33.6684 28.671 32.1211 30.8289 32.3711C32.9947 32.6237 34.5447 34.5842 34.2921 36.75L30.2368 71.5105C30.0026 73.5211 28.2947 75 26.321 75Z" fill="#FFCC4D"/>
<path d="M49.996 75C48.1513 75 46.5039 73.7026 46.1302 71.8263L35.6039 19.1947C35.175 17.0579 36.5618 14.9763 38.7013 14.55C40.8434 14.1184 42.9171 15.5105 43.3434 17.6474L53.8697 70.2789C54.2986 72.4184 52.9118 74.4974 50.7723 74.9237C50.5118 74.9737 50.2513 75 49.996 75Z" fill="#FFCC4D"/>
</g>
<mask id="mask3_35_35" style="mask-type:luminance" maskUnits="userSpaceOnUse" x="0" y="0" width="100" height="100">
<path d="M0 0H100V100H0V0Z" fill="white"/>
</mask>
<g mask="url(#mask3_35_35)">
<path d="M60.5263 76.3158C60.5263 82.1289 55.8132 86.8421 50 86.8421C44.1869 86.8421 39.4737 82.1289 39.4737 76.3158C39.4737 70.5026 44.1869 65.7895 50 65.7895C55.8132 65.7895 60.5263 70.5026 60.5263 76.3158Z" fill="#BE1931"/>
</g>
</g>
<defs>
<filter id="filter0_d_35_35" x="-4" y="0" width="108" height="108" filterUnits="userSpaceOnUse" color-interpolation-filters="sRGB">
<feFlood flood-opacity="0" result="BackgroundImageFix"/>
<feColorMatrix in="SourceAlpha" type="matrix" values="0 0 0 0 0 0 0 0 0 0 0 0 0 0 0 0 0 0 127 0" result="hardAlpha"/>
<feOffset dy="4"/>
<feGaussianBlur stdDeviation="2"/>
<feComposite in2="hardAlpha" operator="out"/>
<feColorMatrix type="matrix" values="0 0 0 0 0 0 0 0 0 0 0 0 0 0 0 0 0 0 0.25 0"/>
<feBlend mode="normal" in2="BackgroundImageFix" result="effect1_dropShadow_35_35"/>
<feBlend mode="normal" in="SourceGraphic" in2="effect1_dropShadow_35_35" result="shape"/>
</filter>
<clipPath id="clip0_35_35">
<rect width="100" height="100" fill="white"/>
</clipPath>
</defs>
</svg>
