<svg width="100" height="106" viewBox="0 0 100 106" fill="none" xmlns="http://www.w3.org/2000/svg">
<g filter="url(#filter0_d_35_786)">
<path d="M86.9473 30.5555H12.9667C11.8723 30.5555 10.7887 30.7711 9.77767 31.1899C8.76662 31.6087 7.84796 32.2225 7.07414 32.9963C6.30032 33.7701 5.68649 34.6888 5.2677 35.6998C4.84891 36.7109 4.63336 37.7945 4.63336 38.8889C4.63336 39.9832 4.84891 41.0669 5.2677 42.0779C5.68649 43.089 6.30032 44.0076 7.07414 44.7814C7.84796 45.5553 8.76662 46.1691 9.77767 46.5879C10.7887 47.0067 11.8723 47.2222 12.9667 47.2222C13.4723 47.2222 13.9584 47.1583 14.4389 47.075L14.3945 47.2222L16.1639 86.1222C16.4389 92.2278 21.6667 97.2222 27.7778 97.2222H72.2223C78.3334 97.2222 83.5611 92.2278 83.8389 86.1222L85.6056 47.2222L85.5639 47.0833C86.0167 47.1583 86.4723 47.2222 86.9473 47.2222C88.0416 47.2222 89.1252 47.0067 90.1363 46.5879C91.1473 46.1691 92.066 45.5553 92.8398 44.7814C93.6136 44.0076 94.2275 43.089 94.6462 42.0779C95.065 41.0669 95.2806 39.9832 95.2806 38.8889C95.2806 37.7945 95.065 36.7109 94.6462 35.6998C94.2275 34.6888 93.6136 33.7701 92.8398 32.9963C92.066 32.2225 91.1473 31.6087 90.1363 31.1899C89.1252 30.7711 88.0416 30.5555 86.9473 30.5555Z" fill="#E1E8ED"/>
<path d="M79.6333 47.2222V94.4139C82.0305 92.375 83.6444 89.425 83.7777 86.1194L85.6666 47.2222H79.6333ZM62.9666 47.2222H71.3V97.2222H62.9666V47.2222ZM46.3 97.2222V47.2222H54.6333V97.2222H46.3ZM29.6333 47.2222H37.9666V97.2222H29.6333V47.2222ZM14.3333 47.2222L16.2222 86.1194C16.3722 89.8472 18.3778 93.1417 21.3 95.1583V47.2222H14.3333Z" fill="#DA2F47"/>
<path opacity="0.6" d="M14.3333 47.2222L14.6028 52.7778H85.3944L85.6666 47.2222H14.3333Z" fill="#99AAB5"/>
<path d="M85.9139 30.75C86.0333 30.2389 86.1111 29.7139 86.1111 29.1667C86.1111 27.2945 85.3611 25.6 84.1556 24.3528C85.3278 23.6139 86.1111 22.3195 86.1111 20.8333C86.11 20.1528 85.9423 19.4828 85.6225 18.882C85.3027 18.2812 84.8406 17.7679 84.2766 17.387C83.7126 17.0061 83.0638 16.7691 82.3871 16.6968C81.7104 16.6245 81.0262 16.7191 80.3944 16.9722C80.2051 16.2723 79.8357 15.6342 79.323 15.1215C78.8102 14.6088 78.1721 14.2394 77.4722 14.05C77.7254 13.4183 77.82 12.7341 77.7477 12.0574C77.6754 11.3806 77.4384 10.7319 77.0575 10.1679C76.6765 9.60389 76.1632 9.14179 75.5625 8.82198C74.9617 8.50218 74.2917 8.33441 73.6111 8.33335C73.0806 8.33335 72.5778 8.44168 72.1111 8.62224C71.9703 7.70066 71.6449 6.81697 71.1545 6.02406C70.6642 5.23116 70.0189 4.54534 69.2573 4.00765C68.4957 3.46996 67.6334 3.09145 66.7221 2.89479C65.8108 2.69812 64.8692 2.68734 63.9536 2.86309C63.0381 3.03884 62.1674 3.3975 61.3936 3.91761C60.6199 4.43772 59.9591 5.10859 59.4507 5.89006C58.9423 6.67153 58.5968 7.54754 58.4349 8.46565C58.273 9.38377 58.298 10.3251 58.5083 11.2333C56.7306 11.5472 55.2028 12.5361 54.1667 13.925C53.5251 13.0543 52.6883 12.3461 51.7235 11.8575C50.7587 11.3688 49.6927 11.1131 48.6111 11.1111C46.7693 11.1111 45.003 11.8428 43.7007 13.1451C42.3983 14.4474 41.6667 16.2138 41.6667 18.0556L41.6695 18.0889C40.8153 17.4347 39.8189 16.9913 38.7611 16.7945C38.4688 15.1995 37.6267 13.7575 36.3813 12.7192C35.1359 11.6808 33.5659 11.1118 31.9444 11.1111C30.3189 11.1123 28.7454 11.6845 27.4989 12.7279C26.2525 13.7713 25.4122 15.2195 25.125 16.8195C24.6251 16.729 24.119 16.6779 23.6111 16.6667C21.0326 16.6667 18.5597 17.691 16.7365 19.5143C14.9132 21.3375 13.8889 23.8104 13.8889 26.3889C13.8889 27.9028 14.2639 29.3167 14.8806 30.5945C13.7958 30.6678 12.783 31.1637 12.0599 31.9755C11.3367 32.7873 10.9607 33.8504 11.0127 34.9364C11.0647 36.0224 11.5405 37.0447 12.338 37.7837C13.1355 38.5228 14.191 38.9196 15.2778 38.8889H84.7222C85.724 38.8955 86.6945 38.5397 87.4546 37.8871C88.2148 37.2345 88.7133 36.3291 88.8585 35.3378C89.0036 34.3466 88.7855 33.3362 88.2444 32.4931C87.7032 31.65 86.8755 31.0309 85.9139 30.75Z" fill="#FFD983"/>
<path d="M77.7778 25C79.3119 25 80.5556 23.7563 80.5556 22.2222C80.5556 20.6881 79.3119 19.4444 77.7778 19.4444C76.2437 19.4444 75 20.6881 75 22.2222C75 23.7563 76.2437 25 77.7778 25Z" fill="#FFAC33"/>
<path d="M68.0556 19.4444C70.3568 19.4444 72.2222 17.5789 72.2222 15.2778C72.2222 12.9766 70.3568 11.1111 68.0556 11.1111C65.7544 11.1111 63.8889 12.9766 63.8889 15.2778C63.8889 17.5789 65.7544 19.4444 68.0556 19.4444Z" fill="#FFAC33"/>
<path d="M33.3334 22.2222C34.8675 22.2222 36.1112 20.9785 36.1112 19.4444C36.1112 17.9103 34.8675 16.6666 33.3334 16.6666C31.7993 16.6666 30.5556 17.9103 30.5556 19.4444C30.5556 20.9785 31.7993 22.2222 33.3334 22.2222Z" fill="#FFAC33"/>
<path d="M86.1111 34.7222C86.1112 33.7371 85.7617 32.784 85.1246 32.0326C84.4876 31.2813 83.6046 30.7804 82.6328 30.6194C81.661 30.4583 80.6635 30.6474 79.8182 31.1531C78.9728 31.6588 78.3344 32.4481 78.0167 33.3805C77.9361 33.375 77.8639 33.3333 77.7778 33.3333C77.0411 33.3333 76.3345 33.626 75.8136 34.1469C75.2927 34.6678 75 35.3744 75 36.1111H85.8556C86.0111 35.675 86.1111 35.2111 86.1111 34.7222ZM26.3889 33.3333C26.9389 33.3333 27.4584 33.4444 27.9389 33.6389C28.198 32.662 28.8042 31.813 29.644 31.2508C30.4839 30.6886 31.4998 30.4518 32.5017 30.5846C33.5036 30.7174 34.4227 31.2108 35.0871 31.9724C35.7515 32.734 36.1155 33.7116 36.1111 34.7222C36.1111 35.2111 36.0111 35.675 35.8556 36.1111H47.4778C47.3133 35.6663 47.2268 35.1964 47.2222 34.7222C47.2222 33.6171 47.6612 32.5573 48.4426 31.7759C49.224 30.9945 50.2838 30.5555 51.3889 30.5555C52.0472 30.5555 52.6639 30.7222 53.2167 30.9944C52.9317 30.4271 52.7815 29.8016 52.7778 29.1666C52.7754 28.5512 52.9094 27.9428 53.1702 27.3853C53.4309 26.8278 53.812 26.3349 54.2859 25.9422C54.7598 25.5495 55.3148 25.2667 55.9111 25.114C56.5074 24.9614 57.13 24.9428 57.7343 25.0594C58.3387 25.1761 58.9096 25.4252 59.4062 25.7889C59.9028 26.1525 60.3126 26.6217 60.6063 27.1626C60.8999 27.7035 61.0701 28.3027 61.1046 28.9173C61.139 29.5318 61.0369 30.1463 60.8056 30.7166C62.5778 31.1944 63.8889 32.7972 63.8889 34.7222C63.8889 35.2111 63.7889 35.675 63.6334 36.1111H71.8778L70.3056 34.7222C71.4722 33.7028 72.2222 32.225 72.2222 30.5555C72.2222 29.0821 71.6369 27.669 70.5951 26.6272C69.5532 25.5853 68.1401 25 66.6667 25C65.6561 25.0042 64.6661 25.2867 63.8056 25.8166C63.8472 25.5472 63.8889 25.2805 63.8889 25C63.8913 23.7313 63.4588 22.5 62.6634 21.5116C61.868 20.5232 60.7578 19.8373 59.518 19.5682C58.2781 19.2992 56.9835 19.4633 55.8499 20.0332C54.7164 20.6031 53.8125 21.5443 53.2889 22.7C52.703 22.3908 52.0514 22.2269 51.3889 22.2222C50.7083 22.2233 50.0383 22.391 49.4376 22.7108C48.8368 23.0306 48.3235 23.4927 47.9426 24.0568C47.5616 24.6208 47.3246 25.2695 47.2523 25.9462C47.18 26.623 47.2746 27.3071 47.5278 27.9389C45.7556 28.4194 44.4445 30.0222 44.4445 31.9444C44.4445 32.4944 44.5556 33.0139 44.75 33.4944C44.1204 33.6641 43.5399 33.9801 43.0556 34.4166C42.2968 33.7223 41.3063 33.336 40.2778 33.3333C39.6195 33.3333 39.0028 33.5 38.4472 33.775C38.7222 33.2194 38.8889 32.6028 38.8889 31.9444C38.8878 31.2638 38.7201 30.5939 38.4003 29.9931C38.0805 29.3923 37.6184 28.879 37.0544 28.4981C36.4904 28.1171 35.8416 27.8802 35.1649 27.8079C34.4881 27.7356 33.804 27.8301 33.1722 28.0833C33.0253 27.5357 32.7678 27.0239 32.4157 26.5795C32.0636 26.1351 31.6242 25.7674 31.1247 25.4992C30.6251 25.2309 30.076 25.0677 29.511 25.0196C28.9461 24.9716 28.3772 25.0396 27.8395 25.2196C27.3019 25.3996 26.8067 25.6877 26.3845 26.0662C25.9624 26.4447 25.6221 26.9057 25.3848 27.4206C25.1474 27.9355 25.0179 28.4936 25.0043 29.0604C24.9907 29.6273 25.0932 30.1909 25.3056 30.7166C24.676 30.8863 24.0954 31.2023 23.6111 31.6389C22.8524 30.9445 21.8619 30.5582 20.8334 30.5555C19.7283 30.5555 18.6685 30.9945 17.8871 31.7759C17.1057 32.5573 16.6667 33.6171 16.6667 34.7222C16.6667 35.2111 16.7667 35.675 16.9222 36.1111H22.4778C23.0528 34.4972 24.5778 33.3333 26.3889 33.3333Z" fill="#FFAC33"/>
<path d="M11.1111 36.1111V38.8889C11.1111 39.6256 11.4037 40.3321 11.9247 40.853C12.4456 41.374 13.1521 41.6666 13.8889 41.6666H86.1111C86.8478 41.6666 87.5543 41.374 88.0753 40.853C88.5962 40.3321 88.8889 39.6256 88.8889 38.8889V36.1111H11.1111Z" fill="white"/>
</g>
<defs>
<filter id="filter0_d_35_786" x="-4" y="0" width="108" height="108" filterUnits="userSpaceOnUse" color-interpolation-filters="sRGB">
<feFlood flood-opacity="0" result="BackgroundImageFix"/>
<feColorMatrix in="SourceAlpha" type="matrix" values="0 0 0 0 0 0 0 0 0 0 0 0 0 0 0 0 0 0 127 0" result="hardAlpha"/>
<feOffset dy="4"/>
<feGaussianBlur stdDeviation="2"/>
<feComposite in2="hardAlpha" operator="out"/>
<feColorMatrix type="matrix" values="0 0 0 0 0 0 0 0 0 0 0 0 0 0 0 0 0 0 0.25 0"/>
<feBlend mode="normal" in2="BackgroundImageFix" result="effect1_dropShadow_35_786"/>
<feBlend mode="normal" in="SourceGraphic" in2="effect1_dropShadow_35_786" result="shape"/>
</filter>
</defs>
</svg>
