<svg width="102" height="105" viewBox="0 0 102 105" fill="none" xmlns="http://www.w3.org/2000/svg">
<g filter="url(#filter0_d_35_861)">
<path d="M97.7187 9.55469C97.3828 7.35156 95.5625 6.25781 95.5625 6.25781C92.8906 6.59375 77.4687 13.2812 77.4687 13.2812L76.9609 17.6172L43.664 50.2344C43.3359 50.5625 43.3828 51.1172 43.7656 51.4766L49.0312 56.7422C49.4375 57.0859 50.0078 57.0859 50.3047 56.7344C50.3047 56.7344 53.1562 55.7422 56.5312 51.9531C58.7812 49.4297 58.1484 47.9609 59.3281 46.6406C68.164 36.75 80.4531 23 81.414 21.9219L85.4843 22.0391C86.2031 22.0625 86.875 21.6797 87.2265 21.0547C88.2656 19.1953 90.5234 15.2812 92.0625 13.625C93.3984 12.1875 93.9218 12.375 95.6953 11.8594C97.4297 11.3438 97.9765 11.2187 97.7187 9.55469Z" fill="#2F7889"/>
<path d="M45.3594 48.5156C45.3594 48.5156 42.5312 45.2968 39.6484 46.5937C35.7969 48.3281 38.4297 52.6484 33.2812 54.4375C27.6562 56.3828 23.6719 60.0937 25.5937 64.5937C27.6562 69.4218 35.8906 69.6953 36.2812 82.0781C36.4687 88.0078 40.7031 87.8593 42.5781 85.914C45.8672 82.4843 45.539 71.875 48.9375 68.0937C52.3359 64.3125 60.7578 65.2812 63.8125 58.2343C63.8125 58.2343 58.5781 63.4922 51.9297 58.3047C48.7812 55.8437 48.8203 51.7422 48.8203 51.7422L45.3594 48.5156Z" fill="#FFFDE7"/>
<path d="M53.5313 42.4219C53.5313 42.4219 53.875 42.7734 52.875 41.9141C50.7344 40.0781 49.2735 46.5703 45.961 43.2812C41.5782 39.5781 42.8828 36.3047 46.2813 32.6484C47.9453 30.8594 48.6641 30.0312 48.336 27.9453C48.0625 26.1719 46.4063 25.0469 44.1875 25.0469C42.0235 25.1719 38.1719 28.0625 34.4688 33.5625C28.836 41.9219 31.5078 46.3594 25.6407 50.8281C19.7813 55.2891 6.83597 56.8672 5.94534 68.1797C5.43753 74.6719 8.45315 78.375 12.3125 83.1172C14.9844 86.4062 21.4063 92.0859 26.1875 94.4766C30.9688 96.8672 36.8985 98.1875 41.7891 94.9297C52.6172 87.7187 51 80.3906 52.8282 75.6484C54.9297 70.2109 60.1407 72.0312 65.4844 66.9297C69.4532 63.3828 70.336 59.8047 70.0938 57.4062C69.836 54.9453 67.6641 52.375 65.625 52.7031C64.8438 52.3359 65.7032 54.6328 65.0391 55.9766C63.3594 59.3906 60.6641 61.3828 57.0938 58.5703C54.211 56.2969 57.5938 50.4687 57.5938 50.4687L55.3594 47.7969L53.5313 42.4219Z" fill="#C62828"/>
<path d="M51.8594 40.75C51.8594 40.75 52.2032 41.1015 51.2032 40.2422C49.0625 38.4062 44.6641 44.2969 41.3594 41.0078C38.2891 37.9531 42.7266 33.2187 46 30.0312C48.8125 27.8047 46.1328 24.9375 44.2032 25.0469C42.0391 25.1719 36.5157 26.3906 32.8125 31.8906C27.1797 40.25 29.8516 44.6875 23.9844 49.1562C19.2657 52.7422 11.7422 54.125 7.00003 60.4453C5.81253 62.0312 4.87503 62.7734 4.28128 66.5078C3.77347 73 6.78909 76.7031 10.6485 81.4453C13.3203 84.7344 19.7422 90.414 24.5235 92.8047C29.3047 95.1953 34.6016 96.5156 39.5 93.2578C50.3282 86.0469 48.3907 77.8437 50.2188 73.0937C52.3203 67.6562 58.9375 69.4062 64.2813 64.3125C67.8125 60.9453 68.6797 58.1328 68.4375 55.7344C68.2657 54.0156 67.0547 53.2422 66.1485 52.8203C65.3672 52.4531 64.0469 52.9609 63.3828 54.3125C61.7032 57.7265 59.0078 59.7187 55.4375 56.9062C52.5547 54.6328 55.5235 48.1406 55.5235 48.1406L51.8594 40.75Z" fill="#F44336"/>
<path d="M43.7656 47.3125C43.1797 46.8672 40.0391 44.875 37.3125 47.3828C34.375 50.0859 36.7656 53.7813 32.1172 54.4922C26.2344 55.3984 22.7422 59.3203 24.6641 63.8203C26.7266 68.6484 35.8984 69.6719 36.2891 82.0625C36.4766 87.9922 40.625 87.75 42.5859 85.8984C47.125 81.6016 44.5 72.1094 48.9453 68.0781C52.7812 64.6016 58.5938 66.5 61.375 61.6328C61.8672 60.7734 61.8984 60.0156 60.7188 60.5078C58.5469 61.4141 55.8359 61.875 52.875 58.9766C50.4609 56.6016 50.8906 53.3125 50.8906 53.3125C50.8906 53.3125 44.3203 47.7344 43.7656 47.3125Z" fill="#FFFDE7"/>
<path d="M42.7066 76.2799C43.634 75.2922 43.5927 73.747 42.6145 72.8284C41.6362 71.9099 40.0914 71.966 39.164 72.9537C38.2366 73.9414 38.2779 75.4867 39.2561 76.4052C40.2344 77.3237 41.7792 77.2676 42.7066 76.2799Z" fill="#82AEC0"/>
<path d="M39.1641 72.9609C40.0156 72.0156 41.6484 71.7812 42.75 72.6875C43.0263 72.9141 43.2538 73.1943 43.419 73.5111C43.5841 73.828 43.6834 74.175 43.7109 74.5312C43.7656 75.2578 43.4922 76.0078 42.9922 76.5547C42.4844 77.0937 41.75 77.414 41.0234 77.4062C40.2891 77.3984 39.5938 77.0703 39.125 76.5625C38.1406 75.5156 38.2734 73.8672 39.1641 72.9609ZM39.1641 72.9609C38.7266 73.4297 38.4922 74.0781 38.5469 74.7031C38.6016 75.3281 38.9219 75.9062 39.3828 76.2656C40.3281 77.0234 41.6953 76.8047 42.4141 76.0156C43.1641 75.25 43.2969 73.8672 42.4766 72.9687C42.0859 72.5312 41.4922 72.2422 40.8594 72.2344C40.2422 72.2187 39.6094 72.4922 39.1641 72.9609Z" fill="#2F7889"/>
<path d="M41.9859 82.864C42.7686 82.0305 42.735 80.7275 41.9109 79.9537C41.0867 79.1799 39.7842 79.2283 39.0015 80.0619C38.2189 80.8954 38.2525 82.1984 39.0766 82.9722C39.9007 83.746 41.2033 83.6976 41.9859 82.864Z" fill="#82AEC0"/>
<path d="M39 80.0547C39.7188 79.2578 41.0938 79.0391 42.0469 79.8047C42.5078 80.1719 42.8359 80.75 42.8906 81.3828C42.9453 82.0078 42.7109 82.6641 42.2734 83.1328C41.8359 83.5938 41.1953 83.875 40.5703 83.8594C39.9375 83.8516 39.3438 83.5547 38.9453 83.1172C38.1172 82.211 38.25 80.8203 39 80.0547ZM39 80.0547C38.6328 80.4531 38.4375 81 38.4922 81.5235C38.5391 82.0547 38.8203 82.5235 39.2109 82.8203C40.0078 83.4375 41.125 83.2344 41.7031 82.586C42.3125 81.961 42.4453 80.836 41.7813 80.0781C41.4609 79.711 40.9688 79.4531 40.4375 79.4453C39.9063 79.4375 39.375 79.6641 39 80.0547Z" fill="#2F7889"/>
<path d="M81.3125 19.9609L76.3125 14.6094L42.8047 48.7578C42.4765 49.0859 42.5234 49.6406 42.9062 50L48.1953 55.0781C48.6015 55.4219 49.1718 55.4219 49.4687 55.0703L81.3125 19.9609Z" fill="#F7CF92"/>
<path d="M75.2031 15.5078L74.9765 14.6094C74.3594 12.6562 75.5 12.1797 75.9922 12C79.1484 10.8594 89.6015 6.65623 91.8672 6.07811C93.8125 5.58592 96.7422 5.73436 96.9687 8.63279C97.039 9.57029 96.3515 9.96873 95.4453 10.1953C93.9453 10.5625 92.9765 10.5312 91.2265 12.5625C89.7343 14.289 87.4922 17.9765 86.5 19.7265C86.1719 20.3125 85.5547 20.6719 84.8672 20.6797L80.9922 20.3125L75.2031 15.5078Z" fill="#F7CF92"/>
<path d="M38.7891 50.4531C39.3438 50.5469 39.8281 50.7109 40.3203 50.8672C40.6328 51.2031 40.9688 51.5156 41.2891 51.8437L43.2344 53.7891L45.1797 55.7344L46.1562 56.7109C46.3125 57.2031 46.4766 57.6875 46.5781 58.2344C46.0313 58.1328 45.5469 57.9687 45.0547 57.8125L44.0781 56.8359L42.1328 54.8906L40.1875 52.9453C39.8594 52.625 39.5469 52.2891 39.2109 51.9766C39.0469 51.5 38.8828 51.0078 38.7891 50.4531Z" fill="#82AEC0"/>
<path d="M32.7734 56.4766C33.3281 56.5703 33.8125 56.7344 34.3047 56.8906C34.6172 57.2266 34.9531 57.5391 35.2734 57.8672L37.2188 59.8125L39.1641 61.7578L40.1406 62.7344C40.2969 63.2266 40.4609 63.7109 40.5625 64.2578C40.0156 64.1562 39.5313 63.9922 39.0391 63.8359L38.0625 62.8594L36.1172 60.9141L34.1719 58.9688C33.8438 58.6484 33.5313 58.3125 33.1953 58C33.0234 57.5156 32.8672 57.0312 32.7734 56.4766Z" fill="#82AEC0"/>
<path d="M29.625 60.9609C30.125 61.2188 30.5391 61.5156 30.9609 61.8203C31.1563 62.2344 31.3828 62.6406 31.5859 63.0469L32.8516 65.4922L34.1172 67.9375L34.75 69.1562C34.75 69.6719 34.7578 70.1875 34.6875 70.7344C34.1953 70.4688 33.7813 70.1719 33.3594 69.875L32.7266 68.6562L31.4688 66.2109L30.2031 63.7656C29.9922 63.3594 29.7891 62.9453 29.5625 62.5469C29.5547 62.0312 29.5469 61.5156 29.625 60.9609Z" fill="#82AEC0"/>
<path d="M22.5547 71.5781L76.0703 16.1797" stroke="#82AEC0" stroke-width="3.125" stroke-miterlimit="10" stroke-linecap="round"/>
<path d="M23.5469 72.4766L76.9531 16.8672" stroke="#82AEC0" stroke-width="3.125" stroke-miterlimit="10" stroke-linecap="round"/>
<path d="M24.5391 73.3828L77.7656 17.6328" stroke="#82AEC0" stroke-width="3.125" stroke-miterlimit="10" stroke-linecap="round"/>
<path d="M25.5391 74.2813L78.5469 18.4297" stroke="#82AEC0" stroke-width="3.125" stroke-miterlimit="10" stroke-linecap="round"/>
<path d="M26.5312 75.1875L79.4844 19.0625" stroke="#82AEC0" stroke-width="3.125" stroke-miterlimit="10" stroke-linecap="round"/>
<path d="M27.5234 76.0938L80.4375 19.8516" stroke="#82AEC0" stroke-width="3.125" stroke-miterlimit="10" stroke-linecap="round"/>
<path d="M17.8906 70.5157C17.6797 70.7422 17.625 71.0391 17.7734 71.1797L28.1484 80.7266C28.2969 80.8672 28.5937 80.7891 28.8047 80.5625L32.3203 76.8907C32.5312 76.6641 32.5859 76.3672 32.4375 76.2266L22.0625 66.6797C21.9141 66.5391 21.6172 66.6172 21.4062 66.8438L17.8906 70.5157Z" fill="#2F7889"/>
<path d="M32.6406 40.0391C32.0078 39.9219 31.6641 39.3281 31.9141 37.8594C32.6094 33.7188 35.3438 29.9141 39.1563 28.1406C40.4922 27.5156 41.7344 27.625 41.9922 29.2344C42.125 30.0859 41.6641 30.9141 40.4219 31.6328C37.6406 33.2578 34.9922 35.6328 34.1875 38.75C33.8906 39.875 33.3438 40.1641 32.6406 40.0391Z" fill="#FF7043"/>
<path d="M77.0946 11.2525C77.4893 10.702 77.181 9.80527 76.406 9.2497C75.631 8.69413 74.6828 8.69006 74.2881 9.24062C73.8934 9.79117 74.2017 10.6879 74.9767 11.2434C75.7517 11.799 76.6999 11.8031 77.0946 11.2525Z" fill="#82AEC0"/>
<path d="M80.2248 10.11C80.6195 9.55945 80.3112 8.66276 79.5362 8.10718C78.7613 7.55161 77.8131 7.54754 77.4184 8.0981C77.0237 8.64866 77.332 9.54535 78.107 10.1009C78.882 10.6565 79.8302 10.6606 80.2248 10.11Z" fill="#82AEC0"/>
<path d="M83.3518 8.97323C83.7465 8.42267 83.4382 7.52598 82.6632 6.9704C81.8882 6.41483 80.94 6.41076 80.5453 6.96132C80.1506 7.51188 80.4589 8.40857 81.2339 8.96414C82.0089 9.51972 82.9571 9.52378 83.3518 8.97323Z" fill="#82AEC0"/>
<path d="M86.482 7.83071C86.8767 7.28015 86.5684 6.38346 85.7934 5.82789C85.0185 5.27231 84.0703 5.26825 83.6756 5.8188C83.2809 6.36936 83.5892 7.26605 84.3642 7.82163C85.1392 8.3772 86.0874 8.38127 86.482 7.83071Z" fill="#82AEC0"/>
<path d="M89.6077 6.69454C90.0024 6.14399 89.6941 5.24729 88.9191 4.69172C88.1441 4.13615 87.1959 4.13208 86.8012 4.68263C86.4066 5.23319 86.7149 6.12989 87.4898 6.68546C88.2648 7.24103 89.213 7.2451 89.6077 6.69454Z" fill="#82AEC0"/>
<path d="M92.7449 5.55624C93.1396 5.00568 92.8313 4.10899 92.0563 3.55341C91.2813 2.99784 90.3331 2.99377 89.9385 3.54433C89.5438 4.09489 89.8521 4.99158 90.6271 5.54715C91.402 6.10273 92.3502 6.10679 92.7449 5.55624Z" fill="#82AEC0"/>
</g>
<defs>
<filter id="filter0_d_35_861" x="-3" y="0" width="108" height="108" filterUnits="userSpaceOnUse" color-interpolation-filters="sRGB">
<feFlood flood-opacity="0" result="BackgroundImageFix"/>
<feColorMatrix in="SourceAlpha" type="matrix" values="0 0 0 0 0 0 0 0 0 0 0 0 0 0 0 0 0 0 127 0" result="hardAlpha"/>
<feOffset dy="4"/>
<feGaussianBlur stdDeviation="2"/>
<feComposite in2="hardAlpha" operator="out"/>
<feColorMatrix type="matrix" values="0 0 0 0 0 0 0 0 0 0 0 0 0 0 0 0 0 0 0.25 0"/>
<feBlend mode="normal" in2="BackgroundImageFix" result="effect1_dropShadow_35_861"/>
<feBlend mode="normal" in="SourceGraphic" in2="effect1_dropShadow_35_861" result="shape"/>
</filter>
</defs>
</svg>
