<svg width="102" height="105" viewBox="0 0 102 105" fill="none" xmlns="http://www.w3.org/2000/svg">
<g filter="url(#filter0_d_35_213)">
<path d="M20.7188 30.6797H11.1484C9.875 30.6797 8.84375 29.6484 8.84375 28.375V22.7344C8.84375 21.4609 9.875 20.4297 11.1484 20.4297H20.7188C21.9922 20.4297 23.0234 21.4609 23.0234 22.7344V28.375C23.021 28.9855 22.7774 29.5703 22.3457 30.0019C21.914 30.4336 21.3292 30.6772 20.7188 30.6797Z" fill="#90A4AE"/>
<path d="M13.7188 31.6562H10.5938V23.5312C10.5938 22.6719 11.2969 21.9688 12.1562 21.9688C13.0156 21.9688 13.7188 22.6719 13.7188 23.5312V31.6562Z" fill="#94D1E0"/>
<path d="M34.0938 27.9688H29.7891C28.9297 27.9688 28.2344 27.2735 28.2344 26.4141V22.1094C28.2344 21.25 28.6484 20.875 29.7891 20.5547C30.9297 20.2344 33.0078 20.1953 34.0938 20.5547C34.9844 20.8516 35.6484 21.25 35.6484 22.1094V26.4141C35.6484 27.2735 34.9453 27.9688 34.0938 27.9688Z" fill="#546E7A"/>
<path d="M4.125 46.0156H97.875V93H4.125V46.0156Z" fill="#212121"/>
<path d="M4.125 91.9375V94.0703C4.125 95.6172 5.38281 96.875 6.92969 96.875H95.0781C96.625 96.875 97.8828 95.6172 97.8828 94.0703V91.9375H4.125Z" fill="#B0BEC5"/>
<path d="M34.8594 31.6797H29.0078C27.1016 31.6797 25.5547 30.1328 25.5547 28.2266V27.7188C25.5547 25.8125 27.1016 24.2656 29.0078 24.2656H34.8594C36.7656 24.2656 38.3125 25.8125 38.3125 27.7188V28.2266C38.3136 28.6804 38.2251 29.1299 38.052 29.5494C37.8788 29.9688 37.6245 30.3499 37.3036 30.6708C36.9828 30.9917 36.6016 31.246 36.1822 31.4191C35.7627 31.5923 35.3132 31.6808 34.8594 31.6797Z" fill="#90A4AE"/>
<path d="M96.1016 26.6875H7.28906C5.53906 26.6875 4.125 28.1016 4.125 29.8516V46.8203H97.875V28.4609C97.875 27.4766 97.0781 26.6875 96.1016 26.6875Z" fill="#B0BEC5"/>
<path d="M88.8828 43.1563H74.7031C74.3053 43.1563 73.9238 42.9982 73.6425 42.7169C73.3612 42.4356 73.2031 42.0541 73.2031 41.6562V31.7734C73.2031 30.9453 73.875 30.2734 74.7031 30.2734H88.8828C89.7109 30.2734 90.3828 30.9453 90.3828 31.7734V41.6641C90.3828 42.4844 89.7188 43.1563 88.8828 43.1563Z" fill="#78909C"/>
<path d="M73.2031 41.2812V31.9375C73.2031 31.0156 73.9453 30.2734 74.8672 30.2734H88.7656C89.5469 30.2734 89.8672 30.7031 89.8672 30.7031L73.7422 42.75C73.7422 42.75 73.2031 42.4219 73.2031 41.2812Z" fill="#757575"/>
<path d="M76.3438 32.625H87.2422V40.8047H76.3438V32.625Z" fill="#212121"/>
<path d="M9.26562 90.5234H5.45312C4.71875 90.5234 4.125 89.9297 4.125 89.1953V53.3437C4.125 52.6094 4.71875 52.0156 5.45312 52.0156H9.26562C10 52.0156 10.5938 52.6094 10.5938 53.3437V89.1953C10.5938 89.9297 9.99219 90.5234 9.26562 90.5234Z" fill="#616161"/>
<path d="M96.5313 90.5234H92.7188C91.9844 90.5234 91.3906 89.9297 91.3906 89.1953V53.3437C91.3906 52.6094 91.9844 52.0156 92.7188 52.0156H96.5313C97.2656 52.0156 97.8594 52.6094 97.8594 53.3437V89.1953C97.8594 89.9297 97.2656 90.5234 96.5313 90.5234Z" fill="#616161"/>
<path d="M7.28125 95.8125C6.42188 95.8125 5.71875 95.1094 5.71875 94.25V92.3438H8.84375V94.25C8.84375 94.6644 8.67913 95.0618 8.3861 95.3549C8.09308 95.6479 7.69565 95.8125 7.28125 95.8125Z" fill="#B9E4EA"/>
<path d="M96.2031 45.7188H93.0781V29.7813C93.0781 28.9219 93.7812 28.2188 94.6406 28.2188C95.5 28.2188 96.2031 28.9219 96.2031 29.7813V45.7188Z" fill="#B9E4EA"/>
<path d="M9.71875 45.7188H6.59375V29.7813C6.59375 28.9219 7.29688 28.2188 8.15625 28.2188C9.01562 28.2188 9.71875 28.9219 9.71875 29.7813V45.7188Z" fill="#B9E4EA"/>
<path d="M94.6406 95.8125C93.7812 95.8125 93.0781 95.1094 93.0781 94.25V92.3438H96.2031V94.25C96.2031 94.6644 96.0385 95.0618 95.7455 95.3549C95.4525 95.6479 95.055 95.8125 94.6406 95.8125Z" fill="#B9E4EA"/>
<path d="M57.5547 94.6094C71.7027 94.6094 83.1719 83.1402 83.1719 68.9922C83.1719 54.8442 71.7027 43.375 57.5547 43.375C43.4067 43.375 31.9375 54.8442 31.9375 68.9922C31.9375 83.1402 43.4067 94.6094 57.5547 94.6094Z" fill="#616161"/>
<path d="M57.5547 91.2344C69.8387 91.2344 79.7969 81.2762 79.7969 68.9922C79.7969 56.7082 69.8387 46.75 57.5547 46.75C45.2707 46.75 35.3125 56.7082 35.3125 68.9922C35.3125 81.2762 45.2707 91.2344 57.5547 91.2344Z" fill="#E0E0E0"/>
<path d="M57.5547 84.875C66.3265 84.875 73.4375 77.764 73.4375 68.9922C73.4375 60.2203 66.3265 53.1094 57.5547 53.1094C48.7829 53.1094 41.6719 60.2203 41.6719 68.9922C41.6719 77.764 48.7829 84.875 57.5547 84.875Z" fill="#2F7889"/>
<path d="M57.5547 89.4297C68.842 89.4297 77.9922 80.2795 77.9922 68.9922C77.9922 57.7049 68.842 48.5547 57.5547 48.5547C46.2674 48.5547 37.1172 57.7049 37.1172 68.9922C37.1172 80.2795 46.2674 89.4297 57.5547 89.4297Z" fill="black"/>
<path d="M57.5547 84.5703C66.1582 84.5703 73.1328 77.5957 73.1328 68.9922C73.1328 60.3886 66.1582 53.4141 57.5547 53.4141C48.9511 53.4141 41.9766 60.3886 41.9766 68.9922C41.9766 77.5957 48.9511 84.5703 57.5547 84.5703Z" fill="#2F7889"/>
<path d="M53.8672 55.9219C48.9375 57.0391 45.9922 61.836 45.9922 65.375C45.9922 68.2422 47.8906 67.5235 48.5 66.4844C50.0703 63.8203 51.9687 61.6016 55.2422 60.6719C56.5547 60.2969 58.0859 59.4766 57.9297 57.9453C57.7109 55.7656 55.5469 55.5391 53.8672 55.9219Z" fill="#94D1E0"/>
<path opacity="0.25" d="M57.5547 75.9453C61.3948 75.9453 64.5078 72.8323 64.5078 68.9922C64.5078 65.1521 61.3948 62.0391 57.5547 62.0391C53.7146 62.0391 50.6016 65.1521 50.6016 68.9922C50.6016 72.8323 53.7146 75.9453 57.5547 75.9453Z" fill="black"/>
<path d="M33.7265 36.5078C33.375 36.4453 33.2969 35.9765 33.6015 35.8047L43.75 30.6797C45.6328 29.6094 45.7969 29.0859 45.1797 27.4218L39.1875 10.0625C39.0625 9.69529 39.5 9.39841 39.7969 9.64841L53.0078 20.8359C55.4844 22.8359 56.3047 22 56.9844 20.8203L64.3047 7.87498C64.3469 7.80434 64.4108 7.74921 64.4869 7.71776C64.563 7.68631 64.6472 7.68022 64.727 7.70039C64.8068 7.72056 64.878 7.76592 64.93 7.82974C64.9819 7.89355 65.012 7.97243 65.0156 8.05466L65.0703 21.0625C65.0156 23.5703 66.0859 23.1094 69.5781 22.2109L80.8984 19.0468C81.2734 18.9375 81.5469 19.3906 81.2812 19.6719L68.8281 32.625C68.0234 33.6562 68.1094 33.9844 68.4531 35.414L70.9765 42.75C71.0703 43.0234 70.8359 43.3047 70.5469 43.25L62.1328 40.8047C60.875 40.5859 60.2578 40.5859 59.4609 41.8828L53.5156 51.5625C53.3203 51.7968 52.7969 52.0547 52.6328 51.5781L49.4765 40.3515C49.0781 39.0469 48.5312 39.0234 47.1875 38.7734L33.7265 36.5078Z" fill="#FF8F00"/>
<path d="M41.6797 35.0312L51.6406 31.6797L44.0859 16.6328L56.0781 28.2187L61.5937 18.3047L60.9453 29.2656L72.2969 25.0078L63.5625 33.4141L67.0156 39.3438L59.2031 36.9688L54.0391 46.0625L52.4375 36.1797L41.6797 35.0312Z" fill="#FFEE58"/>
</g>
<defs>
<filter id="filter0_d_35_213" x="-3" y="0" width="108" height="108" filterUnits="userSpaceOnUse" color-interpolation-filters="sRGB">
<feFlood flood-opacity="0" result="BackgroundImageFix"/>
<feColorMatrix in="SourceAlpha" type="matrix" values="0 0 0 0 0 0 0 0 0 0 0 0 0 0 0 0 0 0 127 0" result="hardAlpha"/>
<feOffset dy="4"/>
<feGaussianBlur stdDeviation="2"/>
<feComposite in2="hardAlpha" operator="out"/>
<feColorMatrix type="matrix" values="0 0 0 0 0 0 0 0 0 0 0 0 0 0 0 0 0 0 0.25 0"/>
<feBlend mode="normal" in2="BackgroundImageFix" result="effect1_dropShadow_35_213"/>
<feBlend mode="normal" in="SourceGraphic" in2="effect1_dropShadow_35_213" result="shape"/>
</filter>
</defs>
</svg>
