<svg width="100" height="108" viewBox="0 0 100 108" fill="none" xmlns="http://www.w3.org/2000/svg">
<g filter="url(#filter0_d_35_1018)">
<path d="M28.1525 37.1249L49.6853 97.3297L74.6896 38.4819L28.1525 37.1249Z" fill="#F1C84F"/>
<path d="M70.6516 39.9549L48.4092 93.7932L50.2447 98.6558L73.9722 39.9939L70.6516 39.9549Z" fill="#F0841B"/>
<path d="M60.2557 72.1777C60.1751 72.1776 60.0957 72.1579 60.0245 72.1202C59.9532 72.0826 59.8923 72.0281 59.8468 71.9616C59.8014 71.895 59.7728 71.8184 59.7637 71.7383C59.7545 71.6583 59.765 71.5772 59.7943 71.5021L74.1692 34.7273H25.267L31.0712 49.5763C31.1154 49.6979 31.1102 49.8318 31.0569 49.9496C31.0035 50.0674 30.9063 50.1597 30.7858 50.2067C30.6654 50.2538 30.5313 50.2519 30.4123 50.2015C30.2932 50.151 30.1986 50.056 30.1486 49.9368L23.8162 33.7367H75.6202L60.7169 71.8628C60.6806 71.9556 60.6172 72.0353 60.5349 72.0915C60.4526 72.1477 60.3553 72.1777 60.2557 72.1777ZM57.9114 78.1746C57.8308 78.1745 57.7515 78.1548 57.6802 78.1172C57.609 78.0795 57.548 78.0251 57.5025 77.9585C57.4571 77.8919 57.4286 77.8153 57.4195 77.7352C57.4104 77.6551 57.421 77.574 57.4503 77.499L58.7079 74.282C58.7559 74.1598 58.8503 74.0616 58.9705 74.0088C59.0907 73.9561 59.227 73.9532 59.3493 74.0007C59.4099 74.0244 59.4653 74.0598 59.5122 74.1048C59.5592 74.1499 59.5967 74.2038 59.6228 74.2634C59.6489 74.323 59.663 74.3871 59.6644 74.4522C59.6657 74.5172 59.6541 74.5819 59.6304 74.6425L58.373 77.8594C58.3367 77.9523 58.2732 78.032 58.1909 78.0883C58.1085 78.1445 58.0111 78.1746 57.9114 78.1746ZM49.7182 99.9999L34.7912 61.8137C34.7675 61.7532 34.756 61.6885 34.7573 61.6235C34.7586 61.5584 34.7727 61.4943 34.7988 61.4347C34.8249 61.3752 34.8625 61.3213 34.9094 61.2763C34.9563 61.2312 35.0117 61.1959 35.0723 61.1722C35.1329 61.1485 35.1975 61.137 35.2626 61.1383C35.3276 61.1396 35.3918 61.1537 35.4514 61.1798C35.5109 61.2059 35.5648 61.2435 35.6099 61.2904C35.6549 61.3373 35.6903 61.3927 35.7139 61.4533L49.7182 97.2789L56.2221 80.6414C56.3218 80.3864 56.6092 80.2618 56.8638 80.3601C56.9861 80.4079 57.0845 80.5024 57.1372 80.6228C57.1899 80.7431 57.1926 80.8794 57.1449 81.0018L49.7182 99.9999ZM33.8083 58.4339C33.7086 58.4339 33.6112 58.4038 33.5289 58.3476C33.4466 58.2914 33.3831 58.2116 33.3468 58.1188L31.7244 53.9684C31.7007 53.9078 31.6891 53.8431 31.6904 53.7781C31.6917 53.7131 31.7058 53.6489 31.7319 53.5893C31.7581 53.5297 31.7956 53.4759 31.8426 53.4308C31.8895 53.3858 31.9449 53.3504 32.0055 53.3267C32.0661 53.303 32.1307 53.2915 32.1958 53.2928C32.2608 53.2941 32.3249 53.3082 32.3845 53.3343C32.4441 53.3604 32.498 53.398 32.543 53.4449C32.588 53.4919 32.6234 53.5472 32.647 53.6078L34.2694 57.7582C34.2988 57.8333 34.3094 57.9144 34.3003 57.9945C34.2912 58.0746 34.2627 58.1512 34.2173 58.2178C34.1718 58.2844 34.1108 58.3389 34.0396 58.3765C33.9683 58.4142 33.8889 58.4339 33.8083 58.4339Z" fill="black"/>
<path d="M30.5659 17.4775C30.5657 19.6778 31.0966 21.8566 32.1281 23.8895C33.1597 25.9224 34.6717 27.7696 36.578 29.3255C38.4842 30.8815 40.7473 32.1157 43.238 32.9578C45.7287 33.7999 48.3983 34.2333 51.0942 34.2333C53.7901 34.2333 56.4597 33.7999 58.9504 32.9578C61.4411 32.1157 63.7041 30.8815 65.6104 29.3255C67.5166 27.7696 69.0287 25.9224 70.0603 23.8895C71.0918 21.8566 71.6227 19.6778 71.6225 17.4775C71.6227 15.2771 71.0918 13.0983 70.0603 11.0654C69.0287 9.03247 67.5166 7.18532 65.6104 5.62938C63.7041 4.07345 61.4411 2.8392 58.9504 1.99713C56.4597 1.15506 53.7901 0.721649 51.0942 0.721649C48.3983 0.721649 45.7287 1.15506 43.238 1.99713C40.7473 2.8392 38.4842 4.07345 36.578 5.62938C34.6717 7.18532 33.1597 9.03247 32.1281 11.0654C31.0966 13.0983 30.5657 15.2771 30.5659 17.4775Z" fill="#EC7699"/>
<path d="M52.4411 0.722595C51.7515 0.722595 51.0706 0.754186 50.3995 0.813797C60.2895 1.74055 68.0194 9.74453 68.0194 19.4831C68.0194 23.8682 66.4479 27.8983 63.8224 31.0925C68.7613 28.0519 71.9821 23.0887 71.9821 17.4774C71.9821 8.2239 63.2331 0.722595 52.4411 0.722595Z" fill="#D8476D"/>
<path d="M32.4792 8.18469C32.3832 8.18455 32.2892 8.1565 32.2088 8.10395C32.1284 8.05141 32.065 7.97663 32.0263 7.88872C31.9876 7.80081 31.9753 7.70355 31.9909 7.60876C32.0064 7.51398 32.0492 7.42576 32.114 7.35484C33.1875 6.1825 34.4203 5.11654 35.7775 4.18678C35.8859 4.11269 36.0193 4.08465 36.1484 4.1088C36.2775 4.13295 36.3918 4.20732 36.4661 4.3156C36.5403 4.42401 36.5684 4.55745 36.5443 4.68659C36.5201 4.81573 36.4457 4.92998 36.3373 5.00424C35.0421 5.89103 33.8671 6.90698 32.8447 8.02394C32.7983 8.07469 32.7419 8.11519 32.6789 8.14287C32.616 8.17055 32.548 8.18479 32.4792 8.18469Z" fill="#040000"/>
<path d="M49.7181 38.5544C37.3668 38.5544 27.3185 29.907 27.3185 19.2779C27.3185 16.4471 28.0148 13.72 29.3883 11.1723C29.4519 11.059 29.5575 10.9752 29.6823 10.939C29.8071 10.9028 29.9411 10.917 30.0555 10.9787C30.1699 11.0404 30.2554 11.1446 30.2937 11.2687C30.332 11.3929 30.32 11.5272 30.2603 11.6426C28.9655 14.0441 28.3091 16.613 28.3091 19.2779C28.3091 29.3607 37.9132 37.5637 49.7181 37.5637C61.523 37.5637 71.1274 29.3607 71.1274 19.2779C71.1274 9.19508 61.5231 0.992069 49.7181 0.992069C46.2982 0.992069 43.0304 1.6604 40.0052 2.97864C39.9456 3.00466 39.8814 3.01868 39.8164 3.01989C39.7514 3.02109 39.6867 3.00947 39.6262 2.98567C39.5657 2.96188 39.5104 2.92638 39.4636 2.88122C39.4168 2.83605 39.3793 2.7821 39.3534 2.72244C39.3274 2.66283 39.3134 2.59867 39.3122 2.53364C39.311 2.46862 39.3227 2.40399 39.3465 2.34346C39.3702 2.28293 39.4057 2.22768 39.4509 2.18087C39.496 2.13406 39.55 2.0966 39.6096 2.07064C42.7601 0.697701 46.1612 0.00146484 49.7181 0.00146484C62.0692 0.00146484 72.1179 8.64888 72.1179 19.2781C72.1178 29.907 62.0692 38.5544 49.7181 38.5544Z" fill="#040000"/>
<path d="M49.7181 6.71007C49.7181 6.91503 49.7996 7.1116 49.9445 7.25653C50.0894 7.40146 50.286 7.48288 50.4909 7.48288C50.6959 7.48288 50.8925 7.40146 51.0374 7.25653C51.1823 7.1116 51.2638 6.91503 51.2638 6.71007C51.2638 6.50511 51.1823 6.30854 51.0374 6.16361C50.8925 6.01868 50.6959 5.93726 50.4909 5.93726C50.286 5.93726 50.0894 6.01868 49.9445 6.16361C49.7996 6.30854 49.7181 6.50511 49.7181 6.71007Z" fill="#E5C569"/>
<path d="M52.0816 5.16455C52.0816 5.26602 52.1016 5.3665 52.1404 5.46025C52.1792 5.554 52.2361 5.63918 52.3079 5.71093C52.3796 5.78268 52.4648 5.8396 52.5586 5.87843C52.6523 5.91726 52.7528 5.93725 52.8543 5.93725C52.9557 5.93725 53.0562 5.91726 53.15 5.87843C53.2437 5.8396 53.3289 5.78268 53.4006 5.71093C53.4724 5.63918 53.5293 5.554 53.5681 5.46025C53.607 5.3665 53.627 5.26602 53.627 5.16455C53.627 5.06308 53.607 4.9626 53.5681 4.86885C53.5293 4.7751 53.4724 4.68992 53.4006 4.61816C53.3289 4.54641 53.2437 4.4895 53.15 4.45066C53.0562 4.41183 52.9557 4.39185 52.8543 4.39185C52.7528 4.39185 52.6523 4.41183 52.5586 4.45066C52.4648 4.4895 52.3796 4.54641 52.3079 4.61816C52.2361 4.68992 52.1792 4.7751 52.1404 4.86885C52.1016 4.9626 52.0816 5.06308 52.0816 5.16455Z" fill="#E5C569"/>
<path d="M52.0816 8.25549C52.0816 8.35696 52.1016 8.45744 52.1404 8.55119C52.1792 8.64494 52.2361 8.73012 52.3079 8.80187C52.3796 8.87363 52.4648 8.93054 52.5586 8.96937C52.6523 9.00821 52.7528 9.02819 52.8543 9.02819C52.9557 9.02819 53.0562 9.00821 53.15 8.96937C53.2437 8.93054 53.3289 8.87363 53.4006 8.80187C53.4724 8.73012 53.5293 8.64494 53.5681 8.55119C53.607 8.45744 53.627 8.35696 53.627 8.25549C53.627 8.15402 53.607 8.05354 53.5681 7.95979C53.5293 7.86604 53.4724 7.78086 53.4006 7.70911C53.3289 7.63736 53.2437 7.58044 53.15 7.54161C53.0562 7.50277 52.9557 7.48279 52.8543 7.48279C52.7528 7.48279 52.6523 7.50277 52.5586 7.54161C52.4648 7.58044 52.3796 7.63736 52.3079 7.70911C52.2361 7.78086 52.1792 7.86604 52.1404 7.95979C52.1016 8.05354 52.0816 8.15402 52.0816 8.25549Z" fill="#E5C569"/>
<path d="M56.2151 5.93725C56.2117 6.13994 56.1287 6.33316 55.9842 6.47528C55.8396 6.61741 55.645 6.69705 55.4423 6.69705C55.2396 6.69705 55.045 6.61741 54.9004 6.47528C54.7559 6.33316 54.6729 6.13994 54.6695 5.93725C54.6729 5.73456 54.7559 5.54134 54.9004 5.39922C55.045 5.2571 55.2396 5.17746 55.4423 5.17746C55.645 5.17746 55.8396 5.2571 55.9842 5.39922C56.1287 5.54134 56.2117 5.73456 56.2151 5.93725Z" fill="#E5C569"/>
<path d="M45.6792 9.06679C45.6792 9.33553 45.786 9.59326 45.976 9.78328C46.1661 9.9733 46.4238 10.0801 46.6925 10.0801C46.9613 10.0801 47.219 9.9733 47.409 9.78328C47.599 9.59326 47.7058 9.33553 47.7058 9.06679C47.7058 8.79806 47.599 8.54033 47.409 8.35031C47.219 8.16028 46.9613 8.05353 46.6925 8.05353C46.4238 8.05353 46.1661 8.16028 45.976 8.35031C45.786 8.54033 45.6792 8.79806 45.6792 9.06679Z" fill="#E5C569"/>
<path d="M56.2151 11.1109C56.2151 11.2637 56.1698 11.4132 56.0849 11.5403C56 11.6675 55.8792 11.7665 55.738 11.825C55.5967 11.8836 55.4413 11.8989 55.2914 11.869C55.1414 11.8392 55.0037 11.7656 54.8956 11.6575C54.7875 11.5494 54.7139 11.4116 54.6841 11.2617C54.6543 11.1117 54.6696 10.9563 54.7281 10.8151C54.7867 10.6738 54.8858 10.5531 55.0129 10.4682C55.1401 10.3833 55.2895 10.338 55.4424 10.338C55.8689 10.338 56.2151 10.6841 56.2151 11.1109Z" fill="#E5C569"/>
<path d="M49.7181 4.39186C49.7181 4.59683 49.7996 4.79339 49.9445 4.93833C50.0894 5.08326 50.286 5.16468 50.4909 5.16468C50.6959 5.16468 50.8925 5.08326 51.0374 4.93833C51.1823 4.79339 51.2638 4.59683 51.2638 4.39186C51.2638 4.1869 51.1823 3.99033 51.0374 3.8454C50.8925 3.70047 50.6959 3.61905 50.4909 3.61905C50.286 3.61905 50.0894 3.70047 49.9445 3.8454C49.7996 3.99033 49.7181 4.1869 49.7181 4.39186Z" fill="#E5C569"/>
<path d="M56.2151 8.25548C56.2151 8.40837 56.1698 8.55782 56.0849 8.68495C56 8.81207 55.8792 8.91116 55.738 8.96967C55.5967 9.02818 55.4413 9.04349 55.2914 9.01366C55.1414 8.98383 55.0037 8.91021 54.8956 8.80209C54.7875 8.69398 54.7139 8.55624 54.6841 8.40629C54.6543 8.25634 54.6696 8.10091 54.7281 7.95968C54.7867 7.81844 54.8858 7.69774 55.0129 7.61283C55.1401 7.52792 55.2895 7.48262 55.4424 7.48267C55.8689 7.48267 56.2151 7.82872 56.2151 8.25548Z" fill="#E5C569"/>
<path d="M57.6949 8.25548C57.6949 8.46044 57.7763 8.65701 57.9212 8.80194C58.0662 8.94687 58.2627 9.02829 58.4677 9.02829C58.6727 9.02829 58.8692 8.94687 59.0142 8.80194C59.1591 8.65701 59.2405 8.46044 59.2405 8.25548C59.2405 8.05052 59.1591 7.85395 59.0142 7.70902C58.8692 7.56409 58.6727 7.48267 58.4677 7.48267C58.2627 7.48267 58.0662 7.56409 57.9212 7.70902C57.7763 7.85395 57.6949 8.05052 57.6949 8.25548Z" fill="#E5C569"/>
<path d="M58.4676 11.8837C58.4676 12.0886 58.549 12.2852 58.6939 12.4301C58.8389 12.5751 59.0354 12.6565 59.2404 12.6565C59.4454 12.6565 59.6419 12.5751 59.7869 12.4301C59.9318 12.2852 60.0132 12.0886 60.0132 11.8837C60.0132 11.6787 59.9318 11.4822 59.7869 11.3372C59.6419 11.1923 59.4454 11.1109 59.2404 11.1109C59.0354 11.1109 58.8389 11.1923 58.6939 11.3372C58.549 11.4822 58.4676 11.6787 58.4676 11.8837Z" fill="#E5C569"/>
<path d="M43.1242 44.4352L42.487 43.6737L39.4964 46.5652L40.1336 47.3267L43.1242 44.4352ZM43.8381 43.7449L48.5552 39.184L48.542 39.1683L47.1905 39.1259L43.201 42.9833L43.8381 43.7449ZM38.7824 47.2555L33.5385 52.3258L33.8853 53.3681L39.4196 48.0171L38.7824 47.2555ZM46.4043 56.3646L45.7669 55.6029L39.7813 61.3904L40.4187 62.1521L46.4043 56.3646ZM50.8229 52.0923L55.54 47.5316L54.9026 46.7698L50.1855 51.3306L50.8229 52.0923ZM47.1184 55.6742L50.1088 52.7828L49.4715 52.021L46.481 54.9124L47.1184 55.6742ZM39.0673 62.0807L37.3398 63.751L37.6867 64.7935L39.7046 62.8424L39.0673 62.0807ZM62.2245 41.0683L61.5871 40.3066L59.1185 42.6934L59.7559 43.4552L62.2245 41.0683ZM59.0421 44.1454L58.4046 43.3836L55.6166 46.0794L56.254 46.8412L59.0421 44.1454ZM62.9385 40.3781L63.6984 39.6434L62.3178 39.6001L62.3011 39.6162L62.9385 40.3781ZM52.4594 62.0574L55.45 59.166L54.8128 58.4045L51.8222 61.296L52.4594 62.0574ZM51.1082 61.9863L45.1226 67.7738L45.7597 68.5352L51.7453 62.7479L51.1082 61.9863ZM70.9126 43.2915L71.2028 42.5572L70.7028 43.0408L70.9126 43.2915ZM60.9579 52.4628L61.5951 53.2244L64.3831 50.5286L63.746 49.7671L60.9579 52.4628ZM67.6424 45.9998L68.2795 46.7613L70.3216 44.7869L70.4982 44.34L69.9887 43.7311L67.6424 45.9998ZM64.4599 49.0769L65.0971 49.8383L67.5655 47.4516L66.9283 46.6901L64.4599 49.0769ZM55.5268 57.714L56.164 58.4756L60.8809 53.9149L60.2437 53.1533L55.5268 57.714ZM44.4085 68.4642L40.2468 72.488L40.5936 73.5302L45.0456 69.2256L44.4085 68.4642ZM57.0263 67.5155L57.6637 68.2771L60.6542 65.3857L60.0169 64.6239L57.0263 67.5155ZM50.2499 75.4454L49.6125 74.6838L44.6929 79.4406L45.3302 80.2022L50.2499 75.4454ZM61.3683 64.6953L63.123 62.9986L64.0046 60.7682L60.731 63.9335L61.3683 64.6953ZM43.9788 80.131L43.0792 81.0008L43.426 82.0432L44.6161 80.8926L43.9788 80.131ZM50.3266 73.9934L50.9639 74.7549L56.9496 68.9676L56.3123 68.2059L50.3266 73.9934ZM56.0659 80.8525L56.8062 78.9798L55.5308 80.2129L56.0659 80.8525ZM49.1828 86.3506L45.9116 89.5135L46.2584 90.556L49.8201 87.1121L49.1828 86.3506ZM50.5343 86.4217L55.454 81.6649L54.8167 80.9033L49.897 85.6601L50.5343 86.4217ZM70.7028 43.0408L67.9721 39.7773L66.6456 39.7357L69.9887 43.7311L70.7028 43.0408Z" fill="black"/>
<path d="M69.9887 43.7311L70.4982 44.34L70.9126 43.2915L70.7028 43.0408L69.9887 43.7311ZM60.8809 53.9149L64.8423 58.6492L65.2568 57.6005L61.5951 53.2244L60.8809 53.9149ZM54.9026 46.7698L55.6166 46.0794L49.8685 39.2098L48.5706 39.1692L48.5552 39.184L54.9026 46.7698ZM60.9579 52.4628L56.254 46.8412L55.54 47.5316L60.2437 53.1533L60.9579 52.4628ZM48.5706 39.1692L48.542 39.1683L48.5552 39.184L48.5706 39.1692Z" fill="black"/>
<path d="M56.254 46.8411L55.6166 46.0794L54.9026 46.7698L55.54 47.5316L56.254 46.8411ZM60.2437 53.1533L60.8809 53.9149L61.5951 53.2244L60.9579 52.4628L60.2437 53.1533ZM64.4599 49.0769L59.7559 43.4552L59.0421 44.1454L63.746 49.7671L64.4599 49.0769ZM64.3831 50.5286L66.875 53.5066L67.2892 52.4583L65.0971 49.8383L64.3831 50.5286ZM59.1185 42.6934L56.3743 39.4137L55.048 39.3721L58.4046 43.3836L59.1185 42.6934Z" fill="black"/>
<path d="M59.7559 43.4552L59.1185 42.6934L58.4046 43.3836L59.0421 44.1454L59.7559 43.4552ZM63.746 49.7671L64.3831 50.5286L65.0971 49.8383L64.4599 49.0769L63.746 49.7671ZM51.7453 62.7479L56.3123 68.2059L57.0263 67.5155L52.4594 62.0574L51.7453 62.7479ZM51.8222 61.296L47.1184 55.6742L46.4043 56.3646L51.1082 61.9863L51.8222 61.296ZM56.9496 68.9675L59.54 72.0634L59.9544 71.0147L57.6637 68.2771L56.9496 68.9675ZM33.8118 39.7714L33.0519 40.4069L38.7824 47.2555L39.4964 46.5652L33.8118 39.7714ZM40.1336 47.3267L39.4196 48.017L45.7669 55.6029L46.481 54.9124L40.1336 47.3267Z" fill="black"/>
<path d="M40.1336 47.3267L39.4964 46.5652L38.7824 47.2555L39.4196 48.0171L40.1336 47.3267ZM47.1184 55.6742L46.481 54.9124L45.7669 55.6029L46.4043 56.3646L47.1184 55.6742ZM51.7453 62.7479L52.4594 62.0574L51.8222 61.296L51.1082 61.9863L51.7453 62.7479ZM56.3123 68.2059L56.9496 68.9675L57.6637 68.2771L57.0263 67.5155L56.3123 68.2059ZM43.201 42.9833L39.7788 38.8935L38.4524 38.852L42.487 43.6737L43.201 42.9833ZM60.0169 64.6239L60.731 63.9335L56.164 58.4756L55.45 59.166L60.0169 64.6239ZM54.8128 58.4045L55.5268 57.714L50.8229 52.0923L50.1088 52.7828L54.8128 58.4045ZM49.4715 52.021L50.1855 51.3306L43.8381 43.7449L43.1242 44.4352L49.4715 52.021ZM60.6542 65.3857L61.6901 66.6237L62.1046 65.5751L61.3683 64.6952L60.6542 65.3857ZM43.8381 43.7449L43.201 42.9833L42.487 43.6737L43.1242 44.4352L43.8381 43.7449ZM50.8229 52.0923L50.1855 51.3306L49.4715 52.021L50.1088 52.7828L50.8229 52.0923ZM54.8128 58.4045L55.45 59.166L56.164 58.4756L55.5268 57.714L54.8128 58.4045Z" fill="black"/>
<path d="M60.6542 65.3857L61.3683 64.6952L60.731 63.9335L60.0169 64.6239L60.6542 65.3857ZM62.3011 39.6162L62.2865 39.599L60.9603 39.5575L61.5871 40.3066L62.3011 39.6162ZM66.9283 46.6901L67.6424 45.9998L62.9385 40.3781L62.2245 41.0683L66.9283 46.6901ZM67.5655 47.4515L68.7219 48.8336L69.1363 47.7853L68.2795 46.7613L67.5655 47.4515Z" fill="black"/>
<path d="M62.9385 40.3781L62.3011 39.6162L61.5871 40.3066L62.2245 41.0683L62.9385 40.3781ZM67.5655 47.4515L68.2795 46.7613L67.6424 45.9998L66.9283 46.6901L67.5655 47.4515ZM55.6516 81.901L55.9248 81.2097L55.454 81.6649L55.6516 81.901ZM54.8167 80.9032L55.5308 80.2129L50.9639 74.7549L50.2499 75.4454L54.8167 80.9032ZM39.7813 61.3904L34.4243 54.988L35.2769 57.5507L39.0673 62.0806L39.7813 61.3904ZM45.7597 68.5352L45.0456 69.2256L49.6125 74.6838L50.3266 73.9934L45.7597 68.5352ZM40.4187 62.1521L39.7046 62.8424L44.4085 68.4642L45.1226 67.7738L40.4187 62.1521ZM39.7813 61.3904L39.0673 62.0806L39.7046 62.8424L40.4187 62.1521L39.7813 61.3904Z" fill="black"/>
<path d="M45.1226 67.7738L44.4085 68.4642L45.0456 69.2256L45.7597 68.5352L45.1226 67.7738ZM49.6125 74.6838L50.2499 75.4454L50.9639 74.7549L50.3266 73.9933L49.6125 74.6838ZM54.8167 80.9032L55.454 81.6649L55.9248 81.2097L56.0659 80.8524L55.5308 80.2129L54.8167 80.9032ZM49.8201 87.1121L52.3816 90.1735L52.7961 89.1249L50.5343 86.4217L49.8201 87.1121ZM44.6929 79.4406L41.1521 75.2089L42.0048 77.7719L43.9788 80.131L44.6929 79.4406ZM45.3302 80.2022L44.6161 80.8926L49.1828 86.3506L49.897 85.6601L45.3302 80.2022Z" fill="black"/>
<path d="M44.6929 79.4406L43.9788 80.131L44.6161 80.8926L45.3302 80.2022L44.6929 79.4406ZM49.1828 86.3506L49.8201 87.1121L50.5343 86.4217L49.897 85.6601L49.1828 86.3506ZM47.7157 94.936L49.6061 97.1954L50.0205 96.1469L46.863 92.3732L47.7157 94.936Z" fill="black"/>
<path d="M56.9224 5.93725C56.9224 6.03873 56.9424 6.13921 56.9812 6.23295C57.02 6.3267 57.077 6.41188 57.1487 6.48364C57.2205 6.55539 57.3056 6.61231 57.3994 6.65114C57.4931 6.68997 57.5936 6.70996 57.6951 6.70996C57.7966 6.70996 57.8971 6.68997 57.9908 6.65114C58.0845 6.61231 58.1697 6.55539 58.2415 6.48364C58.3132 6.41188 58.3701 6.3267 58.409 6.23295C58.4478 6.13921 58.4678 6.03873 58.4678 5.93725C58.4678 5.83578 58.4478 5.7353 58.409 5.64155C58.3701 5.5478 58.3132 5.46262 58.2415 5.39087C58.1697 5.31912 58.0845 5.2622 57.9908 5.22337C57.8971 5.18454 57.7966 5.16455 57.6951 5.16455C57.5936 5.16455 57.4931 5.18454 57.3994 5.22337C57.3056 5.2622 57.2205 5.31912 57.1487 5.39087C57.077 5.46262 57.02 5.5478 56.9812 5.64155C56.9424 5.7353 56.9224 5.83578 56.9224 5.93725Z" fill="#E5C569"/>
<path d="M48.5227 9.56546C48.5227 9.77039 48.6041 9.96693 48.749 10.1118C48.8939 10.2568 49.0905 10.3382 49.2954 10.3382C49.5003 10.3382 49.6969 10.2568 49.8418 10.1118C49.9867 9.96693 50.0681 9.77039 50.0681 9.56546C50.0681 9.36052 49.9867 9.16398 49.8418 9.01907C49.6969 8.87416 49.5003 8.79276 49.2954 8.79276C49.0905 8.79276 48.8939 8.87416 48.749 9.01907C48.6041 9.16398 48.5227 9.36052 48.5227 9.56546Z" fill="#E5C569"/>
<path d="M60.4179 8.25548C60.4179 8.46044 60.4993 8.65701 60.6442 8.80194C60.7891 8.94687 60.9857 9.02829 61.1907 9.02829C61.3956 9.02829 61.5922 8.94687 61.7371 8.80194C61.8821 8.65701 61.9635 8.46044 61.9635 8.25548C61.9635 8.05052 61.8821 7.85395 61.7371 7.70902C61.5922 7.56409 61.3956 7.48267 61.1907 7.48267C60.9857 7.48267 60.7891 7.56409 60.6442 7.70902C60.4993 7.85395 60.4179 8.05052 60.4179 8.25548Z" fill="#E5C569"/>
<path d="M25.1024 32.5755C25.1024 32.5755 17.4229 43.9109 29.902 39.1879C29.902 39.1879 27.3174 49.6225 39.1815 43.5962C42.4882 41.9166 43.3412 47.7947 43.3412 47.7947C43.3412 47.7947 48.6738 50.104 52.1938 41.8121C55.7133 33.52 55.927 45.4854 60.087 45.1705C64.2465 44.8556 66.9126 41.4965 67.5527 38.4529C68.1923 35.4092 72.9929 40.972 73.5258 42.2314C74.059 43.4908 80.3956 36.2184 71.499 26.698C65.7391 20.534 63.2552 19.7987 62.4023 25.6762C61.5489 31.5538 59.2407 30.1531 55.1806 24.2834C53.2166 21.4443 48.0431 23.4557 45.6795 26.2731C44.1903 28.0478 40.5686 29.1112 37.6887 24.5984C34.8087 20.0857 25.3156 25.3333 25.1024 32.5755Z" fill="white"/>
<path d="M45.0613 48.5855C43.9339 48.5855 43.1758 48.2629 43.1441 48.2492L42.8908 48.1395L42.8509 47.866C42.685 46.7322 41.9048 43.7896 40.3096 43.7896C40.034 43.7896 39.7297 43.8731 39.4056 44.0378C36.8873 45.317 34.7963 45.9655 33.191 45.9655C31.8371 45.9655 30.7993 45.5168 30.1065 44.6316C29.0181 43.2409 29.1031 41.1296 29.2624 39.9468C25.5401 41.2358 23.3462 41.1049 22.557 39.6173C21.4179 37.4698 24.0311 33.2983 24.6126 32.4168C24.8622 27.0205 30.1739 22.4258 34.4184 22.4258C36.0349 22.4258 37.31 23.085 38.1059 24.3319C39.3466 26.2762 40.8384 27.304 42.4199 27.304C43.7084 27.304 44.7524 26.6071 45.2997 25.9548C47.0201 23.9039 49.9594 22.4155 52.2882 22.4155C53.7289 22.4155 54.8699 22.964 55.5876 24.0016C56.4345 25.2259 59.0115 28.9516 60.3962 28.9515C61.0699 28.9513 61.594 27.7941 61.9119 25.6051C62.1892 23.6936 62.7908 21.1521 64.8042 21.1521C66.3601 21.1521 68.4043 22.661 71.8607 26.3597C78.1662 33.1074 76.8319 38.4763 75.9659 40.4712C75.3528 41.8829 74.4369 42.8687 73.7383 42.8687C73.4375 42.8687 73.1873 42.7026 73.0697 42.4243C72.6421 41.4148 69.6682 38.0497 68.427 38.0497C68.3277 38.0497 68.1433 38.0497 68.0369 38.5546C67.3672 41.741 64.6052 45.3249 60.1243 45.6641C58.0116 45.8222 56.8325 43.4657 55.8963 41.5857C55.4315 40.6531 54.7953 39.3755 54.3836 39.3755C54.2804 39.3755 53.7118 39.5024 52.6494 42.0054C50.2192 47.7306 46.852 48.5855 45.0613 48.5855ZM43.779 47.4207C44.0381 47.4952 44.4907 47.5949 45.0613 47.5949C46.9496 47.5949 49.6408 46.558 51.7375 41.6187C52.6997 39.3522 53.4909 38.3852 54.3837 38.3852C55.4085 38.3852 56.0453 39.6638 56.7829 41.1445C57.6331 42.8511 58.5857 44.7827 60.0496 44.6768C64.0209 44.3762 66.4716 41.1871 67.0679 38.3513C67.304 37.2273 68.0209 37.0594 68.4271 37.0594C70.2426 37.0594 73.1513 40.5373 73.8668 41.8098C74.2028 41.5692 74.9116 40.7248 75.3527 39.2695C76.0127 37.0922 76.343 32.6075 71.1369 27.0363C69.1742 24.9359 66.3821 22.143 64.8042 22.143C64.4609 22.143 63.4152 22.143 62.8921 25.7476C62.6307 27.5482 62.0876 29.9421 60.3964 29.9424C59.0443 29.9425 57.4147 28.3848 54.7728 24.5655C54.2408 23.7962 53.4049 23.4064 52.2882 23.4064C50.2603 23.4064 47.5821 24.7757 46.0585 26.5916C45.1639 27.6579 43.8035 28.2945 42.42 28.2945C41.0694 28.2945 39.0799 27.6995 37.2708 24.8648C36.5071 23.6678 35.2981 23.4164 34.4186 23.4164C30.9752 23.4164 25.7543 27.2684 25.5977 32.5899L25.5932 32.734L25.5125 32.8532C24.667 34.1026 22.6451 37.67 23.4324 39.1533C23.6789 39.618 24.2252 39.8439 25.1023 39.8439C26.2085 39.8439 27.7644 39.4673 29.7267 38.7247L30.6076 38.3912L30.3828 39.3066C30.3751 39.3375 29.6356 42.4254 30.8879 44.0228C31.3903 44.6636 32.1437 44.9749 33.1909 44.9749C34.6388 44.9749 36.5788 44.3625 38.9569 43.1545C39.4213 42.9186 39.8763 42.7989 40.3094 42.7989C42.7126 42.799 43.5727 46.3399 43.779 47.4207Z" fill="#040000"/>
</g>
<defs>
<filter id="filter0_d_35_1018" x="-4" y="0" width="108" height="108" filterUnits="userSpaceOnUse" color-interpolation-filters="sRGB">
<feFlood flood-opacity="0" result="BackgroundImageFix"/>
<feColorMatrix in="SourceAlpha" type="matrix" values="0 0 0 0 0 0 0 0 0 0 0 0 0 0 0 0 0 0 127 0" result="hardAlpha"/>
<feOffset dy="4"/>
<feGaussianBlur stdDeviation="2"/>
<feComposite in2="hardAlpha" operator="out"/>
<feColorMatrix type="matrix" values="0 0 0 0 0 0 0 0 0 0 0 0 0 0 0 0 0 0 0.25 0"/>
<feBlend mode="normal" in2="BackgroundImageFix" result="effect1_dropShadow_35_1018"/>
<feBlend mode="normal" in="SourceGraphic" in2="effect1_dropShadow_35_1018" result="shape"/>
</filter>
</defs>
</svg>
