<svg width="100" height="104" viewBox="0 0 100 104" fill="none" xmlns="http://www.w3.org/2000/svg">
<g filter="url(#filter0_d_35_854)">
<path d="M65.4551 5.67216C64.9395 5.67216 64.3857 5.67178 63.8128 5.28986C63.3584 5.28986 62.923 5.67216 62.4838 5.67216H62.1057H61.4869C61.1203 6.05408 60.7537 6.05389 60.4023 6.43581H60.0929C59.818 6.43581 59.6041 6.81755 59.3444 7.19947C59.1114 7.19947 58.8555 7.19984 58.6378 7.58176H58.592C58.3896 7.96368 58.191 7.9635 57.9962 8.34542C57.7594 8.34542 57.4653 8.34532 57.2476 8.72724C56.7473 9.49109 56.2775 9.87301 55.8574 10.6368C55.7925 10.6368 55.6818 11.0187 55.6168 11.0187C54.9828 11.7825 54.4634 12.9285 54.0128 14.0742C53.5315 15.22 53.2145 16.3658 52.8785 17.5116C52.8479 17.5116 52.7753 17.8934 52.7486 17.8934C52.7219 17.8934 52.7524 18.2753 52.7257 18.2753C52.0573 20.9487 51.4806 23.6222 50.9459 25.9137C50.9001 26.2956 50.8848 26.2959 50.839 26.6778C50.5144 28.2055 50.1554 29.733 49.6856 31.2607C49.3228 32.4064 48.9599 33.9341 48.5971 35.0799C48.0624 33.5522 47.4896 31.6424 46.9549 30.1147C44.606 23.2401 44.3654 15.9839 40.3198 9.87319C38.1546 6.81783 34.4133 3.76218 30.4116 5.28986C29.3353 5.67178 28.4443 6.436 27.8737 7.58176C25.4577 12.5467 27.3142 18.2755 29.9208 22.8586C33.7251 28.5874 37.1525 34.3161 40.5779 40.4269C37.2629 38.5173 33.9321 36.6077 30.6667 34.698H30.2665C29.9567 34.3161 29.6199 34.3158 29.3109 33.9339C27.391 32.7882 25.4718 31.6428 23.4874 30.497H23.1543C21.0221 29.3512 18.8524 28.5871 16.4486 27.8233H15.9608H13.8546H12.7909H11.0413C10.7255 28.2052 10.3921 28.2051 10.0888 28.2051H9.77945C9.40785 28.587 9.03662 28.5874 8.69556 28.5874C8.48856 28.9693 8.27965 28.9692 8.07609 28.9692C7.60018 29.3512 7.1963 29.7328 6.84096 30.1147C6.81735 30.1147 6.82022 30.1151 6.79707 30.497C6.47657 30.8789 6.16637 31.2606 6.00589 31.6425C5.81783 32.0244 5.7013 32.7883 5.65868 33.1703H5.61499C5.58486 33.9341 5.65643 34.3161 5.73228 34.698C5.75435 34.698 5.68068 35.0799 5.71185 35.0799C5.78705 35.0799 5.89303 35.4617 5.98083 35.4617C6.10572 35.8436 6.26903 36.2257 6.45159 36.6077C6.50563 36.9896 6.52923 36.9895 6.5861 36.9895C6.74353 37.3714 7.00152 37.3712 7.18812 37.7531C7.35556 38.1351 7.49522 38.1353 7.6792 38.5173C8.11084 38.8992 8.53783 39.2812 9.03815 40.045C9.53732 40.427 10.1488 40.8086 10.7068 41.1905C10.8362 41.1905 10.9783 41.5723 11.107 41.5723C15.2027 44.2458 19.95 45.01 24.6694 45.7738C25.0169 45.7738 25.366 46.1557 25.7128 46.1557C27.6132 46.5376 29.5251 46.9192 31.3484 47.3012C33.2844 48.065 35.2257 48.447 37.1628 48.8289C30.6197 51.1205 24.0591 53.0301 17.398 54.5577C12.4113 56.0854 7.08195 59.1408 5.45573 64.1058C5.20893 65.2515 5.27867 66.7793 5.80427 67.5431C7.60862 71.7443 12.6609 71.7444 16.3254 70.9805C23.3241 69.4528 28.5599 64.1057 34.7825 60.6684C36.3671 59.9045 37.9903 59.1409 39.5787 57.9951C38.9199 59.5228 38.2614 60.6686 37.6019 61.8143C36.8479 63.342 36.1131 64.4877 35.3394 66.0154C33.8613 68.3069 32.3623 70.9804 31.0091 73.272C30.9434 73.272 30.8327 73.6538 30.7666 73.6538C30.7128 73.6538 30.6887 74.0356 30.6356 74.0356C29.5307 75.9452 28.571 78.237 28.1195 80.5285C28.0997 80.9105 28.1168 80.9104 28.0989 80.9104C27.9782 81.6742 27.8365 82.8199 27.8224 83.2018C27.8155 83.9657 27.9599 84.3476 28.0302 85.1114C28.0672 85.4933 28.1046 85.8754 28.168 86.2574C28.2326 86.2574 28.2116 86.6391 28.3055 87.021C28.3365 87.021 28.4056 87.4028 28.44 87.4028C28.5702 87.7848 28.7287 88.1669 28.9109 88.5488C29.0037 88.5488 29.072 88.9306 29.1797 88.9306C29.4815 89.6945 29.91 90.0765 30.3603 90.4584C30.7716 90.4584 31.291 90.8401 31.8272 91.2221C32.3065 91.2221 32.8275 91.2224 33.3579 91.6043C33.8518 91.6043 34.3227 91.604 34.7982 91.2221C34.9208 91.2221 35.0556 91.604 35.1751 91.2221C35.7736 91.2221 36.3423 90.8402 36.8781 90.8402C36.9744 90.4583 37.0928 90.4584 37.1878 90.4584C37.4647 90.4584 37.6779 90.0766 37.9383 90.0766C38.4241 89.6946 38.8492 89.3125 39.2846 88.9306C39.5164 88.5487 39.8193 88.5489 40.0354 88.167C40.5751 87.785 40.9975 87.0212 41.4226 86.2574C41.4948 86.2574 41.5948 86.2575 41.6647 85.8755C44.5486 81.2925 45.2704 75.9455 46.336 70.9805C46.7332 69.0709 47.1686 67.5431 47.5963 65.6335C47.9592 64.4878 48.3182 62.9601 48.6848 61.8143C49.2195 63.342 49.7924 65.2517 50.3271 67.1613C52.6721 73.654 52.9127 80.9103 56.961 87.021C59.1265 90.0764 62.8694 93.5139 66.8681 91.6043C67.9451 91.2224 68.8388 90.4586 69.4078 89.6947C71.8254 84.7298 69.9654 78.6187 67.3607 74.0356C63.5568 68.6887 60.1272 62.578 56.7052 56.8492C58.4734 57.613 60.2226 58.7591 61.9909 59.5229C63.5759 60.2867 65.1036 61.0504 66.616 62.1962C67.0667 62.1962 67.5211 62.5784 67.9718 62.9603C69.7859 64.106 71.6383 65.2515 73.5058 66.0154C73.6128 66.0154 73.6892 66.3972 73.7923 66.3972H74.1284C75.2283 67.161 76.3206 67.5431 77.4816 67.925C78.5663 68.3069 79.6701 68.689 80.8311 69.0709H81.3199C82.1143 69.0709 83.0119 69.4528 83.8024 69.4528C84.6427 69.4528 85.4256 69.0709 86.2391 69.0709H86.7738C87.0144 68.689 87.2703 68.6891 87.5032 68.6891C87.74 68.6891 87.9959 68.6887 88.2327 68.3068H88.5841C88.7941 67.9249 89.0004 67.925 89.2066 67.925C89.3097 67.925 89.3479 67.5431 89.4472 67.5431C89.8024 67.5431 90.1499 67.1614 90.4402 66.7795H90.486C90.7916 66.3976 91.0666 65.6336 91.2766 65.2517C91.502 64.8698 91.5669 64.1059 91.6242 63.7239C91.6662 63.342 91.6318 62.96 91.5478 62.1962C91.5287 62.1962 91.6013 62.1963 91.5707 61.8143C91.4943 61.8143 91.3874 61.4325 91.2995 61.4325C91.1468 61.0506 91.0207 60.6685 90.8298 60.2866C90.7801 60.2866 90.7496 59.9047 90.6961 59.9047C90.6197 59.9047 90.5281 59.5229 90.4517 59.5229C90.1996 59.141 89.9055 58.7589 89.6038 58.377H89.493C89.3135 58.377 89.1455 57.9951 88.9584 57.9951C88.7941 57.6132 88.7025 57.6134 88.5344 57.2315C88.4389 57.2315 88.3397 57.2311 88.2442 56.8492C87.6178 56.4673 86.8884 56.0857 86.1742 55.3219C85.1773 54.9399 84.1538 54.176 83.0844 53.7941C81.9463 53.4122 80.7509 53.0301 79.5555 52.6481H79.2232H78.8451C76.7904 51.8843 74.7127 51.5023 72.6122 51.1204C72.1004 51.1204 71.5924 50.7385 71.0807 50.7385C67.4295 49.9747 63.7478 48.8291 60.1195 48.0653C66.6618 46.1557 73.2232 43.8641 79.8839 42.3365C84.8718 40.8088 90.1996 37.7534 91.8266 32.7884C92.071 31.6427 92.0023 30.4968 91.479 29.3511C89.6726 25.5319 84.6197 25.1498 80.9571 25.9137C73.9565 27.4414 68.7204 32.7885 62.4989 36.2258C60.9139 36.9897 59.2908 37.7533 57.702 38.8991C58.3627 37.7533 59.0196 36.2256 59.6803 35.0799C60.532 33.5522 61.3951 32.0247 62.2736 30.497C63.6599 28.2055 65.0157 25.9138 66.2723 23.6222C66.3868 23.2403 66.5358 23.2405 66.6465 22.8586C67.2156 21.7128 67.7999 20.9488 68.2239 19.803C68.6249 18.6573 68.9419 17.5114 69.1634 16.3657C69.1863 15.9837 69.1596 15.9838 69.1825 15.9838C69.2933 15.22 69.4498 14.4562 69.4575 13.6924C69.4651 13.3105 69.3391 12.9284 69.32 12.5465C69.2894 12.1645 69.2322 11.4006 69.1138 11.0187C69.0526 10.6368 69.0641 10.2551 68.9763 9.87319C68.9419 9.87319 68.877 9.87329 68.8426 9.49137C68.7204 9.10944 68.5332 8.72734 68.369 8.34542C68.2773 8.34542 68.2086 7.96359 68.1017 7.96359C68.0367 7.96359 67.8878 7.58176 67.8114 7.58176C67.5441 7.19984 67.2729 6.81764 66.9215 6.81764H66.8108C66.4212 6.43572 65.9516 6.05408 65.4551 5.67216Z" fill="#C0392B"/>
<path d="M50.0026 4.14453C49.4335 4.10538 48.8797 4.21781 48.3298 4.38323C47.8982 4.52243 47.5201 4.74815 47.1382 4.97998C47.0312 5.04559 46.8785 5.02638 46.7792 5.09933C46.6035 5.24912 46.466 5.41831 46.3018 5.57673C46.0077 5.82708 45.7251 6.1144 45.4654 6.41218C45.3966 6.49815 45.2973 6.56312 45.2286 6.65088C45.03 6.89841 44.9269 7.21647 44.7512 7.48634C44.5946 7.72779 44.4113 7.95064 44.2738 8.20244C44.2547 8.23375 44.289 8.29028 44.2738 8.32198C44.1477 8.55839 44.0255 8.79327 43.9148 9.0377C43.7773 9.33636 43.5558 9.56819 43.4374 9.87334C43.1777 10.5703 43.002 11.4045 42.8416 12.1412C42.8148 12.2584 42.7461 12.3833 42.7232 12.499C42.4978 13.6593 42.3909 14.8032 42.3642 15.9604C42.3351 17.1978 42.4749 18.4253 42.601 19.6601C42.6162 19.7746 42.5895 19.9041 42.601 20.0179C42.6239 20.1413 42.7003 20.2532 42.7232 20.3762C43.0402 22.9996 43.4565 25.6352 43.9148 28.2533C43.9453 28.4546 44.0064 28.649 44.037 28.8502C44.2967 30.3966 44.5258 31.9571 44.6328 33.5047C44.7894 34.8976 44.9498 36.2897 45.1102 37.6818C43.9682 36.2492 42.7881 34.8177 41.6481 33.3852C37.0421 28.1039 34.0986 21.2954 28.1613 17.2731C25.0284 15.2294 20.3017 13.4428 17.1811 16.4378C16.3202 17.1879 15.8039 18.3073 15.6297 19.4214C15.205 24.9306 19.0678 29.6637 23.149 32.9077C28.7739 36.8018 34.1418 41.0717 39.4998 45.3194C35.7672 44.8917 31.9988 44.4143 28.2808 43.8872C28.12 43.8605 27.9642 43.7994 27.8034 43.7688C27.4505 43.7192 27.082 43.7001 26.7291 43.6504C24.5025 43.2379 22.2774 42.8255 20.0455 42.5734C19.9317 42.5619 19.8022 42.5887 19.6876 42.5734C17.2987 42.3297 14.9281 42.2331 12.5266 42.6956C12.3757 42.7262 12.2027 42.7758 12.0492 42.814C11.3912 42.963 10.6468 43.1845 10.0201 43.4098C9.67824 43.5397 9.39943 43.7344 9.06525 43.8872C8.52636 44.1355 8.01153 44.4028 7.51389 44.7236C7.24403 44.8993 6.92596 45.0024 6.67844 45.201C6.59067 45.2698 6.52571 45.3691 6.43974 45.4378C6.14196 45.6975 5.85464 45.9801 5.60429 46.2742C5.4459 46.4384 5.27668 46.5759 5.12689 46.7516C4.79461 47.2099 4.57619 47.7561 4.41078 48.3022C4.39944 48.3404 4.42145 48.3862 4.41078 48.4244C4.26912 48.9362 4.13568 49.4442 4.17208 49.975C4.18321 50.5174 4.26921 51.052 4.41078 51.5256C4.42145 51.5638 4.3992 51.6058 4.41078 51.6478C4.54999 52.0794 4.77571 52.4575 5.00754 52.8394C5.07315 52.9464 5.05394 53.0991 5.12689 53.1984C5.27668 53.3741 5.4459 53.5116 5.60429 53.6758C5.85464 53.9699 6.14196 54.2525 6.43974 54.5122C6.52571 54.581 6.59067 54.6803 6.67844 54.749C6.92596 54.9476 7.24403 55.0508 7.51389 55.2264C7.75534 55.383 7.97819 55.5663 8.22999 55.7038C8.82235 56.0285 9.38989 56.3035 10.0201 56.5402C10.6468 56.7656 11.3912 56.9871 12.0492 57.136C12.2027 57.1742 12.3757 57.2239 12.5266 57.2544C17.2907 58.1711 22.0017 57.1781 26.7291 56.2996C27.082 56.25 27.4505 56.2309 27.8034 56.1812C29.7111 55.8375 31.6234 55.4747 33.5322 55.3448C35.5232 55.1195 37.5077 54.8598 39.4998 54.6306C34.1418 58.8776 28.7739 63.1475 23.149 67.0431C19.0678 70.2856 15.205 75.0214 15.6297 80.5287C15.8039 81.6439 16.3202 82.7629 17.1811 83.5115C20.3017 86.5058 25.0284 84.7222 28.1613 82.6751C34.0986 78.6535 37.0421 71.8476 41.6481 66.5657C42.7881 65.1335 43.9682 63.7013 45.1102 62.2691C44.9498 63.6593 44.7894 65.0533 44.6328 66.4435C44.4304 67.9902 44.2585 69.5599 44.037 71.0991C43.5596 73.9176 43.0631 76.7515 42.7232 79.5739C42.7003 79.6961 42.6239 79.8107 42.601 79.9329C42.5895 80.0475 42.6162 80.1735 42.601 80.2919C42.3573 82.6789 42.2607 85.0506 42.7232 87.4491C42.7461 87.5675 42.8148 87.6935 42.8416 87.8081C43.002 88.5452 43.1777 89.3778 43.4374 90.0767C43.6512 90.6381 43.9911 91.1003 44.2738 91.6273C44.4265 91.9138 44.5755 92.1926 44.7512 92.4637C44.9269 92.7349 45.03 93.0519 45.2286 93.3001C45.2973 93.388 45.3966 93.4529 45.4654 93.5369C45.7251 93.8348 46.0077 94.1213 46.3018 94.3733C46.466 94.5299 46.6035 94.7018 46.7792 94.8507C47.2375 95.183 47.7836 95.4007 48.3298 95.5687C48.8377 95.7291 49.4221 95.7941 50.0026 95.8055C50.5335 95.8437 51.0414 95.71 51.5532 95.5687C52.0306 95.4236 52.4545 95.2212 52.867 94.9691C52.9739 94.9042 53.1267 94.9233 53.226 94.8507C53.7072 94.4383 54.1502 94.0105 54.5398 93.5369C54.6085 93.4567 54.7078 93.3841 54.7766 93.3001C54.9752 93.0442 55.0821 92.7349 55.254 92.4637C55.5786 91.9634 55.8383 91.4593 56.0904 90.9131C56.2241 90.619 56.4532 90.3784 56.5678 90.0767C56.8504 89.3281 56.9956 88.5376 57.1636 87.8081C57.1903 87.6821 57.2591 87.579 57.282 87.4491C58.2979 82.171 57.0108 76.9386 56.0904 71.6987C55.8307 69.9571 55.6015 68.1888 55.3724 66.4435C55.2158 65.0533 55.0554 63.6593 54.895 62.2691C56.0369 63.7013 57.2171 65.1335 58.359 66.5657C62.965 71.8476 65.9058 78.6535 71.8446 82.6751C74.9764 84.7222 79.7046 86.5058 82.8249 83.5115C83.6842 82.7629 84.1998 81.6439 84.3755 80.5287C84.7994 75.0214 80.9382 70.2856 76.8554 67.0431C71.2297 63.1475 65.8638 58.8776 60.5054 54.6306C62.499 54.8598 64.4812 55.1195 66.471 55.3448C68.2202 55.4671 69.977 55.7535 71.7262 56.0628C72.238 56.1354 72.7651 56.2233 73.2768 56.2996C75.3812 56.6892 77.4932 57.0024 79.6014 57.2544C79.7237 57.2774 79.8382 57.3537 79.9605 57.3767C80.0788 57.3881 80.2011 57.3614 80.3195 57.3767C81.5531 57.5027 82.779 57.644 84.0165 57.6134C85.1737 57.5867 86.3194 57.4798 87.4767 57.2544C87.6294 57.2239 87.8013 57.1742 87.9579 57.136C88.7408 56.9604 89.6078 56.7121 90.3411 56.4219C91.1202 56.1087 91.7962 55.6809 92.4913 55.2264C92.6402 55.131 92.8235 55.089 92.9687 54.9858C93.1711 54.8407 93.3773 54.6727 93.5645 54.5122C93.7593 54.3518 93.977 54.2067 94.1603 54.031C94.2634 53.9279 94.3092 53.7828 94.4009 53.6758C94.5575 53.5116 94.7293 53.3741 94.8783 53.1984C94.9509 53.0991 94.9318 52.9464 94.9967 52.8394C95.2297 52.4575 95.455 52.0794 95.5963 51.6478C95.6077 51.6058 95.5848 51.5638 95.5963 51.5256C95.7376 51.052 95.8216 50.5174 95.8331 49.975C95.8713 49.4442 95.7376 48.9362 95.5963 48.4244C95.4512 47.947 95.2487 47.5231 94.9967 47.1106C94.9318 47.0037 94.9509 46.8509 94.8783 46.7516C94.7293 46.5759 94.5575 46.4384 94.4009 46.2742C94.1221 45.9916 93.8662 45.6861 93.5645 45.4378C93.4843 45.3691 93.4117 45.2698 93.3277 45.201C93.2131 45.1132 93.0871 45.0444 92.9687 44.9642C92.5906 44.6854 92.1896 44.4754 91.7771 44.2462C91.7427 44.2271 91.6892 44.2615 91.6549 44.2462C91.4143 44.1164 91.1889 44.0018 90.9407 43.8872C90.7268 43.7917 90.5588 43.616 90.3411 43.5282C90.2227 43.4824 90.1043 43.4556 89.9859 43.4098C89.1991 43.1234 88.3131 42.856 87.4767 42.6956C86.3194 42.4703 85.1737 42.3633 84.0165 42.3366C82.779 42.3076 81.5531 42.4474 80.3195 42.5734C80.2011 42.5887 80.0788 42.5619 79.9605 42.5734C79.8382 42.5963 79.7237 42.6727 79.6014 42.6956C77.4932 42.9477 75.3812 43.2609 73.2768 43.6504C72.7612 43.7459 72.238 43.7994 71.7262 43.8872C68.0063 44.4143 64.2368 44.8917 60.5054 45.3194C65.8638 41.0713 71.2297 36.8018 76.8554 32.9077C80.9382 29.6637 84.7994 24.9306 84.3755 19.4214C84.1998 18.3073 83.6842 17.1879 82.8249 16.4378C79.7046 13.4428 74.9764 15.2294 71.8446 17.2731C65.9058 21.2954 62.965 28.1039 58.359 33.3852C57.2171 34.8181 56.0369 36.2492 54.895 37.6818C55.0554 36.2897 55.2158 34.8976 55.3724 33.5047C55.6015 31.7593 55.8307 29.9925 56.0904 28.2533C56.5487 25.6352 56.965 22.9996 57.282 20.3762C57.3125 20.1359 57.3775 19.9003 57.4042 19.6601C57.5302 18.4253 57.6716 17.1978 57.641 15.9604C57.6143 14.8032 57.5073 13.6593 57.282 12.499C57.2591 12.3715 57.1903 12.268 57.1636 12.1412C56.9956 11.4113 56.8504 10.6211 56.5678 9.87334C56.4532 9.5701 56.2241 9.33101 56.0904 9.0377C55.8383 8.48926 55.5786 7.98551 55.254 7.48634C55.0821 7.2167 54.9752 6.90612 54.7766 6.65088C54.7078 6.5656 54.6085 6.49437 54.5398 6.41218C54.2916 6.11081 53.986 5.85393 53.7034 5.57673C53.5392 5.41835 53.4017 5.24912 53.226 5.09933C53.1267 5.02638 52.9739 5.04559 52.867 4.97998C52.4851 4.74815 52.107 4.52244 51.6754 4.38323C51.6334 4.37165 51.5914 4.39389 51.5532 4.38323C51.0796 4.24165 50.5449 4.15565 50.0026 4.14453Z" fill="#E74C3C"/>
<path d="M66.6667 50.0002C66.6667 54.4204 64.9107 58.6597 61.7851 61.7853C58.6595 64.9109 54.4203 66.6668 50 66.6668C45.5797 66.6668 41.3405 64.9109 38.2149 61.7853C35.0893 58.6597 33.3333 54.4204 33.3333 50.0002C33.3333 45.5799 35.0893 41.3407 38.2149 38.215C41.3405 35.0894 45.5797 33.3335 50 33.3335C54.4203 33.3335 58.6595 35.0894 61.7851 38.215C64.9107 41.3407 66.6667 45.5799 66.6667 50.0002Z" fill="#C0392B"/>
<path d="M58.3333 49.9998C58.3333 52.21 57.4553 54.3296 55.8925 55.8924C54.3297 57.4552 52.2101 58.3332 50 58.3332C47.7899 58.3332 45.6702 57.4552 44.1074 55.8924C42.5446 54.3296 41.6667 52.21 41.6667 49.9998C41.6667 47.7897 42.5446 45.6701 44.1074 44.1073C45.6702 42.5445 47.7899 41.6665 50 41.6665C52.2101 41.6665 54.3297 42.5445 55.8925 44.1073C57.4553 45.6701 58.3333 47.7897 58.3333 49.9998Z" fill="#E67E22"/>
</g>
<defs>
<filter id="filter0_d_35_854" x="-4" y="0" width="108" height="108" filterUnits="userSpaceOnUse" color-interpolation-filters="sRGB">
<feFlood flood-opacity="0" result="BackgroundImageFix"/>
<feColorMatrix in="SourceAlpha" type="matrix" values="0 0 0 0 0 0 0 0 0 0 0 0 0 0 0 0 0 0 127 0" result="hardAlpha"/>
<feOffset dy="4"/>
<feGaussianBlur stdDeviation="2"/>
<feComposite in2="hardAlpha" operator="out"/>
<feColorMatrix type="matrix" values="0 0 0 0 0 0 0 0 0 0 0 0 0 0 0 0 0 0 0.25 0"/>
<feBlend mode="normal" in2="BackgroundImageFix" result="effect1_dropShadow_35_854"/>
<feBlend mode="normal" in="SourceGraphic" in2="effect1_dropShadow_35_854" result="shape"/>
</filter>
</defs>
</svg>
