<svg width="100" height="100" viewBox="0 0 100 100" fill="none" xmlns="http://www.w3.org/2000/svg">
<g filter="url(#filter0_d_35_1050)">
<path d="M54.1667 25C54.1665 27.1888 54.5975 29.3562 55.435 31.3785C56.2725 33.4007 57.5001 35.2382 59.0478 36.7859C60.5954 38.3337 62.4328 39.5615 64.455 40.3992C66.4772 41.2368 68.6445 41.6679 70.8333 41.6679C73.0221 41.6679 75.1895 41.2368 77.2117 40.3992C79.2339 39.5615 81.0712 38.3337 82.6189 36.7859C84.1666 35.2382 85.3942 33.4007 86.2317 31.3785C87.0692 29.3562 87.5002 27.1888 87.5 25C87.5002 22.8112 87.0692 20.6438 86.2317 18.6216C85.3942 16.5993 84.1666 14.7618 82.6189 13.2141C81.0712 11.6663 79.2339 10.4385 77.2117 9.60086C75.1895 8.7632 73.0221 8.33206 70.8333 8.33206C68.6445 8.33206 66.4772 8.7632 64.455 9.60086C62.4328 10.4385 60.5954 11.6663 59.0478 13.2141C57.5001 14.7618 56.2725 16.5993 55.435 18.6216C54.5975 20.6438 54.1665 22.8112 54.1667 25Z" fill="#FFEB3B"/>
<path d="M68.75 10.4167H72.9167V39.5833H68.75V10.4167Z" fill="#FFFDE7"/>
<path d="M56.25 22.9167H85.4167V27.0833H56.25V22.9167Z" fill="#FFFDE7"/>
<path d="M59.0479 16.1604L61.9937 13.2146L82.6187 33.8396L79.6729 36.7854L59.0479 16.1604Z" fill="#FFFDE7"/>
<path d="M61.9937 36.7854L59.0479 33.8396L79.6729 13.2146L82.6187 16.1604L61.9937 36.7854Z" fill="#FFFDE7"/>
<path d="M70.8333 11.4583C78.3021 11.4583 84.375 17.5313 84.375 25C84.375 32.4667 78.3021 38.5417 70.8333 38.5417C67.2432 38.5373 63.8014 37.1091 61.2628 34.5705C58.7242 32.0319 57.2961 28.5901 57.2917 25C57.2917 17.5313 63.3667 11.4583 70.8333 11.4583ZM70.8333 8.33334C61.6271 8.33334 54.1667 15.7938 54.1667 25C54.1667 34.2063 61.6271 41.6667 70.8333 41.6667C80.0396 41.6667 87.5 34.2063 87.5 25C87.5 15.7938 80.0396 8.33334 70.8333 8.33334Z" fill="#FFC107"/>
<path d="M62.1938 35.4167H65.2438L72.9167 25H57.2917C57.2917 29.1854 59.2 32.9312 62.1938 35.4167Z" fill="#FFB300"/>
<path d="M41.6667 59.4396H45.8333V87.5H41.6667V59.4396Z" fill="#90CAF9"/>
<path d="M60.4167 89.5833C60.4167 89.5833 45.8354 87.5 45.8333 81.25C45.8333 75 41.6646 75 41.6667 81.25C41.6667 87.5 27.0833 89.5833 27.0833 89.5833C26.8097 89.5833 26.5388 89.6372 26.2861 89.7419C26.0333 89.8466 25.8036 90.0001 25.6102 90.1935C25.4167 90.387 25.2633 90.6167 25.1586 90.8694C25.0539 91.1222 25 91.3931 25 91.6667H62.5C62.5 91.3931 62.4461 91.1222 62.3414 90.8694C62.2367 90.6167 62.0833 90.387 61.8898 90.1935C61.6963 90.0001 61.4667 89.8466 61.2139 89.7419C60.9612 89.6372 60.6903 89.5833 60.4167 89.5833ZM14.5833 25L22.2583 35.4167H57.8333C55.4569 32.4653 54.1629 28.7892 54.1667 25H14.5833Z" fill="#90CAF9"/>
<path d="M57.2917 25H54.1667C54.1629 28.7892 55.4569 32.4653 57.8333 35.4167H62.1937C60.6599 34.1486 59.4251 32.5573 58.5777 30.7566C57.7302 28.9559 57.2911 26.9902 57.2917 25Z" fill="#FB8C00"/>
<path d="M20.7229 33.3333L40.7625 60.5313C40.7625 60.5313 43.5187 64.8521 46.7937 60.4542C50.0646 56.0542 66.7771 33.3333 66.7771 33.3333H20.7229Z" fill="#F50057"/>
</g>
<defs>
<filter id="filter0_d_35_1050" x="-4" y="0" width="108" height="108" filterUnits="userSpaceOnUse" color-interpolation-filters="sRGB">
<feFlood flood-opacity="0" result="BackgroundImageFix"/>
<feColorMatrix in="SourceAlpha" type="matrix" values="0 0 0 0 0 0 0 0 0 0 0 0 0 0 0 0 0 0 127 0" result="hardAlpha"/>
<feOffset dy="4"/>
<feGaussianBlur stdDeviation="2"/>
<feComposite in2="hardAlpha" operator="out"/>
<feColorMatrix type="matrix" values="0 0 0 0 0 0 0 0 0 0 0 0 0 0 0 0 0 0 0.25 0"/>
<feBlend mode="normal" in2="BackgroundImageFix" result="effect1_dropShadow_35_1050"/>
<feBlend mode="normal" in="SourceGraphic" in2="effect1_dropShadow_35_1050" result="shape"/>
</filter>
</defs>
</svg>
