<svg width="103" height="105" viewBox="0 0 103 105" fill="none" xmlns="http://www.w3.org/2000/svg">
<g filter="url(#filter0_d_35_832)">
<path d="M48.9688 10.4688H54.9062V33.9063H48.9688V10.4688Z" fill="#94989B"/>
<path d="M97.875 26.5625L4.125 9.0625V6.09375L97.875 23.5938V26.5625Z" fill="#3E4347"/>
<path d="M67.0937 14.8438L34.9062 9.0625V6.09375L67.0937 11.875V14.8438Z" fill="#3E4347"/>
<path d="M35.0625 11.875C37.4787 11.875 39.4375 9.91625 39.4375 7.5C39.4375 5.08375 37.4787 3.125 35.0625 3.125C32.6463 3.125 30.6875 5.08375 30.6875 7.5C30.6875 9.91625 32.6463 11.875 35.0625 11.875Z" fill="#3E4347"/>
<path d="M35.0625 8.90625C35.8391 8.90625 36.4688 8.27665 36.4688 7.5C36.4688 6.72335 35.8391 6.09375 35.0625 6.09375C34.2858 6.09375 33.6562 6.72335 33.6562 7.5C33.6562 8.27665 34.2858 8.90625 35.0625 8.90625Z" fill="#94989B"/>
<path d="M66.9375 17.8125C69.3537 17.8125 71.3125 15.8537 71.3125 13.4375C71.3125 11.0213 69.3537 9.0625 66.9375 9.0625C64.5213 9.0625 62.5625 11.0213 62.5625 13.4375C62.5625 15.8537 64.5213 17.8125 66.9375 17.8125Z" fill="#3E4347"/>
<path d="M66.9375 14.8438C67.7142 14.8438 68.3437 14.2142 68.3437 13.4375C68.3437 12.6609 67.7142 12.0312 66.9375 12.0312C66.1609 12.0312 65.5312 12.6609 65.5312 13.4375C65.5312 14.2142 66.1609 14.8438 66.9375 14.8438Z" fill="#94989B"/>
<path d="M48.9688 22.1875H54.9062V33.9063H48.9688V22.1875Z" fill="#D0D0D0"/>
<path d="M97.875 80.7812C97.875 89.6875 90.6875 96.875 81.7812 96.875H20.2188C11.3125 96.875 4.125 89.6875 4.125 80.7812V48.125C4.125 39.2187 11.3125 32.0312 20.2188 32.0312H81.9375C90.8438 32.0312 98.0312 39.2187 98.0312 48.125V80.7812H97.875Z" fill="#DAE3EA"/>
<path d="M91.4688 74.2188H10.5312V51.25C10.5312 43.9063 16.4688 37.9688 23.8125 37.9688H78.3438C85.6875 37.9688 91.625 43.9063 91.625 51.25L91.4688 74.2188Z" fill="#3E4347"/>
<path d="M97.875 80.7812C97.875 89.6875 90.6875 96.875 81.7812 96.875H20.2188C11.3125 96.875 4.125 89.6875 4.125 80.7812H97.875Z" fill="#ED4C5C"/>
<path d="M96.4688 87.1875C96.9375 86.0937 97.25 85.1562 97.5625 83.9062H4.4375C4.59375 85 5.0625 86.0937 5.53125 87.1875H96.4688Z" fill="#DAE3EA"/>
<path d="M69.5938 33.5938H76V75.7812H69.5938V33.5938Z" fill="#DAE3EA"/>
<path d="M47.875 33.5938H54.2812V75.7812H47.875V33.5938Z" fill="#DAE3EA"/>
<path d="M26 33.5938H32.4063V75.7812H26V33.5938Z" fill="#DAE3EA"/>
</g>
<defs>
<filter id="filter0_d_35_832" x="-3" y="0" width="108" height="108" filterUnits="userSpaceOnUse" color-interpolation-filters="sRGB">
<feFlood flood-opacity="0" result="BackgroundImageFix"/>
<feColorMatrix in="SourceAlpha" type="matrix" values="0 0 0 0 0 0 0 0 0 0 0 0 0 0 0 0 0 0 127 0" result="hardAlpha"/>
<feOffset dy="4"/>
<feGaussianBlur stdDeviation="2"/>
<feComposite in2="hardAlpha" operator="out"/>
<feColorMatrix type="matrix" values="0 0 0 0 0 0 0 0 0 0 0 0 0 0 0 0 0 0 0.25 0"/>
<feBlend mode="normal" in2="BackgroundImageFix" result="effect1_dropShadow_35_832"/>
<feBlend mode="normal" in="SourceGraphic" in2="effect1_dropShadow_35_832" result="shape"/>
</filter>
</defs>
</svg>
