<svg width="108" height="108" viewBox="0 0 108 108" fill="none" xmlns="http://www.w3.org/2000/svg">
<g clip-path="url(#clip0_35_850)" filter="url(#filter0_d_35_850)">
<path d="M90.4625 15.4165C89.95 14.1665 88.4208 13.7497 85.3792 13.7497C80.0708 14.1664 70.6583 32.9166 71.1292 21.2499C63.0958 16.6666 70.4083 34.5831 61.8042 36.2498C56.3792 42.0831 58.8833 32.4999 58.3208 29.5832C57.4458 25.4166 59.4125 22.5001 62.5 20.4168L71.0875 11.6664C66.7833 0.416361 56.1458 24.1667 58.7083 10.4167C60.75 6.25 57.3708 0.416667 54.1792 0H54.2292C53.3875 0 52.5875 0.416361 51.8292 1.24969C51.1417 1.66636 50.4875 2.5001 50.025 3.7501H49.975C49.7417 4.16677 49.5 4.99969 49.3583 5.41636H49.3125C49.2083 5.83303 49.0708 6.2498 49.0375 7.08313H49.1042C49.0792 7.4998 49.0542 7.91656 49.1458 8.7499H49.2125C49.3125 9.16656 49.425 10 49.6583 10.4167H49.725C50.0208 12.0833 50.1042 13.333 50.0542 13.7497C50.05 13.7497 50.1208 14.1668 50.1167 14.1668C50.0875 14.1668 49.9542 14.5833 49.8583 14.5833C49.7542 14.5833 49.5792 14.9999 49.4042 14.9999C49.225 14.9999 49.0333 14.5833 48.7958 14.5833C48.0833 14.1667 47.1833 12.9168 46.1 12.0834C44.6883 10.8334 43.0088 9.16656 41.4721 8.7499C40.6567 8.7499 39.9083 8.7498 39.1821 9.16646C38.8329 9.16646 38.5513 9.58344 38.2375 10.0001C37.8933 10.4168 37.5717 11.2497 37.28 11.6664L45.825 20.4168C47.3708 21.2501 48.6333 22.9164 49.3792 24.1664C49.5625 24.583 49.7417 24.9999 49.8583 25.4166C49.9792 25.8332 50.0583 26.2501 50.1083 26.6668C50.225 27.5001 50.1542 28.3332 49.925 29.5832C49.7833 29.9999 49.8625 31.2497 49.9417 32.4997C49.9792 33.333 49.9 33.7498 49.9333 34.1665C49.9583 34.9998 50.0667 35.8331 50.0375 36.2498C50.0167 36.6665 50.0083 37.0833 49.8792 37.5C49.6917 37.9167 49.3167 37.9166 48.7875 37.9166C48.275 37.9166 47.5167 37.0831 46.5542 36.2498H46.4875C45.4542 35.8331 44.62 35.4168 43.9942 35.0001C43.6746 34.5834 43.4554 34.1666 43.2204 33.7499C42.9696 33.3332 42.7108 32.9164 42.5433 32.4997C42.2358 31.6664 42.0854 30.4166 41.9575 29.5832H41.8917C41.8317 28.7499 41.8408 28.3331 41.8033 27.9165C41.7625 27.4998 41.7937 27.083 41.7633 26.2497C41.7342 25.833 41.71 25.4167 41.675 25C41.6396 24.5833 41.5304 23.7499 41.4725 23.3332C41.4454 23.3332 41.3575 23.3333 41.3225 22.9167C40.9333 20.8333 40.0233 19.5832 37.2567 21.2499H37.3229C37.3458 22.0832 37.29 22.5 37.2488 22.9167C37.2463 22.9167 37.3171 22.9166 37.3146 23.3332C37.2683 23.7499 37.1271 23.7497 37.025 24.1664C36.9133 24.583 36.8229 24.5833 36.6512 25H36.0142C35.5646 25 34.9788 24.583 34.3571 24.1664C32.5142 22.4997 30.0529 19.1667 27.6479 16.6667C26.03 15 24.4183 13.7497 23.085 13.7497C23.0571 13.7497 23.0467 13.3331 23.0188 13.3331C19.9013 13.3331 18.4771 14.1665 18.005 15.4165C17.8763 15.8331 17.7717 16.25 17.7633 16.6667C17.7563 16.6667 17.8504 17.0831 17.9483 17.4998C18.1317 18.3331 18.5063 19.1668 19.0567 20.4168C20.0863 22.0834 21.6571 23.7499 23.2688 25.4166C24.9163 27.0832 26.5938 28.3333 27.8671 29.1667C29.6492 30.4167 30.4729 31.2499 30.5621 31.6666C30.5854 31.6666 30.5175 32.0831 30.4654 32.0831C29.9904 32.9165 26.7742 32.5 25.17 33.3333C24.8146 33.75 24.5483 34.1664 24.4058 34.583C24.5408 34.9997 24.7267 35 24.9333 35.4167C25.5546 36.25 26.4108 36.6668 27.5092 37.0834C29.7104 37.5001 32.6217 37.0833 35.2358 37.5C36.0933 37.9167 36.8942 37.9165 37.6446 38.3331C38.7704 38.7498 39.7308 39.583 40.4054 40.833C40.6304 41.6664 40.8125 42.0831 40.9688 42.4998C41.8179 42.9165 42.4254 43.3333 42.8237 43.75C43.2221 44.1667 43.3854 44.583 43.4175 44.9997H43.3692C43.3071 44.9997 43.2683 45.0001 43.1404 45.4168C41.865 45.8334 37.5333 45.0001 35.5813 45.4168C34.0029 45.8334 32.5446 45.8334 31.2125 45.4168C29.8808 45.0001 28.6537 44.5833 27.5071 43.75C26.9667 43.3333 26.4079 42.9165 25.8983 42.4998C25.36 42.0831 24.7829 41.6668 24.2717 41.2501C23.2779 40.0001 22.2925 38.7499 21.3612 37.9166C21.2296 37.4999 21.1275 37.083 20.93 36.6664C20.7213 36.2497 20.4267 35.8333 20.1562 35.4167C19.9283 35.4167 19.6579 34.9997 19.4 34.583C19.1129 34.583 18.7925 34.5831 18.4813 34.1665H17.4658C16.5138 33.7498 15.51 34.1665 14.7017 34.1665C14.0988 34.5831 13.7021 35 13.3483 35.4167C13.1717 35.4167 13.0146 35.8332 12.9088 35.8332C12.8054 36.2499 12.735 36.2497 12.7158 36.6664H12.7817C12.7771 37.083 12.8163 37.0833 12.8829 37.5C13.0621 38.3333 13.6237 39.5831 15.0725 40.4165C17.5113 41.6665 18.6625 42.9167 18.9325 43.75C19 43.75 18.9383 44.1666 18.9021 44.1666C18.8562 44.1666 18.9042 44.5831 18.8054 44.5831H18.6912C18.1388 44.9998 17.0613 45.4168 15.6675 45.4168H15.5533H13.3121H13.1975H8.56542C7.275 45.4168 6.33354 45.8331 5.62538 46.6665H5.39688C4.81846 47.0831 4.43379 47.5 4.24146 47.9167C4.22017 47.9167 4.21123 48.3332 4.19318 48.3332C4.12447 48.3332 4.00151 48.7498 4.00003 48.7498C3.99848 48.7498 4.06603 49.1664 4.06599 49.1664C4.07582 49.1664 4.15249 49.5833 4.23326 50C4.55546 51.25 5.64026 52.083 7.09547 53.333C7.81597 53.7497 8.55501 54.1667 9.40751 54.1667C11.1471 55 13.0433 55 14.7738 54.1667C18.0563 53.3333 19.2175 53.75 19.2742 54.1667C19.2283 54.5833 18.9296 54.9997 18.4133 55.4164C17.8688 56.2497 17.1513 57.083 16.41 57.4997C15.7458 58.333 15.0396 59.1668 14.4725 60.0001H14.4242C13.8479 60.8334 13.3283 61.6668 13.1417 62.0834C13.0554 62.5001 12.9925 62.9165 13.0321 63.3331H13.0979C13.1058 63.7498 13.1533 63.7497 13.1638 63.7497C13.3438 64.583 14.1308 65.8334 16.1708 66.2501L24.7563 57.9168C24.7908 57.9168 24.7696 57.9164 24.8042 57.4997C25.3813 57.083 25.9263 56.2501 26.5792 55.8334C28.5367 54.1668 30.8904 53.3334 33.8525 53.7501C36.0879 54.1668 41.0892 52.9167 42.3129 54.1667H42.5108C42.5275 54.5833 42.5683 54.5832 42.5767 54.5832C42.58 54.5832 42.5267 54.5831 42.48 54.9998C42.2979 55.4165 41.7304 56.2498 40.6088 57.0831H40.6746C40.5838 57.9165 40.4192 58.3333 40.2221 58.3333C37.6533 63.75 26.7692 60.4165 25.2063 63.3331C25.1063 63.3331 24.9658 63.7501 24.9471 64.1668H25.0129C25.0067 64.1668 24.9554 64.5832 25.0658 64.9999C25.1758 65.4166 25.3896 65.8334 25.6775 66.2501H25.7433C27.2179 66.2501 28.1583 66.25 28.7717 66.6667C29.2963 66.6667 29.6483 67.0831 29.5938 67.4998C29.2692 69.9998 20.1088 75.4166 18.2583 79.5832C18.1054 79.5832 17.9463 79.9997 17.9029 80.4164H17.9688C17.9633 81.2497 17.9454 82.083 18.0267 82.4997H18.0925C18.1779 82.9164 18.2521 83.3332 18.4092 83.7499C18.4233 83.7499 18.4608 84.1665 18.4754 84.1665C18.8167 84.5831 19.3363 85.4167 19.9217 85.4167C23.5854 87.0833 31.4696 79.5831 33.7542 75.8331C35.2183 73.7498 36.0325 72.9167 36.4913 72.9167C36.6667 73.3333 36.7946 73.3331 36.8871 73.7498H36.9529C37.0471 74.1665 37.0888 74.5832 37.1554 75.4166C37.3329 76.6666 37.5963 78.3333 38.4488 79.1667H39.0554C39.5525 79.5833 40.1313 79.5833 40.9846 79.1667C40.9854 78.75 41.0325 78.7501 41.0329 78.7501C41.0404 77.9168 40.9979 77.083 41.0542 76.2497C41.0583 76.2497 41.0979 76.2498 41.1025 75.8331C41.1629 74.9998 41.2946 74.1666 41.4179 73.3332H41.4663C41.5983 72.4999 41.7483 71.6667 41.9621 70.8333C42.1867 70 42.4233 68.7501 42.7525 68.3334C43.3158 66.6668 44.1238 65.4168 45.0588 64.1668C45.2404 64.1668 45.3483 63.7498 45.5463 63.3331C46.1333 62.9165 46.6917 62.083 47.4333 61.6664C48.175 60.833 49.0208 60.4164 49.9292 59.583L49.9125 74.1664C48.1333 77.083 44.6529 79.583 42.1946 82.4997C41.2004 82.9164 40.4971 83.3331 39.9271 84.1665C39.7021 84.1665 39.4246 84.583 39.2596 84.583C39.2283 84.583 39.2404 84.5834 39.2113 85.0001C39.0288 85.0001 38.8929 85.4166 38.7896 85.8332H38.7413C38.605 86.2499 38.4371 86.6668 38.4692 87.0834C38.4967 87.9168 38.6983 88.333 38.9838 88.7497C39.3879 89.583 40.0317 89.9999 40.7729 89.9999C41.0613 90.4166 41.2808 90.4165 41.6079 90.4165C42.1913 90.4165 42.8504 90 43.5196 89.5833C44.1892 89.1667 44.8804 88.75 45.5892 87.5C46.15 87.0833 46.6458 86.2499 47.0708 85.8332C47.9167 84.9999 48.575 84.5831 48.9958 84.1665C49.1458 84.1665 49.3167 84.583 49.4208 84.583C49.6792 84.9997 49.7792 85.4165 49.8208 86.2498C49.8625 87.0831 49.9083 88.3334 49.8833 89.1668C49.8542 90.4168 49.7542 91.6664 49.8 92.9164H49.8667C49.9167 94.1664 49.9875 94.9999 50.2417 96.2499C50.4958 97.0832 50.975 97.9165 51.5792 98.7498C51.8917 99.1665 52.1958 99.1668 52.6292 99.5834C53.0875 99.5834 53.5625 100 54.1833 100C63.275 100 53.8417 75.8333 62.7875 87.5C68.4542 94.5833 73.5958 85.4164 66.2 82.4997C63.7417 79.583 60.1542 77.4997 58.375 74.1664L58.325 60.0001C65.6167 64.1668 67.2833 71.25 67.3458 79.1667C73.6708 82.0833 68.7375 67.4998 74.5958 75.8331C77.6167 80.8331 90.675 92.4997 90.4917 80.4164C89.7292 75.4164 70.925 65.8334 82.7208 66.2501C87.4458 58.3334 69.225 65.8331 67.8042 57.0831C61.8208 51.6665 71.1917 54.5834 74.5167 53.7501C78.4625 52.9168 81.2583 55.0001 83.5667 57.9168L92.1792 66.2501C103.504 62.0834 79.6708 51.6667 93.675 54.1667C100.454 57.0833 110.096 47.5001 99.775 45.4168C94.3042 45.8334 83.4542 45.8331 93.2083 40.4165C100.454 34.9998 89.1333 30.4166 87.025 37.9166C83.1917 42.0832 79.1375 47.0834 72.825 45.4168C69.7 45.0001 60.5375 47.0831 67.3292 42.4998C69.8292 33.7498 81.8208 40.4164 83.9833 34.583C82.8417 31.2497 73.3458 34.5833 80.475 29.1667C84.2958 27.0833 91.9917 19.1665 90.4625 15.4165Z" fill="#3498DB"/>
</g>
<defs>
<filter id="filter0_d_35_850" x="0" y="0" width="108" height="108" filterUnits="userSpaceOnUse" color-interpolation-filters="sRGB">
<feFlood flood-opacity="0" result="BackgroundImageFix"/>
<feColorMatrix in="SourceAlpha" type="matrix" values="0 0 0 0 0 0 0 0 0 0 0 0 0 0 0 0 0 0 127 0" result="hardAlpha"/>
<feOffset dy="4"/>
<feGaussianBlur stdDeviation="2"/>
<feComposite in2="hardAlpha" operator="out"/>
<feColorMatrix type="matrix" values="0 0 0 0 0 0 0 0 0 0 0 0 0 0 0 0 0 0 0.25 0"/>
<feBlend mode="normal" in2="BackgroundImageFix" result="effect1_dropShadow_35_850"/>
<feBlend mode="normal" in="SourceGraphic" in2="effect1_dropShadow_35_850" result="shape"/>
</filter>
<clipPath id="clip0_35_850">
<rect width="100" height="100" fill="white" transform="translate(4)"/>
</clipPath>
</defs>
</svg>
