<svg width="103" height="106" viewBox="0 0 103 106" fill="none" xmlns="http://www.w3.org/2000/svg">
<g filter="url(#filter0_d_35_923)">
<path d="M16.9687 38.2344V22.3281L15.6875 22.4062V12.6094L28.0469 12.5312V22.1797H26.7656V31.5234L16.9687 38.2344Z" fill="#AB5832"/>
<path d="M52.0859 18.2266L16.5859 53.8984L16.8594 86.875L86.9766 86.2109L87.0781 51.0547L52.0859 18.2266Z" fill="#FFF3E1"/>
<path d="M15.2578 81.0859L17.7109 79.7344V53.1094L15.4297 54.6328C15.4219 54.6328 15.6797 81.0859 15.2578 81.0859Z" fill="#5F4E47"/>
<path d="M85.75 54.5469V79.5703L88.2031 80.9219V55.4766L85.75 54.5469Z" fill="#5F4E47"/>
<path d="M52.3281 22.0391L15.4219 56.5781V47.8672L52.3672 12.875L88.2031 49.9844V57.3359L52.3281 22.0391Z" fill="#BCAA93"/>
<path d="M11.8047 46.375L9.64062 50.3672L15.4453 50.2812C15.4453 50.2812 51.6562 15.0625 52.4375 15.0312C53.3828 14.9922 88.1875 50.8984 88.1875 50.8984L93.3359 50.8203L54.7109 9.21094L49.0391 8.83594L11.8047 46.375Z" fill="#AB5832"/>
<path d="M5.12499 49.3672C4.51562 50.1094 5.11718 50.5 5.60937 50.5C6.10156 50.5 11.7734 50.3359 11.7734 50.3359L50.8672 12.2969C50.8672 12.2969 51.7656 11.375 52.4062 11.4063C53.1016 11.4375 54 12.3203 54 12.3203L93.2812 50.8281C93.2812 50.8281 97.7578 50.8438 98.4687 50.6641C99.2422 50.4766 98.8516 49.7422 97.8984 48.7188C97.1953 47.9609 57.4844 8.6797 56.8281 8.00001C54.875 5.98439 53.9219 4.81251 52.0781 4.89064C50.2266 4.96876 49.1328 6.33595 47.2812 8.03907C46.7344 8.5547 5.38281 49.0547 5.12499 49.3672Z" fill="#ED6C31"/>
<path d="M75.0469 63.1484H83.0547V56.4844C83.0547 56.1899 82.9967 55.8984 82.884 55.6263C82.7713 55.3543 82.6062 55.1071 82.398 54.8989C82.1898 54.6907 81.9426 54.5255 81.6705 54.4129C81.3985 54.3002 81.1069 54.2422 80.8125 54.2422H75.0469V63.1484Z" fill="#A6CFD5"/>
<path d="M72.6406 63.1484V54.2422H66.3906C66.0962 54.2422 65.8046 54.3002 65.5326 54.4129C65.2605 54.5255 65.0134 54.6907 64.8052 54.8989C64.5969 55.1071 64.4318 55.3543 64.3191 55.6263C64.2064 55.8984 64.1484 56.1899 64.1484 56.4844V63.1562H72.6406V63.1484Z" fill="#A6CFD5"/>
<path d="M72.6406 65.6797H64.1484V71.9297C64.1484 72.5244 64.3847 73.0947 64.8052 73.5152C65.2256 73.9356 65.796 74.1719 66.3906 74.1719H72.6406V65.6797Z" fill="#A6CFD5"/>
<path d="M75.0469 65.6797V74.1719H80.8125C81.4072 74.1719 81.9775 73.9356 82.398 73.5152C82.8185 73.0947 83.0547 72.5244 83.0547 71.9297V65.6797H75.0469Z" fill="#A6CFD5"/>
<path d="M30.7109 63.1484H38.7188V56.4844C38.7188 56.1899 38.6608 55.8984 38.5481 55.6263C38.4354 55.3543 38.2702 55.1071 38.062 54.8989C37.8538 54.6907 37.6066 54.5255 37.3346 54.4129C37.0626 54.3002 36.771 54.2422 36.4766 54.2422H30.7109V63.1484Z" fill="#A6CFD5"/>
<path d="M28.2969 63.1484V54.2422H22.0469C21.7524 54.2422 21.4609 54.3002 21.1888 54.4129C20.9168 54.5255 20.6696 54.6907 20.4614 54.8989C20.2532 55.1071 20.088 55.3543 19.9754 55.6263C19.8627 55.8984 19.8047 56.1899 19.8047 56.4844V63.1562H28.2969V63.1484Z" fill="#A6CFD5"/>
<path d="M28.2969 65.6797H19.8125V71.9297C19.8125 72.5244 20.0487 73.0947 20.4692 73.5152C20.8897 73.9356 21.46 74.1719 22.0547 74.1719H28.3047V65.6797H28.2969Z" fill="#A6CFD5"/>
<path d="M30.7109 65.6797V74.1719H36.4766C37.0712 74.1719 37.6415 73.9356 38.062 73.5152C38.4825 73.0947 38.7188 72.5244 38.7188 71.9297V65.6797H30.7109Z" fill="#A6CFD5"/>
<path d="M41.3281 83.3828C41.3281 83.3828 41.211 64.0547 41.3281 59.1719C41.4453 54.2969 46.0235 50.0781 51.3281 50.2578C57.8906 50.4844 61.2656 54.1719 61.5078 58.9297C61.75 63.6875 61.75 83.6797 61.75 83.6797L41.3281 83.3828Z" fill="#D27857"/>
<path d="M43.7734 84.4297C43.7734 84.4297 43.6797 63.8359 43.7734 60.0234C43.8906 55.2969 47.4531 52.8125 51.5937 53.0469C56.414 53.3203 58.7969 55.8828 58.9844 59.6094C59.1719 63.3281 59.1719 84.4453 59.1719 84.4453L43.7734 84.4297Z" fill="#AB5932"/>
<path d="M56.6797 67.6406C56.6641 64.25 56.6328 61.2578 56.586 60.3438C56.461 57.8828 54.711 55.9688 51.3125 55.8516C48.5703 55.7578 46.3125 57.8984 46.25 60.4219C46.2266 61.3516 46.2344 64.2734 46.25 67.6016L56.6797 67.6406Z" fill="#D27857"/>
<path d="M46.2734 71.4453C46.3047 75.9844 46.3438 80.1641 46.3438 80.1641L56.7109 80.1953C56.7109 80.1953 56.7109 76.0313 56.6953 71.4922L46.2734 71.4453Z" fill="#D27857"/>
<path d="M56.711 69.3828C56.6719 70.4844 57.1172 71.375 58.4219 71.375C59.7266 71.375 60.2031 70.7656 60.2969 69.5859C60.375 68.5313 59.6485 67.5938 58.4219 67.6719C57.2031 67.7578 56.7422 68.6094 56.711 69.3828Z" fill="#FFBA02"/>
<path d="M64.1953 90.8672C64.1953 90.8672 72.6953 90.9531 78.8359 90.7734C84.9766 90.5938 89.4219 90.8672 90.3359 89.9453C91.25 89.0313 91.2344 81.2422 86.9766 79.1328C83.0625 77.1953 80.5313 79.1641 79.1875 79.2969C77.4141 79.4766 75.2188 78.375 73.6094 78.3438C66.9609 78.2031 64.6328 83.4297 64.6328 83.4297L64.1953 90.8672Z" fill="#728037"/>
<path d="M13.3516 90.2266C14.0625 90.8906 19.4922 90.9141 26.0469 90.8672C32.6016 90.8203 37.875 90.8828 37.875 90.8828L38.9687 84.2656L37.6406 83.1641C37.6406 83.1641 37.7891 79.8516 33.6094 78.7187C30.7187 77.9375 28.2031 79.2266 25.7734 79.2656C23.3437 79.3125 21.1016 78.2109 18.3984 78.8516C15.8828 79.4453 13.9219 81.0859 13.125 84.3984C12.5703 86.6953 12.7109 89.625 13.3516 90.2266Z" fill="#728037"/>
<path d="M37.0938 97.7891L37.1484 90.875H37.6563L37.6484 83.1719H64.7813L64.6875 90.875H65.2813V97.6094C65.2734 97.6016 37.0938 97.8281 37.0938 97.7891Z" fill="#B0B0B0"/>
<path d="M65.2734 94.7656V97.6016L37.0859 97.7891L37.1094 94.7422L65.2734 94.7656Z" fill="#9B9B9B"/>
<path d="M37.6406 87.875L64.7109 87.8828V90.8672H37.6406V87.875Z" fill="#9B9B9B"/>
</g>
<defs>
<filter id="filter0_d_35_923" x="-2" y="0" width="108" height="108" filterUnits="userSpaceOnUse" color-interpolation-filters="sRGB">
<feFlood flood-opacity="0" result="BackgroundImageFix"/>
<feColorMatrix in="SourceAlpha" type="matrix" values="0 0 0 0 0 0 0 0 0 0 0 0 0 0 0 0 0 0 127 0" result="hardAlpha"/>
<feOffset dy="4"/>
<feGaussianBlur stdDeviation="2"/>
<feComposite in2="hardAlpha" operator="out"/>
<feColorMatrix type="matrix" values="0 0 0 0 0 0 0 0 0 0 0 0 0 0 0 0 0 0 0.25 0"/>
<feBlend mode="normal" in2="BackgroundImageFix" result="effect1_dropShadow_35_923"/>
<feBlend mode="normal" in="SourceGraphic" in2="effect1_dropShadow_35_923" result="shape"/>
</filter>
</defs>
</svg>
