<svg width="102" height="108" viewBox="0 0 102 108" fill="none" xmlns="http://www.w3.org/2000/svg">
<g clip-path="url(#clip0_35_1127)" filter="url(#filter0_d_35_1127)">
<path d="M93.1359 86.1802L54.9471 2.77484C53.2486 -0.935912 47.9724 -0.921654 46.2927 2.7975L8.63751 86.1802H93.1359Z" fill="#CC1F3C"/>
<path d="M8.63752 86.1802H93.1359L94.8207 90.0291H6.96368L8.63752 86.1802Z" fill="#FFD283"/>
<path d="M6.9637 90.0291L4.58771 94.8289C3.40919 97.2094 5.14142 100 7.79788 100H94.2015C96.9146 100 98.6428 97.1011 97.3527 94.7156L94.8199 90.0292H6.9637V90.0291Z" fill="#ADA323"/>
<path d="M52.2716 26.6569C53.5992 26.6569 54.6754 24.7376 54.6754 22.37C54.6754 20.0024 53.5992 18.0831 52.2716 18.0831C50.9441 18.0831 49.8679 20.0024 49.8679 22.37C49.8679 24.7376 50.9441 26.6569 52.2716 26.6569Z" fill="#563824"/>
<path d="M59.8629 43.8705C61.1904 43.8705 62.2666 41.9512 62.2666 39.5836C62.2666 37.216 61.1904 35.2966 59.8629 35.2966C58.5354 35.2966 57.4592 37.216 57.4592 39.5836C57.4592 41.9512 58.5354 43.8705 59.8629 43.8705Z" fill="#563824"/>
<path d="M52.0836 52.2914C53.4111 52.2914 54.4873 50.3721 54.4873 48.0045C54.4873 45.6369 53.4111 43.7175 52.0836 43.7175C50.7561 43.7175 49.6799 45.6369 49.6799 48.0045C49.6799 50.3721 50.7561 52.2914 52.0836 52.2914Z" fill="#563824"/>
<path d="M45.3871 56.7463C46.7146 56.7463 47.7908 54.827 47.7908 52.4594C47.7908 50.0917 46.7146 48.1724 45.3871 48.1724C44.0595 48.1724 42.9833 50.0917 42.9833 52.4594C42.9833 54.827 44.0595 56.7463 45.3871 56.7463Z" fill="#563824"/>
<path d="M67.9987 61.0294C69.3262 61.0294 70.4024 59.1103 70.4024 56.743C70.4024 54.3757 69.3262 52.4567 67.9987 52.4567C66.6712 52.4567 65.595 54.3757 65.595 56.743C65.595 59.1103 66.6712 61.0294 67.9987 61.0294Z" fill="#563824"/>
<path d="M42.982 39.5853C44.3095 39.5853 45.3857 37.666 45.3857 35.2983C45.3857 32.9307 44.3095 31.0114 42.982 31.0114C41.6544 31.0114 40.5782 32.9307 40.5782 35.2983C40.5782 37.666 41.6544 39.5853 42.982 39.5853Z" fill="#563824"/>
<path d="M34.911 61.0294C36.2386 61.0294 37.3148 59.1103 37.3148 56.743C37.3148 54.3757 36.2386 52.4567 34.911 52.4567C33.5835 52.4567 32.5073 54.3757 32.5073 56.743C32.5073 59.1103 33.5835 61.0294 34.911 61.0294Z" fill="#563824"/>
<path d="M54.4887 69.6065C55.8162 69.6065 56.8924 67.6872 56.8924 65.3196C56.8924 62.952 55.8162 61.0327 54.4887 61.0327C53.1611 61.0327 52.085 62.952 52.085 65.3196C52.085 67.6872 53.1611 69.6065 54.4887 69.6065Z" fill="#563824"/>
<g opacity="0.2">
<path d="M26.2341 95.0142L18.1294 90.029V86.1802L50.0346 0.0404053C48.4969 0.227711 47.0396 1.14432 46.2933 2.79745L8.63753 86.1802L6.9637 90.029L4.58771 94.8281C3.40919 97.2091 5.14142 100 7.79788 100H94.2015C96.8023 100 98.4898 97.3375 97.4896 95.0148H26.2341V95.0142Z" fill="black"/>
</g>
<g opacity="0.2">
<path d="M52.6088 22.0231C53.1533 22.0231 53.5947 21.236 53.5947 20.2651C53.5947 19.2942 53.1533 18.5071 52.6088 18.5071C52.0643 18.5071 51.6229 19.2942 51.6229 20.2651C51.6229 21.236 52.0643 22.0231 52.6088 22.0231Z" fill="white"/>
<path d="M68.1024 55.9729C68.6469 55.9729 69.0883 55.1858 69.0883 54.2149C69.0883 53.2439 68.6469 52.4568 68.1024 52.4568C67.5579 52.4568 67.1165 53.2439 67.1165 54.2149C67.1165 55.1858 67.5579 55.9729 68.1024 55.9729Z" fill="white"/>
<path d="M52.6088 47.3906C53.1533 47.3906 53.5947 46.6031 53.5947 45.6318C53.5947 44.6604 53.1533 43.873 52.6088 43.873C52.0643 43.873 51.6229 44.6604 51.6229 45.6318C51.6229 46.6031 52.0643 47.3906 52.6088 47.3906Z" fill="white"/>
<path d="M46.4762 51.7793C47.0207 51.7793 47.4621 50.9919 47.4621 50.0205C47.4621 49.0492 47.0207 48.2617 46.4762 48.2617C45.9317 48.2617 45.4902 49.0492 45.4902 50.0205C45.4902 50.9919 45.9317 51.7793 46.4762 51.7793Z" fill="white"/>
<path d="M60.0444 39.6437C60.5889 39.6437 61.0303 38.8563 61.0303 37.8849C61.0303 36.9135 60.5889 36.1261 60.0444 36.1261C59.4998 36.1261 59.0584 36.9135 59.0584 37.8849C59.0584 38.8563 59.4998 39.6437 60.0444 39.6437Z" fill="white"/>
<path d="M35.897 55.9729C36.4415 55.9729 36.883 55.1858 36.883 54.2149C36.883 53.2439 36.4415 52.4568 35.897 52.4568C35.3525 52.4568 34.9111 53.2439 34.9111 54.2149C34.9111 55.1858 35.3525 55.9729 35.897 55.9729Z" fill="white"/>
<path d="M42.9826 35.0597C43.5271 35.0597 43.9685 34.2726 43.9685 33.3017C43.9685 32.3307 43.5271 31.5436 42.9826 31.5436C42.4381 31.5436 41.9966 32.3307 41.9966 33.3017C41.9966 34.2726 42.4381 35.0597 42.9826 35.0597Z" fill="white"/>
<path d="M54.6768 65.321C55.2213 65.321 55.6627 64.5339 55.6627 63.5629C55.6627 62.592 55.2213 61.8049 54.6768 61.8049C54.1323 61.8049 53.6909 62.592 53.6909 63.5629C53.6909 64.5339 54.1323 65.321 54.6768 65.321Z" fill="white"/>
</g>
</g>
<defs>
<filter id="filter0_d_35_1127" x="-3" y="0" width="108" height="108" filterUnits="userSpaceOnUse" color-interpolation-filters="sRGB">
<feFlood flood-opacity="0" result="BackgroundImageFix"/>
<feColorMatrix in="SourceAlpha" type="matrix" values="0 0 0 0 0 0 0 0 0 0 0 0 0 0 0 0 0 0 127 0" result="hardAlpha"/>
<feOffset dy="4"/>
<feGaussianBlur stdDeviation="2"/>
<feComposite in2="hardAlpha" operator="out"/>
<feColorMatrix type="matrix" values="0 0 0 0 0 0 0 0 0 0 0 0 0 0 0 0 0 0 0.25 0"/>
<feBlend mode="normal" in2="BackgroundImageFix" result="effect1_dropShadow_35_1127"/>
<feBlend mode="normal" in="SourceGraphic" in2="effect1_dropShadow_35_1127" result="shape"/>
</filter>
<clipPath id="clip0_35_1127">
<rect width="100" height="100" fill="white" transform="translate(1)"/>
</clipPath>
</defs>
</svg>
