<svg width="104" height="108" viewBox="0 0 104 108" fill="none" xmlns="http://www.w3.org/2000/svg">
<g clip-path="url(#clip0_35_152)" filter="url(#filter0_d_35_152)">
<path d="M59.0923 68.9208L8.53361 18.3623C3.46292 13.2916 3.46292 5.07069 8.53361 0L68.2733 59.7397" fill="#ACAAB1"/>
<path d="M44.9077 68.9208L51.9998 61.8286L61.1809 52.6476L95.4662 18.3623C100.537 13.2916 100.537 5.07069 95.4662 0L51.9997 43.4665L42.8186 52.6476L35.7264 59.7397L44.9077 68.9208Z" fill="#D7D5D9"/>
<path opacity="0.11" d="M44.9078 68.9208L51.9999 61.8286L61.181 52.6476L95.4664 18.3623C100.537 13.2916 100.537 5.07069 95.4664 0L94.5844 0.88203C96.2168 5.45936 95.2024 10.7691 91.5377 14.4338L57.2525 48.7189L48.0714 57.8999L40.9792 64.9921L44.9078 68.9208Z" fill="#3E3B43"/>
<path d="M41.032 63.6155C32.7277 55.3112 19.2634 55.3112 10.9592 63.6155C2.65489 71.9198 2.65489 85.384 10.9592 93.6883C19.2634 101.993 32.7277 101.993 41.032 93.6883C49.3362 85.384 49.3362 71.9198 41.032 63.6155ZM34.4658 87.1225C29.7876 91.8006 22.2031 91.8006 17.525 87.1225C12.8469 82.4443 12.8469 74.8598 17.525 70.1817C22.2031 65.5036 29.7876 65.5036 34.4658 70.1817C39.1439 74.8598 39.1439 82.4442 34.4658 87.1225Z" fill="#FF5023"/>
<path d="M51.6616 54.3985C52.8414 54.3985 53.7978 53.4422 53.7978 52.2624C53.7978 51.0827 52.8414 50.1263 51.6616 50.1263C50.4819 50.1263 49.5255 51.0827 49.5255 52.2624C49.5255 53.4422 50.4819 54.3985 51.6616 54.3985Z" fill="#ACAAB1"/>
<path d="M93.0411 63.6155C84.7368 55.3112 71.2725 55.3112 62.9683 63.6155C54.664 71.9198 54.664 85.384 62.9683 93.6883C71.2725 101.993 84.7368 101.993 93.0411 93.6883C101.345 85.384 101.345 71.9198 93.0411 63.6155ZM86.4749 87.1225C81.7967 91.8006 74.2122 91.8006 69.5341 87.1225C64.856 82.4443 64.856 74.8598 69.5341 70.1817C74.2122 65.5036 81.7967 65.5036 86.4749 70.1817C91.153 74.8598 91.153 82.4442 86.4749 87.1225Z" fill="#FF5023"/>
<g opacity="0.23">
<path d="M93.041 63.6987C92.9531 63.6108 92.8639 63.5253 92.775 63.4393C98.2789 71.7001 97.3877 82.9616 90.0998 90.2496C81.8834 98.466 68.6163 98.5518 60.293 90.509C61.0608 91.6612 61.9518 92.7553 62.9682 93.7719C71.2725 102.076 84.7367 102.076 93.041 93.7719C101.345 85.4672 101.345 72.003 93.041 63.6987Z" fill="#891C00"/>
</g>
<g opacity="0.23">
<path d="M41.0319 63.6987C40.944 63.6108 40.8548 63.5253 40.7659 63.4393C46.2698 71.7001 45.3786 82.9616 38.0907 90.2496C29.8743 98.466 16.6072 98.5518 8.28394 90.509C9.05171 91.6612 9.94272 92.7553 10.9591 93.7719C19.2634 102.076 32.7276 102.076 41.0319 93.7719C49.3362 85.4672 49.3362 72.003 41.0319 63.6987Z" fill="#891C00"/>
</g>
<path opacity="0.21" d="M55.1974 64.9812L64.3546 55.824L61.2173 52.6867L52.0601 61.8439L55.1974 64.9812Z" fill="#3E3B43"/>
</g>
<defs>
<filter id="filter0_d_35_152" x="-2" y="0" width="108" height="108" filterUnits="userSpaceOnUse" color-interpolation-filters="sRGB">
<feFlood flood-opacity="0" result="BackgroundImageFix"/>
<feColorMatrix in="SourceAlpha" type="matrix" values="0 0 0 0 0 0 0 0 0 0 0 0 0 0 0 0 0 0 127 0" result="hardAlpha"/>
<feOffset dy="4"/>
<feGaussianBlur stdDeviation="2"/>
<feComposite in2="hardAlpha" operator="out"/>
<feColorMatrix type="matrix" values="0 0 0 0 0 0 0 0 0 0 0 0 0 0 0 0 0 0 0.25 0"/>
<feBlend mode="normal" in2="BackgroundImageFix" result="effect1_dropShadow_35_152"/>
<feBlend mode="normal" in="SourceGraphic" in2="effect1_dropShadow_35_152" result="shape"/>
</filter>
<clipPath id="clip0_35_152">
<rect width="100" height="100" fill="white" transform="translate(2)"/>
</clipPath>
</defs>
</svg>
