<svg width="100" height="100" viewBox="0 0 100 100" fill="none" xmlns="http://www.w3.org/2000/svg">
<g filter="url(#filter0_d_35_893)">
<path d="M61.5918 34.1602C61.7578 35.1758 61.0449 36.0059 60.0195 36.0059H54.4238C53.3984 36.0059 52.6855 35.1758 52.8515 34.1602L53.457 30.3711C53.6133 29.3555 54.5898 28.5156 55.6152 28.5156H58.8086C59.834 28.5156 60.8105 29.3457 60.9765 30.3613L61.5918 34.1602Z" fill="#D1D3D3"/>
<path d="M61.5918 34.1602L61.289 32.2656H53.1543L52.8515 34.1602C52.6855 35.1758 53.3984 36.0059 54.4238 36.0059H60.0195C61.0449 36.0059 61.748 35.1758 61.5918 34.1602Z" fill="black"/>
<path d="M88.9453 51.2305C88.6523 48.6035 86.8262 46.5234 84.2383 46.5234H74.7852L69.0918 37.5C67.7051 35.3125 64.4531 33.5156 61.8652 33.5156H28.584C25.9961 33.5156 23.291 35.5566 22.5781 38.0469L20.1562 46.4844C20.1562 46.4941 20.1465 46.5137 20.1465 46.5234H14.7461C12.1582 46.5234 10.0391 48.6426 10.0391 51.2305V60.7617H90.0684L88.9453 51.2305Z" fill="#FFB819"/>
<path d="M89.043 52.0605H83.4082V56.6406H89.5898L89.043 52.0605Z" fill="#00B3E3"/>
<path d="M84.4727 56.6406H82.9199C82.5586 56.6406 82.2656 56.3477 82.2656 55.9863V52.7246C82.2656 52.3633 82.5586 52.0703 82.9199 52.0703H84.4727V56.6406Z" fill="white"/>
<path d="M27.9297 50.4492C21.9629 50.4492 17.0605 54.9609 16.4355 60.7617H39.4238C38.7988 54.9609 33.8965 50.4492 27.9297 50.4492Z" fill="black"/>
<path d="M18.4375 62.0117C18.4375 63.2583 18.683 64.4926 19.16 65.6442C19.6371 66.7959 20.3363 67.8423 21.2177 68.7237C22.0991 69.6051 23.1455 70.3043 24.2972 70.7814C25.4488 71.2584 26.6832 71.5039 27.9297 71.5039C29.1762 71.5039 30.4105 71.2584 31.5622 70.7814C32.7138 70.3043 33.7602 69.6051 34.6417 68.7237C35.5231 67.8423 36.2223 66.7959 36.6993 65.6442C37.1763 64.4926 37.4219 63.2583 37.4219 62.0117C37.4219 59.4942 36.4218 57.0799 34.6417 55.2997C32.8615 53.5196 30.4472 52.5195 27.9297 52.5195C25.4122 52.5195 22.9978 53.5196 21.2177 55.2997C19.4376 57.0799 18.4375 59.4942 18.4375 62.0117Z" fill="#333E48"/>
<path d="M23.1152 62.0117C23.1152 63.2886 23.6225 64.5132 24.5254 65.416C25.4282 66.3189 26.6528 66.8262 27.9297 66.8262C29.2066 66.8262 30.4311 66.3189 31.334 65.416C32.2369 64.5132 32.7441 63.2886 32.7441 62.0117C32.7441 60.7348 32.2369 59.5103 31.334 58.6074C30.4311 57.7045 29.2066 57.1973 27.9297 57.1973C26.6528 57.1973 25.4282 57.7045 24.5254 58.6074C23.6225 59.5103 23.1152 60.7348 23.1152 62.0117Z" fill="#A4A9AD"/>
<path d="M69.6973 50.4492C63.7305 50.4492 58.8281 54.9609 58.2031 60.7617H81.1914C80.5762 54.9609 75.6641 50.4492 69.6973 50.4492Z" fill="black"/>
<path d="M60.2051 62.0117C60.2051 63.2583 60.4506 64.4926 60.9276 65.6442C61.4047 66.7959 62.1038 67.8423 62.9853 68.7237C63.8667 69.6051 64.9131 70.3043 66.0648 70.7814C67.2164 71.2584 68.4507 71.5039 69.6973 71.5039C70.9438 71.5039 72.1781 71.2584 73.3298 70.7814C74.4814 70.3043 75.5278 69.6051 76.4093 68.7237C77.2907 67.8423 77.9899 66.7959 78.4669 65.6442C78.9439 64.4926 79.1895 63.2583 79.1895 62.0117C79.1895 60.7652 78.9439 59.5309 78.4669 58.3792C77.9899 57.2276 77.2907 56.1812 76.4093 55.2997C75.5278 54.4183 74.4814 53.7191 73.3298 53.2421C72.1781 52.7651 70.9438 52.5195 69.6973 52.5195C68.4507 52.5195 67.2164 52.7651 66.0648 53.2421C64.9131 53.7191 63.8667 54.4183 62.9853 55.2997C62.1038 56.1812 61.4047 57.2276 60.9276 58.3792C60.4506 59.5309 60.2051 60.7652 60.2051 62.0117Z" fill="#333E48"/>
<path d="M64.8828 62.0117C64.8828 63.2886 65.39 64.5132 66.2929 65.416C67.1958 66.3189 68.4204 66.8262 69.6973 66.8262C70.9741 66.8262 72.1987 66.3189 73.1016 65.416C74.0045 64.5132 74.5117 63.2886 74.5117 62.0117C74.5117 60.7348 74.0045 59.5103 73.1016 58.6074C72.1987 57.7045 70.9741 57.1973 69.6973 57.1973C68.4204 57.1973 67.1958 57.7045 66.2929 58.6074C65.39 59.5103 64.8828 60.7348 64.8828 62.0117Z" fill="#A4A9AD"/>
<path d="M93.7988 61.2402C93.7988 62.207 93.0078 62.9883 92.0508 62.9883H88.1055C87.1387 62.9883 86.3574 62.1973 86.3574 61.2402V58.3887C86.3574 57.4219 87.1484 56.6406 88.1055 56.6406H92.0508C93.0176 56.6406 93.7988 57.4316 93.7988 58.3887V61.2402ZM13.7695 61.2402C13.7695 62.207 12.9785 62.9883 12.0215 62.9883H8.06641C7.09961 62.9883 6.31836 62.1973 6.31836 61.2402V58.3887C6.31836 57.4219 7.10938 56.6406 8.06641 56.6406H12.0117C12.9785 56.6406 13.7598 57.4316 13.7598 58.3887L13.7695 61.2402Z" fill="#333E48"/>
<path d="M10.0391 52.0605H15.1367V56.6406H10.0391V52.0605Z" fill="#00B3E3"/>
<path d="M14.0723 56.6406H15.625C15.9863 56.6406 16.2793 56.3477 16.2793 55.9863V52.7246C16.2793 52.3633 15.9863 52.0703 15.625 52.0703H14.0723V56.6406Z" fill="white"/>
<path d="M47.6563 39.2773C47.6563 38.252 48.4961 37.4023 49.5313 37.4023H62.1289C63.1543 37.4023 64.4629 38.1055 65.0195 38.9746L67.9297 43.457C68.4863 44.3164 68.1055 45.0293 67.0801 45.0293H49.5313C48.5059 45.0293 47.6563 44.1895 47.6563 43.1543V39.2773ZM28.8477 39.1895C29.1602 38.2129 30.2637 37.4121 31.2891 37.4121H41.9238C42.9492 37.4121 43.7988 38.252 43.7988 39.2871V43.1641C43.7988 44.1895 42.959 45.0391 41.9238 45.0391H28.8379C27.8125 45.0391 27.2266 44.2383 27.5391 43.2617L28.8477 39.1895Z" fill="#333E48"/>
<path d="M65.0195 38.9746C64.4629 38.1152 63.1543 37.4023 62.1289 37.4023H49.5312C48.5059 37.4023 47.6562 38.2422 47.6562 39.2773V41.0156C47.6562 39.9902 48.4961 39.1406 49.5312 39.1406H63.623C64.2383 39.1406 64.9609 39.3945 65.5469 39.7852L65.0195 38.9746ZM41.9238 37.4023H31.2891C30.2637 37.4023 29.1602 38.2031 28.8477 39.1797L28.5352 40.1465C29.0332 39.5508 29.8047 39.1406 30.5469 39.1406H41.9336C42.959 39.1406 43.8086 39.9805 43.8086 41.0156V39.2773C43.7988 38.252 42.959 37.4023 41.9238 37.4023Z" fill="black"/>
<path d="M36.2695 48.8379H38.9648V51.5332H36.2695V48.8379Z" fill="#333E48"/>
<path d="M38.9551 51.5234H41.6504V54.2188H38.9551V51.5234ZM41.6504 48.8379H44.3457V51.5332H41.6504V48.8379ZM44.3457 51.5234H47.041V54.2188H44.3457V51.5234Z" fill="#333E48"/>
<path d="M47.041 48.8379H49.7363V51.5332H47.041V48.8379Z" fill="#333E48"/>
<path d="M49.7363 51.5234H52.4316V54.2188H49.7363V51.5234Z" fill="#333E48"/>
<path d="M52.4219 48.8379H55.1172V51.5332H52.4219V48.8379ZM55.1172 51.5234H57.8125V54.2188H55.1172V51.5234ZM57.8125 48.8379H60.5078V51.5332H57.8125V48.8379Z" fill="#333E48"/>
<path d="M57.8125 51.5234H60.5078V54.2188H57.8125V51.5234ZM55.1172 48.8379H57.8125V51.5332H55.1172V48.8379ZM52.4219 51.5234H55.1172V54.2188H52.4219V51.5234Z" fill="white"/>
<path d="M49.7363 48.8379H52.4316V51.5332H49.7363V48.8379Z" fill="white"/>
<path d="M47.041 51.5234H49.7363V54.2188H47.041V51.5234Z" fill="white"/>
<path d="M44.3457 48.8379H47.041V51.5332H44.3457V48.8379ZM41.6504 51.5234H44.3457V54.2188H41.6504V51.5234ZM38.9551 48.8379H41.6504V51.5332H38.9551V48.8379Z" fill="white"/>
<path d="M36.2695 51.5234H38.9648V54.2188H36.2695V51.5234Z" fill="white"/>
</g>
<defs>
<filter id="filter0_d_35_893" x="-4" y="0" width="108" height="108" filterUnits="userSpaceOnUse" color-interpolation-filters="sRGB">
<feFlood flood-opacity="0" result="BackgroundImageFix"/>
<feColorMatrix in="SourceAlpha" type="matrix" values="0 0 0 0 0 0 0 0 0 0 0 0 0 0 0 0 0 0 127 0" result="hardAlpha"/>
<feOffset dy="4"/>
<feGaussianBlur stdDeviation="2"/>
<feComposite in2="hardAlpha" operator="out"/>
<feColorMatrix type="matrix" values="0 0 0 0 0 0 0 0 0 0 0 0 0 0 0 0 0 0 0.25 0"/>
<feBlend mode="normal" in2="BackgroundImageFix" result="effect1_dropShadow_35_893"/>
<feBlend mode="normal" in="SourceGraphic" in2="effect1_dropShadow_35_893" result="shape"/>
</filter>
</defs>
</svg>
