<svg width="103" height="105" viewBox="0 0 103 105" fill="none" xmlns="http://www.w3.org/2000/svg">
<g filter="url(#filter0_d_35_1062)">
<path d="M4.45314 50.5312C4.98439 69.5938 17.7266 97.0547 52.4609 96.7031C86.3047 96.3594 99.9297 68.3438 98.8672 48.2187C97.7969 28.0937 81.9453 3.32812 50.5938 3.50781C19.2344 3.67968 3.87501 30.0391 4.45314 50.5312Z" fill="url(#paint0_radial_35_1062)"/>
<path d="M72.7187 73.1875C72.2265 73 71.8594 73.4609 71.3515 74.3203C70.8437 75.1797 70.2969 75.8828 69.9453 76.1563C69.5937 76.4297 67.5234 77.6797 67.3672 78.3828C67.2109 79.0859 67.3672 79.7891 67.3672 80.4531C67.3672 81.1172 67.25 82.0938 67.25 82.5234C67.25 82.9531 66.7812 83.3438 67.4062 83.9688C68.0312 84.5938 68.5 84.2031 68.9297 83.6172C69.3594 83.0313 70.375 81.1563 70.6094 80.3359C70.7656 79.7813 71.0781 78.9688 71.2344 78.5391C71.3906 78.1094 72.6797 76.0391 72.875 75.2578C73.0781 74.4766 73.3515 73.4219 72.7187 73.1875Z" fill="#7ADD8A"/>
<path d="M53.8594 31.3437C53.8594 31.625 54.0625 31.9141 54.5859 31.9141C55.1094 31.9141 55.3281 31.5859 55.2891 31.1562C55.2578 30.7578 54.8516 30.6328 54.5 30.6641C54.2187 30.6875 53.8594 30.8984 53.8594 31.3437Z" fill="#BEDC9D"/>
<path d="M36.7969 25.2813C36.4375 25.2656 35.8594 25.6016 35.8203 25.9219C35.7344 26.6875 35.4922 28.1406 36.0703 28.2266C36.6016 28.3047 36.875 27.375 36.9609 27.0234C37.0469 26.6719 37.3516 25.3047 36.7969 25.2813Z" fill="#95DA93"/>
<path d="M34.0781 13.2578C33.3828 13.2578 32.9219 13.8516 32.8125 14.2109C32.6953 14.6016 32.7734 15.6719 32.4453 15.8125C32 16 31.2891 15.8594 30.8203 16.0078C30.2109 16.2031 28.9453 17.3594 28.9766 17.6328C29 17.8828 29.3047 18.4297 30 18.5391C30.2344 18.5781 30.4766 18.5 30.5391 18.3516C30.5703 18.2734 30.7344 18.1562 30.8672 18.2031C31.0547 18.2656 31.0312 18.6406 31.1797 18.6797C31.3281 18.7188 32.8984 18.7422 33.0859 18.6797C33.2734 18.6172 34.25 18.0391 34.3906 17.4375C34.5391 16.8359 34.5937 15.5547 34.6484 14.5078C34.7031 13.6094 34.3672 13.2578 34.0781 13.2578Z" fill="#7ADD8A"/>
<path d="M31.9063 7.1875C31.9063 7.1875 30.7031 8.67969 29.9531 9.38281C29.2031 10.0859 27.8984 11.1016 28.0234 11.6016C28.0625 11.7656 28.5 12.1797 29.0625 12.0391C29.625 11.8906 30.6406 11.25 31.7969 10.8359C32.9609 10.4219 33.7422 10.3828 33.9766 10.2734C34.2031 10.1719 36.7578 8.90625 37.75 8.46875C38.7422 8.03125 42.5391 6.9375 43.4297 6.625C44.3203 6.3125 44.9844 6.02344 44.8359 5.44531C44.6875 4.86719 42.9297 4.94531 41.875 4.94531C40.8203 4.94531 39.875 4.63281 39.875 4.63281C39.875 4.63281 37.3047 5.22656 35.4297 5.85938C33.5703 6.49219 31.9063 7.1875 31.9063 7.1875Z" fill="white"/>
<path d="M56.0781 6.26563C55.7812 5.94532 55.9922 5.55469 56.4922 5.30469C56.9844 5.05469 58.2031 4.21876 58.2031 4.21876C58.2031 4.21876 67.9609 4.07813 79.3203 12.1484C90.2812 19.9375 93.8984 29.8438 93.8984 29.8438C93.8984 29.8438 94.2187 31.0938 93.9922 31.5078C93.7656 31.9297 94.0234 34.1016 93.3828 37.7266C92.7422 41.3516 92.4609 42.4609 92.5 44.1016C92.539 45.7422 93.1172 48.8984 91.8828 49.1406C90.6484 49.3828 90.3281 47.4609 89.6719 46.0234C89.0156 44.5859 87.8672 42.7891 87.5781 42.1719C87.289 41.5547 87.0859 40.7344 87.0859 40.7344C87.0859 40.7344 86.3515 40.9375 85.7734 40.5703C85.2031 40.2031 82.289 36.8438 81.9219 36.5547C81.5547 36.2656 80.6094 36.4297 79.8281 36.6797C79.0469 36.9297 78.7656 37.4141 77 37.25C75.2344 37.0859 75.8906 36.4297 74.9531 35.7734C74.0156 35.1172 73.1875 36.6328 72.289 36.6328C71.3906 36.6328 70.8125 36.1797 70.1953 35.5703C69.5781 34.9609 68.8437 34.2578 68.4765 34.1328C68.1094 34.0078 67.2031 34.2578 67.5781 35.1563C67.9531 36.0547 68.6406 36.1406 69.2578 36.7578C69.875 37.375 69.789 37.7422 70.1172 38.2344C70.4453 38.7266 72.0859 39.8359 72.4531 39.75C72.8203 39.6719 73.5156 39.2578 73.8047 38.8047C74.0937 38.3516 74.0078 37.8594 74.539 37.7813C75.0703 37.7031 75.5234 38.4766 76.2578 39.0547C76.9922 39.6328 77.8125 39.625 78.0234 40.6563C78.2265 41.6797 77.4062 44.8359 76.6719 45.6563C75.9375 46.4766 75.1953 46.5547 75.1953 46.5547L73.5547 47.9453C73.5547 47.9453 73.5547 48.6797 72.2031 49.4609C70.8515 50.2422 70.5234 50.1953 69.6172 50.6484C68.7109 51.1016 68.2265 51.6328 67.5234 51.4688C66.8203 51.3047 66.3359 50.2422 66.0078 49.1719C65.6797 48.1094 64.9453 47.2031 64.4062 46.6719C63.8672 46.1406 63.4609 46.1016 62.9297 45.4453C62.3984 44.7891 61.2891 43.3516 61.2109 43.0703C61.1328 42.7891 61.1328 42.4141 60.8437 42.0078C60.5547 41.6016 59.9844 41.3125 59.6562 41.0625C59.3281 40.8203 59.0859 40.4922 59 39.9531C58.914 39.4141 58.1015 38.7656 57.6875 38.2734C57.2734 37.7813 56.7891 36.8828 56.3359 37.2109C55.8828 37.5391 56.414 38.2344 56.9531 39.1406C57.4922 40.0469 57.7344 40.6563 57.8515 41.2734C57.9765 41.8906 57.8125 42.2969 58.2578 42.5859C58.7031 42.875 59.2031 42.5469 59.7344 43.8125C60.2656 45.0781 60.0625 46.2734 60.6328 46.7656C61.2031 47.2578 61.3281 46.9688 61.8203 47.5859C62.3125 48.2031 62.2266 49.1016 62.8047 49.5156C63.3828 49.9297 65.1015 50.6641 65.7578 51.6875C66.414 52.7109 66.0859 53.1641 66.7031 53.5313C67.3203 53.8984 68.5078 53.5703 69.7344 53.1641C70.9609 52.7578 72.6484 51.4453 73.3437 51.6484C74.039 51.8516 73.875 54.4375 73.1797 56.4063C72.4844 58.375 71.9531 58.9922 71.4609 59.6016C70.9687 60.2109 70.2734 61.4844 68.8359 62.7188C67.3984 63.9531 65.4765 65.875 64.9844 68.375C64.4922 70.875 65.0625 75.0547 64.9844 76.125C64.9062 77.1953 65.0234 77.8438 64.4531 78.4219C63.8828 79 61.5391 81.0469 61.1328 81.7813C60.7266 82.5156 61.0078 83.4219 60.7265 84.4453C60.4453 85.4688 58.6328 87.1094 58.0234 87.4375C57.414 87.7656 57.5703 88.3828 56.1406 89.6094C54.7109 90.8359 54.2578 91.25 53.6406 91.3281C53.0234 91.4063 49.6641 91.5703 48.3906 91.0859C47.1172 90.5938 46.2578 89.8125 45.8906 89.4063C45.5234 89 45.1562 88.5469 44.5781 88.2188C44.0078 87.8906 43.3515 87.1953 42.8984 86.5781C42.4453 85.9609 41.2187 84.3203 40.0312 83.0156C38.8437 81.7109 38.2265 81.0859 38.1484 79.6563C38.0703 78.2266 39.375 76.7422 39.375 76.7422C39.375 76.7422 39.0078 74.2031 37.9375 72.3125C36.8672 70.4219 35.4375 70.1016 34.5781 68.1719C33.7187 66.2422 34.125 64.7266 34.2109 64.1172C34.2969 63.5078 34.0469 62.4766 33.1016 62.1484C32.1562 61.8203 31.4219 62.2266 30.8906 61.9453C30.3594 61.6641 29.664 60.1797 28.4687 60.1016C27.2734 60.0234 25.7656 61.6563 24.4531 61.6172C23.1406 61.5781 23.1015 60.6719 22.1562 60.3906C21.2109 60.1094 20.8828 61.0859 20.1094 60.9219C19.3281 60.7578 18.2265 59.6484 17.6094 58.6641C16.9922 57.6797 16.2578 57.1094 15.8906 56.5313C15.5234 55.9531 15.3984 55.5469 15.3984 55.5469C15.3984 55.5469 14.0859 55.5078 13.7187 53.4531C13.3515 51.3984 13.6406 50.4219 13.9609 49.3516C14.289 48.2891 15.1875 45.4141 15.2734 44.4297C15.3594 43.4453 15.1484 42.75 15.3515 42.2188C15.5547 41.6875 16.5781 40.8672 17.0312 40.0859C17.4844 39.3047 17.8906 38.4844 18.3047 37.9141C18.7187 37.3438 19.4531 37.8359 20.4375 36.5625C21.4219 35.2891 21.2578 35.0859 21.2578 35.0859C21.2578 35.0859 21.5 33.7344 22.2422 32.8281C22.9844 31.9219 23.7578 31.4766 24.289 31.3906C24.8203 31.3047 25.5625 31.5547 26.0937 31.5547C26.625 31.5547 27.2812 31.6797 27.7344 31.5938C28.1875 31.5078 29.539 30.4453 30.5234 30.2031C31.5078 29.9609 32.3672 30.0781 33.1484 29.9141C33.9297 29.75 35.2812 29.5859 36.1406 30.2031C37 30.8203 37 31.2656 36.9219 31.5547C36.8437 31.8438 36.3047 32.5391 36.5156 32.8281C36.7265 33.1172 37.375 33.3594 37.7422 33.4844C38.1094 33.6094 38.6875 33.6484 38.8906 33.7734C39.0937 33.8984 39.5859 34.4688 40.4062 34.8828C41.2265 35.2969 42.539 35.9922 42.9922 35.7422C43.4453 35.4922 43.3984 34.3906 44.1797 34.1406C44.9609 33.8984 46.0625 34.1797 47.2578 34.3828C48.4531 34.5859 53.3672 35.7344 53.8984 35.5703C54.4297 35.4063 54.2656 34.9531 54.8828 34.7891C55.5 34.625 56.1094 34.6641 56.3594 34.2188C56.6094 33.7734 56.7656 31.5938 56.7266 30.8594C56.6875 30.125 56.6875 29.2188 56.3594 29.0547C56.0312 28.8906 55.1328 29.875 54.3125 30.0391C53.4922 30.2031 53.2031 29.9141 52.8359 29.9609C52.4687 30.0078 52.1406 30.5781 51.6484 30.4141C51.1562 30.25 50.2578 29.7578 49.7656 29.2656C49.2734 28.7734 48.9844 27.9141 49.2344 27.3359C49.4844 26.7578 50.5078 26.4375 51.3281 26.1094C52.1484 25.7813 53.0937 25.7031 53.5391 25.5391C53.9844 25.375 54.1953 25.1719 54.7656 25.1719C55.3359 25.1719 55.5 25.6641 55.8281 25.7422C56.1562 25.8203 58.3281 25.7813 58.6953 25.7031C59.0625 25.625 60.6641 24.8828 60.625 24.3125C60.5859 23.7422 59.4375 24.2344 59.1094 23.9063C58.7812 23.5781 57.5547 21.9766 56.5703 21.9375C55.5859 21.8984 54.9297 22.6328 54.1953 22.6328C53.4609 22.6328 53.0859 22.0625 52.5937 22.1406C52.1016 22.2188 51.2812 22.9609 50.7891 23.4531C50.2969 23.9453 49.9297 24.3984 49.8437 24.6016C49.7578 24.8047 50.2109 25.7109 49.6406 26.0781C49.0703 26.4453 48.2891 26.5313 48 26.5703C47.7109 26.6094 46.6875 26.4453 46.4844 27.1016C46.2812 27.7578 46.3594 28.4922 46.6484 28.9453C46.9375 29.3984 47.0547 29.8438 46.5234 30.2969C45.9922 30.75 45.539 30.8672 45.2109 30.2578C44.8828 29.6406 45.0859 29.6016 44.8437 29.2344C44.6015 28.8672 43.8984 27.7188 43.6172 26.8594C43.3359 26 43.125 25.3828 42.6328 24.8125C42.1406 24.2422 41.3594 24.1953 40.8281 23.7031C40.2969 23.2109 39.8047 22.5156 39.8047 22.5156C39.8047 22.5156 39.3984 23.25 39.9297 24.5234C40.4609 25.7969 41.7734 26.7813 41.8594 27.2734C41.9453 27.7656 41.7344 28.5859 41.3672 28.5859C41 28.5859 40.5469 28.1797 40.0156 27.5625C39.4844 26.9453 38.539 26.2891 38.0469 25.8438C37.5547 25.3984 36.9844 23.4688 36.6953 23.4219C36.4062 23.375 35.7969 24.5313 34.8906 24.8125C33.9844 25.0938 33.2109 25.1406 33.2109 25.1406C33.2109 25.1406 32.6406 26.4531 31.8594 26.8594C31.0781 27.2656 30.6719 27.5156 30.3047 28.0469C29.9375 28.5781 29.4453 29.5625 29.0781 29.9297C28.7109 30.2969 27.6875 30.5859 27.3594 30.7109C27.0312 30.8359 26.3359 31.0391 26.1328 31.0391C25.9297 31.0391 24.8203 30.3047 24.6562 29.7656C24.4922 29.2344 24.1641 28.9063 24.1641 28.5391C24.1641 28.1719 25.1094 26.6953 25.3515 26C25.5937 25.3047 25.7578 24.5625 26.414 24.0313C27.0703 23.5 27.3125 24.0313 28.2969 24.0703C29.2812 24.1094 30.4687 23.9922 30.4687 23.9922C30.4687 23.9922 30.5937 23.7031 30.7109 23.4219C30.8281 23.1406 31.1172 23.1797 31.039 22.9688C30.9609 22.7578 30.0156 22.1484 29.9297 21.6953C29.8515 21.2422 30.0078 21.0781 30.3359 20.875C30.664 20.6719 31.0703 20.3047 31.0703 20.3047C31.0703 20.3047 31.3125 19.9766 31.8515 19.7734C32.3906 19.5703 32.875 20.1016 33.2422 19.9766C33.6094 19.8516 34.6328 19.3203 35.0469 18.8281C35.4609 18.3359 35.9453 17.8047 36.3594 17.5547C36.7734 17.3047 37.7969 17.2266 38.164 16.9844C38.5312 16.7422 38.5312 16.1641 38.8594 16.0391C39.1875 15.9141 39.6797 15.7109 40.25 16.1172C40.8203 16.5234 41.0703 17.2656 41.6875 17.3438C42.3047 17.4219 42.875 17.1797 43.125 17.0547C43.375 16.9297 43.9062 16.1563 44.6015 15.7422C45.2969 15.3359 45.75 15.0859 46.1172 14.6797C46.4844 14.2734 46.6875 13.8984 46.6875 13.8984C46.6875 13.8984 47.75 13.7734 48.2422 13.6563C48.7344 13.5391 50.0469 13.4531 49.7969 12.6719C49.5469 11.8906 48.6094 12.3438 47.9141 12.4688C47.2187 12.5938 46.6016 12.9609 46.4375 12.7109C46.2734 12.4609 47.0078 11.6016 47.1719 11.3203C47.3359 11.0391 47.7422 10.5391 47.2109 10.2109C46.6797 9.88282 46.1015 10.7813 45.7734 11.1953C45.4453 11.6094 44.875 12.3047 44.875 12.3047C44.875 12.3047 45 12.9219 45 13.2891C45 13.6563 44.3828 14.1484 43.8515 14.6406C43.3203 15.1328 42.8672 15.8281 42.2109 15.7891C41.5547 15.75 41.2656 14.8047 41.2265 14.6797C41.1875 14.5547 41.2265 13.8984 41.0234 13.8594C40.8203 13.8203 40.3672 14.7188 39.5859 14.5938C38.8047 14.4688 38.6875 13.5313 39.1328 12.625C39.5781 11.7188 40.4453 11.4766 41.1015 11.1484C41.7578 10.8203 42.3281 10.6172 42.7031 10.3281C43.0781 10.0391 43.1953 9.79688 43.4375 9.50782C43.6797 9.21876 45.6484 7.78907 46.8359 7.25001C48.0234 6.71094 48.8047 6.35157 49.375 6.26563C49.9453 6.18751 50.6484 6.14063 51.1797 6.50782C51.7109 6.87501 53.1484 7.73438 53.5156 8.10938C53.8828 8.48438 54.1719 8.80469 54.9531 8.64063C55.7344 8.47657 57.8203 7.69532 58.0703 7.45313C58.3203 7.21094 57.8281 6.55469 57.5781 6.50782C57.3281 6.46094 56.4609 6.67969 56.0781 6.26563Z" fill="#7ADD8A"/>
<path d="M34.2109 64.1016C34.289 63.4844 34.0469 62.4609 33.1016 62.1328C32.1562 61.8047 31.4219 62.2109 30.8906 61.9297C30.3594 61.6484 29.664 60.1641 28.4687 60.0859C27.2734 60.0078 25.7656 61.6406 24.4531 61.6016C23.1406 61.5625 23.1015 60.6563 22.1562 60.375C21.2109 60.0938 20.8828 61.0703 20.1094 60.9063C19.3281 60.7422 18.2265 59.6328 17.6094 58.6484C16.9922 57.6641 16.2578 57.0938 15.8906 56.5156C15.5234 55.9375 15.3984 55.5313 15.3984 55.5313C15.3984 55.5313 14.0859 55.4922 13.7187 53.4375C13.3515 51.3828 13.6406 50.4063 13.9609 49.3359C14.289 48.2734 15.1875 45.3984 15.2734 44.4141C15.3594 43.4297 15.1484 42.7344 15.3515 42.2031C15.5547 41.6719 16.5781 40.8516 17.0312 40.0703C17.4844 39.2891 17.8906 38.4688 18.3047 37.8984C18.7187 37.3281 19.4531 37.8203 20.4375 36.5469C21.4219 35.2734 21.2578 35.0703 21.2578 35.0703C21.2578 35.0703 21.5 33.7188 22.2422 32.8125C22.9844 31.9063 23.7578 31.4609 24.289 31.375C24.8203 31.2891 25.5625 31.5391 26.0937 31.5391C26.625 31.5391 27.2812 31.6641 27.7344 31.5781C28.1875 31.4922 29.539 30.4297 30.5234 30.1875C31.5078 29.9453 32.3672 30.0625 33.1484 29.8984C33.9297 29.7344 35.2812 29.5703 36.1406 30.1875C37 30.8047 37 31.25 36.9219 31.5391C36.8437 31.8281 36.3047 32.5234 36.5156 32.8125C36.7265 33.1016 37.375 33.3438 37.7422 33.4688C38.1094 33.5938 38.6875 33.6328 38.8906 33.7578C39.0937 33.8828 39.5859 34.4531 40.4062 34.8672C41.2265 35.2813 42.539 35.9766 42.9922 35.7266C43.4453 35.4766 43.3984 34.375 44.1797 34.125C44.9609 33.8828 46.0625 34.1641 47.2578 34.3672C48.4531 34.5703 53.3672 35.7188 53.8984 35.5547C54.4297 35.3906 54.2656 34.9375 54.8828 34.7734C55.5 34.6094 56.1094 34.6484 56.3594 34.2031C56.6094 33.7578 56.7656 31.5781 56.7266 30.8438C56.6875 30.1094 56.6875 29.2031 56.3594 29.0391C56.0312 28.875 55.1328 29.8594 54.3125 30.0234C53.4922 30.1875 53.2031 29.8984 52.8359 29.9453C52.4687 29.9922 52.1406 30.5625 51.6484 30.3984C51.1562 30.2344 50.2578 29.7422 49.7656 29.25C49.2734 28.7578 48.9844 27.8984 49.2344 27.3203C49.4844 26.7422 50.5078 26.4219 51.3281 26.0938C52.1484 25.7656 53.0937 25.6875 53.5391 25.5234C53.9844 25.3594 54.1953 25.1563 54.7656 25.1563C55.3359 25.1563 55.5 25.6484 55.8281 25.7266C56.1562 25.8047 58.3281 25.7656 58.6953 25.6875C59.0625 25.6094 60.6641 24.8672 60.625 24.2969C60.5859 23.7266 59.4375 24.2188 59.1094 23.8906C58.7812 23.5625 57.5469 22.0313 56.5703 21.9219C54.2969 21.6641 51.7422 18.8984 51.6875 14.9531C51.6328 11.0078 53.6719 8.93751 54.9687 8.64063C55.7422 8.46094 57.8359 7.69532 58.0859 7.45313C58.3359 7.21094 57.8437 6.55469 57.5937 6.50782C57.3437 6.46094 56.4844 6.67969 56.0937 6.26563C55.7969 5.94532 56.0078 5.55469 56.5078 5.30469C57 5.05469 58.2187 4.21876 58.2187 4.21876C58.2187 4.21876 67.9765 4.07813 79.3359 12.1484C90.2812 19.9375 93.8984 29.8438 93.8984 29.8438C93.8984 29.8438 94.2187 31.0938 93.9922 31.5078C93.7656 31.9297 94.0234 34.1016 93.3828 37.7266C92.7422 41.3516 92.4609 42.4609 92.5 44.1016C92.539 45.7422 93.1172 48.8984 91.8828 49.1406C90.6484 49.3828 90.3281 47.4609 89.6719 46.0234C89.0156 44.5859 87.8672 42.7891 87.5781 42.1719C87.289 41.5547 87.0859 40.7344 87.0859 40.7344C87.0859 40.7344 86.3515 40.9375 85.7734 40.5703C85.2031 40.2031 82.289 36.8438 81.9219 36.5547C81.5547 36.2656 80.6094 36.4297 79.8281 36.6797C79.0469 36.9297 78.7656 37.4141 77 37.25C75.2344 37.0859 75.8906 36.4297 74.9531 35.7734C74.0156 35.1172 73.1875 36.6328 72.289 36.6328C71.3906 36.6328 70.8125 36.1797 70.1953 35.5703C69.5781 34.9609 68.8437 34.2578 68.4765 34.1328C68.1094 34.0078 67.2031 34.2578 67.5781 35.1563C67.9531 36.0547 68.6406 36.1406 69.2578 36.7578C69.875 37.375 69.789 37.7422 70.1172 38.2344C70.4453 38.7266 72.0859 39.8359 72.4531 39.75C72.8203 39.6719 73.5156 39.2578 73.8047 38.8047C74.0937 38.3516 74.0078 37.8594 74.539 37.7813C75.0703 37.7031 75.5234 38.4766 76.2578 39.0547C76.9922 39.6328 77.8125 39.625 78.0234 40.6563C78.2265 41.6797 77.4062 44.8359 76.6719 45.6563C75.9375 46.4766 75.1953 46.5547 75.1953 46.5547L73.5547 47.9453C73.5547 47.9453 73.5547 48.6797 72.2031 49.4609C70.8515 50.2422 70.5234 50.1953 69.6172 50.6484C68.7109 51.1016 68.2265 51.6328 67.5234 51.4688C66.8203 51.3047 66.3359 50.2422 66.0078 49.1719C65.6797 48.1094 64.9453 47.2031 64.4062 46.6719C63.8672 46.1406 63.4609 46.1016 62.9297 45.4453C62.3984 44.7891 61.2891 43.3516 61.2109 43.0703C61.1328 42.7891 61.1328 42.4141 60.8437 42.0078C60.5547 41.6016 59.9844 41.3125 59.6562 41.0625C59.3281 40.8203 59.0859 40.4922 59 39.9531C58.914 39.4141 58.1015 38.7656 57.6875 38.2734C57.2734 37.7813 56.7891 36.8828 56.3359 37.2109C55.8828 37.5391 56.414 38.2344 56.9531 39.1406C57.4922 40.0469 57.7344 40.6563 57.8515 41.2734C57.9765 41.8906 57.8125 42.2969 58.2578 42.5859C58.7031 42.875 59.2031 42.5469 59.7344 43.8125C60.2656 45.0781 60.0625 46.2734 60.6328 46.7656C61.2031 47.2578 61.3281 46.9688 61.8203 47.5859C62.3125 48.2031 62.2266 49.1016 62.8047 49.5156C63.3828 49.9297 65.1015 50.6641 65.7578 51.6875C66.414 52.7109 66.0859 53.1641 66.7031 53.5313C67.3203 53.8984 68.5078 53.5703 69.7344 53.1641C70.9609 52.7578 72.6484 51.4453 73.3437 51.6484C74.039 51.8516 73.875 54.4375 73.1797 56.4063C72.4844 58.375 71.9531 58.9922 71.4609 59.6016C70.9687 60.2109 70.2734 61.4844 68.8359 62.7188C67.3984 63.9531 65.4765 65.875 64.9844 68.375C64.9844 68.375 57.7656 73.7656 50.2656 72.8125C42.3672 71.7891 34.164 64.4141 34.2109 64.1016Z" fill="url(#paint1_radial_35_1062)"/>
<path d="M34.2109 64.1016C34.289 63.4844 34.0469 62.4609 33.1016 62.1328C32.1562 61.8047 31.4219 62.2109 30.8906 61.9297C30.3594 61.6484 29.664 60.1641 28.4687 60.0859C27.2734 60.0078 25.7656 61.6406 24.4531 61.6016C23.1406 61.5625 23.1015 60.6563 22.1562 60.375C21.2109 60.0938 20.8828 61.0703 20.1094 60.9063C19.3281 60.7422 18.2265 59.6328 17.6094 58.6484C16.9922 57.6641 16.2578 57.0938 15.8906 56.5156C15.5234 55.9375 15.3984 55.5313 15.3984 55.5313C15.3984 55.5313 14.0859 55.4922 13.7187 53.4375C13.3515 51.3828 13.6406 50.4063 13.9609 49.3359C14.289 48.2734 15.1875 45.3984 15.2734 44.4141C15.3594 43.4297 15.1484 42.7344 15.3515 42.2031C15.5547 41.6719 16.5781 40.8516 17.0312 40.0703C17.4844 39.2891 17.8906 38.4688 18.3047 37.8984C18.7187 37.3281 19.4531 37.8203 20.4375 36.5469C21.4219 35.2734 21.2578 35.0703 21.2578 35.0703C21.2578 35.0703 21.5 33.7188 22.2422 32.8125C22.9844 31.9063 23.7578 31.4609 24.289 31.375C24.8203 31.2891 25.5625 31.5391 26.0937 31.5391C26.625 31.5391 27.2812 31.6641 27.7344 31.5781C28.1875 31.4922 29.539 30.4297 30.5234 30.1875C31.5078 29.9453 32.3672 30.0625 33.1484 29.8984C33.9297 29.7344 35.2812 29.5703 36.1406 30.1875C37 30.8047 37 31.25 36.9219 31.5391C36.8437 31.8281 36.3047 32.5234 36.5156 32.8125C36.7265 33.1016 37.375 33.3438 37.7422 33.4688C38.1094 33.5938 38.6875 33.6328 38.8906 33.7578C39.0937 33.8828 39.5859 34.4531 40.4062 34.8672C41.2265 35.2813 42.539 35.9766 42.9922 35.7266C43.4453 35.4766 43.3984 34.375 44.1797 34.125C44.9609 33.8828 46.0625 34.1641 47.2578 34.3672C48.4531 34.5703 53.3672 35.7188 53.8984 35.5547C54.4297 35.3906 54.2656 34.9375 54.8828 34.7734C55.5 34.6094 56.1094 34.6484 56.3594 34.2031C56.6094 33.7578 56.7656 31.5781 56.7266 30.8438C56.6875 30.1094 56.6875 29.2031 56.3594 29.0391C56.0312 28.875 55.1328 29.8594 54.3125 30.0234C53.4922 30.1875 53.2031 29.8984 52.8359 29.9453C52.4687 29.9922 52.1406 30.5625 51.6484 30.3984C51.1562 30.2344 50.2578 29.7422 49.7656 29.25C49.2734 28.7578 48.9844 27.8984 49.2344 27.3203C49.4844 26.7422 50.5078 26.4219 51.3281 26.0938C52.1484 25.7656 53.0937 25.6875 53.5391 25.5234C53.9844 25.3594 54.1953 25.1563 54.7656 25.1563C55.3359 25.1563 55.5 25.6484 55.8281 25.7266C56.1562 25.8047 58.3281 25.7656 58.6953 25.6875C59.0625 25.6094 60.6641 24.8672 60.625 24.2969C60.5859 23.7266 59.4375 24.2188 59.1094 23.8906C58.7812 23.5625 57.5469 22.0313 56.5703 21.9219C54.2969 21.6641 51.7422 18.8984 51.6875 14.9531C51.6328 11.0078 53.6719 8.93751 54.9687 8.64063C55.7422 8.46094 57.8359 7.69532 58.0859 7.45313C58.3359 7.21094 57.8437 6.55469 57.5937 6.50782C57.3437 6.46094 56.4844 6.67969 56.0937 6.26563C55.7969 5.94532 56.0078 5.55469 56.5078 5.30469C57 5.05469 58.2187 4.21876 58.2187 4.21876C58.2187 4.21876 67.9765 4.07813 79.3359 12.1484C90.2812 19.9375 93.8984 29.8438 93.8984 29.8438C93.8984 29.8438 94.2187 31.0938 93.9922 31.5078C93.7656 31.9297 94.0234 34.1016 93.3828 37.7266C92.7422 41.3516 92.4609 42.4609 92.5 44.1016C92.539 45.7422 93.1172 48.8984 91.8828 49.1406C90.6484 49.3828 90.3281 47.4609 89.6719 46.0234C89.0156 44.5859 87.8672 42.7891 87.5781 42.1719C87.289 41.5547 87.0859 40.7344 87.0859 40.7344C87.0859 40.7344 86.3515 40.9375 85.7734 40.5703C85.2031 40.2031 82.289 36.8438 81.9219 36.5547C81.5547 36.2656 80.6094 36.4297 79.8281 36.6797C79.0469 36.9297 78.7656 37.4141 77 37.25C75.2344 37.0859 75.8906 36.4297 74.9531 35.7734C74.0156 35.1172 73.1875 36.6328 72.289 36.6328C71.3906 36.6328 70.8125 36.1797 70.1953 35.5703C69.5781 34.9609 68.8437 34.2578 68.4765 34.1328C68.1094 34.0078 67.2031 34.2578 67.5781 35.1563C67.9531 36.0547 68.6406 36.1406 69.2578 36.7578C69.875 37.375 69.789 37.7422 70.1172 38.2344C70.4453 38.7266 72.0859 39.8359 72.4531 39.75C72.8203 39.6719 73.5156 39.2578 73.8047 38.8047C74.0937 38.3516 74.0078 37.8594 74.539 37.7813C75.0703 37.7031 75.5234 38.4766 76.2578 39.0547C76.9922 39.6328 77.8125 39.625 78.0234 40.6563C78.2265 41.6797 77.4062 44.8359 76.6719 45.6563C75.9375 46.4766 75.1953 46.5547 75.1953 46.5547L73.5547 47.9453C73.5547 47.9453 73.5547 48.6797 72.2031 49.4609C70.8515 50.2422 70.5234 50.1953 69.6172 50.6484C68.7109 51.1016 68.2265 51.6328 67.5234 51.4688C66.8203 51.3047 66.3359 50.2422 66.0078 49.1719C65.6797 48.1094 64.9453 47.2031 64.4062 46.6719C63.8672 46.1406 63.4609 46.1016 62.9297 45.4453C62.3984 44.7891 61.2891 43.3516 61.2109 43.0703C61.1328 42.7891 61.1328 42.4141 60.8437 42.0078C60.5547 41.6016 59.9844 41.3125 59.6562 41.0625C59.3281 40.8203 59.0859 40.4922 59 39.9531C58.914 39.4141 58.1015 38.7656 57.6875 38.2734C57.2734 37.7813 56.7891 36.8828 56.3359 37.2109C55.8828 37.5391 56.414 38.2344 56.9531 39.1406C57.4922 40.0469 57.7344 40.6563 57.8515 41.2734C57.9765 41.8906 57.8125 42.2969 58.2578 42.5859C58.7031 42.875 59.2031 42.5469 59.7344 43.8125C60.2656 45.0781 60.0625 46.2734 60.6328 46.7656C61.2031 47.2578 61.3281 46.9688 61.8203 47.5859C62.3125 48.2031 62.2266 49.1016 62.8047 49.5156C63.3828 49.9297 65.1015 50.6641 65.7578 51.6875C66.414 52.7109 66.0859 53.1641 66.7031 53.5313C67.3203 53.8984 68.5078 53.5703 69.7344 53.1641C70.9609 52.7578 72.6484 51.4453 73.3437 51.6484C74.039 51.8516 73.875 54.4375 73.1797 56.4063C72.4844 58.375 71.9531 58.9922 71.4609 59.6016C70.9687 60.2109 70.2734 61.4844 68.8359 62.7188C67.3984 63.9531 65.4765 65.875 64.9844 68.375C64.9844 68.375 57.7656 73.7656 50.2656 72.8125C42.3672 71.7891 34.164 64.4141 34.2109 64.1016Z" fill="url(#paint2_radial_35_1062)"/>
<path d="M48.3906 91.0703C47.0859 90.6641 46.2578 89.7969 45.8906 89.3906C45.5234 88.9844 45.1562 88.5313 44.5781 88.2031C44.0078 87.875 43.3516 87.1797 42.8984 86.5625C42.4453 85.9453 41.2187 84.3047 40.0312 83C38.8437 81.6953 38.2266 81.0703 38.1484 79.6406C38.0703 78.2109 39.375 76.7266 39.375 76.7266C39.375 76.7266 39.0078 74.1875 37.9375 72.2969C36.8672 70.4062 35.4375 70.0859 34.5781 68.1562C34.5781 68.1562 42.1953 67.4375 48.5703 68.875C54.9453 70.3125 64.9922 76.1094 64.9922 76.1094C64.9141 77.1719 65.0312 77.8281 64.4609 78.4062C63.8906 78.9844 61.5469 81.0313 61.1406 81.7656C60.7344 82.5 61.0156 83.4062 60.7344 84.4297C60.4531 85.4531 58.6406 87.0938 58.0312 87.4219C57.4219 87.75 57.5781 88.3672 56.1484 89.5938C54.7187 90.8203 54.2578 91.2109 53.6484 91.3125C53.1641 91.3984 49.7578 91.5 48.3906 91.0703Z" fill="url(#paint3_radial_35_1062)"/>
<path d="M64.1328 19.8906C63.5234 19.8281 62.5 21.0547 62.4687 21.6094C62.4375 22.1641 62.6172 22.9219 62.8516 23.125C63.0859 23.3281 64.4844 24.0313 64.8047 24.4922C65.125 24.9531 65.2734 26.5313 65.8828 27.2891C66.4922 28.0469 67.2266 28.8359 68.8281 28.8047C70.4297 28.7734 70.1953 27.9375 70.1953 27.5781C70.1953 26.9688 68.2969 24.8985 67.5391 24.1641C66.7812 23.4375 65.5 22.8516 65.2656 22.2969C65.0312 21.7422 65.4687 21.336 65.2969 20.8985C65.125 20.4688 64.7187 19.9453 64.1328 19.8906Z" fill="#4B9CED"/>
<path d="M58.6094 65.5156C58.375 65.2109 57.3203 65.164 56.9687 65.3906C56.6172 65.6172 56.0859 67.2812 56.2344 67.5625C56.3828 67.8437 57.3984 67.7656 57.75 67.6406C58.1016 67.5156 58.8594 65.8437 58.6094 65.5156Z" fill="#4186F1"/>
</g>
<defs>
<filter id="filter0_d_35_1062" x="-2" y="0" width="108" height="108" filterUnits="userSpaceOnUse" color-interpolation-filters="sRGB">
<feFlood flood-opacity="0" result="BackgroundImageFix"/>
<feColorMatrix in="SourceAlpha" type="matrix" values="0 0 0 0 0 0 0 0 0 0 0 0 0 0 0 0 0 0 127 0" result="hardAlpha"/>
<feOffset dy="4"/>
<feGaussianBlur stdDeviation="2"/>
<feComposite in2="hardAlpha" operator="out"/>
<feColorMatrix type="matrix" values="0 0 0 0 0 0 0 0 0 0 0 0 0 0 0 0 0 0 0.25 0"/>
<feBlend mode="normal" in2="BackgroundImageFix" result="effect1_dropShadow_35_1062"/>
<feBlend mode="normal" in="SourceGraphic" in2="effect1_dropShadow_35_1062" result="shape"/>
</filter>
<radialGradient id="paint0_radial_35_1062" cx="0" cy="0" r="1" gradientUnits="userSpaceOnUse" gradientTransform="translate(36.3519 22.7074) rotate(51.2641) scale(71.0519 52.9716)">
<stop offset="0.506" stop-color="#17A1F3"/>
<stop offset="0.767" stop-color="#1B7FFA"/>
<stop offset="0.962" stop-color="#1366F0"/>
<stop offset="1" stop-color="#1160EE"/>
</radialGradient>
<radialGradient id="paint1_radial_35_1062" cx="0" cy="0" r="1" gradientUnits="userSpaceOnUse" gradientTransform="translate(52.258 44.7139) rotate(-71.3313) scale(16.7073 56.7645)">
<stop offset="0.118" stop-color="#E3DDA6"/>
<stop offset="0.907" stop-color="#E3DDA6" stop-opacity="0.083"/>
<stop offset="0.978" stop-color="#E3DDA6" stop-opacity="0"/>
</radialGradient>
<radialGradient id="paint2_radial_35_1062" cx="0" cy="0" r="1" gradientUnits="userSpaceOnUse" gradientTransform="translate(70.7088 33.3063) rotate(-139.498) scale(14.5465 25.3137)">
<stop offset="0.118" stop-color="#E3DDA6"/>
<stop offset="0.907" stop-color="#E3DDA6" stop-opacity="0.083"/>
<stop offset="0.978" stop-color="#E3DDA6" stop-opacity="0"/>
</radialGradient>
<radialGradient id="paint3_radial_35_1062" cx="0" cy="0" r="1" gradientUnits="userSpaceOnUse" gradientTransform="translate(49.8767 92.7819) rotate(-77.7136) scale(13.9782 27.2614)">
<stop stop-color="#E3DDA6"/>
<stop offset="0.818" stop-color="#E3DDA6" stop-opacity="0"/>
</radialGradient>
</defs>
</svg>
