<svg width="104" height="106" viewBox="0 0 104 106" fill="none" xmlns="http://www.w3.org/2000/svg">
<g filter="url(#filter0_d_35_1075)">
<path d="M31.2265 32.7734C23.6406 42.5234 23.7734 59.8438 33.4687 68.4297C44.4765 78.1719 59.9687 78.0703 69.7109 69.1094C81.3906 58.3594 80.7187 40.4688 70.3906 30.3359C60.0078 20.1484 41.4531 19.6172 31.2265 32.7734Z" fill="#FCC11A"/>
<path d="M43.4062 29.4297C40.4062 28.1016 37.125 31.7187 35.6953 34.1875C34.2656 36.6641 32.9375 41.5156 35.9844 42.7578C39.0312 43.9922 41.2187 41.8984 43.414 38.2812C45.5937 34.6641 46.8359 30.9531 43.4062 29.4297Z" fill="#FEE269"/>
<path d="M51.2188 15.8359C50.4922 17.1953 50.7344 18.2422 52.1797 18.5859C53.625 18.9297 62.6172 20.3906 63.375 20.4375C64.4766 20.5078 64.8828 19.6797 64.75 18.7188C64.6094 17.7578 62.4141 4.29687 62.2109 3.0625C62.0078 1.82812 60.7031 0.593748 59.4609 2.24219C58.2188 3.89062 51.7656 14.8125 51.2188 15.8359Z" fill="#FFA722"/>
<path d="M74.5 25.1797C73.0859 25.6172 73.125 26.4844 73.8828 27.5859C74.6406 28.6875 79.8594 36.6484 80.3359 37.2031C80.8203 37.75 81.6406 37.8906 82.3281 37.0625C83.0156 36.2422 91.5938 24.2109 92.2188 23.4609C93.25 22.2266 92.6328 20.9219 91.0547 21.3281C89.8516 21.6484 75.3906 24.9062 74.5 25.1797Z" fill="#FFA722"/>
<path d="M85.2813 48.3281C84.2656 47.75 82.9453 47.9141 82.6016 49.2188C82.2578 50.5235 80.75 60 80.6094 60.8281C80.4688 61.6563 81.0938 62.4766 82.1172 62.2735C83.1406 62.0703 97.3125 59.9688 98.2578 59.7344C99.9063 59.3203 100.453 57.6719 98.7422 56.4375C97.6328 55.6328 86.2422 48.875 85.2813 48.3281Z" fill="#FFA722"/>
<path d="M73.9453 70.7813C75.0391 70.1953 76.0078 70.6406 76.2813 71.8828C76.5547 73.1172 79.5781 85.7578 80.0625 88.0938C80.3047 89.2656 78.961 90.2266 77.8672 89.5391C76.7656 88.8516 64.8281 80.5313 64.0625 79.8516C62.961 78.8906 63.7266 77.8906 64.2656 77.3828C65.3594 76.3438 72.9141 71.3359 73.9453 70.7813Z" fill="#FFA722"/>
<path d="M40.7032 77.7187C39.3203 77.5859 38.9141 78.8203 39.125 79.9141C39.3282 81.0156 41.3907 94.9453 41.5313 95.9844C41.7344 97.4922 43.3203 98.1172 44.3438 96.6016C45.3672 95.0859 52.4297 83.7891 53 82.7266C54.0313 80.8047 53.2735 80.3906 52.2422 79.9141C51.2188 79.4375 42.1485 77.8594 40.7032 77.7187Z" fill="#FFA722"/>
<path d="M20.9297 61.7188C21.8906 60.1406 23.125 60.5547 24.0234 62.0625C24.6328 63.0938 29.789 70.0312 30.2734 70.7812C30.7578 71.5391 30.9609 72.9766 29.4531 73.3203C27.9297 73.6719 15.6406 76.8984 13.7187 77.2422C11.7969 77.5859 10.6953 76.0781 11.9297 74.4297C12.6484 73.4609 20.3828 62.6172 20.9297 61.7188Z" fill="#FFA722"/>
<path d="M18.3203 49.7656C20.0782 50.5469 20.9063 50.2656 21.2735 49.0078C21.7578 47.3594 23.1953 39.8047 23.2657 38.0859C23.3125 36.9687 22.8516 35.8906 21.1328 36.1641C19.4141 36.4375 7.05472 38.1641 5.47659 38.7109C3.64066 39.3516 3.77347 41.3672 4.99222 42.0078C6.43753 42.7656 17.0782 49.2187 18.3203 49.7656Z" fill="#FFA722"/>
<path d="M39.6797 20.9219C40.6719 20.1328 40.3672 19 39.4766 18.3828C38.5859 17.7656 27.5547 9.78906 26.1563 8.69531C24.9219 7.73437 23.4063 8.07812 23.8203 10.2734C24.1172 11.8516 27.6328 25.6641 27.875 26.6172C28.1484 27.7187 28.9766 28.2656 29.9375 27.5781C30.8828 26.8984 38.6484 21.75 39.6797 20.9219Z" fill="#FFA722"/>
</g>
<defs>
<filter id="filter0_d_35_1075" x="-2" y="0" width="108" height="108" filterUnits="userSpaceOnUse" color-interpolation-filters="sRGB">
<feFlood flood-opacity="0" result="BackgroundImageFix"/>
<feColorMatrix in="SourceAlpha" type="matrix" values="0 0 0 0 0 0 0 0 0 0 0 0 0 0 0 0 0 0 127 0" result="hardAlpha"/>
<feOffset dy="4"/>
<feGaussianBlur stdDeviation="2"/>
<feComposite in2="hardAlpha" operator="out"/>
<feColorMatrix type="matrix" values="0 0 0 0 0 0 0 0 0 0 0 0 0 0 0 0 0 0 0.25 0"/>
<feBlend mode="normal" in2="BackgroundImageFix" result="effect1_dropShadow_35_1075"/>
<feBlend mode="normal" in="SourceGraphic" in2="effect1_dropShadow_35_1075" result="shape"/>
</filter>
</defs>
</svg>
