<svg width="100" height="100" viewBox="0 0 100 100" fill="none" xmlns="http://www.w3.org/2000/svg">
<g filter="url(#filter0_d_35_797)">
<path d="M21.8687 47.2938H25.2375V77.425H21.8687V47.2938Z" fill="#CFD7DB"/>
<path d="M8.48126 60.6688H38.6125V64.05H8.48126V60.6688Z" fill="#CFD7DB"/>
<path d="M11.7188 52.8937L14.1 50.5187L35.3938 71.8312L33.0063 74.2062L11.7188 52.8937Z" fill="#CFD7DB"/>
<path d="M14.1 74.2188L11.7188 71.8438L32.9937 50.5L35.3812 52.8813L14.1 74.2188Z" fill="#CFD7DB"/>
<path d="M23.55 80.1375C18.8367 80.1325 14.3178 78.2584 10.9844 74.9262C7.65106 71.594 5.77535 67.0758 5.76874 62.3625C5.76874 52.5562 13.7437 44.5812 23.55 44.5812C33.3562 44.5812 41.3312 52.55 41.3312 62.3625C41.3246 67.0758 39.4489 71.594 36.1155 74.9262C32.7822 78.2584 28.2633 80.1325 23.55 80.1375ZM23.55 48.3562C19.8379 48.3629 16.2798 49.8408 13.6556 52.4663C11.0313 55.0917 9.55494 58.6504 9.54999 62.3625C9.54999 70.075 15.8312 76.35 23.55 76.35C31.2687 76.35 37.55 70.075 37.55 62.3625C37.545 58.6504 36.0686 55.0917 33.4444 52.4663C30.8201 49.8408 27.2621 48.3629 23.55 48.3562Z" fill="#5F7B89"/>
<path d="M75.6 47.2938H78.975V77.425H75.6V47.2938Z" fill="#CFD7DB"/>
<path d="M62.225 60.6688H92.35V64.05H62.225V60.6688Z" fill="#CFD7DB"/>
<path d="M65.4562 52.8875L67.8375 50.5125L89.1187 71.8438L86.7312 74.2188L65.4562 52.8875Z" fill="#CFD7DB"/>
<path d="M67.8375 74.225L65.45 71.85L86.7125 50.5L89.1 52.875L67.8375 74.225Z" fill="#CFD7DB"/>
<path d="M77.2875 80.1375C72.5731 80.1342 68.0526 78.2608 64.7179 74.9284C61.3832 71.596 59.5066 67.0768 59.5 62.3625C59.505 57.647 61.3808 53.1263 64.7157 49.7925C68.0506 46.4588 72.5721 44.5845 77.2875 44.5812C82.0008 44.5879 86.519 46.4636 89.8512 49.7969C93.1834 53.1303 95.0575 57.6492 95.0625 62.3625C95.0575 67.0752 93.1832 71.5934 89.8508 74.9258C86.5185 78.2582 82.0002 80.1325 77.2875 80.1375ZM77.2875 48.3562C73.5743 48.3612 70.0147 49.8384 67.3891 52.4641C64.7635 55.0897 63.2862 58.6493 63.2812 62.3625C63.2895 66.0729 64.7684 69.6287 67.3938 72.2506C70.0193 74.8725 73.5771 76.3467 77.2875 76.35C80.9974 76.3467 84.5545 74.8723 87.1789 72.2503C89.8034 69.6282 91.2809 66.0723 91.2875 62.3625C91.2825 58.6504 89.8062 55.0917 87.1819 52.4663C84.5576 49.8408 80.9996 48.3629 77.2875 48.3562Z" fill="#5F7B89"/>
<path d="M33.5875 29.7625L37.0562 28.4813L51.0875 66.4563L47.6125 67.7375L33.5875 29.7625Z" fill="#E51B54"/>
<path d="M22.4 63.45L25.6312 65.2438L39.4937 39.2625L36.2562 37.475L22.4 63.45ZM48.9187 62.7688L52.2687 64.4875L67.6937 37.6375L64.3375 35.9188L48.9187 62.7688Z" fill="#E51B54"/>
<path d="M79.7125 65.9813L76.2812 67.3563L57.8125 21.25L62.45 21.7312L79.7125 65.9813Z" fill="#E51B54"/>
<path d="M37.8813 33.6125H66.3V37.3062H37.8813V33.6125Z" fill="#E51B54"/>
<path d="M66.8937 25.45H66.7813L60.4688 25.0937L60.6875 21.1312L66.9375 21.4875C67.8937 21.4562 70.8625 21.0687 70.8625 17.3312H74.8312C74.8312 23.2875 70.0812 25.45 66.8937 25.45Z" fill="#E51B54"/>
<path d="M68.6063 25.2125L68.2 21.2687C68.825 21.1937 70.8688 20.6687 70.8688 17.3312H74.8375C74.8313 23.1 70.7563 25.0125 68.6063 25.2125Z" fill="#4D5462"/>
<path d="M42.4438 22.4063L30.6625 24.8375C28.9063 25.2125 27.7875 27.025 28.1813 28.9C28.5688 30.775 29.3375 32.2 32.0688 31.6313L32.2813 31.475C33.3313 31.3 35.0563 30.2875 36.7563 28.725C37.5375 28 38.2063 27.275 38.7375 26.5938L38.9563 26.4188C40.7188 26.0563 46.2875 25.6563 46.2563 24.7188L46.175 24.3125C46.075 23.725 45.6125 21.7438 42.4438 22.4063Z" fill="#811E4D"/>
<path d="M56.1813 65.9312C56.1813 69.6687 52.7437 71.9125 48.5125 71.9125L28.7062 67.7375C24.3687 66.4938 21.0312 65.9937 21.0312 61.6437V63.2312C21.0312 59.4812 23.7375 59.1562 27.9687 59.1562H48.5125C52.7437 59.1562 56.1813 62.1812 56.1813 65.9312Z" fill="#A31A53"/>
</g>
<defs>
<filter id="filter0_d_35_797" x="-4" y="0" width="108" height="108" filterUnits="userSpaceOnUse" color-interpolation-filters="sRGB">
<feFlood flood-opacity="0" result="BackgroundImageFix"/>
<feColorMatrix in="SourceAlpha" type="matrix" values="0 0 0 0 0 0 0 0 0 0 0 0 0 0 0 0 0 0 127 0" result="hardAlpha"/>
<feOffset dy="4"/>
<feGaussianBlur stdDeviation="2"/>
<feComposite in2="hardAlpha" operator="out"/>
<feColorMatrix type="matrix" values="0 0 0 0 0 0 0 0 0 0 0 0 0 0 0 0 0 0 0.25 0"/>
<feBlend mode="normal" in2="BackgroundImageFix" result="effect1_dropShadow_35_797"/>
<feBlend mode="normal" in="SourceGraphic" in2="effect1_dropShadow_35_797" result="shape"/>
</filter>
</defs>
</svg>
