<svg width="108" height="108" viewBox="0 0 108 108" fill="none" xmlns="http://www.w3.org/2000/svg">
<g clip-path="url(#clip0_35_3)" filter="url(#filter0_d_35_3)">
<path d="M54 99.7222C81.6142 99.7222 104 93.0563 104 84.8333C104 76.6104 81.6142 69.9445 54 69.9445C26.3858 69.9445 4 76.6104 4 84.8333C4 93.0563 26.3858 99.7222 54 99.7222Z" fill="#3B88C3"/>
<path d="M97.925 79.2722C97.925 83.7611 90.9806 86.4583 57.6972 86.4583C27.35 86.4583 19.8861 83.7611 19.8861 79.2722C19.8861 74.7833 35.6722 71.1444 57.6972 71.1444C79.7222 71.1444 97.925 74.7833 97.925 79.2722Z" fill="#88C9F9"/>
<path d="M23.4444 78.4722C23.4444 75.6944 26.2222 64.5833 54 64.5833C87.3333 64.5833 95.6667 75.6944 95.6667 78.4722C95.6667 81.25 95.6667 84.0278 56.7778 84.0278C23.4444 84.0278 23.4444 81.25 23.4444 78.4722Z" fill="#F4900C"/>
<path d="M61.2778 76.8527C61.1784 77.3106 60.9898 77.7443 60.7227 78.1292C60.4557 78.5141 60.1155 78.8427 59.7215 79.0961C59.3275 79.3495 58.8874 79.5229 58.4264 79.6062C57.9654 79.6896 57.4925 79.6813 57.0347 79.5819C56.5769 79.4825 56.1432 79.2939 55.7583 79.0269C55.3733 78.7598 55.0448 78.4196 54.7914 78.0256C54.2795 77.2299 54.1048 76.2634 54.3055 75.3389L68.425 3.15831C68.5107 2.68752 68.6904 2.23881 68.9531 1.83888C69.2159 1.43896 69.5565 1.096 69.9545 0.830432C70.3526 0.564863 70.8001 0.382115 71.2702 0.293069C71.7404 0.204023 72.2237 0.2105 72.6913 0.312116C73.1589 0.413731 73.6013 0.608406 73.9921 0.884548C74.3829 1.16069 74.7142 1.51265 74.9661 1.91948C75.2181 2.3263 75.3856 2.77967 75.4587 3.25258C75.5318 3.72549 75.509 4.20828 75.3917 4.6722L61.2778 76.8527Z" fill="#66757F"/>
<path d="M71.6611 5.075C50.4889 0.480557 30.3917 10.2778 26.7722 26.9583C26.7722 26.9583 25.7639 31.6028 28.0889 32.1083C30.4111 32.6139 36.0667 28.975 36.0667 28.975L94.1444 41.5806C94.1444 41.5806 97.7805 47.2361 100.106 47.7417C102.431 48.2472 103.436 43.6 103.436 43.6C107.058 26.9167 92.8306 9.66945 71.6611 5.075Z" fill="#DD2E44"/>
<path d="M71.6611 5.07502C55.6222 1.59446 39.6861 12.2945 36.0667 28.9722C36.0667 28.9722 35.0583 33.6195 39.7056 34.6278C44.3528 35.6389 52.3306 32.5028 52.3306 32.5028L77.8833 38.05C77.8833 38.05 83.8444 44.2084 88.4917 45.2195C93.1389 46.225 94.1444 41.5778 94.1444 41.5778C97.7639 24.9 87.6972 8.55558 71.6611 5.07502Z" fill="#FFE8B6"/>
<path d="M71.6611 5.07503C63.3195 3.26669 55.9472 15.825 52.3278 32.5028C52.3278 32.5028 58.2889 38.6639 62.9333 39.6695L65.2583 40.1778C69.9056 41.1834 77.8806 38.05 77.8806 38.05C81.5028 21.3722 80.0028 6.88614 71.6611 5.07503Z" fill="#DD2E44"/>
<path d="M48.0111 77.6333C49.3139 76.4472 52.8722 76.7278 54.9556 75.9611C57.0389 75.1944 58.3417 74.2194 60.0778 74.9167C61.8139 75.6139 62.3333 76.6583 63.9833 76.8C65.6333 76.9417 66.8472 77.9167 66.1528 78.6833C65.4583 79.45 59.9889 79.7278 56.3444 79.7278C52.7 79.7278 46.4028 79.1 48.0111 77.6333Z" fill="#FFAC33"/>
</g>
<defs>
<filter id="filter0_d_35_3" x="0" y="0" width="108" height="108" filterUnits="userSpaceOnUse" color-interpolation-filters="sRGB">
<feFlood flood-opacity="0" result="BackgroundImageFix"/>
<feColorMatrix in="SourceAlpha" type="matrix" values="0 0 0 0 0 0 0 0 0 0 0 0 0 0 0 0 0 0 127 0" result="hardAlpha"/>
<feOffset dy="4"/>
<feGaussianBlur stdDeviation="2"/>
<feComposite in2="hardAlpha" operator="out"/>
<feColorMatrix type="matrix" values="0 0 0 0 0 0 0 0 0 0 0 0 0 0 0 0 0 0 0.25 0"/>
<feBlend mode="normal" in2="BackgroundImageFix" result="effect1_dropShadow_35_3"/>
<feBlend mode="normal" in="SourceGraphic" in2="effect1_dropShadow_35_3" result="shape"/>
</filter>
<clipPath id="clip0_35_3">
<rect width="100" height="100" fill="white" transform="translate(4)"/>
</clipPath>
</defs>
</svg>
