<svg width="108" height="108" viewBox="0 0 108 108" fill="none" xmlns="http://www.w3.org/2000/svg">
<g clip-path="url(#clip0_35_201)" filter="url(#filter0_d_35_201)">
<path d="M53.9999 99.9998C81.6141 99.9998 104 77.6141 104 49.9999C104 22.3857 81.6141 0 53.9999 0C26.3857 0 4 22.3857 4 49.9999C4 77.6141 26.3857 99.9998 53.9999 99.9998Z" fill="#F57328"/>
<path d="M76.2221 83.3332C48.6081 83.3332 26.2222 60.9473 26.2222 33.3333C26.2222 22.0316 29.9757 11.6086 36.299 3.23474C17.4238 10.3834 4 28.6198 4 49.9999C4 77.6139 26.3859 99.9998 53.9999 99.9998C70.3124 99.9998 84.7963 92.185 93.9231 80.0985C88.4194 82.1828 82.4563 83.3332 76.2221 83.3332Z" fill="#E25921"/>
<path d="M70.7135 51.8517H103.953C103.976 51.2362 104 50.6208 104 49.9999C104 49.3788 103.976 48.7636 103.953 48.1481H70.7135C71.2465 34.1437 77.7944 21.6615 87.833 13.1933C86.9125 12.3467 85.9553 11.5406 84.9731 10.7638C74.3981 19.9029 67.5372 33.2304 67.0102 48.148H55.8518V0.0470702C55.2362 0.0242187 54.621 0 53.9999 0C53.3788 0 52.7636 0.0242187 52.1481 0.0470702V48.1481H40.9902C40.463 33.2308 33.6023 19.9033 23.0273 10.764C22.0449 11.5404 21.0881 12.3467 20.1674 13.1935C30.206 21.6615 36.7536 34.1439 37.2868 48.1483H4.04707C4.02422 48.7636 4 49.3788 4 49.9999C4 50.621 4.02422 51.2362 4.04707 51.8517H37.2867C36.7536 65.8561 30.2058 78.3383 20.1672 86.8065C21.0877 87.6532 22.0449 88.4592 23.0271 89.236C33.6021 80.0969 40.463 66.7694 40.99 51.8518H52.148V99.9529C52.7636 99.9752 53.3788 99.9998 53.9999 99.9998C54.621 99.9998 55.2362 99.9756 55.8517 99.9527V51.8517H67.0096C67.5368 66.769 74.3975 80.0965 84.9725 89.2358C85.9549 88.4594 86.9118 87.6531 87.8325 86.8063C77.7944 78.3385 71.2464 65.8561 70.7135 51.8517Z" fill="#5B5D6E"/>
<path d="M4 49.9999C4 50.621 4.02422 51.2362 4.04707 51.8516H29.7794C29.2949 50.6378 28.8447 49.4065 28.4548 48.1479H4.07246C4.0498 48.7659 4 49.3765 4 49.9999Z" fill="#464655"/>
<path d="M27.7142 21.189C28.0812 19.7195 28.5195 18.2795 29.0134 16.8648C27.188 14.6728 25.1884 12.6326 23.031 10.7678C22.0488 11.5439 21.0976 12.3562 20.1771 13.2023C22.982 15.5691 25.5113 18.2486 27.7142 21.189Z" fill="#464655"/>
<path d="M38.4575 66.0821C37.4704 64.9448 36.5337 63.7637 35.6511 62.5401C33.0572 72.1455 27.5644 80.5664 20.1666 86.8065C21.0871 87.6531 22.0443 88.4592 23.0265 89.2359C30.0919 83.1301 35.4911 75.1537 38.4575 66.0821Z" fill="#464655"/>
<path d="M83.5961 82.7807C82.109 83.0018 80.6012 83.1567 79.0745 83.2432C80.8749 85.3934 82.8444 87.3957 84.9653 89.2293C85.9475 88.453 86.9039 87.6463 87.8244 86.7992C86.3366 85.5438 84.9221 84.2049 83.5961 82.7807Z" fill="#464655"/>
<path d="M55.8516 99.9446V78.9936C54.5899 78.4298 53.3519 77.8227 52.1479 77.16V99.953C52.7634 99.9754 53.3788 100 53.9997 100C54.6216 99.9998 55.2352 99.967 55.8516 99.9446Z" fill="#464655"/>
</g>
<defs>
<filter id="filter0_d_35_201" x="0" y="0" width="108" height="108" filterUnits="userSpaceOnUse" color-interpolation-filters="sRGB">
<feFlood flood-opacity="0" result="BackgroundImageFix"/>
<feColorMatrix in="SourceAlpha" type="matrix" values="0 0 0 0 0 0 0 0 0 0 0 0 0 0 0 0 0 0 127 0" result="hardAlpha"/>
<feOffset dy="4"/>
<feGaussianBlur stdDeviation="2"/>
<feComposite in2="hardAlpha" operator="out"/>
<feColorMatrix type="matrix" values="0 0 0 0 0 0 0 0 0 0 0 0 0 0 0 0 0 0 0.25 0"/>
<feBlend mode="normal" in2="BackgroundImageFix" result="effect1_dropShadow_35_201"/>
<feBlend mode="normal" in="SourceGraphic" in2="effect1_dropShadow_35_201" result="shape"/>
</filter>
<clipPath id="clip0_35_201">
<rect width="100" height="100" fill="white" transform="translate(4)"/>
</clipPath>
</defs>
</svg>
