<svg width="104" height="105" viewBox="0 0 104 105" fill="none" xmlns="http://www.w3.org/2000/svg">
<g filter="url(#filter0_d_35_180)">
<path d="M78.5166 22.6549L93.185 8.12654C93.8078 7.50974 94.8379 7.61111 95.3285 8.33748L98.7123 13.347C99.1783 14.0371 98.9422 14.9789 98.2057 15.3674L80.1535 24.8861C79.8487 25.0469 79.4952 25.0894 79.1609 25.0056C78.8266 24.9217 78.535 24.7174 78.342 24.4318C78.1594 24.1617 78.0769 23.8363 78.1088 23.5118C78.1407 23.1874 78.285 22.8842 78.5166 22.6549ZM80.9424 35.1312C80.9974 35.4 81.1496 35.6389 81.37 35.8023C81.5903 35.9656 81.8633 36.0418 82.1364 36.0162L98.3047 34.5068C98.4604 34.4923 98.6113 34.4451 98.7475 34.3684C98.8838 34.2916 99.0023 34.1871 99.0954 34.0614C99.1886 33.9358 99.2542 33.792 99.288 33.6393C99.3218 33.4866 99.323 33.3286 99.2916 33.1754L98.327 28.4627C98.1871 27.7795 97.4606 27.3916 96.8151 27.6558L81.6114 33.8777C81.3713 33.976 81.173 34.155 81.0509 34.3839C80.9288 34.6127 80.8904 34.8771 80.9424 35.1312ZM68.8703 17.9742C69.0992 18.1253 69.3758 18.1866 69.6471 18.1463C69.9184 18.106 70.1652 17.967 70.3403 17.7558L80.7057 5.25584C80.8055 5.13545 80.8788 4.9954 80.9209 4.8448C80.9629 4.6942 80.9728 4.53642 80.9498 4.38175C80.9268 4.22709 80.8715 4.07899 80.7875 3.94712C80.7035 3.81525 80.5926 3.70256 80.4621 3.61638L76.4479 0.966187C75.8658 0.582007 75.0778 0.821461 74.8082 1.46482L68.4571 16.615C68.3568 16.8542 68.3432 17.121 68.4186 17.3691C68.4941 17.6173 68.6539 17.8313 68.8703 17.9742Z" fill="#FFD469"/>
<path d="M44.6562 93.7179L41.5336 95.5441C38.9953 97.0285 35.7344 96.1742 34.25 93.6359L25.9707 79.4783C24.4863 76.94 25.3406 73.6791 27.8789 72.1947L31.0016 70.3685C33.5398 68.8842 36.8008 69.7385 38.2852 72.2767L46.5645 86.4344C48.049 88.9726 47.1945 92.2336 44.6562 93.7179Z" fill="#00B1FF"/>
<path d="M25.516 79.8244L55.7721 63.3518L35.0888 30.9674L7.73904 51.2864C7.56268 51.399 0.170491 58.1627 8.28865 70.8739C16.4068 83.585 25.516 79.8244 25.516 79.8244Z" fill="#0096D1"/>
<path d="M72.807 29.7324C81.8568 43.9019 87.3397 59.2523 83.5535 61.6703C79.7674 64.0883 68.1463 52.6586 59.0965 38.4888C50.0467 24.3191 44.5641 8.96911 48.35 6.55095C52.1359 4.13279 63.7572 15.5627 72.807 29.7324Z" fill="#727272"/>
<path d="M68.5459 49.3943C71.6824 47.3909 70.7838 40.3792 66.5388 33.733C62.2938 27.0869 56.31 23.3232 53.1735 25.3265C50.037 27.3298 50.9356 34.3416 55.1806 40.9877C59.4256 47.6338 65.4095 51.3976 68.5459 49.3943Z" fill="#B2B2B2"/>
<path d="M83.3883 61.776C80.0813 63.8881 68.8484 52.2104 59.7986 38.0406C50.7488 23.8709 44.8777 8.76877 48.1848 6.65666C48.3752 6.53498 48.5889 6.4547 48.8223 6.41037C47.2621 6.37463 45.7336 7.1883 44.8291 8.91799C40.8432 16.5406 30.6707 33.4528 30.6707 33.4528C30.6707 33.4528 25.6229 40.2496 34.4965 54.1432C43.3701 68.0367 51.9371 66.2981 51.9371 66.2981C51.9371 66.2981 71.3986 64.31 79.9496 63.9016C81.974 63.8049 83.384 62.6809 83.9697 61.1645C83.8143 61.4203 83.6219 61.6268 83.3883 61.776Z" fill="#D1D1D1"/>
<path d="M12.3305 60.1902C11.868 60.1908 11.4128 60.0747 11.0071 59.8526C10.6014 59.6305 10.2583 59.3097 10.0096 58.9197C9.19181 57.6393 9.56681 55.9385 10.8473 55.1207L22.158 47.8969C23.4383 47.0793 25.1393 47.4541 25.957 48.7346C26.7748 50.015 26.3998 51.7158 25.1193 52.5336L13.8086 59.7574C13.3675 60.0402 12.8545 60.1904 12.3305 60.1902Z" fill="#00B1FF"/>
</g>
<defs>
<filter id="filter0_d_35_180" x="-2" y="0" width="108" height="108" filterUnits="userSpaceOnUse" color-interpolation-filters="sRGB">
<feFlood flood-opacity="0" result="BackgroundImageFix"/>
<feColorMatrix in="SourceAlpha" type="matrix" values="0 0 0 0 0 0 0 0 0 0 0 0 0 0 0 0 0 0 127 0" result="hardAlpha"/>
<feOffset dy="4"/>
<feGaussianBlur stdDeviation="2"/>
<feComposite in2="hardAlpha" operator="out"/>
<feColorMatrix type="matrix" values="0 0 0 0 0 0 0 0 0 0 0 0 0 0 0 0 0 0 0.25 0"/>
<feBlend mode="normal" in2="BackgroundImageFix" result="effect1_dropShadow_35_180"/>
<feBlend mode="normal" in="SourceGraphic" in2="effect1_dropShadow_35_180" result="shape"/>
</filter>
</defs>
</svg>
