<svg width="108" height="100" viewBox="0 0 108 100" fill="none" xmlns="http://www.w3.org/2000/svg">
<g filter="url(#filter0_d_35_816)">
<path d="M52.5639 86.0306C51.7942 86.102 51.0268 85.873 50.4221 85.3915C49.8174 84.91 49.4223 84.2133 49.3194 83.4472L41.2972 14.2667C41.1056 12.6833 43.175 11.1195 45.9 10.8778C48.625 10.6361 50.9306 11.8111 51.0222 13.4028L55.3028 82.9139C55.3357 83.6862 55.0693 84.4414 54.559 85.0221C54.0487 85.6027 53.334 85.964 52.5639 86.0306ZM64.2278 85.625C63.4559 85.6116 62.719 85.3003 62.1713 84.7562C61.6236 84.2121 61.3074 83.4774 61.2889 82.7056L60.7556 13.0639C60.7361 11.4695 62.9528 10.1361 65.6806 10.1917C68.4083 10.2445 70.5694 11.6583 70.4889 13.2528L67.275 82.8222C67.2278 83.5927 66.8841 84.3149 66.316 84.8375C65.7479 85.36 64.9995 85.6423 64.2278 85.625ZM75.8528 86.475C75.0871 86.3788 74.3881 85.9904 73.9021 85.391C73.416 84.7915 73.1804 84.0274 73.2444 83.2583L80.1917 13.9611C80.3417 12.3722 82.6889 11.2861 85.3944 11.6333C88.1 11.9778 90.1 13.6167 89.8472 15.1917L79.1833 84.0139C79.0534 84.7748 78.6342 85.456 78.0134 85.9147C77.3925 86.3735 76.6183 86.5743 75.8528 86.475Z" fill="#FFE8B6"/>
<path d="M58.3945 85.6694C57.6227 85.6983 56.8697 85.4277 56.293 84.9141C55.7162 84.4005 55.3604 83.6838 55.3 82.9139L51.0195 13.4028C50.9139 11.8111 53.0583 10.3611 55.7889 10.2694C58.5194 10.175 60.7556 11.4722 60.7583 13.0667L61.2917 82.7083C61.2835 83.4802 60.9776 84.219 60.4378 84.7707C59.8979 85.3225 59.1659 85.6444 58.3945 85.6694ZM70.0528 85.8944C69.2831 85.8396 68.5645 85.4892 68.0473 84.9166C67.53 84.3439 67.2543 83.5935 67.2778 82.8222L70.4917 13.2528C70.5583 11.6583 72.8417 10.4472 75.5611 10.6472C78.2806 10.8444 80.3639 12.375 80.1972 13.9611L73.25 83.2583C73.1591 84.0249 72.7759 84.7268 72.1803 85.2179C71.5847 85.709 70.8226 85.9513 70.0528 85.8944Z" fill="#D99E82"/>
<path d="M86.725 88.3416L83.8555 87.9C82.3361 87.6618 80.9728 86.8318 80.0635 85.5915C79.1541 84.3511 78.7728 82.8012 79.0028 81.2805L88.7111 18.1833C88.9493 16.6639 89.7793 15.3005 91.0196 14.3912C92.26 13.4819 93.8099 13.1005 95.3306 13.3305L98.2 13.7722C99.7194 14.0104 101.083 14.8403 101.992 16.0807C102.901 17.3211 103.283 18.871 103.053 20.3916L93.3444 83.4889C93.1056 85.0079 92.2754 86.3708 91.0353 87.28C89.7951 88.1892 88.2456 88.5709 86.725 88.3416Z" fill="#BE1931"/>
<path d="M96.4333 28.1472C98.0365 28.1472 99.3361 26.8476 99.3361 25.2445C99.3361 23.6413 98.0365 22.3417 96.4333 22.3417C94.8302 22.3417 93.5305 23.6413 93.5305 25.2445C93.5305 26.8476 94.8302 28.1472 96.4333 28.1472Z" fill="#F5F8FA"/>
<path d="M96.4333 28.1472C98.0365 28.1472 99.3361 26.8476 99.3361 25.2445C99.3361 23.6413 98.0365 22.3417 96.4333 22.3417C94.8302 22.3417 93.5305 23.6413 93.5305 25.2445C93.5305 26.8476 94.8302 28.1472 96.4333 28.1472Z" fill="#F5F8FA"/>
<path d="M95.1083 36.7528C96.7115 36.7528 98.0111 35.4531 98.0111 33.85C98.0111 32.2468 96.7115 30.9472 95.1083 30.9472C93.5052 30.9472 92.2056 32.2468 92.2056 33.85C92.2056 35.4531 93.5052 36.7528 95.1083 36.7528Z" fill="#F5F8FA"/>
<path d="M93.7833 45.3555C95.3865 45.3555 96.6861 44.0559 96.6861 42.4528C96.6861 40.8496 95.3865 39.55 93.7833 39.55C92.1802 39.55 90.8806 40.8496 90.8806 42.4528C90.8806 44.0559 92.1802 45.3555 93.7833 45.3555Z" fill="#F5F8FA"/>
<path d="M92.4611 53.9611C94.0643 53.9611 95.3639 52.6615 95.3639 51.0584C95.3639 49.4552 94.0643 48.1556 92.4611 48.1556C90.858 48.1556 89.5583 49.4552 89.5583 51.0584C89.5583 52.6615 90.858 53.9611 92.4611 53.9611Z" fill="#F5F8FA"/>
<path d="M91.1361 62.5639C92.7393 62.5639 94.0389 61.2643 94.0389 59.6611C94.0389 58.058 92.7393 56.7584 91.1361 56.7584C89.533 56.7584 88.2333 58.058 88.2333 59.6611C88.2333 61.2643 89.533 62.5639 91.1361 62.5639Z" fill="#F5F8FA"/>
<path d="M89.8139 71.1694C91.417 71.1694 92.7167 69.8698 92.7167 68.2667C92.7167 66.6635 91.417 65.3639 89.8139 65.3639C88.2107 65.3639 86.9111 66.6635 86.9111 68.2667C86.9111 69.8698 88.2107 71.1694 89.8139 71.1694Z" fill="#F5F8FA"/>
<path d="M88.4889 79.7722C90.0921 79.7722 91.3917 78.4726 91.3917 76.8695C91.3917 75.2663 90.0921 73.9667 88.4889 73.9667C86.8857 73.9667 85.5861 75.2663 85.5861 76.8695C85.5861 78.4726 86.8857 79.7722 88.4889 79.7722Z" fill="#F5F8FA"/>
<path d="M44.5305 86.8111L18.5833 89.7722C17.0548 89.9419 15.5213 89.5 14.3175 88.5429C13.1137 87.5858 12.3375 86.1913 12.1583 84.6639L4.91944 21.2361C4.74899 19.7075 5.19066 18.1735 6.14789 16.9696C7.10511 15.7656 8.50005 14.9896 10.0278 14.8111L35.975 11.85C37.5035 11.6803 39.037 12.1223 40.2408 13.0794C41.4446 14.0365 42.2208 15.4309 42.4 16.9584L49.6389 80.3861C49.8093 81.9148 49.3677 83.4487 48.4104 84.6527C47.4532 85.8566 46.0583 86.6327 44.5305 86.8111Z" fill="#BE1931"/>
<path d="M25.9195 21.7583L10.525 23.5167C9.89031 23.587 9.25356 23.4033 8.7539 23.0057C8.25423 22.608 7.93226 22.0288 7.85834 21.3945L7.74723 20.4167C7.67688 19.782 7.8606 19.1452 8.25825 18.6456C8.6559 18.1459 9.23516 17.8239 9.86945 17.75L25.2611 15.9945C25.8958 15.9241 26.5326 16.1078 27.0322 16.5055C27.5319 16.9031 27.8539 17.4824 27.9278 18.1167L28.0389 19.0945C28.1085 19.7283 27.9248 20.3639 27.5278 20.8629C27.1308 21.3619 26.5527 21.6837 25.9195 21.7583ZM26.9056 30.4083L11.5139 32.1667C10.8792 32.237 10.2425 32.0533 9.74278 31.6557C9.24312 31.258 8.92115 30.6788 8.84723 30.0445L8.73612 29.0667C8.66498 28.4323 8.84804 27.7955 9.24525 27.2957C9.64246 26.796 10.2215 26.4739 10.8556 26.4L26.2472 24.6445C26.8819 24.5741 27.5187 24.7578 28.0183 25.1555C28.518 25.5531 28.84 26.1324 28.9139 26.7667L29.025 27.7445C29.0961 28.3786 28.913 29.015 28.5157 29.5143C28.1184 30.0136 27.5394 30.3351 26.9056 30.4083ZM27.8917 39.0583L12.5 40.8139C11.8653 40.8843 11.2286 40.7005 10.7289 40.3029C10.2292 39.9052 9.90726 39.326 9.83334 38.6917L9.72223 37.7139C9.65188 37.0792 9.8356 36.4425 10.2333 35.9428C10.6309 35.4431 11.2102 35.1211 11.8445 35.0472L27.2361 33.2917C27.8708 33.2213 28.5076 33.405 29.0072 33.8027C29.5069 34.2003 29.8289 34.7796 29.9028 35.4139L30.0139 36.3917C30.0842 37.0264 29.9005 37.6631 29.5029 38.1628C29.1052 38.6625 28.526 38.9844 27.8917 39.0583ZM28.8806 47.7083L13.4889 49.4639C12.8542 49.5343 12.2175 49.3505 11.7178 48.9529C11.2181 48.5552 10.8962 47.976 10.8222 47.3417L10.7111 46.3639C10.6408 45.7292 10.8245 45.0925 11.2221 44.5928C11.6198 44.0931 12.199 43.7712 12.8333 43.6972L28.225 41.9417C28.8597 41.8713 29.4965 42.055 29.9961 42.4527C30.4958 42.8503 30.8178 43.4296 30.8917 44.0639L31.0028 45.0417C31.0731 45.6764 30.8894 46.3131 30.4918 46.8128C30.0941 47.3125 29.5149 47.6344 28.8806 47.7083ZM29.8667 56.3556L14.475 58.1111C13.8403 58.1815 13.2036 57.9978 12.7039 57.6001C12.2042 57.2024 11.8823 56.6232 11.8083 55.9889L11.6972 55.0111C11.6269 54.3764 11.8106 53.7397 12.2083 53.24C12.6059 52.7403 13.1852 52.4184 13.8195 52.3445L29.2111 50.5889C29.8458 50.5185 30.4826 50.7023 30.9822 51.0999C31.4819 51.4976 31.8039 52.0768 31.8778 52.7111L31.9889 53.6889C32.0593 54.3236 31.8755 54.9603 31.4779 55.46C31.0802 55.9597 30.501 56.2816 29.8667 56.3556ZM30.8528 65.0056L15.4611 66.7611C14.8264 66.8315 14.1897 66.6478 13.69 66.2501C13.1903 65.8524 12.8684 65.2732 12.7945 64.6389L12.6833 63.6611C12.613 63.0264 12.7967 62.3897 13.1944 61.89C13.592 61.3903 14.1713 61.0684 14.8056 60.9945L30.1972 59.2389C30.8319 59.1685 31.4687 59.3523 31.9683 59.7499C32.468 60.1476 32.79 60.7268 32.8639 61.3611L32.975 62.3389C33.0454 62.9736 32.8616 63.6103 32.464 64.11C32.0663 64.6097 31.4871 64.9316 30.8528 65.0056ZM31.8417 73.6556L16.45 75.4111C15.8153 75.4815 15.1786 75.2978 14.6789 74.9001C14.1792 74.5024 13.8573 73.9232 13.7833 73.2889L13.6722 72.3111C13.6019 71.6764 13.7856 71.0397 14.1833 70.54C14.5809 70.0403 15.1602 69.7184 15.7945 69.6445L31.1861 67.8889C31.8208 67.8185 32.4576 68.0023 32.9572 68.3999C33.4569 68.7976 33.7789 69.3768 33.8528 70.0111L33.9639 70.9889C34.0343 71.6236 33.8505 72.2603 33.4529 72.76C33.0552 73.2597 32.476 73.5816 31.8417 73.6556ZM32.8278 82.3056L17.4361 84.0611C16.8014 84.1315 16.1647 83.9478 15.665 83.5501C15.1653 83.1525 14.8434 82.5732 14.7695 81.9389L14.6583 80.9611C14.588 80.3264 14.7717 79.6897 15.1694 79.19C15.567 78.6903 16.1463 78.3684 16.7806 78.2945L32.1722 76.5389C32.8069 76.4685 33.4437 76.6523 33.9433 77.0499C34.443 77.4476 34.765 78.0268 34.8389 78.6611L34.95 79.6389C35.0204 80.2736 34.8366 80.9103 34.439 81.41C34.0413 81.9097 33.4621 82.2316 32.8278 82.3056Z" fill="#F5F8FA"/>
<path d="M19.5056 25.4111L26.2472 24.6417C26.8815 24.5678 27.4608 24.2458 27.8584 23.7461C28.2561 23.2465 28.4398 22.6097 28.3695 21.975L28.2583 20.9972C28.1844 20.3629 27.8625 19.7837 27.3628 19.386C26.8631 18.9884 26.2264 18.8047 25.5917 18.875L18.8472 19.6445C18.2129 19.7184 17.6337 20.0403 17.236 20.54C16.8384 21.0397 16.6547 21.6764 16.725 22.3111L16.8361 23.2889C16.91 23.9237 17.2324 24.5034 17.7327 24.9012C18.233 25.2989 18.8704 25.4823 19.5056 25.4111ZM20.4917 34.0611L27.2333 33.2917C27.8676 33.2178 28.4469 32.8958 28.8446 32.3961C29.2422 31.8965 29.4259 31.2597 29.3556 30.625L29.2445 29.6472C29.1705 29.0129 28.8486 28.4337 28.3489 28.036C27.8492 27.6384 27.2125 27.4547 26.5778 27.525L19.8333 28.2945C19.1991 28.3684 18.6198 28.6903 18.2221 29.19C17.8245 29.6897 17.6408 30.3264 17.7111 30.9611L17.8222 31.9389C17.8968 32.5734 18.2194 33.1527 18.7195 33.5503C19.2196 33.9479 19.8567 34.1315 20.4917 34.0611ZM22.4667 51.3611L29.2083 50.5917C29.8426 50.5178 30.4219 50.1958 30.8196 49.6961C31.2172 49.1965 31.4009 48.5597 31.3306 47.925L31.2195 46.9445C31.1455 46.3102 30.8236 45.7309 30.3239 45.3333C29.8242 44.9356 29.1875 44.7519 28.5528 44.8222L21.8111 45.5917C21.1768 45.6656 20.5976 45.9876 20.1999 46.4872C19.8023 46.9869 19.6186 47.6236 19.6889 48.2583L19.8 49.2361C19.8733 49.8709 20.1949 50.4509 20.6947 50.8491C21.1944 51.2473 21.8316 51.4314 22.4667 51.3611ZM23.4528 60.0083L30.1945 59.2389C30.8288 59.165 31.408 58.843 31.8057 58.3433C32.2033 57.8437 32.387 57.2069 32.3167 56.5722L32.2056 55.5945C32.1317 54.9602 31.8097 54.3809 31.31 53.9833C30.8104 53.5856 30.1736 53.4019 29.5389 53.4722L22.7972 54.2417C22.1629 54.3156 21.5837 54.6376 21.186 55.1372C20.7884 55.6369 20.6047 56.2736 20.675 56.9083L20.7861 57.8861C20.86 58.5204 21.182 59.0997 21.6817 59.4973C22.1813 59.895 22.8181 60.0787 23.4528 60.0083ZM24.4389 68.6583L31.1806 67.8889C31.8149 67.815 32.3941 67.493 32.7918 66.9933C33.1894 66.4937 33.3731 65.8569 33.3028 65.2222L33.1917 64.2445C33.1178 63.6102 32.7958 63.0309 32.2961 62.6333C31.7965 62.2356 31.1597 62.0519 30.525 62.1222L23.7833 62.8917C23.1491 62.9656 22.5698 63.2876 22.1721 63.7872C21.7745 64.2869 21.5908 64.9236 21.6611 65.5583L21.7722 66.5361C21.8462 67.1704 22.1681 67.7497 22.6678 68.1473C23.1675 68.545 23.8042 68.7287 24.4389 68.6583ZM26.4139 85.9583L33.1556 85.1889C33.7899 85.115 34.3691 84.793 34.7668 84.2934C35.1644 83.7937 35.3481 83.1569 35.2778 82.5222L35.1667 81.5445C35.0928 80.9102 34.7708 80.3309 34.2711 79.9333C33.7715 79.5356 33.1347 79.3519 32.5 79.4222L25.7583 80.1917C25.1241 80.2656 24.5448 80.5876 24.1471 81.0872C23.7495 81.5869 23.5658 82.2236 23.6361 82.8583L23.7472 83.8361C23.8212 84.4704 24.1431 85.0497 24.6428 85.4473C25.1425 85.845 25.7792 86.0287 26.4139 85.9583Z" fill="#292F33"/>
<path d="M32.0639 18.1361L38.3194 17.4222C38.6366 17.3853 38.9262 17.2243 39.125 16.9745C39.3239 16.7246 39.4157 16.4063 39.3805 16.0889L39.325 15.6C39.288 15.2829 39.1271 14.9932 38.8772 14.7944C38.6274 14.5956 38.309 14.5037 37.9917 14.5389L31.7361 15.2556C31.419 15.2925 31.1293 15.4535 30.9305 15.7034C30.7317 15.9532 30.6398 16.2716 30.675 16.5889L30.7305 17.0778C30.7675 17.3948 30.9286 17.6841 31.1785 17.8825C31.4284 18.0809 31.7468 18.1721 32.0639 18.1361ZM32.7222 23.9028L38.9778 23.1889C39.2949 23.152 39.5845 22.991 39.7834 22.7411C39.9822 22.4913 40.0741 22.1729 40.0389 21.8556L39.9833 21.3667C39.9464 21.0495 39.7854 20.7599 39.5356 20.5611C39.2857 20.3623 38.9673 20.2704 38.65 20.3056L32.3944 21.0195C32.0771 21.0571 31.7874 21.2187 31.5887 21.4689C31.3899 21.7192 31.2981 22.0379 31.3333 22.3556L31.3889 22.8445C31.4265 23.1611 31.5878 23.45 31.8375 23.6483C32.0873 23.8465 32.4053 23.938 32.7222 23.9028ZM33.3805 29.6695L39.6361 28.9556C39.9533 28.9186 40.2429 28.7576 40.4417 28.5078C40.6405 28.258 40.7324 27.9396 40.6972 27.6222L40.6417 27.1334C40.6047 26.8162 40.4437 26.5266 40.1939 26.3278C39.944 26.1289 39.6257 26.0371 39.3083 26.0722L33.0528 26.7861C32.7356 26.8231 32.446 26.9841 32.2472 27.2339C32.0483 27.4837 31.9565 27.8021 31.9917 28.1195L32.0472 28.6084C32.0842 28.9255 32.2452 29.2151 32.495 29.414C32.7448 29.6128 33.0632 29.7046 33.3805 29.6695ZM34.0389 35.4361L40.2944 34.7222C40.6116 34.6853 40.9012 34.5243 41.1 34.2745C41.2989 34.0246 41.3907 33.7063 41.3555 33.3889L41.3 32.9C41.263 32.5829 41.1021 32.2932 40.8522 32.0944C40.6024 31.8956 40.284 31.8037 39.9667 31.8389L33.7111 32.5528C33.394 32.5898 33.1043 32.7507 32.9055 33.0006C32.7067 33.2504 32.6148 33.5688 32.65 33.8861L32.7055 34.375C32.7425 34.6922 32.9035 34.9818 33.1533 35.1806C33.4032 35.3794 33.7215 35.4713 34.0389 35.4361ZM34.6972 41.2028L40.9528 40.4889C41.2699 40.452 41.5595 40.291 41.7584 40.0411C41.9572 39.7913 42.0491 39.4729 42.0139 39.1556L41.9583 38.6667C41.9214 38.3495 41.7604 38.0599 41.5105 37.8611C41.2607 37.6623 40.9423 37.5704 40.625 37.6056L34.3694 38.3195C34.0523 38.3564 33.7627 38.5174 33.5638 38.7672C33.365 39.0171 33.2731 39.3355 33.3083 39.6528L33.3639 40.1417C33.4008 40.4588 33.5618 40.7485 33.8117 40.9473C34.0615 41.1461 34.3799 41.238 34.6972 41.2028ZM35.3555 46.9695L41.6111 46.2556C41.9283 46.2186 42.2179 46.0576 42.4167 45.8078C42.6155 45.558 42.7074 45.2396 42.6722 44.9222L42.6167 44.4334C42.5797 44.1162 42.4187 43.8266 42.1689 43.6278C41.9191 43.4289 41.6007 43.3371 41.2833 43.3722L35.0278 44.0861C34.7106 44.1231 34.421 44.2841 34.2222 44.5339C34.0233 44.7837 33.9315 45.1021 33.9667 45.4195L34.0222 45.9084C34.0592 46.2255 34.2202 46.5151 34.47 46.714C34.7198 46.9128 35.0382 47.0046 35.3555 46.9695ZM36.0139 52.7334L42.2694 52.0195C42.5866 51.9825 42.8762 51.8215 43.075 51.5717C43.2739 51.3219 43.3657 51.0035 43.3305 50.6861L43.275 50.1972C43.238 49.8801 43.077 49.5905 42.8272 49.3916C42.5774 49.1928 42.259 49.101 41.9417 49.1361L35.6861 49.85C35.369 49.887 35.0793 50.048 34.8805 50.2978C34.6817 50.5476 34.5898 50.866 34.625 51.1834L34.6805 51.6722C34.7528 52.3334 35.3555 52.8111 36.0139 52.7334ZM36.6722 58.5L42.9278 57.7861C43.2449 57.7492 43.5345 57.5882 43.7334 57.3384C43.9322 57.0885 44.0241 56.7702 43.9889 56.4528L43.9333 55.9639C43.8964 55.6468 43.7354 55.3571 43.4856 55.1583C43.2357 54.9595 42.9173 54.8676 42.6 54.9028L36.3444 55.6167C36.0273 55.6536 35.7377 55.8146 35.5388 56.0645C35.34 56.3143 35.2482 56.6327 35.2833 56.95L35.3389 57.4389C35.3565 57.5962 35.405 57.7486 35.4816 57.8871C35.5582 58.0257 35.6614 58.1477 35.7852 58.2463C35.9091 58.3449 36.0512 58.4181 36.2034 58.4616C36.3556 58.5051 36.5149 58.5182 36.6722 58.5ZM37.3278 64.2667L43.5833 63.5528C43.9005 63.5158 44.1901 63.3549 44.3889 63.105C44.5878 62.8552 44.6796 62.5368 44.6444 62.2195L44.5889 61.7306C44.5519 61.4134 44.3909 61.1238 44.1411 60.925C43.8913 60.7262 43.5729 60.6343 43.2555 60.6695L37 61.3834C36.6828 61.4203 36.3932 61.5813 36.1944 61.8311C35.9956 62.081 35.9037 62.3993 35.9389 62.7167L35.9944 63.2056C36.0314 63.5227 36.1924 63.8124 36.4422 64.0112C36.692 64.21 37.0104 64.3019 37.3278 64.2667ZM37.9861 70.0334L44.2417 69.3195C44.5588 69.2825 44.8484 69.1215 45.0473 68.8717C45.2461 68.6219 45.3379 68.3035 45.3028 67.9861L45.2472 67.4972C45.2103 67.1801 45.0493 66.8905 44.7994 66.6916C44.5496 66.4928 44.2312 66.401 43.9139 66.4361L37.6583 67.15C37.3412 67.187 37.0516 67.348 36.8527 67.5978C36.6539 67.8476 36.562 68.166 36.5972 68.4834L36.6528 68.9722C36.6897 69.2894 36.8507 69.579 37.1005 69.7778C37.3504 69.9767 37.6688 70.0685 37.9861 70.0334ZM38.6444 75.8L44.9 75.0861C45.2171 75.0492 45.5068 74.8882 45.7056 74.6384C45.9044 74.3885 45.9963 74.0702 45.9611 73.7528L45.9055 73.2639C45.8686 72.9468 45.7076 72.6571 45.4578 72.4583C45.2079 72.2595 44.8896 72.1676 44.5722 72.2028L38.3167 72.9167C37.9995 72.9537 37.7099 73.1146 37.5111 73.3645C37.3122 73.6143 37.2204 73.9327 37.2555 74.25L37.3111 74.7389C37.3481 75.0561 37.509 75.3457 37.7589 75.5445C38.0087 75.7433 38.3271 75.8352 38.6444 75.8ZM39.3028 81.5667L45.5583 80.8528C45.8755 80.8158 46.1651 80.6549 46.3639 80.405C46.5628 80.1552 46.6546 79.8368 46.6194 79.5195L46.5639 79.0306C46.5269 78.7134 46.3659 78.4238 46.1161 78.225C45.8663 78.0262 45.5479 77.9343 45.2305 77.9695L38.975 78.6834C38.6578 78.7203 38.3682 78.8813 38.1694 79.1311C37.9706 79.381 37.8787 79.6993 37.9139 80.0167L37.9694 80.5056C38.0064 80.8227 38.1674 81.1124 38.4172 81.3112C38.667 81.51 38.9854 81.6019 39.3028 81.5667Z" fill="#A0041E"/>
</g>
<defs>
<filter id="filter0_d_35_816" x="0" y="0" width="108" height="108" filterUnits="userSpaceOnUse" color-interpolation-filters="sRGB">
<feFlood flood-opacity="0" result="BackgroundImageFix"/>
<feColorMatrix in="SourceAlpha" type="matrix" values="0 0 0 0 0 0 0 0 0 0 0 0 0 0 0 0 0 0 127 0" result="hardAlpha"/>
<feOffset dy="4"/>
<feGaussianBlur stdDeviation="2"/>
<feComposite in2="hardAlpha" operator="out"/>
<feColorMatrix type="matrix" values="0 0 0 0 0 0 0 0 0 0 0 0 0 0 0 0 0 0 0.25 0"/>
<feBlend mode="normal" in2="BackgroundImageFix" result="effect1_dropShadow_35_816"/>
<feBlend mode="normal" in="SourceGraphic" in2="effect1_dropShadow_35_816" result="shape"/>
</filter>
</defs>
</svg>
