<svg width="102" height="100" viewBox="0 0 102 100" fill="none" xmlns="http://www.w3.org/2000/svg">
<g filter="url(#filter0_d_35_188)">
<path d="M50.8125 15.6016C28.086 15.0156 20.7266 32.6094 20.1641 39.2109C19.7266 44.3438 17.5235 63.1172 28.2266 75.7266C33.75 82.2344 42.6016 85.4766 51.9844 85.2578C61.4453 85.0391 69.9922 83.1562 75.7422 75.5781C85.4219 62.8203 84.3907 43.7578 83.0782 37.5938C81.8438 31.8594 77.0547 16.2734 50.8125 15.6016Z" fill="#FFEAC8"/>
<path d="M76.6406 50.3359C77.4453 56.4375 74.7969 62.2578 67.8203 62.6718C61.4375 63.0547 57.5 58.9843 57.1875 52.9922C56.8672 46.8515 60.2266 41.1406 65.5625 40.5547C71.1953 39.9375 75.8438 44.2343 76.6406 50.3359Z" fill="#D27856"/>
<path d="M15.7656 20.875C15.7656 20.875 8.08591 23.8828 6.23435 28.3516C3.74216 34.3672 4.8906 46.3047 6.23435 50.9375C7.55466 55.4844 11.0703 60.1797 16.5 60.0313C21.9297 59.8828 26.6953 54.3828 28.375 47.2032C30.0625 40.0157 30.4297 27.7032 30.9375 25.5C31.4453 23.2969 32.3281 21.5391 32.3281 21.5391C32.3281 21.5391 25.5859 15.0078 15.7656 20.875Z" fill="#D27856"/>
<path d="M80.0703 19.9219C80.0703 19.9219 90.4844 20.2891 92.9766 21.3907C95.4687 22.4922 97.7422 27.4766 97.5234 34.1485C97.3047 40.8203 96.8672 51.6094 93.4922 55.336C90.7031 58.4141 85.0625 58.6328 81.9062 54.8203C78.75 51.0078 76.7734 44.5547 76.0391 40.375C75.3047 36.1953 74.0625 30.7735 73.25 28.3516C72.4453 25.9297 70.4609 21.0938 69.4375 19.9922C68.4062 18.8985 70.4609 17.8672 80.0703 19.9219Z" fill="#D27856"/>
<path d="M24.4141 17.4297C18.7656 17.0703 9.45312 21.539 7.54687 26.1562C5.64062 30.7734 6.7578 45.7578 8.35937 50.1328C10.0469 54.75 13.5625 60.5469 19.6484 55.5625C25.7344 50.5781 27.3437 38.039 27.9375 34.0078C28.5234 29.9765 29.3281 25.0625 30.2109 24.039C31.0937 23.0156 32.3359 21.5469 32.3359 21.5469C32.3359 21.5469 31.3828 17.8672 24.4141 17.4297Z" fill="#865B51"/>
<path d="M81.3125 16.4766C86.6172 16.8437 92.3828 18.8203 94.5078 23.4453C96.6328 28.0625 95.8281 38.9922 95.0234 44.1953C94.2188 49.3984 92.3125 54.8281 87.5469 54.2422C82.7812 53.6562 80.3594 47.2031 78.8984 41.1172C77.4297 35.0312 75.8906 28.9453 73.9844 24.5469C72.8359 21.8906 68.8516 19.9297 68.8516 19.9297C68.8516 19.9297 70.6094 15.7422 81.3125 16.4766Z" fill="#865B51"/>
<path d="M40.4531 52.8828C40.1406 55.5547 38.7656 57.7109 35.7812 57.3984C33.6641 57.1719 32.2422 54.6484 32.5547 51.9687C32.8672 49.2969 33.7969 47.375 36.2969 47.4219C40.1797 47.4922 40.7656 50.2031 40.4531 52.8828Z" fill="#2F2F2F"/>
<path d="M71.1094 52.1328C71.2344 54.8203 70.1719 57.1172 67.0703 57.3437C64.375 57.5391 62.9922 55.2031 62.875 52.5156C62.75 49.8281 64.0859 47.6719 66.6562 47.3516C69.9922 46.9219 70.9844 49.4453 71.1094 52.1328Z" fill="#2F2F2F"/>
<path d="M59.6875 65.6797C59.8125 68.3672 58 70.8828 52.3516 70.8125C46.8516 70.7422 44.8516 68.5156 44.7266 65.8281C44.6016 63.1406 47.7266 60.7266 52.2031 60.625C58.3672 60.4688 59.5625 62.9844 59.6875 65.6797Z" fill="#2F2F2F"/>
<path d="M47.2188 76.5313C47.2188 76.5313 47.8828 82.9141 48.5391 84.8203C49.9297 88.8516 55.7891 88.1797 56.8281 84.3828C57.7109 81.1563 57.125 75.5859 57.125 75.5859L51.9219 74.8516L47.2188 76.5313Z" fill="#E94B8C"/>
<path d="M52.5313 78.6563C51.6172 78.6953 51.6484 79.5391 51.6484 81.4766C51.6484 83.4219 51.7578 84.5938 52.6406 84.5547C53.5234 84.5156 53.4141 83.0156 53.4141 81.625C53.4141 80.2344 53.4844 78.6172 52.5313 78.6563Z" fill="#EF87B2"/>
<path d="M40.1797 70.4766C39.125 72.0312 41.1719 73.4062 42.8594 74.5469C44.5469 75.6797 46.5938 77.4062 49.0156 77.3672C51.7266 77.3281 52.4609 75.5 52.4609 75.5C52.4609 75.5 53.3438 77.6641 57.1875 77.2578C59.2422 77.0391 61.7734 74.7344 62.5391 74.2187C64.0078 73.2266 65.7656 71.9844 64.9922 70.9531C64.1094 69.7734 62.2422 71.3594 60.3359 72.3437C58.4297 73.3359 57.7734 73.8125 56.3438 73.8125C54.9141 73.8125 53.9219 73.2266 53.8516 70.8437C53.7891 68.8984 53.8125 68.5312 53.8125 68.5312H50.5469C50.5469 68.5312 50.6563 70.5859 50.6563 71.1719C50.6563 72.7109 49.8516 73.375 48.3125 73.4453C46.7734 73.5156 45.125 72.2344 44.3125 71.7578C43.5156 71.2891 41.0234 69.2344 40.1797 70.4766Z" fill="#2F2F30"/>
</g>
<defs>
<filter id="filter0_d_35_188" x="-3" y="0" width="108" height="108" filterUnits="userSpaceOnUse" color-interpolation-filters="sRGB">
<feFlood flood-opacity="0" result="BackgroundImageFix"/>
<feColorMatrix in="SourceAlpha" type="matrix" values="0 0 0 0 0 0 0 0 0 0 0 0 0 0 0 0 0 0 127 0" result="hardAlpha"/>
<feOffset dy="4"/>
<feGaussianBlur stdDeviation="2"/>
<feComposite in2="hardAlpha" operator="out"/>
<feColorMatrix type="matrix" values="0 0 0 0 0 0 0 0 0 0 0 0 0 0 0 0 0 0 0.25 0"/>
<feBlend mode="normal" in2="BackgroundImageFix" result="effect1_dropShadow_35_188"/>
<feBlend mode="normal" in="SourceGraphic" in2="effect1_dropShadow_35_188" result="shape"/>
</filter>
</defs>
</svg>
