<svg width="108" height="100" viewBox="0 0 108 100" fill="none" xmlns="http://www.w3.org/2000/svg">
<g clip-path="url(#clip0_35_1151)" filter="url(#filter0_d_35_1151)">
<path d="M12.3333 31.25H95.6666V85.4167C95.6666 86.5217 95.2277 87.5815 94.4463 88.3629C93.6649 89.1443 92.605 89.5833 91.5 89.5833H16.5C15.3949 89.5833 14.3351 89.1443 13.5537 88.3629C12.7723 87.5815 12.3333 86.5217 12.3333 85.4167V31.25Z" fill="#4DBE86"/>
<path d="M43.5833 60.4167H29C27.8949 60.4167 26.8351 60.8557 26.0537 61.6371C25.2723 62.4185 24.8333 63.4783 24.8333 64.5834V89.5834H47.75V64.5834C47.75 63.4783 47.311 62.4185 46.5296 61.6371C45.7482 60.8557 44.6884 60.4167 43.5833 60.4167Z" fill="#EC5044"/>
<path d="M94.1042 10.7708L103.187 30.4375C103.76 31.6323 104.044 32.9452 104.015 34.2699C103.986 35.5946 103.645 36.8939 103.021 38.0625C101.972 39.9005 100.456 41.429 98.6272 42.4935C96.7981 43.558 94.7204 44.1208 92.6042 44.125C86.0833 44.125 80.8333 37.125 80.8542 31.5L77.375 8.33331H90.3125C91.1117 8.33317 91.8941 8.56289 92.5664 8.99507C93.2387 9.42725 93.7725 10.0437 94.1042 10.7708Z" fill="#EC5044"/>
<path d="M13.8959 10.7708L4.83336 30.4583C4.26047 31.6531 3.97703 32.966 4.00598 34.2907C4.03494 35.6154 4.37548 36.9147 5.00002 38.0833C6.04899 39.9213 7.56461 41.4499 9.39367 42.5144C11.2227 43.5789 13.3004 44.1417 15.4167 44.1458C21.9375 44.1458 27.1875 37.1458 27.1667 31.5208L30.625 8.33331H17.6875C16.8883 8.33317 16.1059 8.56289 15.4336 8.99507C14.7613 9.42725 14.2275 10.0437 13.8959 10.7708Z" fill="#EC5044"/>
<path d="M47 8.66665C46.9048 8.56221 46.7891 8.47866 46.66 8.42129C46.5309 8.36391 46.3913 8.33395 46.25 8.33331H28.0625C28.0625 8.33331 25.5833 32.9166 25.5833 32.9583C25.5833 39.2083 29.9791 44.1041 35.3958 44.1041C40.8125 44.1041 45.1666 39.1041 45.1666 33.0416L47.25 9.43748C47.2718 9.1576 47.1819 8.88047 47 8.66665Z" fill="#E7E9E9"/>
<path d="M80.875 8.33331H63.2916C63.1504 8.33395 63.0108 8.36391 62.8817 8.42129C62.7526 8.47866 62.6368 8.56221 62.5417 8.66665C62.4453 8.7734 62.3716 8.89862 62.325 9.0347C62.2785 9.17078 62.26 9.31489 62.2708 9.45831L63.7292 33C63.7292 39.25 68.125 44.1458 73.5208 44.1458C78.9166 44.1458 83.3542 39.1458 83.3542 33C83.3542 32.9375 80.875 8.33331 80.875 8.33331Z" fill="#E7E9E9"/>
<path d="M63.8958 8.33331H44.7083V32.9583C44.7083 39.2083 49.0833 44.1041 54.4791 44.1041C59.875 44.1041 64.4166 39.125 64.4166 32.9791L63.8958 8.33331Z" fill="#EC5044"/>
<path d="M81.0833 52.0833H60.25C57.9488 52.0833 56.0833 53.9488 56.0833 56.25V77.0833C56.0833 79.3845 57.9488 81.25 60.25 81.25H81.0833C83.3845 81.25 85.25 79.3845 85.25 77.0833V56.25C85.25 53.9488 83.3845 52.0833 81.0833 52.0833Z" fill="white"/>
</g>
<defs>
<filter id="filter0_d_35_1151" x="0" y="0" width="108" height="108" filterUnits="userSpaceOnUse" color-interpolation-filters="sRGB">
<feFlood flood-opacity="0" result="BackgroundImageFix"/>
<feColorMatrix in="SourceAlpha" type="matrix" values="0 0 0 0 0 0 0 0 0 0 0 0 0 0 0 0 0 0 127 0" result="hardAlpha"/>
<feOffset dy="4"/>
<feGaussianBlur stdDeviation="2"/>
<feComposite in2="hardAlpha" operator="out"/>
<feColorMatrix type="matrix" values="0 0 0 0 0 0 0 0 0 0 0 0 0 0 0 0 0 0 0.25 0"/>
<feBlend mode="normal" in2="BackgroundImageFix" result="effect1_dropShadow_35_1151"/>
<feBlend mode="normal" in="SourceGraphic" in2="effect1_dropShadow_35_1151" result="shape"/>
</filter>
<clipPath id="clip0_35_1151">
<rect width="100" height="100" fill="white" transform="translate(4)"/>
</clipPath>
</defs>
</svg>
