<svg width="100" height="100" viewBox="0 0 100 100" fill="none" xmlns="http://www.w3.org/2000/svg">
<g filter="url(#filter0_d_35_952)">
<path d="M82.168 26.7676C82.0312 26.2695 81.4941 25.8594 80.9766 25.8594H75.4199C74.9023 25.8594 74.3652 26.2695 74.2285 26.7676L72.9785 31.2695C72.8418 31.7676 73.1543 32.1777 73.6719 32.1777H82.7246C83.2422 32.1777 83.5547 31.7676 83.418 31.2695L82.168 26.7676Z" fill="#A4A9AD"/>
<path d="M9.19922 64.9414V34.0234C9.19922 31.4355 11.3184 29.3066 13.916 29.3066H86.084C88.6719 29.3066 90.8008 31.4258 90.8008 34.0234V64.9414H9.19922Z" fill="#D1D3D3"/>
<path d="M90.791 64.9414V48.8184H9.19922V64.9414" fill="#00B3E3"/>
<path d="M9.19922 52.0605H90.791V54.8926H9.19922V52.0605Z" fill="#0071CE"/>
<path d="M93.7695 66.3672C93.7695 67.334 92.9785 68.125 92.0117 68.125H88.0664C87.0996 68.125 86.3086 67.334 86.3086 66.3672V63.5156C86.3086 62.5488 87.0996 61.7578 88.0664 61.7578H92.0117C92.9785 61.7578 93.7695 62.5488 93.7695 63.5156V66.3672ZM12.9297 66.3672C12.9297 67.334 12.1387 68.125 11.1719 68.125H7.98828C7.02148 68.125 6.23047 67.334 6.23047 66.3672V63.5156C6.23047 62.5488 7.02148 61.7578 7.98828 61.7578H11.1816C12.1484 61.7578 12.9395 62.5488 12.9395 63.5156L12.9297 66.3672Z" fill="#A4A9AD"/>
<path d="M40.0879 64.9414C40.0879 58.6035 34.9512 53.4668 28.6133 53.4668C22.2754 53.4668 17.1387 58.6035 17.1387 64.9414H40.0879Z" fill="black"/>
<path d="M19.1113 64.9414C19.1113 66.1892 19.3571 67.4248 19.8346 68.5776C20.3121 69.7305 21.012 70.778 21.8944 71.6603C22.7767 72.5426 23.8242 73.2425 24.977 73.7201C26.1299 74.1976 27.3655 74.4434 28.6133 74.4434C29.8611 74.4434 31.0967 74.1976 32.2495 73.7201C33.4024 73.2425 34.4498 72.5426 35.3322 71.6603C36.2145 70.778 36.9144 69.7305 37.3919 68.5776C37.8695 67.4248 38.1152 66.1892 38.1152 64.9414C38.1152 63.6936 37.8695 62.458 37.3919 61.3052C36.9144 60.1523 36.2145 59.1048 35.3322 58.2225C34.4498 57.3402 33.4024 56.6403 32.2495 56.1627C31.0967 55.6852 29.8611 55.4395 28.6133 55.4395C27.3655 55.4395 26.1299 55.6852 24.977 56.1627C23.8242 56.6403 22.7767 57.3402 21.8944 58.2225C21.012 59.1048 20.3121 60.1523 19.8346 61.3052C19.3571 62.458 19.1113 63.6936 19.1113 64.9414Z" fill="#333E48"/>
<path d="M23.7988 64.9414C23.7988 65.5736 23.9234 66.1997 24.1653 66.7838C24.4073 67.3679 24.7619 67.8987 25.209 68.3457C25.656 68.7928 26.1868 69.1474 26.7709 69.3894C27.355 69.6313 27.981 69.7559 28.6133 69.7559C29.2455 69.7559 29.8716 69.6313 30.4557 69.3894C31.0398 69.1474 31.5705 68.7928 32.0176 68.3457C32.4647 67.8987 32.8193 67.3679 33.0613 66.7838C33.3032 66.1997 33.4277 65.5736 33.4277 64.9414C33.4277 63.6645 32.9205 62.44 32.0176 61.5371C31.1147 60.6342 29.8902 60.127 28.6133 60.127C27.3364 60.127 26.1118 60.6342 25.209 61.5371C24.3061 62.44 23.7988 63.6645 23.7988 64.9414Z" fill="#A4A9AD"/>
<path d="M82.8613 64.9414C82.8613 58.6035 77.7246 53.4668 71.3867 53.4668C65.0488 53.4668 59.9023 58.6035 59.9023 64.9414H82.8613Z" fill="black"/>
<path d="M61.8848 64.9414C61.8848 66.1892 62.1305 67.4248 62.6081 68.5776C63.0856 69.7305 63.7855 70.778 64.6678 71.6603C65.5502 72.5426 66.5976 73.2425 67.7505 73.7201C68.9033 74.1976 70.1389 74.4434 71.3867 74.4434C72.6345 74.4434 73.8701 74.1976 75.023 73.7201C76.1758 73.2425 77.2233 72.5426 78.1056 71.6603C78.988 70.778 79.6879 69.7305 80.1654 68.5776C80.6429 67.4248 80.8887 66.1892 80.8887 64.9414C80.8887 63.6936 80.6429 62.458 80.1654 61.3052C79.6879 60.1523 78.988 59.1048 78.1056 58.2225C77.2233 57.3402 76.1758 56.6403 75.023 56.1627C73.8701 55.6852 72.6345 55.4395 71.3867 55.4395C70.1389 55.4395 68.9033 55.6852 67.7505 56.1627C66.5976 56.6403 65.5502 57.3402 64.6678 58.2225C63.7855 59.1048 63.0856 60.1523 62.6081 61.3052C62.1305 62.458 61.8848 63.6936 61.8848 64.9414Z" fill="#333E48"/>
<path d="M66.5723 64.9414C66.5723 66.2183 67.0795 67.4429 67.9824 68.3457C68.8853 69.2486 70.1098 69.7559 71.3867 69.7559C72.6636 69.7559 73.8882 69.2486 74.791 68.3457C75.6939 67.4429 76.2012 66.2183 76.2012 64.9414C76.2012 63.6645 75.6939 62.44 74.791 61.5371C73.8882 60.6342 72.6636 60.127 71.3867 60.127C70.1098 60.127 68.8853 60.6342 67.9824 61.5371C67.0795 62.44 66.5723 63.6645 66.5723 64.9414Z" fill="#A4A9AD"/>
<path d="M72.1289 42.3145C72.1289 43.1445 72.8027 43.8184 73.6328 43.8184H84.6094C85.4395 43.8184 86.1133 43.1445 86.1133 42.3145V35.7812C86.1133 34.9512 85.4395 34.2773 84.6094 34.2773H73.6328C72.8027 34.2773 72.1289 34.9609 72.1289 35.7812V42.3145Z" fill="#333E48"/>
<path d="M84.6094 34.2773H73.6328C72.8027 34.2773 72.1289 34.9609 72.1289 35.7812V37.7246C72.1289 36.8945 72.8027 36.2207 73.6328 36.2207H84.6094C85.4395 36.2207 86.1133 36.8945 86.1133 37.7246V35.7812C86.123 34.9512 85.4395 34.2773 84.6094 34.2773Z" fill="black"/>
<path d="M52.7148 42.3145C52.7148 43.1445 53.3887 43.8184 54.2188 43.8184H65.1953C66.0254 43.8184 66.6992 43.1445 66.6992 42.3145V35.7812C66.6992 34.9512 66.0254 34.2773 65.1953 34.2773H54.2188C53.3887 34.2773 52.7148 34.9609 52.7148 35.7812V42.3145Z" fill="#333E48"/>
<path d="M65.1953 34.2773H54.2188C53.3887 34.2773 52.7148 34.9609 52.7148 35.7812V37.7246C52.7148 36.8945 53.3887 36.2207 54.2188 36.2207H65.1953C66.0254 36.2207 66.6992 36.8945 66.6992 37.7246V35.7812C66.6992 34.9512 66.0254 34.2773 65.1953 34.2773Z" fill="black"/>
<path d="M33.291 42.3145C33.291 43.1445 33.9648 43.8184 34.7949 43.8184H45.7715C46.6016 43.8184 47.2754 43.1445 47.2754 42.3145V35.7812C47.2754 34.9512 46.6016 34.2773 45.7715 34.2773H34.8047C33.9746 34.2773 33.3008 34.9609 33.3008 35.7812V42.3145H33.291Z" fill="#333E48"/>
<path d="M45.7812 34.2773H34.8047C33.9746 34.2773 33.3008 34.9609 33.3008 35.7812V37.7246C33.3008 36.8945 33.9746 36.2207 34.8047 36.2207H45.7812C46.6113 36.2207 47.2852 36.8945 47.2852 37.7246V35.7812C47.2852 34.9512 46.6113 34.2773 45.7812 34.2773Z" fill="black"/>
<path d="M13.877 42.3145C13.877 43.1445 14.5508 43.8184 15.3809 43.8184H26.3574C27.1875 43.8184 27.8613 43.1445 27.8613 42.3145V35.7812C27.8613 34.9512 27.1875 34.2773 26.3574 34.2773H15.3809C14.5508 34.2773 13.877 34.9609 13.877 35.7812V42.3145Z" fill="#333E48"/>
<path d="M26.3574 34.2773H15.3809C14.5508 34.2773 13.877 34.9609 13.877 35.7812V37.7246C13.877 36.8945 14.5508 36.2207 15.3809 36.2207H26.3574C27.1875 36.2207 27.8613 36.8945 27.8613 37.7246V35.7812C27.8711 34.9512 27.1875 34.2773 26.3574 34.2773Z" fill="black"/>
<path d="M90.791 61.7676H86.7578C86.2402 61.7676 85.8105 61.3477 85.8105 60.8203V58.4277C85.8105 57.9102 86.2305 57.4805 86.7578 57.4805H90.791V61.7676ZM9.19922 61.7676H13.2324C13.75 61.7676 14.1797 61.3477 14.1797 60.8203V58.4277C14.1797 57.9102 13.7598 57.4805 13.2324 57.4805H9.19922V61.7676Z" fill="#FFB819"/>
</g>
<defs>
<filter id="filter0_d_35_952" x="-4" y="0" width="108" height="108" filterUnits="userSpaceOnUse" color-interpolation-filters="sRGB">
<feFlood flood-opacity="0" result="BackgroundImageFix"/>
<feColorMatrix in="SourceAlpha" type="matrix" values="0 0 0 0 0 0 0 0 0 0 0 0 0 0 0 0 0 0 127 0" result="hardAlpha"/>
<feOffset dy="4"/>
<feGaussianBlur stdDeviation="2"/>
<feComposite in2="hardAlpha" operator="out"/>
<feColorMatrix type="matrix" values="0 0 0 0 0 0 0 0 0 0 0 0 0 0 0 0 0 0 0.25 0"/>
<feBlend mode="normal" in2="BackgroundImageFix" result="effect1_dropShadow_35_952"/>
<feBlend mode="normal" in="SourceGraphic" in2="effect1_dropShadow_35_952" result="shape"/>
</filter>
</defs>
</svg>
