<svg width="100" height="108" viewBox="0 0 100 108" fill="none" xmlns="http://www.w3.org/2000/svg">
<g filter="url(#filter0_d_35_164)">
<path d="M83.4289 17.0443L77.1219 7.56112C73.9809 2.83808 68.6848 0 63.0128 0H57.3548H48.08H37.2921C36.0128 0 34.9759 1.03711 34.9759 2.31621V5.61015C34.9759 6.88944 33.9388 7.92635 32.6597 7.92635H27.7964C26.5171 7.92635 25.4802 6.88924 25.4802 5.61015V4.62616C25.4802 3.4371 24.5074 2.46425 23.3183 2.46425H18.733C17.5439 2.46425 16.571 3.4371 16.571 4.62616V19.2886C16.571 20.4777 17.5439 21.4505 18.733 21.4505H23.3179C24.507 21.4505 25.4798 20.4777 25.4798 19.2886V18.3047C25.4798 17.0254 26.5169 15.9884 27.796 15.9884H32.6593C33.9386 15.9884 34.9755 17.0256 34.9755 18.3047V21.5986C34.9755 22.8779 36.0126 23.9148 37.2917 23.9148H55.0382C56.3175 23.9148 57.3544 22.8777 57.3544 21.5986V15.859C57.3544 13.7043 59.101 11.9576 61.2557 11.9576H65.8256C67.7038 11.9576 69.5688 12.2697 71.3446 12.8816L83.4289 17.0443Z" fill="#ACAAB1"/>
<g opacity="0.63">
<path d="M22.7847 18.2437V19.2277C22.7847 20.4167 21.8119 21.3896 20.6228 21.3896H23.3181C24.5072 21.3896 25.48 20.4167 25.48 19.2277V18.2437C25.48 16.9644 26.5171 15.9275 27.7962 15.9275H25.1009C23.8216 15.9275 22.7847 16.9646 22.7847 18.2437Z" fill="#77757E"/>
</g>
<g opacity="0.63">
<path d="M80.5784 12.7582L69.2731 8.86347C67.4973 8.25176 65.6323 7.93945 63.7542 7.93945H59.1842C57.0296 7.93945 55.2829 9.68613 55.2829 11.8408V17.581C55.2829 18.8603 54.2458 19.8972 52.9667 19.8972H35.2202C35.1376 19.8972 35.0562 19.8926 34.9757 19.8842V21.599C34.9757 22.8783 36.0128 23.9152 37.2919 23.9152H55.0384C56.3177 23.9152 57.3546 22.8781 57.3546 21.599V15.859C57.3546 13.7043 59.1012 11.9576 61.2559 11.9576H65.8258C67.704 11.9576 69.569 12.2697 71.3448 12.8816L83.4287 17.0445L80.5784 12.7582Z" fill="#77757E"/>
</g>
<path d="M50.5159 99.997H42.8685C39.8113 99.997 37.3683 97.4529 37.4921 94.398L40.353 23.9152H53.0311L55.8921 94.398C56.0163 97.4529 53.5731 99.997 50.5159 99.997Z" fill="#EE8700"/>
<path d="M53.5288 36.1726H39.8556L40.0573 31.2044H53.327L53.5288 36.1726Z" fill="#CD2A00"/>
<path d="M39.0427 56.1962C39.5904 55.4649 40.1541 54.7679 40.7021 54.0901C42.5996 51.7437 44.2382 49.7173 44.2382 47.3978C44.2382 43.4449 40.9753 42.4374 39.6113 42.1892L39.7369 39.1015C42.5804 39.4732 47.3046 41.5763 47.3046 47.3978C47.3046 50.8021 45.2558 53.3357 43.0867 56.0183C41.3849 58.1226 39.6068 60.4011 38.7615 63.1243L39.0427 56.1962Z" fill="#AA6100"/>
<path d="M45.7796 99.9971C45.7539 98.9756 45.2576 74.9332 54.5648 61.6962L54.7939 67.3452C48.4414 80.2541 48.8394 99.7799 48.8449 99.9971H45.7796Z" fill="#AA6100"/>
<path d="M44.4017 99.9971C44.4017 81.6057 47.648 68.1124 50.3718 60.0311C51.7068 56.07 53.0497 52.987 54.1226 50.7948L53.8847 44.9376C53.8564 44.9724 53.8292 45.0085 53.8035 45.0462C53.6744 45.2363 50.5997 49.804 47.5175 58.8987C44.7082 67.188 41.3615 80.9975 41.3355 99.7758C41.3355 99.7758 42.0841 100.029 43.2341 99.9973H44.4019L44.4017 99.9971Z" fill="#AA6100"/>
<path d="M40.0574 10.2426C39.2107 10.2426 38.5242 9.55607 38.5242 8.70939V6.31799C38.5242 4.64924 39.8818 3.29163 41.5505 3.29163H46.3952C47.2419 3.29163 47.9284 3.97815 47.9284 4.82483C47.9284 5.6715 47.2419 6.35803 46.3952 6.35803H41.5908V8.70939C41.5906 9.55626 40.904 10.2426 40.0574 10.2426Z" fill="#D7D5D9"/>
<path opacity="0.52" d="M55.9032 94.3983L53.0423 23.9154H49.6175L52.3341 90.842C52.4581 93.8969 50.015 96.441 46.9577 96.441H39.3103C38.763 96.441 38.2359 96.3582 37.739 96.2067C38.416 98.3946 40.4535 99.9971 42.8794 99.9971H50.5269C53.5841 99.9971 56.0273 97.453 55.9032 94.3983Z" fill="#663A00"/>
<g opacity="0.52">
<path d="M53.0312 23.9152H40.3531L40.1199 29.6626H53.2644L53.0312 23.9152Z" fill="#663A00"/>
</g>
</g>
<defs>
<filter id="filter0_d_35_164" x="-4" y="0" width="108" height="108" filterUnits="userSpaceOnUse" color-interpolation-filters="sRGB">
<feFlood flood-opacity="0" result="BackgroundImageFix"/>
<feColorMatrix in="SourceAlpha" type="matrix" values="0 0 0 0 0 0 0 0 0 0 0 0 0 0 0 0 0 0 127 0" result="hardAlpha"/>
<feOffset dy="4"/>
<feGaussianBlur stdDeviation="2"/>
<feComposite in2="hardAlpha" operator="out"/>
<feColorMatrix type="matrix" values="0 0 0 0 0 0 0 0 0 0 0 0 0 0 0 0 0 0 0.25 0"/>
<feBlend mode="normal" in2="BackgroundImageFix" result="effect1_dropShadow_35_164"/>
<feBlend mode="normal" in="SourceGraphic" in2="effect1_dropShadow_35_164" result="shape"/>
</filter>
</defs>
</svg>
