<svg width="100" height="101" viewBox="0 0 100 101" fill="none" xmlns="http://www.w3.org/2000/svg">
<g clip-path="url(#clip0_35_91)" filter="url(#filter0_d_35_91)">
<mask id="mask0_35_91" style="mask-type:luminance" maskUnits="userSpaceOnUse" x="0" y="0" width="100" height="100">
<path d="M0 0H100V100H0V0Z" fill="white"/>
</mask>
<g mask="url(#mask0_35_91)">
<path d="M95.6234 64.6021C92.8708 81.1047 75.3023 92.1047 50.2418 92.1047C25.1813 92.1047 7.61552 81.1047 4.86552 64.6021C4.21552 60.71 5.27604 43.2337 7.6392 39.8495C14.3734 30.21 16.7813 67.1258 50.2418 67.1258C86.6839 67.1258 86.1392 30.21 92.8708 39.8495C95.2366 43.2337 96.2708 60.71 95.6234 64.6021Z" fill="#FFAC33"/>
<path d="M50.2429 53.6029C41.8902 53.6029 35.1166 51.7555 35.1166 49.4766C35.1166 47.1976 41.8902 45.3529 50.2429 45.3529C58.5929 45.3529 65.3692 47.1976 65.3692 49.4766C65.3692 51.7555 58.5929 53.6029 50.2429 53.6029ZM50.2429 18.4055C25.6876 18.4055 5.78235 30.4687 5.78235 45.3529C5.78235 60.2344 25.6876 72.2976 50.2429 72.2976C74.7955 72.2976 94.7034 60.2344 94.7034 45.3529C94.7034 30.4687 74.7955 18.4055 50.2429 18.4055Z" fill="#8A4B38"/>
<path d="M7.15716 41.1121C5.43874 43.8621 4.73611 55.57 8.41768 61.0516C14.0335 69.4173 16.7808 65.1752 20.9072 66.4384C27.0519 68.3173 27.5072 73.1726 32.3677 75.6042C37.8677 78.3542 41.0651 77.5542 48.8677 75.6042C59.8703 72.8542 66.8598 78.4673 73.6177 75.6042C79.1598 73.2542 82.3308 64.7173 85.423 63.6884C95.2335 60.4173 97.3045 44.941 90.0045 38.591C87.7151 43.4042 76.4861 60.7068 69.2677 61.5094C62.044 62.3121 40.3887 64.141 31.2229 59.4463C22.0545 54.7489 12.7729 48.9042 11.6256 47.3016C10.4808 45.6963 7.15716 41.1121 7.15716 41.1121Z" fill="#8A4B38"/>
<path d="M50.2429 39.164C40.3692 39.164 32.3666 42.3955 32.3666 46.3824C32.3666 47.935 33.585 49.364 35.6429 50.5403C35.3113 50.1982 35.1166 49.8455 35.1166 49.4771C35.1166 47.1982 41.8903 45.3534 50.2429 45.3534C58.5929 45.3534 65.3692 47.1982 65.3692 49.4771C65.3692 49.8455 65.1745 50.1982 64.8403 50.5403C66.9008 49.364 68.1192 47.935 68.1192 46.3824C68.1192 42.3955 60.1139 39.164 50.2429 39.164Z" fill="#F4900C"/>
<path d="M14.2629 50.3958C13.276 50.3958 12.3234 49.8616 11.8287 48.93C11.1181 47.5879 11.6313 45.9221 12.976 45.2142L19.0497 42.0037C20.3892 41.2879 22.055 41.8037 22.7655 43.1484C23.476 44.4905 22.9629 46.1563 21.6181 46.8642L15.5445 50.0748C15.1366 50.2932 14.6971 50.3958 14.2629 50.3958Z" fill="#F4ABBA"/>
<path d="M45.545 70.9061C44.4661 70.9061 43.4424 70.2692 43.0029 69.2061L41.0555 64.5061C40.474 63.1034 41.1424 61.4955 42.545 60.914C43.9503 60.335 45.5555 60.9982 46.1371 62.4061L48.0845 67.1061C48.6661 68.5087 48.0003 70.1166 46.595 70.6982C46.2529 70.8403 45.895 70.9061 45.545 70.9061Z" fill="#F4ABBA"/>
<path d="M76.7141 59.9045C76.2378 59.9045 75.7562 59.7808 75.3194 59.5203C74.0115 58.7518 73.5773 57.0624 74.351 55.7571L77.3273 50.715C78.0984 49.4097 79.7957 48.9755 81.0931 49.7466C82.401 50.5203 82.8352 52.2045 82.0615 53.5124L79.0826 58.5518C78.572 59.4203 77.6536 59.9045 76.7141 59.9045Z" fill="#55ACEE"/>
<path d="M81.2963 39.4737C79.8227 39.4737 78.6042 38.2079 78.5516 36.7211C78.499 35.2053 79.6858 33.8816 81.2016 33.8263L84.4069 33.6895C85.9516 33.6711 87.199 34.8132 87.2516 36.3316C87.3042 37.8474 86.1174 39.2132 84.6016 39.2684L81.3963 39.4737H81.2963Z" fill="#F4ABBA"/>
<path d="M54.7158 28.6224C53.5473 28.6224 52.4658 27.8724 52.0921 26.7013C51.6368 25.2513 52.4394 23.7066 53.8868 23.2487L56.0605 22.5618C57.521 22.1013 59.0526 22.9066 59.5105 24.354C59.971 25.804 59.1658 27.3487 57.721 27.8066L55.5447 28.4934C55.2684 28.5803 54.9894 28.6224 54.7158 28.6224Z" fill="#F4ABBA"/>
<path d="M39.4674 33.09C39.0543 33.09 38.6358 32.9952 38.2411 32.8005L36.1779 31.7689C34.82 31.09 34.2674 29.4373 34.9464 28.0794C35.6253 26.7215 37.2779 26.1689 38.6385 26.8479L40.699 27.8794C42.0569 28.5584 42.6095 30.2084 41.9306 31.5689C41.449 32.5321 40.4779 33.09 39.4674 33.09Z" fill="#88C9F9"/>
<path d="M63.42 68.0355C63.0094 68.0355 62.591 67.9434 62.1963 67.7487L60.1331 66.7197C58.7726 66.0408 58.22 64.3908 58.8963 63.0329C59.5726 61.6697 61.2226 61.1197 62.5857 61.796L64.6489 62.825C66.0068 63.5013 66.5594 65.1513 65.8857 66.5118C65.4042 67.4776 64.4305 68.0355 63.42 68.0355Z" fill="#88C9F9"/>
<path d="M27.4376 61.9681C27.0745 61.9681 26.7087 61.8997 26.3534 61.7445C24.9587 61.1471 24.314 59.5287 24.9113 58.1339L25.9429 55.7287C26.5429 54.3366 28.1613 53.6787 29.5561 54.2866C30.9508 54.8866 31.5982 56.5024 30.9982 57.8971L29.9666 60.3024C29.5192 61.3445 28.5034 61.9681 27.4376 61.9681Z" fill="#55ACEE"/>
<path d="M68.4673 35.9555C67.4068 35.9555 66.3963 35.3397 65.9463 34.3081C65.3384 32.916 65.9726 31.295 67.3621 30.6845L69.1937 29.8818C70.591 29.2713 72.2094 29.9081 72.8147 31.3002C73.4252 32.6923 72.791 34.3134 71.3989 34.9213L69.5673 35.7239C69.2068 35.8818 68.8358 35.9555 68.4673 35.9555Z" fill="#55ACEE"/>
<path d="M23.7756 35.8411C23.5703 35.8411 23.3624 35.8174 23.1572 35.77L21.6677 35.4279C20.1861 35.0858 19.2624 33.6095 19.6045 32.1305C19.944 30.649 21.4229 29.7279 22.8993 30.0674L24.3887 30.4095C25.8703 30.7516 26.794 32.2279 26.4545 33.7069C26.1598 34.9805 25.0282 35.8411 23.7756 35.8411Z" fill="#55ACEE"/>
</g>
</g>
<defs>
<filter id="filter0_d_35_91" x="-4" y="0" width="108" height="108" filterUnits="userSpaceOnUse" color-interpolation-filters="sRGB">
<feFlood flood-opacity="0" result="BackgroundImageFix"/>
<feColorMatrix in="SourceAlpha" type="matrix" values="0 0 0 0 0 0 0 0 0 0 0 0 0 0 0 0 0 0 127 0" result="hardAlpha"/>
<feOffset dy="4"/>
<feGaussianBlur stdDeviation="2"/>
<feComposite in2="hardAlpha" operator="out"/>
<feColorMatrix type="matrix" values="0 0 0 0 0 0 0 0 0 0 0 0 0 0 0 0 0 0 0.25 0"/>
<feBlend mode="normal" in2="BackgroundImageFix" result="effect1_dropShadow_35_91"/>
<feBlend mode="normal" in="SourceGraphic" in2="effect1_dropShadow_35_91" result="shape"/>
</filter>
<clipPath id="clip0_35_91">
<rect width="100" height="100" fill="white"/>
</clipPath>
</defs>
</svg>
