<?xml version="1.0" encoding="UTF-8"?>
<!DOCTYPE svg PUBLIC "-//W3C//DTD SVG 1.1//EN" "http://www.w3.org/Graphics/SVG/1.1/DTD/svg11.dtd">
<!-- Creator: CorelDRAW -->
<svg xmlns="http://www.w3.org/2000/svg" xml:space="preserve" width="6.82666in" height="6.82666in" style="shape-rendering:geometricPrecision; text-rendering:geometricPrecision; image-rendering:optimizeQuality; fill-rule:evenodd; clip-rule:evenodd"
viewBox="0 0 6.82666 6.82666"
 xmlns:xlink="http://www.w3.org/1999/xlink">
 <defs>
  <style type="text/css">
   <![CDATA[
    .fil3 {fill:none}
    .fil2 {fill:#424242}
    .fil0 {fill:#64B5F6}
    .fil1 {fill:#64B5F6;fill-rule:nonzero}
   ]]>
  </style>
 </defs>
 <g id="Layer_x0020_1">
  <metadata id="CorelCorpID_0Corel-Layer"/>
  <ellipse class="fil0" transform="matrix(-2.12361 0.569019 0.75544 2.81934 4.00541 2.90788)" rx="0.104165" ry="0.0583307"/>
  <path class="fil0" d="M3.41333 4.24054c-0.316118,0.0162047 -0.441744,-0.348531 -0.441744,-0.348531 0.117531,-0.235059 0.421476,0.0364724 0.441744,0.0364724 0.0202638,0 0.324213,-0.271531 0.44174,-0.0364724 0,0 -0.125622,0.364736 -0.44174,0.348531z"/>
  <path class="fil0" d="M3.30435 4.47415l0 -0.246102c0,-0.0493386 0.048815,-0.0893661 0.108984,-0.0893661 0.0601693,0 0.108984,0.0400276 0.108984,0.0893661l0 0.246102c0,0.0493386 -0.048815,0.0893661 -0.108984,0.0893661 -0.0601693,0 -0.108984,-0.0400276 -0.108984,-0.0893661z"/>
  <g id="_276288784">
   <path id="_276289072" class="fil0" d="M3.80791 4.79561l-7.48031e-005 0.00205512 0.0461181 0.00207087c0.0115591,0.000519685 0.00605118,0.000220472 0.0141575,-0.000629921 0.142961,-0.0149961 0.274886,-0.0785276 0.38602,-0.183512 0.0345118,-0.0325984 0.0669213,-0.0690827 0.0956654,-0.108539 0.0112874,-0.0154961 0.0248307,-0.0345906 0.0340157,-0.052 0.0269331,-0.0510354 0.0130866,-0.118465 -0.0308386,-0.149819 -0.0439449,-0.0313661 -0.102079,-0.0152559 -0.129087,0.0357756 -0.0236732,0.0447323 -0.056622,0.0868937 -0.0908386,0.120819 -0.078437,0.0777677 -0.171823,0.120142 -0.275469,0.120142 -0.103642,0 -0.197031,-0.042374 -0.275465,-0.120142 -0.0342165,-0.0339252 -0.0671693,-0.0760866 -0.0908425,-0.120819 -0.0270039,-0.0510315 -0.0851417,-0.0671417 -0.129087,-0.0357756 -0.0439331,0.0313583 -0.0577874,0.0988189 -0.0308228,0.14985 0.0312598,0.0596929 0.0848425,0.123909 0.130614,0.168102 0.100157,0.0967008 0.21778,0.156177 0.345933,0.172421z"/>
   <path id="_276288904" class="fil0" d="M2.91942 4.79561l-7.48031e-005 0.00205512 0.0461142 0.00207087c0.0115591,0.000519685 0.00605512,0.000220472 0.0141614,-0.000629921 0.142961,-0.0149961 0.274886,-0.0785276 0.38602,-0.183512 0.0345079,-0.0325984 0.0669213,-0.0690827 0.0956614,-0.108539 0.0112913,-0.0154961 0.0248346,-0.0345906 0.0340197,-0.052 0.0269291,-0.0510354 0.0130866,-0.118465 -0.0308386,-0.149819 -0.0439449,-0.0313661 -0.102083,-0.0152559 -0.129087,0.0357756 -0.0236732,0.0447323 -0.056622,0.0868937 -0.0908425,0.120819 -0.0784331,0.0777677 -0.171823,0.120142 -0.275465,0.120142 -0.103646,0 -0.197031,-0.042374 -0.275469,-0.120142 -0.0342165,-0.0339252 -0.0671654,-0.0760866 -0.0908386,-0.120819 -0.0270079,-0.0510315 -0.0851417,-0.0671417 -0.129087,-0.0357756 -0.043937,0.0313583 -0.0577913,0.0988189 -0.0308268,0.14985 0.0312638,0.0596929 0.0848465,0.123909 0.130614,0.168102 0.100157,0.0967008 0.217783,0.156177 0.345937,0.172421z"/>
  </g>
  <path class="fil1" d="M2.99948 2.94702c-0.0250866,-0.0175276 -0.0596457,-0.0113976 -0.0771732,0.0136929 -0.0175236,0.0250866 -0.0113937,0.0596457 0.0136929,0.0771732 0.000322835,0.000224409 0.113587,0.0785 0.098626,0.148791 -0.0063622,0.0300157 0.012811,0.0595079 0.0428228,0.0658701 0.0300157,0.00636614 0.0595079,-0.0128071 0.0658701,-0.0428228 0.0304016,-0.142795 -0.143346,-0.262358 -0.143839,-0.262705z"/>
  <path class="fil1" d="M3.88613 3.03789c0.0250866,-0.0175276 0.0312165,-0.0520866 0.0136929,-0.0771732 -0.0175276,-0.0250906 -0.0520866,-0.0312205 -0.0771732,-0.0136929 -0.000492126,0.000346457 -0.17424,0.119909 -0.143835,0.262705 0.0063622,0.0300157 0.0358543,0.049189 0.0658701,0.0428228 0.0300118,-0.0063622 0.049185,-0.0358543 0.0428228,-0.0658701 -0.0149646,-0.0702953 0.0982992,-0.148567 0.098622,-0.148791z"/>
  <ellipse class="fil0" transform="matrix(2.12361 0.569019 -0.75544 2.81934 2.82125 2.90788)" rx="0.104165" ry="0.0583307"/>
  <path class="fil2" d="M2.39617 5.21238c-0.242803,0.203437 -0.157496,0.531543 -0.157496,0.531543 -0.30187,-0.170622 -0.354362,-0.997476 -0.354362,-0.997476l-0.34124 0.288744c-0.839976,-1.22059 0.134539,-2.62986 0.134539,-2.62986l-0.237823 0.0196811c-0.124681,-0.629984 0.649669,-0.908894 0.649669,-0.908894l-0.262488 -0.14765c0.387177,-0.32811 0.974508,-0.019685 0.974508,-0.019685 0.00656299,-0.190303 -0.449524,-0.495457 -0.449524,-0.495457 0.731705,0.00327559 1.02373,0.518421 1.06138,0.518421 0.0376496,0 0.329673,-0.515146 1.06138,-0.518421 0,0 -0.456087,0.305154 -0.449524,0.495457 0,0 0.587331,-0.308425 0.974508,0.019685l-0.262488 0.14765c0,0 0.77435,0.278909 0.649669,0.908894l-0.237823 -0.0196811c0,0 0.974516,1.40927 0.134539,2.62986l-0.34124 -0.288744c0,0 -0.0524921,0.826854 -0.354362,0.997476 0,0 0.0853071,-0.328106 -0.157496,-0.531543 -0.780465,1.01459 -1.25386,1.01459 -2.03432,0zm1.01716 -0.125634c0.696969,0.0609016 0.906732,-1.19093 0.906732,-1.19093 0.595472,-1.10297 -0.270669,-1.75257 -0.270669,-1.75257 -0.358634,-0.216531 -0.534563,0.243598 -0.636063,0.243598 -0.1015,0 -0.277429,-0.46013 -0.636067,-0.243598 0,0 -0.866138,0.649598 -0.270669,1.75257 0,0 0.209764,1.25183 0.906736,1.19093z"/>
 </g>
 <rect class="fil3" width="6.82666" height="6.82666"/>
</svg>
