<?xml version="1.0" encoding="UTF-8"?>
<!DOCTYPE svg PUBLIC "-//W3C//DTD SVG 1.1//EN" "http://www.w3.org/Graphics/SVG/1.1/DTD/svg11.dtd">
<!-- Creator: CorelDRAW -->
<svg xmlns="http://www.w3.org/2000/svg" xml:space="preserve" width="6.82666in" height="6.82666in" style="shape-rendering:geometricPrecision; text-rendering:geometricPrecision; image-rendering:optimizeQuality; fill-rule:evenodd; clip-rule:evenodd"
viewBox="0 0 6.82666 6.82666"
 xmlns:xlink="http://www.w3.org/1999/xlink">
 <defs>
  <style type="text/css">
   <![CDATA[
    .fil3 {fill:none}
    .fil2 {fill:#424242}
    .fil1 {fill:#64B5F6}
    .fil0 {fill:#64B5F6;fill-rule:nonzero}
   ]]>
  </style>
 </defs>
 <g id="Layer_x0020_1">
  <metadata id="CorelCorpID_0Corel-Layer"/>
  <path class="fil0" d="M3.7006 2.19253c0.190295,0.0771811 0.447736,0.162681 0.738744,0.20876 0.259193,0.0410433 0.544634,0.0508031 0.832878,-0.00406693 0.0602677,-0.0112874 0.0999843,-0.0692992 0.0886969,-0.129567 -0.0112835,-0.0602638 -0.0692953,-0.0999803 -0.129563,-0.0886929 -0.261008,0.049685 -0.52074,0.0406457 -0.757232,0.00319685 -0.31578,-0.05 -0.590756,-0.150665 -0.773524,-0.230677l0 0.241047z"/>
  <path class="fil0" d="M3.12581 1.95148c-0.149402,0.0653583 -0.360957,0.144614 -0.607319,0.198827 -0.278626,0.0613189 -0.600587,0.0901181 -0.923433,0.0286614 -0.0602677,-0.0112874 -0.11828,0.0284291 -0.129567,0.0886929 -0.0112835,0.0602677 0.0284291,0.11828 0.0886969,0.129567 0.357339,0.0680236 0.709307,0.0371142 1.01213,-0.0295315 0.216744,-0.0477008 0.408949,-0.113988 0.559492,-0.175118l0 -0.241098z"/>
  <path class="fil1" d="M5.25229 4.10186l-0.721039 0c0,0.39822 0.322819,0.721043 0.721039,0.721043 0.398224,0 0.721043,-0.322823 0.721043,-0.721043l-0.721043 0z"/>
  <path class="fil0" d="M4.62107 4.07099c-0.0170433,0.0588268 0.0168228,0.120346 0.0756535,0.13739 0.0588268,0.0170433 0.120343,-0.0168228 0.13739,-0.0756535l0.418181 -1.44555 0.418181 1.44555c0.0170472,0.0588307 0.078563,0.0926969 0.13739,0.0756535 0.0588307,-0.0170433 0.0926969,-0.078563 0.0756535,-0.13739l-0.522012 -1.80447c-0.00784252,-0.0395118 -0.0369173,-0.073378 -0.0782795,-0.0853465 -0.0590472,-0.0170827 -0.120768,0.0169409 -0.13785,0.0759882l0.000385827 0.000110236 -0.524693 1.81372z"/>
  <path class="fil1" d="M1.57437 4.10186l-0.721043 0c0,0.39822 0.322823,0.721043 0.721043,0.721043 0.39822,0 0.721043,-0.322823 0.721043,-0.721043l-0.721043 0z"/>
  <path class="fil0" d="M0.943154 4.07099c-0.0170433,0.0588268 0.0168228,0.120346 0.0756535,0.13739 0.0588268,0.0170433 0.120343,-0.0168228 0.13739,-0.0756535l0.418181 -1.44555 0.418177 1.44555c0.0170472,0.0588307 0.078563,0.0926969 0.13739,0.0756535 0.0588307,-0.0170433 0.0926969,-0.078563 0.0756535,-0.13739l-0.522012 -1.80447c-0.00784252,-0.0395118 -0.0369173,-0.073378 -0.0782795,-0.0853465 -0.0590472,-0.0170827 -0.120768,0.0169409 -0.13785,0.0759882l0.000385827 0.000110236 -0.524689 1.81372z"/>
  <circle class="fil2" cx="3.41321" cy="1.34606" r="0.307288"/>
  <polygon class="fil2" points="3.58263,1.54454 3.59394,1.54454 3.59394,5.1363 3.23248,5.1363 3.23248,1.54454 3.2438,1.54454 "/>
  <g id="_276290992">
   <rect id="_276291448" class="fil2" x="2.45802" y="5.08297" width="1.91039" height="0.379125"/>
   <rect id="_276290872" class="fil2" x="2.01492" y="5.40876" width="2.79659" height="0.379125"/>
  </g>
 </g>
 <rect class="fil3" width="6.82666" height="6.82666"/>
</svg>
