<?xml version="1.0" encoding="UTF-8"?>
<!DOCTYPE svg PUBLIC "-//W3C//DTD SVG 1.1//EN" "http://www.w3.org/Graphics/SVG/1.1/DTD/svg11.dtd">
<!-- Creator: CorelDRAW -->
<svg xmlns="http://www.w3.org/2000/svg" xml:space="preserve" width="6.82666in" height="6.82666in" style="shape-rendering:geometricPrecision; text-rendering:geometricPrecision; image-rendering:optimizeQuality; fill-rule:evenodd; clip-rule:evenodd"
viewBox="0 0 6.82666 6.82666"
 xmlns:xlink="http://www.w3.org/1999/xlink">
 <defs>
  <style type="text/css">
   <![CDATA[
    .fil2 {fill:none}
    .fil0 {fill:#424242}
    .fil1 {fill:#64B5F6}
   ]]>
  </style>
 </defs>
 <g id="Layer_x0020_1">
  <metadata id="CorelCorpID_0Corel-Layer"/>
  <path class="fil0" d="M2.51192 4.71427c-0.541181,-0.250051 -0.745827,-0.766992 -0.773248,-1.00707 -0.138646,-1.2137 0.954713,-2.10557 0.954713,-2.10557 -0.304657,1.24561 0.0495197,1.57486 0.506413,2.09372 -0.0944213,0.048622 -0.22015,0.076248 -0.33811,0.102165 -0.165122,0.0362717 -0.316681,0.0695787 -0.383909,0.159929 -0.117433,0.157835 -0.0370709,0.509713 0.0341417,0.756835z"/>
  <path class="fil0" d="M2.68388 1.62528c0.168169,-0.589858 0.866728,-0.370606 0.866728,-0.370606 0,0 -0.139984,0.577807 -0.866728,0.370606z"/>
  <path class="fil0" d="M2.68388 1.62528c0.168173,-0.589858 -0.540976,-0.771953 -0.540976,-0.771953 0,0 -0.185768,0.564752 0.540976,0.771953z"/>
  <polygon class="fil0" points="2.269,4.56986 1.49051,4.26289 1.83872,3.93366 "/>
  <path class="fil0" d="M4.31474 2.11239c0.541181,0.250051 0.745827,0.766992 0.773248,1.00707 0.138646,1.2137 -0.954713,2.10557 -0.954713,2.10557 0.304657,-1.24561 -0.0495197,-1.57486 -0.506413,-2.09372 0.0944213,-0.048622 0.22015,-0.076248 0.33811,-0.102165 0.165122,-0.0362717 0.316681,-0.0695787 0.383909,-0.159929 0.117433,-0.157835 0.0370709,-0.509713 -0.0341417,-0.756835z"/>
  <path class="fil0" d="M4.14278 5.20138c-0.168169,0.589858 -0.866728,0.370606 -0.866728,0.370606 0,0 0.139984,-0.577807 0.866728,-0.370606z"/>
  <path class="fil0" d="M4.14278 5.20138c-0.168173,0.589858 0.540976,0.771953 0.540976,0.771953 0,0 0.185768,-0.564752 -0.540976,-0.771953z"/>
  <polygon class="fil0" points="4.55766,2.2568 5.33615,2.56377 4.98794,2.893 "/>
  <path class="fil1" d="M3.42712 3.96655c-0.0512441,-0.0656339 -0.102343,-0.12698 -0.152594,-0.185437 -0.111047,0.063937 -0.254811,0.0955236 -0.389366,0.125087 -0.143961,0.031626 -0.276091,0.0606614 -0.318248,0.117319 -0.0999606,0.134346 0.00801181,0.518268 0.0764291,0.743543 0.171075,0.0592283 0.370988,0.0929252 0.60376,0.0879134 0.245461,-0.00527953 0.387386,-0.0552441 0.453224,-0.137559 -0.0217756,-0.0149488 -0.0683071,-0.0421063 -0.11728,-0.0706811 -0.0722756,-0.0421811 -0.149575,-0.0872953 -0.173756,-0.111476 -0.0108622,-0.0108622 -0.0108622,-0.0284843 0,-0.0393465 0.0108622,-0.0108622 0.0284882,-0.0108622 0.0393504,0 0.0191457,0.0191457 0.0932087,0.062374 0.162449,0.10278 0.0458071,0.0267323 0.089622,0.0522992 0.117429,0.0714724 0.0692283,-0.163921 -0.0803504,-0.42052 -0.301398,-0.703614zm-0.535165 0.457343c0.0342441,-0.0305 0.0867323,-0.0274646 0.117232,0.00677953 0.0305039,0.034248 0.0274646,0.0867323 -0.00677953,0.117232 -0.034248,0.0305039 -0.0867283,0.0274685 -0.117232,-0.00677953 -0.0305,-0.0342441 -0.0274646,-0.0867323 0.00677953,-0.117232z"/>
  <path class="fil1" d="M3.39954 2.86011c0.0512441,0.0656339 0.102343,0.12698 0.152594,0.185437 0.111047,-0.063937 0.254811,-0.0955236 0.389366,-0.125087 0.143961,-0.031626 0.276091,-0.0606614 0.318248,-0.117319 0.0999606,-0.134346 -0.00801181,-0.518268 -0.0764291,-0.743543 -0.171075,-0.0592283 -0.370988,-0.0929252 -0.60376,-0.0879134 -0.245461,0.00527953 -0.387386,0.0552441 -0.453224,0.137559 0.0217756,0.0149488 0.0683071,0.0421063 0.11728,0.0706811 0.0722756,0.0421811 0.149575,0.0872953 0.173756,0.111476 0.0108622,0.0108622 0.0108622,0.0284843 0,0.0393465 -0.0108622,0.0108622 -0.0284882,0.0108622 -0.0393504,0 -0.0191457,-0.0191457 -0.0932087,-0.062374 -0.162449,-0.10278 -0.0458071,-0.0267323 -0.089622,-0.0522992 -0.117429,-0.0714724 -0.0692283,0.163921 0.0803504,0.42052 0.301398,0.703614zm0.417933 -0.464122c-0.0305039,-0.034248 -0.0274646,-0.0867323 0.00677953,-0.117232 0.034248,-0.0305039 0.0867283,-0.0274685 0.117232,0.00677953 0.0305,0.0342441 0.0274646,0.0867323 -0.00677953,0.117232 -0.0342441,0.0305 -0.0867323,0.0274646 -0.117232,-0.00677953z"/>
 </g>
 <rect class="fil2" width="6.82666" height="6.82666"/>
</svg>
