<?xml version="1.0" encoding="UTF-8"?>
<!DOCTYPE svg PUBLIC "-//W3C//DTD SVG 1.1//EN" "http://www.w3.org/Graphics/SVG/1.1/DTD/svg11.dtd">
<!-- Creator: CorelDRAW -->
<svg xmlns="http://www.w3.org/2000/svg" xml:space="preserve" width="6.82666in" height="6.82666in" style="shape-rendering:geometricPrecision; text-rendering:geometricPrecision; image-rendering:optimizeQuality; fill-rule:evenodd; clip-rule:evenodd"
viewBox="0 0 6.82666 6.82666"
 xmlns:xlink="http://www.w3.org/1999/xlink">
 <defs>
  <style type="text/css">
   <![CDATA[
    .fil3 {fill:none}
    .fil1 {fill:#424242}
    .fil0 {fill:#64B5F6}
    .fil2 {fill:#424242;fill-rule:nonzero}
   ]]>
  </style>
 </defs>
 <g id="Layer_x0020_1">
  <metadata id="CorelCorpID_0Corel-Layer"/>
  <path class="fil0" d="M3.17489 3.2425c-0.711067,-1.1487 0.652917,-2.76396 2.07176,-1.91265 0,0 -0.566815,0.324976 -1.20165,0.309862l0.264516 0.415665 -0.725528 0.105811c0,0 -0.460413,0.410961 -0.127287,0.905051 -0.0964724,0.0483307 -0.191358,0.108949 -0.281807,0.176264z"/>
  <path class="fil0" d="M3.80074 3.87654c1.14991,0.741717 2.79084,-0.630665 1.93422,-2.05839 0,0 -0.324976,0.566811 -0.309862,1.20165l-0.415669 -0.264516 -0.105807 0.725528c0,0 -0.422185,0.473102 -0.925209,0.113386 -0.0488228,0.0967047 -0.109929,0.19178 -0.177669,0.282335z"/>
  <ellipse class="fil1" transform="matrix(1.0198 1.0198 -0.929443 0.929443 3.20316 3.84358)" rx="0.254165" ry="0.779169"/>
  <path class="fil2" d="M2.15298 2.89783c-0.0339606,-0.0043622 -0.0650276,0.0196339 -0.0693937,0.0535906 -0.0043622,0.0339606 0.0196339,0.0650315 0.0535945,0.0693937 0.00240157,0.000311024 0.838819,0.10389 0.84539,0.52348 0.000476378,0.0342402 0.028626,0.061626 0.0628661,0.0611496 0.0342441,-0.000480315 0.061626,-0.0286299 0.0611496,-0.0628701 -0.00827165,-0.528283 -0.950898,-0.644394 -0.953606,-0.644744z"/>
  <path class="fil2" d="M1.87832 3.20036c-0.0339606,-0.00436614 -0.0650315,0.0196299 -0.0693937,0.0535906 -0.0043622,0.0339567 0.0196299,0.0650276 0.0535906,0.0693898 0.00240157,0.000314961 0.838819,0.10389 0.845386,0.52348 0.000476378,0.0342441 0.028626,0.061626 0.0628661,0.0611496 0.0342441,-0.000476378 0.061626,-0.028626 0.0611496,-0.0628701 -0.00826378,-0.528283 -0.950894,-0.64439 -0.953598,-0.64474z"/>
  <path class="fil2" d="M1.6164 3.60019c-0.0339606,-0.0043622 -0.0650315,0.0196299 -0.0693937,0.0535906 -0.0043622,0.0339606 0.0196299,0.0650315 0.0535906,0.0693937 0.00240157,0.000311024 0.838827,0.103886 0.84539,0.52348 0.000480315,0.0342402 0.0286299,0.061622 0.0628701,0.0611457 0.0342402,-0.000476378 0.061626,-0.028626 0.0611496,-0.0628661 -0.00826772,-0.528283 -0.950902,-0.644394 -0.953606,-0.644744z"/>
  <path class="fil2" d="M4.02519 4.90882c0.0043622,0.0339606 0.0354331,0.0579567 0.0693898,0.0535945 0.0339606,-0.00436614 0.0579567,-0.0354331 0.0535945,-0.0693937 -0.000350394,-0.00270866 -0.116465,-0.945339 -0.644748,-0.953602 -0.0342402,-0.000476378 -0.0623898,0.0269055 -0.0628701,0.0611457 -0.000476378,0.0342441 0.0269094,0.0623937 0.0611496,0.0628701 0.419591,0.00656693 0.523173,0.842984 0.523484,0.845386z"/>
  <path class="fil2" d="M3.72266 5.18348c0.0043622,0.0339567 0.0354331,0.0579528 0.0693937,0.0535906 0.0339606,-0.0043622 0.0579528,-0.0354331 0.0535906,-0.0693937 -0.000350394,-0.00270866 -0.116465,-0.945335 -0.644748,-0.953602 -0.0342402,-0.000476378 -0.0623898,0.0269055 -0.0628661,0.0611496 -0.000476378,0.0342402 0.0269055,0.0623898 0.0611457,0.0628661 0.419594,0.00656693 0.523173,0.842988 0.523484,0.84539z"/>
  <path class="fil2" d="M3.32283 5.44541c0.0043622,0.0339606 0.0354331,0.0579528 0.0693937,0.0535906 0.0339606,-0.0043622 0.0579528,-0.0354331 0.0535906,-0.0693937 -0.000350394,-0.00270472 -0.116461,-0.945335 -0.644744,-0.953606 -0.0342402,-0.000476378 -0.0623898,0.0269055 -0.0628661,0.0611496 -0.000480315,0.0342402 0.0269055,0.0623898 0.0611457,0.0628661 0.419594,0.00656693 0.523169,0.842992 0.52348,0.845394z"/>
  <path class="fil1" d="M2.45591 4.33164c0,0 0.139106,0.158835 0.218449,0.173091l-0.00988189 0.489087c0,0 -0.185854,0.122213 -0.282264,-0.0696535l0.0736969 -0.592524z"/>
  <path class="fil1" d="M2.41161 5.07069c0,0 0.147717,0.0956299 0.228154,0.0676063 0,0 -0.0851496,0.392138 -0.251051,0.4345 0,0 -0.242236,-0.0947087 -0.103307,-0.207437l0.126205 -0.294669z"/>
  <path class="fil1" d="M2.13181 5.45907c0,0 -0.248059,0.120752 -0.418815,0.0107362l-0.0882992 0.189382c0,0 0.374594,0.153307 0.623232,0.0244606l-0.116118 -0.224579z"/>
  <polygon class="fil1" points="1.25613,5.06934 1.59869,5.4119 1.52183,5.58235 1.10053,5.21746 "/>
  <path class="fil1" d="M1.12554 5.06892c0,0 -0.0736732,0.0998937 -0.141917,-0.0377835l-0.116248 -0.359228c0,0 0.0215433,-0.060878 0.0947402,-0.0722992 0,0 0.0815039,-0.0150551 0.0893228,0.0697913 -0.00492913,0.105665 0.165839,0.334795 0.0741024,0.39952z"/>
  <path class="fil1" d="M1.61456 3.9755c0,0 -0.359846,-0.038374 -0.446874,0.137398l0.0392402 0.224012 -0.19302 -0.0785315c0,0 -0.105984,0.161362 -0.00389764,0.276413 0,0 -0.123047,0.0700276 -0.15487,-0.00185039 0,0 -0.0761732,-0.783583 0.759421,-0.557441z"/>
 </g>
 <rect class="fil3" width="6.82666" height="6.82666"/>
</svg>
