<?xml version="1.0" encoding="UTF-8"?>
<!DOCTYPE svg PUBLIC "-//W3C//DTD SVG 1.1//EN" "http://www.w3.org/Graphics/SVG/1.1/DTD/svg11.dtd">
<!-- Creator: CorelDRAW -->
<svg xmlns="http://www.w3.org/2000/svg" xml:space="preserve" width="6.82666in" height="6.82666in" style="shape-rendering:geometricPrecision; text-rendering:geometricPrecision; image-rendering:optimizeQuality; fill-rule:evenodd; clip-rule:evenodd"
viewBox="0 0 6.82666 6.82666"
 xmlns:xlink="http://www.w3.org/1999/xlink">
 <defs>
  <style type="text/css">
   <![CDATA[
    .fil2 {fill:none}
    .fil1 {fill:#424242}
    .fil0 {fill:#64B5F6}
   ]]>
  </style>
 </defs>
 <g id="Layer_x0020_1">
  <metadata id="CorelCorpID_0Corel-Layer"/>
  <path class="fil0" d="M2.67998 2.30148c-0.508559,-0.153067 -0.918075,-0.630177 -1.0864,-0.851953 -0.0372165,0.662063 0.428657,1.11493 0.582453,1.24566 0.126843,-0.211177 0.313488,-0.329445 0.503945,-0.393705z"/>
  <path class="fil0" d="M4.65065 2.69524c0.153732,-0.130665 0.619736,-0.583559 0.582512,-1.24571 -0.168327,0.221783 -0.577854,0.698909 -1.08644,0.851965 0.190453,0.0642677 0.377094,0.182555 0.503925,0.393748z"/>
  <path class="fil1" d="M2.00056 3.55748l0 0zm2.82557 -3.93701e-005l0 0zm0.203283 -0.212965l-0.326205 -0.233c-0.0124921,-0.00759843 -0.0218504,-0.020248 -0.0248189,-0.0357362l8.66142e-005 -4.33071e-005c-0.100984,-0.526567 -0.490012,-0.686772 -0.808551,-0.726677 -0.00554724,0.000220472 -0.0111024,0.000389764 -0.0166614,0.000515748 -0.00844094,0.000165354 -0.0164606,-0.00163386 -0.023622,-0.00497638 -0.205421,-0.0198268 -0.373642,0.00798425 -0.402244,0.0131339 -0.00755906,0.00205906 -0.015689,0.00248819 -0.0239094,0.000956693l3.14961e-005 -0.000173228c-0.00375197,-0.000720472 -0.18311,-0.0354646 -0.406429,-0.0139055 -0.00716142,0.00333465 -0.0151732,0.00512992 -0.0236024,0.00496457 -0.00554331,-0.000125984 -0.0110787,-0.000295276 -0.0166063,-0.000515748 -0.318118,0.0398386 -0.706571,0.199634 -0.808232,0.724484 -0.00206299,0.0139016 -0.00954724,0.0269764 -0.0218819,0.0357874l-0.000165354 -6.29921e-005 -0.326146 0.232957c-0.011122,0.00924409 -0.0259173,0.0139921 -0.041378,0.011937l2.3622e-005 -0.000181102c-0.00690157,-0.000944882 -0.74926,-0.103472 -0.905772,0.403307 0.221189,-0.00554724 0.911972,-0.0358701 1.1472,-0.199807 0.0243071,-0.016937 0.057752,-0.0109724 0.074689,0.0133386 0.00842913,0.0120945 0.0111811,0.0264449 0.00883465,0.0399055 -0.00244094,0.0282913 -0.0144291,0.193512 0.0297283,0.279713 0.00101181,0.00158268 0.00196063,0.00323228 0.00282283,0.00494882l-0.00011811 5.90551e-005c0.00118898,0.0023622 0.257906,0.515406 0.538409,0.679984 0.038748,-0.0922165 0.0892323,-0.173539 0.151299,-0.234882 0.0794449,-0.0785157 0.177024,-0.124382 0.292488,-0.119902 0.0999567,0.00388189 0.211661,0.0461772 0.334205,0.139035 0.122547,-0.0928583 0.234252,-0.135154 0.334209,-0.139035 0.115457,-0.00448031 0.213043,0.0413898 0.292484,0.119906 0.0576654,0.0569921 0.105335,0.131236 0.142882,0.215441 0.255531,-0.173394 0.483886,-0.613744 0.505965,-0.657094 0.00120866,-0.00290945 0.00269685,-0.00574016 0.00444882,-0.00845669 0.0441575,-0.0862008 0.0321693,-0.251425 0.0297283,-0.279717 -0.00234646,-0.0134606 0.000405512,-0.027811 0.00883465,-0.0399055 0.016937,-0.024311 0.0503819,-0.0302756 0.0746614,-0.0132992 0.235256,0.163898 0.926043,0.19422 1.14723,0.199768 -0.150402,-0.487008 -0.841783,-0.411331 -0.901642,-0.403839 -0.0142165,0.00301969 -0.0296063,0.000299213 -0.0423622,-0.00881102l8.66142e-005 -0.000122047zm-0.678512 -0.39448c-0.0741496,0.589929 -0.654406,0.296579 -0.654406,0.296579 0.0870315,-0.393283 0.654406,-0.296579 0.654406,-0.296579zm-1.87514 0c0,0 0.567374,-0.0967047 0.654406,0.296579 0,0 -0.580256,0.29335 -0.654406,-0.296579z"/>
  <path class="fil1" d="M5.87545 3.86081c-0.258807,-0.0107362 -0.755701,-0.0467244 -1.02302,-0.166961 -0.000417323,0.0621378 -0.00629528,0.143067 -0.0291496,0.208953 0.385685,0.287756 0.833874,0.0895472 1.05217,-0.0419921z"/>
  <path class="fil1" d="M2.00335 3.90274c-0.0228346,-0.065874 -0.0287087,-0.146772 -0.029126,-0.20889 -0.267311,0.120232 -0.764189,0.15622 -1.023,0.166961 0.218299,0.131516 0.666465,0.329665 1.05213,0.0419291z"/>
  <path class="fil0" d="M3.77087 4.32749c-0.0856063,0.00332283 -0.185701,0.0451693 -0.300618,0.138724 -0.019311,0.0187874 -0.0500827,0.0204606 -0.0714016,0.00296457l9.44882e-005 -0.000181102c-0.116354,-0.0955157 -0.217579,-0.138154 -0.304031,-0.141508 -0.0831969,-0.00322835 -0.154618,0.0309213 -0.213693,0.0893031 -0.0631063,0.0623701 -0.112854,0.152138 -0.148677,0.254717 -0.0704685,0.201772 -0.0860276,0.44874 -0.0438543,0.636906 0.0981693,-0.0849961 0.330035,-0.232878 0.745965,-0.220724l0.000795276 -1.5748e-005 0 -6.29921e-005 0.000905512 4.33071e-005c0.41074,-0.0115787 0.64161,0.132972 0.741299,0.218217 0.0414646,-0.18785 0.0257362,-0.433492 -0.0444134,-0.634358 -0.0358228,-0.102579 -0.0855709,-0.192346 -0.148681,-0.254717 -0.0590709,-0.0583819 -0.1305,-0.0925354 -0.213689,-0.0893071zm-0.893299 0.245744c0,0 0.235311,0.315988 0.423563,0.315988 0,0 -0.578197,0.27565 -0.423563,-0.315988zm0.647961 0.315988c0.188252,0 0.423563,-0.315988 0.423563,-0.315988 0.154638,0.591638 -0.423563,0.315988 -0.423563,0.315988z"/>
  <path class="fil0" d="M4.13432 5.33894c-0.0959488,-0.0795157 -0.312268,-0.208728 -0.696787,-0.197835 -0.00120472,0.000125984 -0.00243307,0.000177165 -0.00367323,0.000141732l3.93701e-006 -9.44882e-005c-0.386457,-0.0114449 -0.603457,0.118531 -0.699343,0.198161 0.204409,0.0252165 0.451157,0.0378268 0.69837,0.0378268 0.248453,0 0.496429,-0.0127362 0.701429,-0.0382008z"/>
 </g>
 <rect class="fil2" width="6.82666" height="6.82666"/>
</svg>
