<?xml version="1.0" encoding="UTF-8"?>
<!DOCTYPE svg PUBLIC "-//W3C//DTD SVG 1.1//EN" "http://www.w3.org/Graphics/SVG/1.1/DTD/svg11.dtd">
<!-- Creator: CorelDRAW -->
<svg xmlns="http://www.w3.org/2000/svg" xml:space="preserve" width="6.82666in" height="6.82666in" style="shape-rendering:geometricPrecision; text-rendering:geometricPrecision; image-rendering:optimizeQuality; fill-rule:evenodd; clip-rule:evenodd"
viewBox="0 0 6.82666 6.82666"
 xmlns:xlink="http://www.w3.org/1999/xlink">
 <defs>
  <style type="text/css">
   <![CDATA[
    .fil3 {fill:none}
    .fil2 {fill:#424242}
    .fil0 {fill:#64B5F6}
    .fil1 {fill:#64B5F6;fill-rule:nonzero}
   ]]>
  </style>
 </defs>
 <g id="Layer_x0020_1">
  <metadata id="CorelCorpID_0Corel-Layer"/>
  <ellipse class="fil0" cx="2.13707" cy="3.52755" rx="0.198647" ry="0.140328"/>
  <path class="fil1" d="M1.97452 3.12792c-0.0274882,0.0149685 -0.0376339,0.0493937 -0.0226614,0.0768819 0.0149685,0.0274882 0.0493937,0.0376339 0.0768819,0.0226654 0.0485709,-0.0265079 0.0930827,-0.0408976 0.133677,-0.0452874 0.0614803,-0.00664567 0.115181,0.0102638 0.161126,0.0427087 0.0492795,0.0347953 0.0907126,0.0873898 0.124193,0.148736 0.0546417,0.100122 0.0875551,0.222102 0.0992598,0.330331 0.00646457,0.0597362 0.00803543,0.120543 0.00952756,0.178358 0.00270472,0.104835 0.00517717,0.200657 0.0340591,0.270815 0.00674409,0.0163819 0.0162913,0.0320118 0.0279961,0.0461496 0.0246811,0.0298071 0.0605669,0.0552638 0.101031,0.0688425 0.042122,0.0141299 0.0894606,0.0157126 0.135299,-0.00315748 0.017563,-0.00722835 0.0344882,-0.0172047 0.0503071,-0.0303031 0.0120276,-0.00996063 0.0254213,-0.0244449 0.0398819,-0.0400748 0.024437,-0.0264252 0.054311,-0.0587165 0.0598268,-0.0558937 0.0278583,0.0142283 0.0619843,0.00318898 0.0762165,-0.0246693 0.0142283,-0.0278543 0.00318898,-0.0619843 -0.0246693,-0.0762126 -0.0818346,-0.0418898 -0.14378,0.0250787 -0.19448,0.0798976 -0.0106929,0.011563 -0.0206063,0.0222795 -0.0292126,0.0294055 -0.00713386,0.00590945 -0.0141693,0.0101654 -0.0209803,0.0129685 -0.018252,0.00751181 -0.0380354,0.0065748 -0.0561929,0.000488189 -0.0198031,-0.00664567 -0.0373898,-0.019126 -0.0494803,-0.0337283 -0.00485827,-0.00587008 -0.00850787,-0.0115866 -0.0106614,-0.0168228 -0.0209843,-0.0509685 -0.0231969,-0.136634 -0.0256102,-0.230366 -0.00157874,-0.0611575 -0.00324409,-0.125484 -0.00997638,-0.187701 -0.0130984,-0.121189 -0.0504094,-0.258602 -0.112594,-0.372547 -0.0414331,-0.0759173 -0.0940984,-0.141988 -0.158406,-0.187398 -0.0676339,-0.047752 -0.147047,-0.0725945 -0.238465,-0.0627087 -0.0548346,0.00592913 -0.113504,0.0245748 -0.175894,0.058622z"/>
  <ellipse class="fil0" cx="3.24818" cy="3.38046" rx="0.198647" ry="0.140328"/>
  <path class="fil1" d="M2.97067 4.34162c0.0876929,-0.0201929 0.182201,-0.0117126 0.25976,-0.00475591 0.460945,0.0413465 -0.0224055,0.260594 -0.172913,0.290303 -0.228571,0.0451339 -0.525154,0.0293898 -0.400866,-0.0839528 0.0836535,-0.0762795 0.248311,-0.186469 0.31402,-0.201594z"/>
  <path class="fil1" d="M3.39081 3.13998c0.0276102,0.0147283 0.0619331,0.00427953 0.0766614,-0.0233307 0.0147244,-0.0276102 0.00427953,-0.061937 -0.0233307,-0.0766614 -0.00106693,-0.000570866 -0.372433,-0.20326 -0.56461,0.171484 -0.0142323,0.0278583 -0.00319291,0.0619843 0.0246654,0.0762165 0.0278583,0.0142323 0.0619843,0.00319291 0.0762165,-0.0246654 0.139035,-0.271122 0.409614,-0.123461 0.410398,-0.123043z"/>
  <path class="fil2" d="M4.93429 2.85803l0 0zm1.9685e-005 -0.00026378c0.078252,-0.949894 -0.176894,-1.46495 -0.512626,-1.69244 -0.123559,-0.0837205 -0.258307,-0.128461 -0.391035,-0.141598 -0.132654,-0.013122 -0.263386,0.00541339 -0.37898,0.0482126 -0.0842795,0.0312047 -0.16024,0.0752992 -0.2225,0.129272 -0.00292126,0.00323622 -0.00613386,0.00605906 -0.00955906,0.00846457 -0.190366,0.17211 -0.103941,0.2795 -0.219567,0.39513 -0.124181,-0.124181 0.000913386,-0.330528 0.100795,-0.437512 -0.175453,-0.12437 -0.497358,-0.220917 -0.861409,-0.197984 -0.301902,0.0190157 -0.631102,0.120972 -0.927646,0.358394 -0.220583,0.17661 -0.388929,0.427307 -0.500213,0.725976 -0.114776,0.308047 -0.168673,0.666764 -0.156567,1.04799 0.00776378,0.244543 0.0247323,0.525591 0.0971811,0.821031 0.0720276,0.293717 0.19924,0.602815 0.427669,0.906358 0.481067,0.639244 0.628122,0.932067 0.670008,1.03169 0.662516,-0.00249213 1.53425,-0.00145669 1.78529,-0.00108661 -0.0441575,-0.183106 -0.195996,-0.691287 -0.55698,-0.887465 -0.202665,0.0571102 -0.46874,0.0406457 -0.818429,-0.102236l-0.000185039 0.000220472c-0.00240551,-0.000984252 -0.00470472,-0.00211811 -0.00690157,-0.00337795 -0.0823071,-0.0379724 -1.0824,-0.538976 -0.882736,-2.41591l-0.000122047 -1.5748e-005c0.00332283,-0.0312362 0.0313425,-0.0538661 0.0625827,-0.0505472 0.0199685,0.00212598 0.0364134,0.0143425 0.0448189,0.0310394 0.222126,0.36422 1.40041,0.447984 1.609,0.072622l-0.000161417 -9.44882e-005c0.0139961,-0.0251929 0.0443031,-0.0355945 0.0704173,-0.0253661 0.0397283,0.0142205 0.604752,0.237535 0.571969,1.45201 0.00655512,0.0677008 0.121736,1.1353 0.902854,1.27752 0.209299,-0.0157087 0.414748,-0.0839685 0.592736,-0.189508 0.169272,-0.10037 0.313134,-0.234039 0.411173,-0.387819 0.0966142,-0.151547 0.148713,-0.322925 0.136339,-0.501122 -0.00832677,-0.119929 -0.0460354,-0.243559 -0.119256,-0.367035 -0.214197,-0.361256 -0.65378,-0.505752 -0.821661,-0.549217 0.00274409,0.180598 0.0260709,0.326563 0.0627323,0.44448 0.0672756,0.216386 0.17924,0.336 0.289244,0.401638 0.0465197,0.0277402 0.0643898,0.0864173 0.089315,0.133445 -0.267622,-0.0422835 -0.409,-0.250421 -0.487,-0.501303 -0.0444173,-0.142858 -0.0707244,-0.322579 -0.0677953,-0.548591 -1.1811e-005,-0.0010748 0,-0.00215354 4.72441e-005,-0.00323622 0.00122835,-0.0865669 0.00673622,-0.179909 0.0171496,-0.280551l-0.000110236 -7.87402e-006 8.66142e-005 -0.00120472 2.75591e-005 -0.00026378zm-1.75037 -0.855638l0.0450984 -0.280173 0.127228 0.253665 0.280402 -0.0436969 -0.201937 0.19939 0.128205 0.253177 -0.252031 -0.130437 -0.201169 0.200165 0.0461732 -0.280004 -0.252531 -0.129469 0.280563 -0.0426181z"/>
 </g>
 <rect class="fil3" width="6.82666" height="6.82666"/>
</svg>
