<?xml version="1.0" encoding="UTF-8"?>
<!DOCTYPE svg PUBLIC "-//W3C//DTD SVG 1.1//EN" "http://www.w3.org/Graphics/SVG/1.1/DTD/svg11.dtd">
<!-- Creator: CorelDRAW -->
<svg xmlns="http://www.w3.org/2000/svg" xml:space="preserve" width="6.82666in" height="6.82666in" style="shape-rendering:geometricPrecision; text-rendering:geometricPrecision; image-rendering:optimizeQuality; fill-rule:evenodd; clip-rule:evenodd"
viewBox="0 0 6.82666 6.82666"
 xmlns:xlink="http://www.w3.org/1999/xlink">
 <defs>
  <style type="text/css">
   <![CDATA[
    .fil2 {fill:none}
    .fil1 {fill:#424242}
    .fil0 {fill:#64B5F6}
   ]]>
  </style>
 </defs>
 <g id="Layer_x0020_1">
  <metadata id="CorelCorpID_0Corel-Layer"/>
  <path class="fil0" d="M2.60775 2.08112c0.00135039,-0.643213 -1.09538,-1.21967 -1.09538,-1.21967 0,0 1.07941,-0.169831 1.44967,1.04718 -0.0365669,0.0035748 -0.0739646,0.00819685 -0.109469,0.0159606l-0.0239252 0.00523228 -0.019248 0.0151457c-0.0629252,0.0495157 -0.131961,0.0945118 -0.20165,0.136157z"/>
  <path class="fil0" d="M4.21891 2.08112c-0.00135039,-0.643213 1.09538,-1.21967 1.09538,-1.21967 0,0 -1.07941,-0.169831 -1.44967,1.04718 0.0365669,0.0035748 0.0739646,0.00819685 0.109469,0.0159606l0.0239252 0.00523228 0.019248 0.0151457c0.0629252,0.0495157 0.131961,0.0945118 0.20165,0.136157z"/>
  <path class="fil1" d="M3.41333 5.9672c-0.00561024,0.00235827 -0.0111732,0.00444488 -0.0166535,0.00612598 -0.140846,-0.0433386 -0.330437,-0.319606 -0.330437,-0.319606l0 -0.395441 0.347091 0 0.347091 0 0 0.395441c0,0 -0.189591,0.276268 -0.330437,0.319606 -0.00548031,-0.0016811 -0.0110433,-0.00376772 -0.0166535,-0.00612598z"/>
  <path class="fil1" d="M5.29439 2.70198c-0.271972,-0.106783 -1.00581,-0.407791 -1.3431,-0.673201 -0.0868898,-0.0190039 -0.280886,-0.0290945 -0.481512,-0.0302717l0 2.50119c0,0.00116535 -3.54331e-005,0.00231496 -0.000106299,0.00346063 0.138823,0.0185 0.244193,0.109087 0.244193,0.218047 0,0.122335 -0.132831,0.2215 -0.296689,0.2215 -0.0012874,0 -0.00256693,-2.3622e-005 -0.00385039,-3.54331e-005 -0.00128346,1.1811e-005 -0.00256299,3.54331e-005 -0.00385039,3.54331e-005 -0.163858,0 -0.296689,-0.0991654 -0.296689,-0.2215 0,-0.108961 0.10537,-0.199547 0.244193,-0.218047 -7.08661e-005,-0.00114567 -0.000106299,-0.00229528 -0.000106299,-0.00346063l0 -2.50119c-0.200626,0.00117717 -0.394622,0.0112677 -0.481512,0.0302717 -0.337283,0.265409 -1.07113,0.566417 -1.3431,0.673201l0.849563 0.141531 0.000220472 -7.87402e-005c0.0268268,0.00456693 0.0459843,0.0273583 0.0469567,0.0535157l0.0342047 0.448898 0.000570866 -5.11811e-005 0.226366 1.07007c-0.0205827,1.04263 0.706528,1.00833 0.706528,1.00833 0,0 0.00596063,0.000271654 0.0166535,1.9685e-005 0.0106929,0.000251969 0.0166535,-1.9685e-005 0.0166535,-1.9685e-005 0,0 0.72711,0.0343031 0.706528,-1.00833l0.226366 -1.07007 0.000570866 5.11811e-005 0.0342047 -0.448898c0.000972441,-0.0261575 0.0201299,-0.0489488 0.0469567,-0.0535157l0.000220472 7.87402e-005 0.849563 -0.141531zm-2.94429 0.644075c-0.203094,-0.0115197 -0.631094,-0.091752 -0.888724,-0.541642l0.858531 0.14289 0.0301929 0.398752zm0.286441 -0.385067c0,0 0.41761,-0.0535197 0.414335,0.239217 0,0 -0.399555,0.273421 -0.414335,-0.239217zm1.84001 0.385067c0.203094,-0.0115197 0.631094,-0.091752 0.888724,-0.541642l-0.858531 0.14289 -0.0301929 0.398752zm-0.286441 -0.385067c0,0 -0.41761,-0.0535197 -0.414335,0.239217 0,0 0.399555,0.273421 0.414335,-0.239217z"/>
 </g>
 <rect class="fil2" width="6.82666" height="6.82666"/>
</svg>
